<svg width="398" height="400" viewBox="0 0 398 400" fill="none" xmlns="http://www.w3.org/2000/svg">
<g clip-path="url(#clip0_20287_570)">
<rect x="0.666626" width="397.333" height="400" rx="32" fill="url(#paint0_radial_20287_570)"/>
<rect x="25.0001" y="24" width="349" height="342" rx="20" fill="white"/>
<g clip-path="url(#clip1_20287_570)">
<path d="M62.5001 50.375H47.5001C47.1549 50.375 46.8751 50.6548 46.8751 51V61C46.8751 61.3452 47.1549 61.625 47.5001 61.625H62.5001C62.8453 61.625 63.1251 61.3452 63.1251 61V51C63.1251 50.6548 62.8453 50.375 62.5001 50.375Z" stroke="#8F8F8F" stroke-width="1.5" stroke-linecap="round" stroke-linejoin="round"/>
<path d="M58.1251 59.125H60.6251" stroke="#8F8F8F" stroke-width="1.5" stroke-linecap="round" stroke-linejoin="round"/>
<path d="M54.3751 59.125H55.6251" stroke="#8F8F8F" stroke-width="1.5" stroke-linecap="round" stroke-linejoin="round"/>
<path d="M46.8751 53.5H63.1251" stroke="#8F8F8F" stroke-width="1.5" stroke-linecap="round" stroke-linejoin="round"/>
</g>
<path d="M71.9589 51.7727H73.5569L76.3353 58.5568H76.4376L79.216 51.7727H80.814V60.5H79.5612V54.1847H79.4802L76.9064 60.4872H75.8666L73.2927 54.1804H73.2118V60.5H71.9589V51.7727ZM83.3716 62.9545C83.1812 62.9545 83.0079 62.9389 82.8517 62.9077C82.6954 62.8793 82.579 62.848 82.5023 62.8139L82.8091 61.7699C83.042 61.8324 83.2494 61.8594 83.4312 61.8509C83.6131 61.8423 83.7736 61.7741 83.9128 61.6463C84.0548 61.5185 84.1798 61.3097 84.2878 61.0199L84.4454 60.5852L82.0506 53.9545H83.4142L85.0719 59.0341H85.1401L86.7977 53.9545H88.1656L85.4682 61.3736C85.3432 61.7145 85.1841 62.0028 84.9909 62.2386C84.7977 62.4773 84.5676 62.6563 84.3006 62.7756C84.0335 62.8949 83.7239 62.9545 83.3716 62.9545ZM99.7697 54.6108H98.4402C98.389 54.3267 98.2938 54.0767 98.1546 53.8608C98.0154 53.6449 97.845 53.4616 97.6433 53.3111C97.4416 53.1605 97.2157 53.0469 96.9657 52.9702C96.7186 52.8935 96.4558 52.8551 96.1774 52.8551C95.6745 52.8551 95.2242 52.9815 94.8265 53.2344C94.4316 53.4872 94.1191 53.858 93.889 54.3466C93.6617 54.8352 93.5481 55.4318 93.5481 56.1364C93.5481 56.8466 93.6617 57.446 93.889 57.9347C94.1191 58.4233 94.433 58.7926 94.8308 59.0426C95.2285 59.2926 95.6759 59.4176 96.1731 59.4176C96.4487 59.4176 96.71 59.3807 96.9572 59.3068C97.2072 59.2301 97.433 59.1179 97.6348 58.9702C97.8365 58.8224 98.0069 58.642 98.1461 58.429C98.2882 58.2131 98.3862 57.9659 98.4402 57.6875L99.7697 57.6918C99.6987 58.1207 99.5609 58.5156 99.3563 58.8764C99.1546 59.2344 98.8947 59.544 98.5765 59.8054C98.2612 60.0639 97.9004 60.2642 97.4941 60.4062C97.0879 60.5483 96.6447 60.6193 96.1646 60.6193C95.4089 60.6193 94.7356 60.4403 94.1447 60.0824C93.5538 59.7216 93.0879 59.206 92.747 58.5355C92.4089 57.8651 92.2399 57.0653 92.2399 56.1364C92.2399 55.2045 92.4103 54.4048 92.7512 53.7372C93.0921 53.0668 93.558 52.5526 94.149 52.1946C94.7399 51.8338 95.4117 51.6534 96.1646 51.6534C96.6277 51.6534 97.0595 51.7202 97.46 51.8537C97.8634 51.9844 98.2257 52.1776 98.5467 52.4332C98.8677 52.6861 99.1333 52.9957 99.3436 53.3622C99.5538 53.7259 99.6958 54.142 99.7697 54.6108ZM103.088 60.6449C102.673 60.6449 102.298 60.5682 101.963 60.4148C101.628 60.2585 101.362 60.0327 101.166 59.7372C100.973 59.4418 100.876 59.0795 100.876 58.6506C100.876 58.2812 100.947 57.9773 101.089 57.7386C101.231 57.5 101.423 57.3111 101.665 57.1719C101.906 57.0327 102.176 56.9276 102.474 56.8565C102.773 56.7855 103.077 56.7315 103.386 56.6946C103.778 56.6491 104.096 56.6122 104.341 56.5838C104.585 56.5526 104.763 56.5028 104.873 56.4347C104.984 56.3665 105.04 56.2557 105.04 56.1023V56.0724C105.04 55.7003 104.934 55.4119 104.724 55.2074C104.517 55.0028 104.207 54.9006 103.795 54.9006C103.366 54.9006 103.028 54.9957 102.781 55.1861C102.537 55.3736 102.368 55.5824 102.274 55.8125L101.077 55.5398C101.219 55.142 101.426 54.821 101.699 54.5767C101.974 54.3295 102.291 54.1506 102.649 54.0398C103.007 53.9261 103.383 53.8693 103.778 53.8693C104.04 53.8693 104.317 53.9006 104.609 53.9631C104.905 54.0227 105.18 54.1335 105.436 54.2955C105.694 54.4574 105.906 54.6889 106.071 54.9901C106.236 55.2884 106.318 55.6761 106.318 56.1534V60.5H105.074V59.6051H105.023C104.94 59.7699 104.817 59.9318 104.652 60.0909C104.487 60.25 104.275 60.3821 104.017 60.4872C103.758 60.5923 103.449 60.6449 103.088 60.6449ZM103.365 59.6222C103.717 59.6222 104.018 59.5526 104.268 59.4134C104.521 59.2741 104.713 59.0923 104.844 58.8679C104.977 58.6406 105.044 58.3977 105.044 58.1392V57.2955C104.998 57.3409 104.91 57.3835 104.78 57.4233C104.652 57.4602 104.506 57.4929 104.341 57.5213C104.176 57.5469 104.015 57.571 103.859 57.5938C103.703 57.6136 103.572 57.6307 103.467 57.6449C103.22 57.6761 102.994 57.7287 102.79 57.8026C102.588 57.8764 102.426 57.983 102.304 58.1222C102.184 58.2585 102.125 58.4403 102.125 58.6676C102.125 58.983 102.241 59.2216 102.474 59.3835C102.707 59.5426 103.004 59.6222 103.365 59.6222ZM107.955 60.5V53.9545H109.187V54.9943H109.255C109.374 54.642 109.584 54.3651 109.885 54.1634C110.189 53.9588 110.533 53.8565 110.917 53.8565C110.996 53.8565 111.09 53.8594 111.198 53.8651C111.309 53.8707 111.395 53.8778 111.458 53.8864V55.1051C111.407 55.0909 111.316 55.0753 111.185 55.0582C111.055 55.0384 110.924 55.0284 110.793 55.0284C110.492 55.0284 110.224 55.0923 109.988 55.2202C109.755 55.3452 109.57 55.5199 109.434 55.7443C109.297 55.9659 109.229 56.2187 109.229 56.5028V60.5H107.955ZM114.716 60.6278C114.188 60.6278 113.716 60.4929 113.302 60.223C112.89 59.9503 112.566 59.5625 112.33 59.0597C112.097 58.554 111.981 57.9474 111.981 57.2401C111.981 56.5327 112.099 55.9276 112.334 55.4247C112.573 54.9219 112.9 54.5369 113.314 54.2699C113.729 54.0028 114.199 53.8693 114.725 53.8693C115.131 53.8693 115.458 53.9375 115.705 54.0739C115.955 54.2074 116.148 54.3636 116.285 54.5426C116.424 54.7216 116.532 54.8793 116.609 55.0156H116.685V51.7727H117.959V60.5H116.715V59.4815H116.609C116.532 59.6207 116.421 59.7798 116.276 59.9588C116.134 60.1378 115.938 60.294 115.688 60.4276C115.438 60.5611 115.114 60.6278 114.716 60.6278ZM114.998 59.5412C115.364 59.5412 115.674 59.4446 115.927 59.2514C116.182 59.0554 116.376 58.7841 116.506 58.4375C116.64 58.0909 116.707 57.6875 116.707 57.2273C116.707 56.7727 116.641 56.375 116.511 56.0341C116.38 55.6932 116.188 55.4276 115.935 55.2372C115.682 55.0469 115.37 54.9517 114.998 54.9517C114.614 54.9517 114.295 55.0511 114.039 55.25C113.783 55.4489 113.59 55.7202 113.459 56.0639C113.332 56.4077 113.268 56.7955 113.268 57.2273C113.268 57.6648 113.333 58.0582 113.464 58.4077C113.594 58.7571 113.787 59.0341 114.043 59.2386C114.302 59.4403 114.62 59.5412 114.998 59.5412ZM124.623 55.5526L123.468 55.7571C123.42 55.6094 123.343 55.4687 123.238 55.3352C123.136 55.2017 122.996 55.0923 122.82 55.0071C122.644 54.9219 122.424 54.8793 122.16 54.8793C121.799 54.8793 121.498 54.9602 121.256 55.1222C121.015 55.2812 120.894 55.4872 120.894 55.7401C120.894 55.9588 120.975 56.1349 121.137 56.2685C121.299 56.402 121.56 56.5114 121.921 56.5966L122.961 56.8352C123.563 56.9744 124.012 57.1889 124.307 57.4787C124.603 57.7685 124.751 58.1449 124.751 58.608C124.751 59 124.637 59.3494 124.41 59.6562C124.185 59.9602 123.871 60.1989 123.468 60.3722C123.067 60.5455 122.603 60.6321 122.074 60.6321C121.341 60.6321 120.743 60.4759 120.28 60.1634C119.817 59.848 119.533 59.4006 119.428 58.821L120.66 58.6335C120.736 58.9545 120.894 59.1974 121.133 59.3622C121.371 59.5241 121.682 59.6051 122.066 59.6051C122.484 59.6051 122.817 59.5185 123.067 59.3452C123.317 59.169 123.442 58.9545 123.442 58.7017C123.442 58.4972 123.366 58.3253 123.212 58.1861C123.062 58.0469 122.83 57.9418 122.518 57.8707L121.41 57.6278C120.799 57.4886 120.347 57.267 120.055 56.9631C119.765 56.6591 119.62 56.2741 119.62 55.8082C119.62 55.4219 119.728 55.0838 119.944 54.794C120.16 54.5043 120.458 54.2784 120.839 54.1165C121.219 53.9517 121.655 53.8693 122.147 53.8693C122.854 53.8693 123.411 54.0227 123.817 54.3295C124.224 54.6335 124.492 55.0412 124.623 55.5526Z" fill="black"/>
<g filter="url(#filter0_d_20287_570)">
<rect x="279.25" y="44.25" width="74.5" height="23.5" rx="5.75" stroke="#D0D6E1" stroke-width="0.5" shape-rendering="crispEdges"/>
<g clip-path="url(#clip2_20287_570)">
<path d="M286.875 56H295.125" stroke="#8F8F8F" stroke-width="1.5" stroke-linecap="round" stroke-linejoin="round"/>
<path d="M291 51.875V60.125" stroke="#8F8F8F" stroke-width="1.5" stroke-linecap="round" stroke-linejoin="round"/>
</g>
<path d="M304.413 60H303.249L305.866 52.7273H307.134L309.751 60H308.586L306.53 54.0483H306.473L304.413 60ZM304.609 57.152H308.387V58.0753H304.609V57.152ZM312.62 60.1065C312.18 60.1065 311.787 59.9941 311.441 59.7692C311.098 59.5419 310.828 59.2187 310.631 58.7997C310.437 58.3783 310.34 57.8729 310.34 57.2834C310.34 56.6939 310.438 56.1896 310.635 55.7706C310.834 55.3516 311.106 55.0308 311.452 54.8082C311.797 54.5857 312.189 54.4744 312.627 54.4744C312.966 54.4744 313.238 54.5312 313.444 54.6449C313.652 54.7562 313.813 54.8864 313.927 55.0355C314.043 55.1847 314.133 55.3161 314.197 55.4297H314.26V52.7273H315.322V60H314.285V59.1513H314.197C314.133 59.2673 314.04 59.3999 313.92 59.549C313.801 59.6982 313.638 59.8284 313.43 59.9396C313.221 60.0509 312.951 60.1065 312.62 60.1065ZM312.854 59.201C313.16 59.201 313.418 59.1205 313.628 58.9595C313.841 58.7962 314.002 58.5701 314.111 58.2812C314.223 57.9924 314.278 57.6562 314.278 57.2727C314.278 56.8939 314.224 56.5625 314.115 56.2784C314.006 55.9943 313.846 55.773 313.635 55.6143C313.425 55.4557 313.164 55.3764 312.854 55.3764C312.535 55.3764 312.268 55.4593 312.055 55.625C311.842 55.7907 311.681 56.0168 311.572 56.3033C311.466 56.5897 311.412 56.9129 311.412 57.2727C311.412 57.6373 311.467 57.9652 311.576 58.2564C311.685 58.5476 311.846 58.7784 312.059 58.9489C312.274 59.117 312.539 59.201 312.854 59.201ZM318.83 60.1065C318.389 60.1065 317.996 59.9941 317.651 59.7692C317.307 59.5419 317.037 59.2187 316.841 58.7997C316.647 58.3783 316.55 57.8729 316.55 57.2834C316.55 56.6939 316.648 56.1896 316.845 55.7706C317.043 55.3516 317.316 55.0308 317.661 54.8082C318.007 54.5857 318.399 54.4744 318.837 54.4744C319.175 54.4744 319.448 54.5312 319.653 54.6449C319.862 54.7562 320.023 54.8864 320.136 55.0355C320.252 55.1847 320.342 55.3161 320.406 55.4297H320.47V52.7273H321.532V60H320.495V59.1513H320.406C320.342 59.2673 320.25 59.3999 320.129 59.549C320.011 59.6982 319.848 59.8284 319.639 59.9396C319.431 60.0509 319.161 60.1065 318.83 60.1065ZM319.064 59.201C319.369 59.201 319.627 59.1205 319.838 58.9595C320.051 58.7962 320.212 58.5701 320.321 58.2812C320.432 57.9924 320.488 57.6562 320.488 57.2727C320.488 56.8939 320.434 56.5625 320.325 56.2784C320.216 55.9943 320.056 55.773 319.845 55.6143C319.635 55.4557 319.374 55.3764 319.064 55.3764C318.744 55.3764 318.478 55.4593 318.265 55.625C318.052 55.7907 317.891 56.0168 317.782 56.3033C317.676 56.5897 317.622 56.9129 317.622 57.2727C317.622 57.6373 317.677 57.9652 317.786 58.2564C317.894 58.5476 318.055 58.7784 318.269 58.9489C318.484 59.117 318.749 59.201 319.064 59.201ZM331.72 55.0923H330.612C330.569 54.8556 330.49 54.6473 330.374 54.4673C330.258 54.2874 330.116 54.1347 329.948 54.0092C329.78 53.8838 329.591 53.7891 329.383 53.7251C329.177 53.6612 328.958 53.6293 328.726 53.6293C328.307 53.6293 327.932 53.7346 327.6 53.9453C327.271 54.156 327.011 54.465 326.819 54.8722C326.63 55.2794 326.535 55.7765 326.535 56.3636C326.535 56.9555 326.63 57.455 326.819 57.8622C327.011 58.2694 327.272 58.5772 327.604 58.7855C327.935 58.9938 328.308 59.098 328.723 59.098C328.952 59.098 329.17 59.0672 329.376 59.0057C329.584 58.9418 329.772 58.8482 329.941 58.7251C330.109 58.602 330.251 58.4517 330.367 58.2741C330.485 58.0942 330.567 57.8883 330.612 57.6562L331.72 57.6598C331.661 58.0173 331.546 58.3464 331.375 58.647C331.207 58.9453 330.991 59.2034 330.725 59.4212C330.463 59.6366 330.162 59.8035 329.823 59.9219C329.485 60.0402 329.116 60.0994 328.715 60.0994C328.086 60.0994 327.525 59.9503 327.032 59.652C326.54 59.3513 326.152 58.9216 325.867 58.3629C325.586 57.8042 325.445 57.1378 325.445 56.3636C325.445 55.5871 325.587 54.9207 325.871 54.3643C326.155 53.8056 326.543 53.3771 327.036 53.0788C327.528 52.7782 328.088 52.6278 328.715 52.6278C329.101 52.6278 329.461 52.6835 329.795 52.7947C330.131 52.9036 330.433 53.0646 330.701 53.2777C330.968 53.4884 331.189 53.7464 331.365 54.0518C331.54 54.3549 331.658 54.7017 331.72 55.0923ZM334.485 60.1207C334.139 60.1207 333.827 60.0568 333.547 59.929C333.268 59.7988 333.047 59.6106 332.883 59.3643C332.722 59.1181 332.642 58.8163 332.642 58.4588C332.642 58.151 332.701 57.8977 332.819 57.6989C332.938 57.5 333.098 57.3426 333.299 57.2266C333.5 57.1106 333.725 57.023 333.973 56.9638C334.222 56.9046 334.475 56.8596 334.733 56.8288C335.06 56.791 335.325 56.7602 335.529 56.7365C335.732 56.7105 335.88 56.669 335.973 56.6122C336.065 56.5554 336.111 56.4631 336.111 56.3352V56.3104C336.111 56.0002 336.024 55.7599 335.848 55.5895C335.676 55.419 335.418 55.3338 335.074 55.3338C334.717 55.3338 334.435 55.4131 334.229 55.5717C334.026 55.728 333.885 55.902 333.807 56.0938L332.809 55.8665C332.927 55.535 333.1 55.2675 333.327 55.0639C333.557 54.858 333.821 54.7088 334.119 54.6165C334.417 54.5218 334.731 54.4744 335.06 54.4744C335.278 54.4744 335.509 54.5005 335.753 54.5526C335.999 54.6023 336.228 54.6946 336.442 54.8295C336.657 54.9645 336.833 55.1574 336.971 55.4084C337.108 55.657 337.177 55.9801 337.177 56.3778V60H336.14V59.2543H336.097C336.028 59.3916 335.925 59.5265 335.788 59.6591C335.651 59.7917 335.474 59.9018 335.259 59.9893C335.044 60.0769 334.786 60.1207 334.485 60.1207ZM334.716 59.2685C335.009 59.2685 335.26 59.2105 335.469 59.0945C335.679 58.9785 335.839 58.8269 335.948 58.6399C336.059 58.4505 336.115 58.2481 336.115 58.0327V57.3295C336.077 57.3674 336.004 57.4029 335.895 57.4361C335.788 57.4669 335.666 57.4941 335.529 57.5178C335.392 57.5391 335.258 57.5592 335.128 57.5781C334.997 57.5947 334.888 57.6089 334.801 57.6207C334.595 57.6468 334.407 57.6906 334.236 57.7521C334.068 57.8137 333.933 57.9025 333.831 58.0185C333.732 58.1321 333.682 58.2836 333.682 58.473C333.682 58.7358 333.779 58.9347 333.973 59.0696C334.168 59.2022 334.415 59.2685 334.716 59.2685ZM338.541 60V54.5455H339.567V55.4119H339.624C339.723 55.1184 339.899 54.8875 340.15 54.7195C340.403 54.549 340.689 54.4638 341.009 54.4638C341.075 54.4638 341.153 54.4661 341.243 54.4709C341.336 54.4756 341.408 54.4815 341.46 54.4886V55.5043C341.417 55.4924 341.342 55.4794 341.233 55.4652C341.124 55.4486 341.015 55.4403 340.906 55.4403C340.655 55.4403 340.431 55.4936 340.235 55.6001C340.041 55.7043 339.887 55.8499 339.773 56.0369C339.659 56.2216 339.603 56.4323 339.603 56.669V60H338.541ZM344.175 60.1065C343.735 60.1065 343.342 59.9941 342.996 59.7692C342.653 59.5419 342.383 59.2187 342.187 58.7997C341.993 58.3783 341.896 57.8729 341.896 57.2834C341.896 56.6939 341.994 56.1896 342.19 55.7706C342.389 55.3516 342.661 55.0308 343.007 54.8082C343.353 54.5857 343.744 54.4744 344.182 54.4744C344.521 54.4744 344.793 54.5312 344.999 54.6449C345.208 54.7562 345.369 54.8864 345.482 55.0355C345.598 55.1847 345.688 55.3161 345.752 55.4297H345.816V52.7273H346.878V60H345.841V59.1513H345.752C345.688 59.2673 345.596 59.3999 345.475 59.549C345.357 59.6982 345.193 59.8284 344.985 59.9396C344.777 60.0509 344.507 60.1065 344.175 60.1065ZM344.41 59.201C344.715 59.201 344.973 59.1205 345.184 58.9595C345.397 58.7962 345.558 58.5701 345.667 58.2812C345.778 57.9924 345.834 57.6562 345.834 57.2727C345.834 56.8939 345.779 56.5625 345.67 56.2784C345.561 55.9943 345.402 55.773 345.191 55.6143C344.98 55.4557 344.72 55.3764 344.41 55.3764C344.09 55.3764 343.824 55.4593 343.611 55.625C343.398 55.7907 343.237 56.0168 343.128 56.3033C343.021 56.5897 342.968 56.9129 342.968 57.2727C342.968 57.6373 343.022 57.9652 343.131 58.2564C343.24 58.5476 343.401 58.7784 343.614 58.9489C343.83 59.117 344.095 59.201 344.41 59.201Z" fill="black"/>
</g>
<rect x="45.0001" y="84" width="309" height="144" rx="20" fill="#93CCFD"/>
<rect x="45.0001" y="84" width="309" height="144" rx="20" fill="url(#paint1_radial_20287_570)" fill-opacity="0.7"/>
<path d="M66.8297 165.455C66.7785 165.023 66.5711 164.688 66.2075 164.449C65.8439 164.21 65.3978 164.091 64.8694 164.091C64.4831 164.091 64.145 164.153 63.8552 164.278C63.5683 164.403 63.3439 164.575 63.1819 164.794C63.0228 165.013 62.9433 165.261 62.9433 165.54C62.9433 165.773 62.9987 165.973 63.1095 166.141C63.2231 166.305 63.368 166.443 63.5442 166.554C63.7203 166.662 63.905 166.751 64.0981 166.822C64.2913 166.891 64.4689 166.946 64.6308 166.989L65.5172 167.227C65.7444 167.287 65.9973 167.369 66.2757 167.474C66.5569 167.58 66.8254 167.723 67.0811 167.905C67.3396 168.084 67.5527 168.314 67.7203 168.595C67.8879 168.876 67.9717 169.222 67.9717 169.631C67.9717 170.102 67.8481 170.528 67.601 170.909C67.3567 171.29 66.9987 171.592 66.5271 171.817C66.0584 172.041 65.4888 172.153 64.8183 172.153C64.1933 172.153 63.6521 172.053 63.1947 171.851C62.7402 171.649 62.3822 171.368 62.1209 171.007C61.8623 170.646 61.716 170.227 61.6819 169.75H62.7728C62.8013 170.08 62.9121 170.352 63.1052 170.568C63.3013 170.781 63.5484 170.94 63.8467 171.045C64.1478 171.148 64.4717 171.199 64.8183 171.199C65.2217 171.199 65.5839 171.134 65.905 171.003C66.226 170.869 66.4802 170.685 66.6677 170.449C66.8552 170.21 66.949 169.932 66.949 169.614C66.949 169.324 66.868 169.088 66.7061 168.906C66.5442 168.724 66.3311 168.577 66.0669 168.463C65.8027 168.349 65.5172 168.25 65.2103 168.165L64.1365 167.858C63.4547 167.662 62.9149 167.382 62.5172 167.018C62.1194 166.655 61.9206 166.179 61.9206 165.591C61.9206 165.102 62.0527 164.676 62.3169 164.312C62.5839 163.946 62.9419 163.662 63.3907 163.46C63.8425 163.256 64.3467 163.153 64.9035 163.153C65.466 163.153 65.966 163.254 66.4035 163.456C66.841 163.655 67.1876 163.928 67.4433 164.274C67.7018 164.621 67.8382 165.014 67.8524 165.455H66.8297ZM71.4391 172.153C71.0243 172.153 70.6479 172.075 70.3098 171.919C69.9717 171.76 69.7033 171.531 69.5044 171.233C69.3055 170.932 69.2061 170.568 69.2061 170.142C69.2061 169.767 69.28 169.463 69.4277 169.23C69.5754 168.994 69.7729 168.81 70.02 168.676C70.2672 168.543 70.5399 168.443 70.8382 168.378C71.1393 168.31 71.4419 168.256 71.7459 168.216C72.1436 168.165 72.466 168.126 72.7132 168.101C72.9632 168.072 73.145 168.026 73.2587 167.96C73.3751 167.895 73.4334 167.781 73.4334 167.619V167.585C73.4334 167.165 73.3183 166.838 73.0882 166.605C72.8609 166.372 72.5158 166.256 72.0527 166.256C71.5726 166.256 71.1962 166.361 70.9234 166.571C70.6507 166.781 70.4589 167.006 70.3481 167.244L69.3936 166.903C69.5641 166.506 69.7913 166.196 70.0754 165.974C70.3624 165.75 70.6749 165.594 71.0129 165.506C71.3538 165.415 71.6891 165.369 72.0186 165.369C72.2288 165.369 72.4703 165.395 72.743 165.446C73.0186 165.494 73.2842 165.595 73.5399 165.749C73.7984 165.902 74.0129 166.134 74.1834 166.443C74.3538 166.753 74.4391 167.168 74.4391 167.688V172H73.4334V171.114H73.3822C73.3141 171.256 73.2004 171.408 73.0413 171.57C72.8822 171.732 72.6706 171.869 72.4064 171.983C72.1422 172.097 71.8197 172.153 71.4391 172.153ZM71.5925 171.25C71.9902 171.25 72.3254 171.172 72.5981 171.016C72.8737 170.859 73.0811 170.658 73.2203 170.411C73.3624 170.163 73.4334 169.903 73.4334 169.631V168.71C73.3908 168.761 73.297 168.808 73.1521 168.851C73.0101 168.891 72.8453 168.926 72.6578 168.957C72.4731 168.986 72.2928 169.011 72.1166 169.034C71.9433 169.054 71.8027 169.071 71.6947 169.085C71.4334 169.119 71.1891 169.175 70.9618 169.251C70.7374 169.325 70.5555 169.437 70.4163 169.588C70.28 169.736 70.2118 169.937 70.2118 170.193C70.2118 170.543 70.341 170.807 70.5996 170.986C70.8609 171.162 71.1919 171.25 71.5925 171.25ZM81.3325 165.455L78.9121 172H77.8894L75.4689 165.455H76.5598L78.3666 170.67H78.4348L80.2416 165.455H81.3325ZM82.6 172V165.455H83.6056V172H82.6ZM83.1113 164.364C82.9153 164.364 82.7463 164.297 82.6042 164.163C82.465 164.03 82.3954 163.869 82.3954 163.682C82.3954 163.494 82.465 163.334 82.6042 163.2C82.7463 163.067 82.9153 163 83.1113 163C83.3073 163 83.475 163.067 83.6142 163.2C83.7562 163.334 83.8272 163.494 83.8272 163.682C83.8272 163.869 83.7562 164.03 83.6142 164.163C83.475 164.297 83.3073 164.364 83.1113 164.364ZM86.3933 168.062V172H85.3876V165.455H86.3592V166.477H86.4444C86.5978 166.145 86.8308 165.878 87.1433 165.676C87.4558 165.472 87.8592 165.369 88.3535 165.369C88.7967 165.369 89.1845 165.46 89.5169 165.642C89.8493 165.821 90.1078 166.094 90.2924 166.46C90.4771 166.824 90.5694 167.284 90.5694 167.841V172H89.5637V167.909C89.5637 167.395 89.4302 166.994 89.1632 166.707C88.8961 166.418 88.5297 166.273 88.0637 166.273C87.7427 166.273 87.4558 166.342 87.2029 166.482C86.9529 166.621 86.7555 166.824 86.6106 167.091C86.4657 167.358 86.3933 167.682 86.3933 168.062ZM94.9892 174.591C94.5034 174.591 94.0858 174.528 93.7363 174.403C93.3869 174.281 93.0957 174.119 92.8628 173.918C92.6327 173.719 92.4494 173.506 92.313 173.278L93.1142 172.716C93.2051 172.835 93.3202 172.972 93.4594 173.125C93.5986 173.281 93.7889 173.416 94.0304 173.53C94.2747 173.646 94.5943 173.705 94.9892 173.705C95.5176 173.705 95.9537 173.577 96.2974 173.321C96.6412 173.065 96.813 172.665 96.813 172.119V170.79H96.7278C96.654 170.909 96.5488 171.057 96.4125 171.233C96.279 171.406 96.0858 171.561 95.8329 171.697C95.5829 171.831 95.2449 171.898 94.8187 171.898C94.2903 171.898 93.8159 171.773 93.3954 171.523C92.9778 171.273 92.6469 170.909 92.4025 170.432C92.1611 169.955 92.0403 169.375 92.0403 168.693C92.0403 168.023 92.1582 167.439 92.394 166.942C92.6298 166.442 92.9579 166.055 93.3784 165.783C93.7988 165.507 94.2846 165.369 94.8358 165.369C95.2619 165.369 95.6 165.44 95.85 165.582C96.1028 165.722 96.296 165.881 96.4295 166.06C96.5659 166.236 96.671 166.381 96.7449 166.494H96.8471V165.455H97.8187V172.188C97.8187 172.75 97.6909 173.207 97.4352 173.56C97.1824 173.915 96.8415 174.175 96.4125 174.339C95.9863 174.507 95.5119 174.591 94.9892 174.591ZM94.9551 170.994C95.3585 170.994 95.6994 170.902 95.9778 170.717C96.2562 170.533 96.4679 170.267 96.6128 169.92C96.7577 169.574 96.8301 169.159 96.8301 168.676C96.8301 168.205 96.7591 167.788 96.617 167.428C96.475 167.067 96.2648 166.784 95.9863 166.58C95.7079 166.375 95.3642 166.273 94.9551 166.273C94.529 166.273 94.1738 166.381 93.8898 166.597C93.6085 166.812 93.3969 167.102 93.2548 167.466C93.1156 167.83 93.046 168.233 93.046 168.676C93.046 169.131 93.117 169.533 93.2591 169.882C93.404 170.229 93.617 170.501 93.8983 170.7C94.1824 170.896 94.5346 170.994 94.9551 170.994ZM104.236 166.92L103.333 167.176C103.276 167.026 103.192 166.879 103.081 166.737C102.973 166.592 102.825 166.473 102.638 166.379C102.45 166.286 102.21 166.239 101.918 166.239C101.517 166.239 101.183 166.331 100.916 166.516C100.652 166.697 100.52 166.929 100.52 167.21C100.52 167.46 100.611 167.658 100.793 167.803C100.975 167.947 101.259 168.068 101.645 168.165L102.617 168.403C103.202 168.545 103.638 168.763 103.925 169.055C104.212 169.345 104.355 169.719 104.355 170.176C104.355 170.551 104.247 170.886 104.031 171.182C103.818 171.477 103.52 171.71 103.137 171.881C102.753 172.051 102.307 172.136 101.799 172.136C101.131 172.136 100.578 171.991 100.141 171.702C99.7033 171.412 99.4263 170.989 99.3099 170.432L100.264 170.193C100.355 170.545 100.527 170.81 100.78 170.986C101.036 171.162 101.37 171.25 101.781 171.25C102.25 171.25 102.622 171.151 102.898 170.952C103.176 170.75 103.316 170.509 103.316 170.227C103.316 170 103.236 169.81 103.077 169.656C102.918 169.5 102.674 169.384 102.344 169.307L101.253 169.051C100.654 168.909 100.213 168.689 99.932 168.391C99.6536 168.089 99.5144 167.713 99.5144 167.261C99.5144 166.892 99.6181 166.565 99.8255 166.281C100.036 165.997 100.321 165.774 100.682 165.612C101.046 165.45 101.458 165.369 101.918 165.369C102.566 165.369 103.074 165.511 103.443 165.795C103.816 166.08 104.08 166.455 104.236 166.92ZM116.283 166H115.226C115.164 165.696 115.055 165.429 114.898 165.199C114.745 164.969 114.557 164.776 114.336 164.619C114.117 164.46 113.874 164.341 113.607 164.261C113.34 164.182 113.062 164.142 112.772 164.142C112.243 164.142 111.765 164.276 111.336 164.543C110.91 164.81 110.57 165.203 110.317 165.723C110.067 166.243 109.942 166.881 109.942 167.636C109.942 168.392 110.067 169.03 110.317 169.55C110.57 170.07 110.91 170.463 111.336 170.73C111.765 170.997 112.243 171.131 112.772 171.131C113.062 171.131 113.34 171.091 113.607 171.011C113.874 170.932 114.117 170.814 114.336 170.658C114.557 170.499 114.745 170.304 114.898 170.074C115.055 169.841 115.164 169.574 115.226 169.273H116.283C116.204 169.719 116.059 170.118 115.849 170.47C115.638 170.822 115.377 171.122 115.065 171.369C114.752 171.614 114.401 171.8 114.012 171.928C113.626 172.055 113.212 172.119 112.772 172.119C112.028 172.119 111.366 171.938 110.786 171.574C110.207 171.21 109.751 170.693 109.418 170.023C109.086 169.352 108.92 168.557 108.92 167.636C108.92 166.716 109.086 165.92 109.418 165.25C109.751 164.58 110.207 164.062 110.786 163.699C111.366 163.335 112.028 163.153 112.772 163.153C113.212 163.153 113.626 163.217 114.012 163.345C114.401 163.473 114.752 163.661 115.065 163.908C115.377 164.152 115.638 164.45 115.849 164.803C116.059 165.152 116.204 165.551 116.283 166ZM119.721 172.153C119.306 172.153 118.93 172.075 118.592 171.919C118.253 171.76 117.985 171.531 117.786 171.233C117.587 170.932 117.488 170.568 117.488 170.142C117.488 169.767 117.562 169.463 117.709 169.23C117.857 168.994 118.055 168.81 118.302 168.676C118.549 168.543 118.822 168.443 119.12 168.378C119.421 168.31 119.724 168.256 120.028 168.216C120.425 168.165 120.748 168.126 120.995 168.101C121.245 168.072 121.427 168.026 121.54 167.96C121.657 167.895 121.715 167.781 121.715 167.619V167.585C121.715 167.165 121.6 166.838 121.37 166.605C121.143 166.372 120.797 166.256 120.334 166.256C119.854 166.256 119.478 166.361 119.205 166.571C118.932 166.781 118.741 167.006 118.63 167.244L117.675 166.903C117.846 166.506 118.073 166.196 118.357 165.974C118.644 165.75 118.957 165.594 119.295 165.506C119.636 165.415 119.971 165.369 120.3 165.369C120.511 165.369 120.752 165.395 121.025 165.446C121.3 165.494 121.566 165.595 121.822 165.749C122.08 165.902 122.295 166.134 122.465 166.443C122.636 166.753 122.721 167.168 122.721 167.688V172H121.715V171.114H121.664C121.596 171.256 121.482 171.408 121.323 171.57C121.164 171.732 120.952 171.869 120.688 171.983C120.424 172.097 120.101 172.153 119.721 172.153ZM119.874 171.25C120.272 171.25 120.607 171.172 120.88 171.016C121.155 170.859 121.363 170.658 121.502 170.411C121.644 170.163 121.715 169.903 121.715 169.631V168.71C121.672 168.761 121.579 168.808 121.434 168.851C121.292 168.891 121.127 168.926 120.94 168.957C120.755 168.986 120.574 169.011 120.398 169.034C120.225 169.054 120.084 169.071 119.976 169.085C119.715 169.119 119.471 169.175 119.244 169.251C119.019 169.325 118.837 169.437 118.698 169.588C118.562 169.736 118.494 169.937 118.494 170.193C118.494 170.543 118.623 170.807 118.881 170.986C119.143 171.162 119.474 171.25 119.874 171.25ZM124.496 172V165.455H125.468V166.443H125.536C125.655 166.119 125.871 165.857 126.184 165.655C126.496 165.453 126.849 165.352 127.241 165.352C127.315 165.352 127.407 165.354 127.518 165.357C127.628 165.359 127.712 165.364 127.769 165.369V166.392C127.735 166.384 127.657 166.371 127.535 166.354C127.415 166.334 127.289 166.324 127.155 166.324C126.837 166.324 126.553 166.391 126.303 166.524C126.056 166.655 125.86 166.837 125.715 167.07C125.573 167.3 125.502 167.562 125.502 167.858V172H124.496ZM131.174 172.136C130.628 172.136 130.147 171.999 129.729 171.723C129.311 171.445 128.985 171.053 128.749 170.547C128.513 170.038 128.395 169.438 128.395 168.744C128.395 168.057 128.513 167.46 128.749 166.955C128.985 166.449 129.313 166.058 129.733 165.783C130.154 165.507 130.639 165.369 131.191 165.369C131.617 165.369 131.953 165.44 132.201 165.582C132.451 165.722 132.641 165.881 132.772 166.06C132.905 166.236 133.009 166.381 133.083 166.494H133.168V163.273H134.174V172H133.202V170.994H133.083C133.009 171.114 132.904 171.264 132.767 171.446C132.631 171.625 132.436 171.786 132.184 171.928C131.931 172.067 131.594 172.136 131.174 172.136ZM131.31 171.233C131.713 171.233 132.054 171.128 132.333 170.918C132.611 170.705 132.823 170.411 132.968 170.036C133.112 169.658 133.185 169.222 133.185 168.727C133.185 168.239 133.114 167.811 132.972 167.445C132.83 167.075 132.62 166.788 132.341 166.584C132.063 166.376 131.719 166.273 131.31 166.273C130.884 166.273 130.529 166.382 130.245 166.601C129.963 166.817 129.752 167.111 129.61 167.483C129.47 167.852 129.401 168.267 129.401 168.727C129.401 169.193 129.472 169.616 129.614 169.997C129.759 170.375 129.972 170.676 130.253 170.901C130.537 171.122 130.889 171.233 131.31 171.233Z" fill="black"/>
<path d="M68.1763 208.182V186.364H69.574V208.182H68.1763ZM72.2075 193.344C72.128 192.599 71.7927 192.02 71.2018 191.605C70.6166 191.19 69.8552 190.983 68.9177 190.983C68.2586 190.983 67.6933 191.082 67.2217 191.281C66.7501 191.48 66.3893 191.75 66.1393 192.091C65.8893 192.432 65.7615 192.821 65.7558 193.259C65.7558 193.622 65.8382 193.937 66.003 194.205C66.1734 194.472 66.4035 194.699 66.6933 194.886C66.9831 195.068 67.3041 195.222 67.6564 195.347C68.0086 195.472 68.3638 195.577 68.7217 195.662L70.3581 196.071C71.0172 196.224 71.6507 196.432 72.2586 196.693C72.8723 196.955 73.4206 197.284 73.9035 197.682C74.3922 198.08 74.7785 198.56 75.0626 199.122C75.3467 199.685 75.4888 200.344 75.4888 201.099C75.4888 202.122 75.2274 203.023 74.7047 203.801C74.1819 204.574 73.4263 205.179 72.4376 205.616C71.4547 206.048 70.2643 206.264 68.8666 206.264C67.5086 206.264 66.3297 206.054 65.3297 205.634C64.3353 205.213 63.5569 204.599 62.9944 203.793C62.4376 202.986 62.1365 202.003 62.091 200.844H65.2018C65.2473 201.452 65.4348 201.957 65.7643 202.361C66.0939 202.764 66.5228 203.065 67.0513 203.264C67.5853 203.463 68.1819 203.562 68.841 203.562C69.5285 203.562 70.1308 203.46 70.6478 203.256C71.1706 203.045 71.5797 202.756 71.8751 202.386C72.1706 202.011 72.3211 201.574 72.3268 201.074C72.3211 200.619 72.1876 200.244 71.9263 199.949C71.6649 199.648 71.2984 199.398 70.8268 199.199C70.3609 198.994 69.8155 198.812 69.1905 198.653L67.2047 198.142C65.7672 197.773 64.6308 197.213 63.7956 196.463C62.966 195.707 62.5513 194.705 62.5513 193.455C62.5513 192.426 62.8297 191.526 63.3865 190.753C63.949 189.98 64.7132 189.381 65.6791 188.955C66.645 188.523 67.7388 188.307 68.9603 188.307C70.199 188.307 71.2842 188.523 72.216 188.955C73.1535 189.381 73.8893 189.974 74.4234 190.736C74.9575 191.491 75.2331 192.361 75.2501 193.344H72.2075ZM85.1166 188.545V206H81.9547V191.622H81.8524L77.77 194.23V191.332L82.1081 188.545H85.1166ZM95.8205 206.239C94.9853 206.233 94.1699 206.088 93.3745 205.804C92.579 205.514 91.8631 205.045 91.2267 204.398C90.5904 203.744 90.0847 202.878 89.7097 201.798C89.3347 200.713 89.15 199.369 89.1557 197.767C89.1557 196.273 89.3148 194.94 89.633 193.77C89.9512 192.599 90.4086 191.611 91.0052 190.804C91.6017 189.991 92.3205 189.372 93.1614 188.946C94.008 188.52 94.954 188.307 95.9995 188.307C97.0961 188.307 98.0677 188.523 98.9142 188.955C99.7665 189.386 100.454 189.977 100.977 190.727C101.499 191.472 101.823 192.312 101.948 193.25H98.8375C98.6784 192.58 98.3517 192.045 97.8574 191.648C97.3688 191.244 96.7495 191.043 95.9995 191.043C94.7892 191.043 93.8574 191.568 93.204 192.619C92.5563 193.67 92.2296 195.114 92.2239 196.949H92.3432C92.6216 196.449 92.9824 196.02 93.4256 195.662C93.8688 195.304 94.3688 195.028 94.9256 194.835C95.4881 194.636 96.0819 194.537 96.7069 194.537C97.7296 194.537 98.6472 194.781 99.4597 195.27C100.278 195.759 100.926 196.432 101.403 197.29C101.88 198.142 102.116 199.119 102.11 200.222C102.116 201.369 101.855 202.401 101.326 203.315C100.798 204.224 100.062 204.94 99.1188 205.463C98.1756 205.986 97.0762 206.244 95.8205 206.239ZM95.8034 203.682C96.4228 203.682 96.9767 203.531 97.4654 203.23C97.954 202.929 98.3404 202.523 98.6245 202.011C98.9086 201.5 99.0478 200.926 99.0421 200.29C99.0478 199.665 98.9114 199.099 98.633 198.594C98.3603 198.088 97.9824 197.687 97.4995 197.392C97.0165 197.097 96.4654 196.949 95.8461 196.949C95.3858 196.949 94.9569 197.037 94.5591 197.213C94.1614 197.389 93.8148 197.634 93.5194 197.946C93.2239 198.253 92.9909 198.611 92.8205 199.02C92.6557 199.423 92.5705 199.855 92.5648 200.315C92.5705 200.923 92.7125 201.483 92.9909 201.994C93.2694 202.506 93.6529 202.915 94.1415 203.222C94.6302 203.528 95.1841 203.682 95.8034 203.682ZM107.777 203.614L107.666 204.551C107.587 205.267 107.445 205.994 107.24 206.733C107.041 207.477 106.831 208.162 106.61 208.787C106.388 209.412 106.209 209.903 106.073 210.261H103.993C104.073 209.915 104.181 209.443 104.317 208.847C104.459 208.25 104.595 207.58 104.726 206.835C104.857 206.091 104.945 205.335 104.99 204.568L105.05 203.614H107.777ZM116.851 206.332C115.448 206.332 114.243 205.977 113.237 205.267C112.237 204.551 111.468 203.52 110.928 202.173C110.394 200.821 110.127 199.193 110.127 197.29C110.132 195.386 110.402 193.767 110.936 192.432C111.476 191.091 112.246 190.068 113.246 189.364C114.252 188.659 115.453 188.307 116.851 188.307C118.249 188.307 119.451 188.659 120.456 189.364C121.462 190.068 122.232 191.091 122.766 192.432C123.306 193.773 123.576 195.392 123.576 197.29C123.576 199.199 123.306 200.83 122.766 202.182C122.232 203.528 121.462 204.557 120.456 205.267C119.456 205.977 118.254 206.332 116.851 206.332ZM116.851 203.665C117.942 203.665 118.803 203.128 119.433 202.054C120.07 200.974 120.388 199.386 120.388 197.29C120.388 195.903 120.243 194.739 119.953 193.795C119.664 192.852 119.254 192.142 118.726 191.665C118.198 191.182 117.573 190.94 116.851 190.94C115.766 190.94 114.908 191.48 114.277 192.56C113.647 193.634 113.328 195.21 113.323 197.29C113.317 198.682 113.456 199.852 113.74 200.801C114.03 201.75 114.439 202.466 114.968 202.949C115.496 203.426 116.124 203.665 116.851 203.665ZM132.355 206.239C131.219 206.239 130.202 206.026 129.304 205.599C128.407 205.168 127.693 204.577 127.165 203.827C126.642 203.077 126.364 202.219 126.33 201.253H129.398C129.455 201.969 129.764 202.554 130.327 203.009C130.889 203.457 131.566 203.682 132.355 203.682C132.975 203.682 133.526 203.54 134.009 203.256C134.492 202.972 134.872 202.577 135.151 202.071C135.429 201.565 135.566 200.989 135.56 200.341C135.566 199.682 135.426 199.097 135.142 198.585C134.858 198.074 134.469 197.673 133.975 197.384C133.48 197.088 132.912 196.94 132.27 196.94C131.747 196.935 131.233 197.031 130.728 197.23C130.222 197.429 129.821 197.69 129.526 198.014L126.671 197.545L127.583 188.545H137.708V191.188H130.199L129.696 195.815H129.799C130.122 195.435 130.58 195.119 131.171 194.869C131.762 194.614 132.409 194.486 133.114 194.486C134.171 194.486 135.114 194.736 135.943 195.236C136.773 195.73 137.426 196.412 137.904 197.281C138.381 198.151 138.62 199.145 138.62 200.264C138.62 201.418 138.353 202.446 137.818 203.349C137.29 204.247 136.554 204.955 135.611 205.472C134.674 205.983 133.588 206.239 132.355 206.239ZM147.806 206.332C146.403 206.332 145.198 205.977 144.193 205.267C143.193 204.551 142.423 203.52 141.883 202.173C141.349 200.821 141.082 199.193 141.082 197.29C141.088 195.386 141.358 193.767 141.892 192.432C142.431 191.091 143.201 190.068 144.201 189.364C145.207 188.659 146.409 188.307 147.806 188.307C149.204 188.307 150.406 188.659 151.412 189.364C152.417 190.068 153.187 191.091 153.721 192.432C154.261 193.773 154.531 195.392 154.531 197.29C154.531 199.199 154.261 200.83 153.721 202.182C153.187 203.528 152.417 204.557 151.412 205.267C150.412 205.977 149.21 206.332 147.806 206.332ZM147.806 203.665C148.897 203.665 149.758 203.128 150.389 202.054C151.025 200.974 151.343 199.386 151.343 197.29C151.343 195.903 151.198 194.739 150.909 193.795C150.619 192.852 150.21 192.142 149.681 191.665C149.153 191.182 148.528 190.94 147.806 190.94C146.721 190.94 145.863 191.48 145.233 192.56C144.602 193.634 144.284 195.21 144.278 197.29C144.272 198.682 144.412 199.852 144.696 200.801C144.985 201.75 145.394 202.466 145.923 202.949C146.451 203.426 147.079 203.665 147.806 203.665ZM158.497 206.188C157.98 206.188 157.537 206.006 157.168 205.642C156.799 205.278 156.617 204.835 156.622 204.312C156.617 203.801 156.799 203.364 157.168 203C157.537 202.636 157.98 202.455 158.497 202.455C158.997 202.455 159.432 202.636 159.801 203C160.176 203.364 160.367 203.801 160.372 204.312C160.367 204.659 160.276 204.974 160.1 205.259C159.929 205.543 159.702 205.77 159.418 205.94C159.14 206.105 158.833 206.188 158.497 206.188Z" fill="black"/>
<path d="M168.952 206.239C167.685 206.239 166.56 206.026 165.577 205.599C164.6 205.173 163.833 204.591 163.276 203.852C162.725 203.108 162.452 202.264 162.458 201.321C162.452 200.588 162.611 199.915 162.935 199.301C163.259 198.688 163.696 198.176 164.248 197.767C164.804 197.352 165.424 197.088 166.105 196.974V196.855C165.208 196.656 164.48 196.199 163.924 195.483C163.373 194.761 163.1 193.929 163.105 192.986C163.1 192.088 163.35 191.287 163.855 190.582C164.361 189.878 165.054 189.324 165.935 188.92C166.816 188.511 167.821 188.307 168.952 188.307C170.071 188.307 171.069 188.511 171.944 188.92C172.824 189.324 173.517 189.878 174.023 190.582C174.534 191.287 174.79 192.088 174.79 192.986C174.79 193.929 174.509 194.761 173.946 195.483C173.39 196.199 172.671 196.656 171.79 196.855V196.974C172.472 197.088 173.086 197.352 173.631 197.767C174.182 198.176 174.62 198.688 174.944 199.301C175.273 199.915 175.438 200.588 175.438 201.321C175.438 202.264 175.159 203.108 174.603 203.852C174.046 204.591 173.279 205.173 172.301 205.599C171.33 206.026 170.213 206.239 168.952 206.239ZM168.952 203.801C169.605 203.801 170.174 203.69 170.657 203.469C171.14 203.241 171.515 202.923 171.782 202.514C172.049 202.105 172.185 201.634 172.191 201.099C172.185 200.543 172.04 200.051 171.756 199.625C171.478 199.193 171.094 198.855 170.605 198.611C170.123 198.366 169.571 198.244 168.952 198.244C168.327 198.244 167.77 198.366 167.282 198.611C166.793 198.855 166.407 199.193 166.123 199.625C165.844 200.051 165.708 200.543 165.713 201.099C165.708 201.634 165.838 202.105 166.105 202.514C166.373 202.918 166.748 203.233 167.23 203.46C167.719 203.687 168.293 203.801 168.952 203.801ZM168.952 195.849C169.486 195.849 169.958 195.741 170.367 195.526C170.782 195.31 171.108 195.009 171.347 194.622C171.586 194.236 171.708 193.79 171.713 193.284C171.708 192.784 171.588 192.347 171.355 191.972C171.123 191.591 170.799 191.298 170.384 191.094C169.969 190.884 169.492 190.778 168.952 190.778C168.401 190.778 167.915 190.884 167.495 191.094C167.08 191.298 166.756 191.591 166.523 191.972C166.296 192.347 166.185 192.784 166.191 193.284C166.185 193.79 166.299 194.236 166.532 194.622C166.77 195.003 167.097 195.304 167.512 195.526C167.932 195.741 168.412 195.849 168.952 195.849ZM184.179 188.307C185.015 188.312 185.827 188.46 186.617 188.75C187.412 189.034 188.128 189.5 188.765 190.148C189.401 190.79 189.907 191.651 190.282 192.73C190.657 193.81 190.844 195.145 190.844 196.736C190.85 198.236 190.691 199.577 190.367 200.759C190.049 201.935 189.591 202.929 188.995 203.741C188.398 204.554 187.679 205.173 186.838 205.599C185.998 206.026 185.052 206.239 184 206.239C182.898 206.239 181.921 206.023 181.069 205.591C180.222 205.159 179.537 204.568 179.015 203.818C178.492 203.068 178.171 202.21 178.052 201.244H181.162C181.321 201.937 181.645 202.489 182.134 202.898C182.628 203.301 183.25 203.503 184 203.503C185.211 203.503 186.142 202.977 186.796 201.926C187.449 200.875 187.776 199.415 187.776 197.545H187.657C187.378 198.045 187.017 198.477 186.574 198.841C186.131 199.199 185.628 199.474 185.066 199.668C184.509 199.861 183.918 199.957 183.293 199.957C182.27 199.957 181.35 199.713 180.532 199.224C179.719 198.736 179.074 198.065 178.597 197.213C178.125 196.361 177.887 195.386 177.881 194.29C177.881 193.153 178.142 192.134 178.665 191.23C179.194 190.321 179.929 189.605 180.873 189.082C181.816 188.554 182.918 188.295 184.179 188.307ZM184.188 190.864C183.574 190.864 183.02 191.014 182.526 191.315C182.037 191.611 181.651 192.014 181.367 192.526C181.088 193.031 180.949 193.597 180.949 194.222C180.955 194.841 181.094 195.403 181.367 195.909C181.645 196.415 182.023 196.815 182.5 197.111C182.983 197.406 183.534 197.554 184.154 197.554C184.614 197.554 185.043 197.466 185.441 197.29C185.838 197.114 186.185 196.869 186.48 196.557C186.782 196.239 187.015 195.878 187.179 195.474C187.35 195.071 187.432 194.645 187.427 194.196C187.427 193.599 187.284 193.048 187 192.543C186.722 192.037 186.338 191.631 185.85 191.324C185.367 191.017 184.813 190.864 184.188 190.864Z" fill="black" fill-opacity="0.2"/>
<rect x="61.0001" y="100" width="20" height="20" rx="10" fill="url(#paint2_linear_20287_570)"/>
<rect x="61.0001" y="100" width="20" height="20" rx="10" fill="url(#paint3_radial_20287_570)" fill-opacity="0.2"/>
<path d="M70.4169 115.625H66.9681L68.9389 113.572H70.499C71.9503 113.572 73.1268 112.396 73.1268 110.944H75.0975C75.0975 113.529 73.0019 115.625 70.4169 115.625Z" fill="white"/>
<path d="M70.4169 115.625H66.9681L68.9389 113.572H70.499C71.9503 113.572 73.1268 112.396 73.1268 110.944H75.0975C75.0975 113.529 73.0019 115.625 70.4169 115.625Z" fill="white"/>
<path d="M71.5666 104.375H75.0153L73.0446 106.428H71.4844C70.0332 106.428 68.8567 107.604 68.8567 109.056H66.8859C66.8859 106.471 68.9815 104.375 71.5666 104.375Z" fill="white"/>
<path d="M71.5666 104.375H75.0153L73.0446 106.428H71.4844C70.0332 106.428 68.8567 107.604 68.8567 109.056H66.8859C66.8859 106.471 68.9815 104.375 71.5666 104.375Z" fill="white"/>
<path d="M72.4931 108.317H71.0901L73.0446 106.428C75.3293 106.426 77.1827 108.277 77.1827 110.562V110.944H75.1209C75.1209 109.493 73.9444 108.317 72.4931 108.317Z" fill="white"/>
<path d="M72.4931 108.317H71.0901L73.0446 106.428C75.3293 106.426 77.1827 108.277 77.1827 110.562V110.944H75.1209C75.1209 109.493 73.9444 108.317 72.4931 108.317Z" fill="white"/>
<path d="M69.4397 111.683H70.8427L68.8882 113.572C66.6035 113.574 64.7501 111.723 64.7501 109.438V109.056H66.8119C66.8119 110.507 67.9884 111.683 69.4397 111.683Z" fill="white"/>
<path d="M69.4397 111.683H70.8427L68.8882 113.572C66.6035 113.574 64.7501 111.723 64.7501 109.438V109.056H66.8119C66.8119 110.507 67.9884 111.683 69.4397 111.683Z" fill="white"/>
<rect x="89.0001" y="100" width="56" height="20" rx="10" fill="white"/>
<g clip-path="url(#clip3_20287_570)">
<path d="M100 105.125C99.0359 105.125 98.0934 105.411 97.2917 105.947C96.49 106.482 95.8652 107.244 95.4962 108.134C95.1272 109.025 95.0307 110.005 95.2188 110.951C95.4069 111.897 95.8712 112.765 96.553 113.447C97.2348 114.129 98.1034 114.593 99.0491 114.781C99.9947 114.969 100.975 114.873 101.866 114.504C102.756 114.135 103.518 113.51 104.054 112.708C104.589 111.907 104.875 110.964 104.875 110C104.874 108.707 104.36 107.468 103.446 106.554C102.532 105.64 101.293 105.126 100 105.125ZM102.14 109.14L99.5154 111.765C99.4806 111.8 99.4393 111.828 99.3937 111.847C99.3482 111.866 99.2994 111.875 99.2501 111.875C99.2008 111.875 99.152 111.866 99.1065 111.847C99.061 111.828 99.0196 111.8 98.9848 111.765L97.8598 110.64C97.7894 110.57 97.7499 110.475 97.7499 110.375C97.7499 110.275 97.7894 110.18 97.8598 110.11C97.9302 110.039 98.0256 110 98.1251 110C98.2246 110 98.3201 110.039 98.3904 110.11L99.2501 110.97L101.61 108.61C101.645 108.575 101.686 108.547 101.732 108.528C101.777 108.509 101.826 108.5 101.875 108.5C101.924 108.5 101.973 108.509 102.019 108.528C102.064 108.547 102.106 108.575 102.14 108.61C102.175 108.645 102.203 108.686 102.222 108.731C102.241 108.777 102.25 108.826 102.25 108.875C102.25 108.924 102.241 108.973 102.222 109.019C102.203 109.064 102.175 109.105 102.14 109.14Z" fill="#48DE86"/>
</g>
<path d="M111.179 114H110.256L112.926 106.727H113.835L116.506 114H115.583L113.409 107.878H113.352L111.179 114ZM111.52 111.159H115.242V111.94H111.52V111.159ZM119.691 114.114C119.18 114.114 118.739 113.993 118.37 113.751C118.001 113.51 117.716 113.177 117.518 112.754C117.319 112.33 117.219 111.846 117.219 111.301C117.219 110.747 117.321 110.258 117.525 109.835C117.731 109.408 118.017 109.076 118.384 108.837C118.753 108.595 119.184 108.474 119.677 108.474C120.06 108.474 120.406 108.545 120.714 108.688C121.021 108.83 121.274 109.028 121.47 109.284C121.667 109.54 121.788 109.838 121.836 110.179H120.998C120.934 109.93 120.792 109.71 120.572 109.518C120.354 109.324 120.06 109.227 119.691 109.227C119.364 109.227 119.078 109.312 118.832 109.483C118.588 109.651 118.397 109.889 118.26 110.197C118.125 110.502 118.057 110.861 118.057 111.273C118.057 111.694 118.124 112.061 118.256 112.374C118.391 112.686 118.581 112.929 118.824 113.102C119.071 113.274 119.359 113.361 119.691 113.361C119.909 113.361 120.106 113.323 120.284 113.247C120.461 113.171 120.612 113.062 120.735 112.92C120.858 112.778 120.946 112.608 120.998 112.409H121.836C121.788 112.731 121.671 113.021 121.484 113.279C121.3 113.535 121.055 113.738 120.749 113.89C120.446 114.039 120.093 114.114 119.691 114.114ZM125.383 108.545V109.256H122.556V108.545H125.383ZM123.38 107.239H124.218V112.438C124.218 112.674 124.253 112.852 124.321 112.97C124.392 113.086 124.482 113.164 124.591 113.205C124.702 113.242 124.82 113.261 124.943 113.261C125.035 113.261 125.111 113.257 125.17 113.247C125.229 113.235 125.277 113.226 125.312 113.219L125.483 113.972C125.426 113.993 125.346 114.014 125.245 114.036C125.143 114.059 125.014 114.071 124.858 114.071C124.621 114.071 124.389 114.02 124.161 113.918C123.937 113.817 123.75 113.661 123.6 113.453C123.454 113.245 123.38 112.982 123.38 112.665V107.239ZM126.594 114V108.545H127.432V114H126.594ZM127.02 107.636C126.857 107.636 126.716 107.581 126.597 107.469C126.481 107.358 126.423 107.224 126.423 107.068C126.423 106.912 126.481 106.778 126.597 106.667C126.716 106.556 126.857 106.5 127.02 106.5C127.183 106.5 127.323 106.556 127.439 106.667C127.557 106.778 127.616 106.912 127.616 107.068C127.616 107.224 127.557 107.358 127.439 107.469C127.323 107.581 127.183 107.636 127.02 107.636ZM133.377 108.545L131.36 114H130.508L128.491 108.545H129.4L130.905 112.892H130.962L132.468 108.545H133.377ZM136.525 114.114C135.999 114.114 135.546 113.998 135.165 113.766C134.786 113.531 134.494 113.205 134.288 112.786C134.084 112.364 133.982 111.874 133.982 111.315C133.982 110.757 134.084 110.264 134.288 109.838C134.494 109.41 134.78 109.076 135.147 108.837C135.516 108.595 135.947 108.474 136.44 108.474C136.724 108.474 137.004 108.522 137.281 108.616C137.558 108.711 137.81 108.865 138.038 109.078C138.265 109.289 138.446 109.568 138.581 109.916C138.716 110.264 138.783 110.693 138.783 111.202V111.557H134.579V110.832H137.931C137.931 110.525 137.869 110.25 137.746 110.009C137.626 109.767 137.453 109.576 137.228 109.437C137.005 109.297 136.743 109.227 136.44 109.227C136.106 109.227 135.817 109.31 135.573 109.476C135.332 109.639 135.146 109.852 135.016 110.115C134.885 110.378 134.82 110.66 134.82 110.96V111.443C134.82 111.855 134.891 112.204 135.033 112.491C135.178 112.775 135.378 112.991 135.633 113.141C135.889 113.287 136.186 113.361 136.525 113.361C136.745 113.361 136.944 113.33 137.121 113.268C137.301 113.205 137.456 113.11 137.587 112.984C137.717 112.857 137.817 112.698 137.888 112.509L138.698 112.736C138.613 113.01 138.47 113.252 138.268 113.46C138.067 113.666 137.819 113.827 137.523 113.943C137.227 114.057 136.894 114.114 136.525 114.114Z" fill="black"/>
<g clip-path="url(#clip4_20287_570)">
<path d="M321.5 200.5C322.561 200.5 323.578 200.921 324.329 201.672C325.079 202.422 325.5 203.439 325.5 204.5" stroke="black" stroke-linecap="round" stroke-linejoin="round"/>
<path d="M321.5 197.5C323.357 197.5 325.137 198.237 326.45 199.55C327.763 200.863 328.5 202.643 328.5 204.5" stroke="black" stroke-linecap="round" stroke-linejoin="round"/>
<path d="M321.5 194.5C322.813 194.5 324.114 194.759 325.327 195.261C326.54 195.764 327.643 196.5 328.571 197.429C329.5 198.358 330.236 199.46 330.739 200.673C331.241 201.886 331.5 203.187 331.5 204.5" stroke="black" stroke-linecap="round" stroke-linejoin="round"/>
<path d="M321.75 205C322.164 205 322.5 204.664 322.5 204.25C322.5 203.836 322.164 203.5 321.75 203.5C321.336 203.5 321 203.836 321 204.25C321 204.664 321.336 205 321.75 205Z" fill="black"/>
</g>
<path d="M319.793 104.759H326.21V115.24H319.793V104.759Z" fill="#FF5F00"/>
<path d="M320.454 110C320.453 108.991 320.682 107.995 321.123 107.087C321.564 106.179 322.206 105.384 323 104.761C322.016 103.988 320.835 103.507 319.592 103.374C318.348 103.241 317.093 103.46 315.968 104.006C314.843 104.553 313.895 105.405 313.231 106.465C312.568 107.525 312.216 108.751 312.216 110.001C312.216 111.252 312.568 112.477 313.231 113.537C313.895 114.598 314.843 115.45 315.968 115.996C317.093 116.543 318.348 116.762 319.592 116.629C320.835 116.495 322.016 116.015 323 115.242C322.205 114.619 321.564 113.823 321.122 112.915C320.681 112.006 320.453 111.01 320.454 110V110Z" fill="#EB001B"/>
<path d="M333.148 114.131V113.916H333.24V113.872H333.02V113.916H333.107V114.131L333.148 114.131ZM333.575 114.131V113.872H333.509L333.431 114.057L333.353 113.872H333.287V114.131H333.335V113.935L333.407 114.103H333.457L333.529 113.935V114.131H333.575Z" fill="#F79E1B"/>
<path d="M333.785 110C333.785 111.251 333.433 112.477 332.769 113.537C332.105 114.597 331.157 115.449 330.032 115.995C328.907 116.542 327.651 116.761 326.407 116.627C325.164 116.494 323.983 116.013 323 115.24C323.793 114.616 324.435 113.821 324.876 112.913C325.317 112.005 325.546 111.009 325.546 109.999C325.546 108.99 325.317 107.994 324.876 107.086C324.435 106.178 323.793 105.382 323 104.759C323.983 103.986 325.164 103.505 326.407 103.371C327.651 103.238 328.907 103.457 330.032 104.003C331.157 104.55 332.105 105.402 332.769 106.462C333.433 107.522 333.785 108.748 333.785 109.998V110Z" fill="#F79E1B"/>
<rect x="0.333252" y="208" width="397" height="192" fill="url(#paint4_linear_20287_570)"/>
</g>
<rect x="3.16663" y="2.5" width="392.333" height="395" rx="29.5" stroke="white" stroke-width="5"/>
<defs>
<filter id="filter0_d_20287_570" x="277" y="43" width="79" height="28" filterUnits="userSpaceOnUse" color-interpolation-filters="sRGB">
<feFlood flood-opacity="0" result="BackgroundImageFix"/>
<feColorMatrix in="SourceAlpha" type="matrix" values="0 0 0 0 0 0 0 0 0 0 0 0 0 0 0 0 0 0 127 0" result="hardAlpha"/>
<feOffset dy="1"/>
<feGaussianBlur stdDeviation="1"/>
<feComposite in2="hardAlpha" operator="out"/>
<feColorMatrix type="matrix" values="0 0 0 0 0.534251 0 0 0 0 0.567649 0 0 0 0 0.621375 0 0 0 0.25 0"/>
<feBlend mode="normal" in2="BackgroundImageFix" result="effect1_dropShadow_20287_570"/>
<feBlend mode="normal" in="SourceGraphic" in2="effect1_dropShadow_20287_570" result="shape"/>
</filter>
<radialGradient id="paint0_radial_20287_570" cx="0" cy="0" r="1" gradientUnits="userSpaceOnUse" gradientTransform="translate(199.333 400) rotate(-90) scale(299.638 297.64)">
<stop stop-color="white"/>
<stop offset="1" stop-color="#F5F8FF"/>
</radialGradient>
<radialGradient id="paint1_radial_20287_570" cx="0" cy="0" r="1" gradientUnits="userSpaceOnUse" gradientTransform="translate(199.5 100.364) rotate(90) scale(127.636 174.029)">
<stop stop-color="white" stop-opacity="0"/>
<stop offset="1" stop-color="white"/>
</radialGradient>
<linearGradient id="paint2_linear_20287_570" x1="61.0001" y1="100" x2="84.3335" y2="124.167" gradientUnits="userSpaceOnUse">
<stop stop-color="#2D58A7"/>
<stop offset="1" stop-color="#4A96F8"/>
</linearGradient>
<radialGradient id="paint3_radial_20287_570" cx="0" cy="0" r="1" gradientUnits="userSpaceOnUse" gradientTransform="translate(71.0001 102.273) rotate(90) scale(17.7273 11.264)">
<stop stop-opacity="0"/>
<stop offset="1"/>
</radialGradient>
<linearGradient id="paint4_linear_20287_570" x1="198.833" y1="208" x2="198.833" y2="400" gradientUnits="userSpaceOnUse">
<stop stop-color="white" stop-opacity="0"/>
<stop offset="0.32" stop-color="white"/>
<stop offset="1" stop-color="white"/>
</linearGradient>
<clipPath id="clip0_20287_570">
<rect x="0.666626" width="397.333" height="400" rx="32" fill="white"/>
</clipPath>
<clipPath id="clip1_20287_570">
<rect width="20" height="20" fill="white" transform="translate(45.0001 46)"/>
</clipPath>
<clipPath id="clip2_20287_570">
<rect width="12" height="12" fill="white" transform="translate(285 50)"/>
</clipPath>
<clipPath id="clip3_20287_570">
<rect x="94.0001" y="104" width="12" height="12" rx="6" fill="white"/>
</clipPath>
<clipPath id="clip4_20287_570">
<rect width="16" height="16" fill="white" transform="translate(318 192)"/>
</clipPath>
</defs>
</svg>
