<svg width="398" height="400" viewBox="0 0 398 400" fill="none" xmlns="http://www.w3.org/2000/svg">
<rect x="2.5" y="2.5" width="392.333" height="395" rx="29.5" fill="url(#paint0_radial_20287_516)"/>
<rect x="2.5" y="2.5" width="392.333" height="395" rx="29.5" stroke="white" stroke-width="5"/>
<rect x="24" y="24" width="349" height="376" rx="30" fill="white"/>
<rect y="208" width="397" height="192" fill="url(#paint1_linear_20287_516)"/>
<rect x="48" y="48" width="32" height="32" rx="8" fill="black"/>
<path d="M63.0668 72.9999H57.5488L60.702 69.7152H63.1982C65.5202 69.7152 67.4026 67.8329 67.4026 65.5109H70.5558C70.5558 69.6469 67.2028 72.9999 63.0668 72.9999Z" fill="white"/>
<path d="M63.0668 72.9999H57.5488L60.702 69.7152H63.1982C65.5202 69.7152 67.4026 67.8329 67.4026 65.5109H70.5558C70.5558 69.6469 67.2028 72.9999 63.0668 72.9999Z" fill="white"/>
<path d="M64.9064 55H70.4244L67.2712 58.2846H64.7749C62.4529 58.2846 60.5706 60.167 60.5706 62.489H57.4173C57.4173 58.3529 60.7703 55 64.9064 55Z" fill="white"/>
<path d="M64.9064 55H70.4244L67.2712 58.2846H64.7749C62.4529 58.2846 60.5706 60.167 60.5706 62.489H57.4173C57.4173 58.3529 60.7703 55 64.9064 55Z" fill="white"/>
<path d="M66.389 61.3066H64.1442L67.2713 58.2847C70.9269 58.2811 73.8923 61.2436 73.8923 64.8992V65.5109H70.5934C70.5934 63.1889 68.711 61.3066 66.389 61.3066Z" fill="white"/>
<path d="M66.389 61.3066H64.1442L67.2713 58.2847C70.9269 58.2811 73.8923 61.2436 73.8923 64.8992V65.5109H70.5934C70.5934 63.1889 68.711 61.3066 66.389 61.3066Z" fill="white"/>
<path d="M61.5033 66.6933H63.748L60.621 69.7152C56.9654 69.7188 54 66.7563 54 63.1007V62.489H57.2989C57.2989 64.811 59.1812 66.6933 61.5033 66.6933Z" fill="white"/>
<path d="M61.5033 66.6933H63.748L60.621 69.7152C56.9654 69.7188 54 66.7563 54 63.1007V62.489H57.2989C57.2989 64.811 59.1812 66.6933 61.5033 66.6933Z" fill="white"/>
<path d="M99.5626 64.1818C99.5626 65.4356 99.3278 66.5095 98.8581 67.4034C98.3922 68.2936 97.7558 68.9754 96.949 69.4489C96.146 69.9223 95.235 70.1591 94.2161 70.1591C93.1971 70.1591 92.2842 69.9223 91.4774 69.4489C90.6744 68.9716 90.038 68.2879 89.5683 67.3977C89.1024 66.5038 88.8695 65.4318 88.8695 64.1818C88.8695 62.928 89.1024 61.8561 89.5683 60.9659C90.038 60.072 90.6744 59.3883 91.4774 58.9148C92.2842 58.4413 93.1971 58.2045 94.2161 58.2045C95.235 58.2045 96.146 58.4413 96.949 58.9148C97.7558 59.3883 98.3922 60.072 98.8581 60.9659C99.3278 61.8561 99.5626 62.928 99.5626 64.1818ZM97.4433 64.1818C97.4433 63.2992 97.3051 62.5549 97.0286 61.9489C96.7558 61.339 96.377 60.8788 95.8922 60.5682C95.4073 60.2538 94.8486 60.0966 94.2161 60.0966C93.5835 60.0966 93.0248 60.2538 92.5399 60.5682C92.0551 60.8788 91.6744 61.339 91.3979 61.9489C91.1251 62.5549 90.9888 63.2992 90.9888 64.1818C90.9888 65.0644 91.1251 65.8106 91.3979 66.4205C91.6744 67.0265 92.0551 67.4867 92.5399 67.8011C93.0248 68.1117 93.5835 68.267 94.2161 68.267C94.8486 68.267 95.4073 68.1117 95.8922 67.8011C96.377 67.4867 96.7558 67.0265 97.0286 66.4205C97.3051 65.8106 97.4433 65.0644 97.4433 64.1818ZM101.265 73.2727V61.2727H103.287V62.7159H103.407C103.513 62.5038 103.662 62.2784 103.856 62.0398C104.049 61.7973 104.31 61.5909 104.64 61.4205C104.969 61.2462 105.39 61.1591 105.901 61.1591C106.575 61.1591 107.183 61.3314 107.725 61.6761C108.27 62.017 108.702 62.5227 109.02 63.1932C109.342 63.8598 109.503 64.678 109.503 65.6477C109.503 66.6061 109.346 67.4205 109.032 68.0909C108.717 68.7614 108.289 69.2727 107.748 69.625C107.206 69.9773 106.592 70.1534 105.907 70.1534C105.407 70.1534 104.992 70.0701 104.662 69.9034C104.333 69.7367 104.068 69.536 103.867 69.3011C103.67 69.0625 103.517 68.8371 103.407 68.625H103.321V73.2727H101.265ZM103.282 65.6364C103.282 66.2008 103.361 66.6951 103.52 67.1193C103.683 67.5436 103.916 67.875 104.219 68.1136C104.526 68.3485 104.897 68.4659 105.333 68.4659C105.787 68.4659 106.168 68.3447 106.475 68.1023C106.782 67.8561 107.013 67.5208 107.168 67.0966C107.327 66.6686 107.407 66.1818 107.407 65.6364C107.407 65.0947 107.329 64.6136 107.174 64.1932C107.018 63.7727 106.787 63.4432 106.481 63.2045C106.174 62.9659 105.791 62.8466 105.333 62.8466C104.893 62.8466 104.52 62.9621 104.213 63.1932C103.907 63.4242 103.674 63.7481 103.515 64.1648C103.359 64.5814 103.282 65.072 103.282 65.6364ZM114.928 70.1705C114.053 70.1705 113.298 69.9886 112.661 69.625C112.029 69.2576 111.542 68.7386 111.201 68.0682C110.86 67.3939 110.69 66.6004 110.69 65.6875C110.69 64.7898 110.86 64.0019 111.201 63.3239C111.546 62.642 112.027 62.1117 112.644 61.733C113.262 61.3504 113.987 61.1591 114.82 61.1591C115.358 61.1591 115.866 61.2462 116.343 61.4205C116.824 61.5909 117.248 61.8561 117.616 62.2159C117.987 62.5758 118.279 63.0341 118.491 63.5909C118.703 64.1439 118.809 64.803 118.809 65.5682V66.1989H111.656V64.8125H116.837C116.834 64.4186 116.748 64.0682 116.582 63.7614C116.415 63.4508 116.182 63.2064 115.883 63.0284C115.587 62.8504 115.243 62.7614 114.849 62.7614C114.428 62.7614 114.059 62.8636 113.741 63.0682C113.423 63.2689 113.174 63.5341 112.996 63.8636C112.822 64.1894 112.733 64.5473 112.729 64.9375V66.1477C112.729 66.6553 112.822 67.0909 113.008 67.4545C113.193 67.8144 113.453 68.0909 113.786 68.2841C114.12 68.4735 114.51 68.5682 114.957 68.5682C115.256 68.5682 115.527 68.5265 115.769 68.4432C116.012 68.3561 116.222 68.2292 116.4 68.0625C116.578 67.8958 116.712 67.6894 116.803 67.4432L118.724 67.6591C118.603 68.1667 118.371 68.6098 118.031 68.9886C117.693 69.3636 117.262 69.6553 116.735 69.8636C116.209 70.0682 115.606 70.1705 114.928 70.1705ZM120.349 70V61.2727H122.343V62.7273H122.434C122.593 62.2235 122.866 61.8352 123.252 61.5625C123.643 61.286 124.088 61.1477 124.588 61.1477C124.701 61.1477 124.828 61.1534 124.968 61.1648C125.112 61.1723 125.232 61.1856 125.326 61.2045V63.0966C125.239 63.0663 125.101 63.0398 124.912 63.017C124.726 62.9905 124.546 62.9773 124.372 62.9773C123.997 62.9773 123.66 63.0587 123.36 63.2216C123.065 63.3807 122.832 63.6023 122.662 63.8864C122.491 64.1705 122.406 64.4981 122.406 64.8693V70H120.349ZM128.848 70.1761C128.295 70.1761 127.797 70.0777 127.354 69.8807C126.914 69.6799 126.566 69.3845 126.308 68.9943C126.054 68.6042 125.927 68.1231 125.927 67.5511C125.927 67.0587 126.018 66.6515 126.2 66.3295C126.382 66.0076 126.63 65.75 126.944 65.5568C127.259 65.3636 127.613 65.2178 128.007 65.1193C128.405 65.017 128.816 64.9432 129.24 64.8977C129.751 64.8447 130.166 64.7973 130.484 64.7557C130.802 64.7102 131.033 64.642 131.177 64.5511C131.325 64.4564 131.399 64.3106 131.399 64.1136V64.0795C131.399 63.6515 131.272 63.3201 131.018 63.0852C130.765 62.8504 130.399 62.733 129.922 62.733C129.418 62.733 129.018 62.8428 128.723 63.0625C128.431 63.2822 128.234 63.5417 128.132 63.8409L126.212 63.5682C126.363 63.0379 126.613 62.5947 126.962 62.2386C127.31 61.8788 127.736 61.6098 128.24 61.4318C128.744 61.25 129.301 61.1591 129.91 61.1591C130.331 61.1591 130.749 61.2083 131.166 61.3068C131.583 61.4053 131.963 61.5682 132.308 61.7955C132.653 62.0189 132.929 62.3239 133.138 62.7102C133.35 63.0966 133.456 63.5795 133.456 64.1591V70H131.479V68.8011H131.41C131.285 69.0436 131.109 69.2708 130.882 69.483C130.658 69.6913 130.376 69.8598 130.035 69.9886C129.698 70.1136 129.302 70.1761 128.848 70.1761ZM129.382 68.6648C129.795 68.6648 130.153 68.5833 130.456 68.4205C130.759 68.2538 130.992 68.0341 131.155 67.7614C131.321 67.4886 131.405 67.1913 131.405 66.8693V65.8409C131.34 65.8939 131.23 65.9432 131.075 65.9886C130.924 66.0341 130.753 66.0739 130.564 66.108C130.374 66.142 130.187 66.1723 130.001 66.1989C129.816 66.2254 129.655 66.2481 129.518 66.267C129.212 66.3087 128.937 66.3769 128.694 66.4716C128.452 66.5663 128.261 66.6989 128.121 66.8693C127.98 67.036 127.91 67.2519 127.91 67.517C127.91 67.8958 128.049 68.1818 128.325 68.375C128.602 68.5682 128.954 68.6648 129.382 68.6648ZM139.682 61.2727V62.8636H134.665V61.2727H139.682ZM135.904 59.1818H137.96V67.375C137.96 67.6515 138.002 67.8636 138.085 68.0114C138.172 68.1553 138.286 68.2538 138.426 68.3068C138.566 68.3598 138.722 68.3864 138.892 68.3864C139.021 68.3864 139.138 68.3769 139.244 68.358C139.354 68.339 139.438 68.322 139.494 68.3068L139.841 69.9148C139.731 69.9527 139.574 69.9943 139.369 70.0398C139.169 70.0852 138.922 70.1117 138.631 70.1193C138.116 70.1345 137.652 70.0568 137.239 69.8864C136.826 69.7121 136.498 69.4432 136.256 69.0795C136.017 68.7159 135.9 68.2614 135.904 67.7159V59.1818ZM141.202 70V61.2727H143.259V70H141.202ZM142.236 60.0341C141.91 60.0341 141.63 59.9261 141.395 59.7102C141.16 59.4905 141.043 59.2273 141.043 58.9205C141.043 58.6098 141.16 58.3466 141.395 58.1307C141.63 57.911 141.91 57.8011 142.236 57.8011C142.566 57.8011 142.846 57.911 143.077 58.1307C143.312 58.3466 143.429 58.6098 143.429 58.9205C143.429 59.2273 143.312 59.4905 143.077 59.7102C142.846 59.9261 142.566 60.0341 142.236 60.0341ZM148.981 70.1705C148.129 70.1705 147.39 69.983 146.765 69.608C146.14 69.233 145.655 68.7083 145.31 68.0341C144.969 67.3598 144.799 66.572 144.799 65.6705C144.799 64.7689 144.969 63.9792 145.31 63.3011C145.655 62.6231 146.14 62.0966 146.765 61.7216C147.39 61.3466 148.129 61.1591 148.981 61.1591C149.833 61.1591 150.572 61.3466 151.197 61.7216C151.822 62.0966 152.305 62.6231 152.646 63.3011C152.99 63.9792 153.163 64.7689 153.163 65.6705C153.163 66.572 152.99 67.3598 152.646 68.0341C152.305 68.7083 151.822 69.233 151.197 69.608C150.572 69.983 149.833 70.1705 148.981 70.1705ZM148.992 68.5227C149.454 68.5227 149.841 68.3958 150.151 68.142C150.462 67.8845 150.693 67.5398 150.844 67.108C151 66.6761 151.077 66.1951 151.077 65.6648C151.077 65.1307 151 64.6477 150.844 64.2159C150.693 63.7803 150.462 63.4337 150.151 63.1761C149.841 62.9186 149.454 62.7898 148.992 62.7898C148.519 62.7898 148.125 62.9186 147.81 63.1761C147.5 63.4337 147.267 63.7803 147.112 64.2159C146.96 64.6477 146.884 65.1307 146.884 65.6648C146.884 66.1951 146.96 66.6761 147.112 67.108C147.267 67.5398 147.5 67.8845 147.81 68.142C148.125 68.3958 148.519 68.5227 148.992 68.5227ZM156.765 64.8864V70H154.708V61.2727H156.674V62.7557H156.777C156.977 62.267 157.297 61.8788 157.737 61.5909C158.18 61.303 158.727 61.1591 159.379 61.1591C159.981 61.1591 160.506 61.2879 160.953 61.5455C161.403 61.803 161.752 62.1761 161.998 62.6648C162.248 63.1534 162.371 63.7462 162.367 64.4432V70H160.311V64.7614C160.311 64.178 160.159 63.7216 159.856 63.392C159.557 63.0625 159.142 62.8977 158.612 62.8977C158.252 62.8977 157.932 62.9773 157.652 63.1364C157.375 63.2917 157.157 63.517 156.998 63.8125C156.843 64.108 156.765 64.4659 156.765 64.8864ZM171.156 63.5795L169.281 63.7841C169.228 63.5947 169.135 63.4167 169.003 63.25C168.874 63.0833 168.7 62.9489 168.48 62.8466C168.26 62.7443 167.991 62.6932 167.673 62.6932C167.245 62.6932 166.885 62.786 166.594 62.9716C166.306 63.1572 166.164 63.3977 166.167 63.6932C166.164 63.947 166.256 64.1534 166.446 64.3125C166.639 64.4716 166.957 64.6023 167.4 64.7045L168.889 65.0227C169.715 65.2008 170.328 65.483 170.73 65.8693C171.135 66.2557 171.34 66.7614 171.344 67.3864C171.34 67.9356 171.179 68.4205 170.861 68.8409C170.546 69.2576 170.109 69.5833 169.548 69.8182C168.988 70.053 168.344 70.1705 167.616 70.1705C166.548 70.1705 165.688 69.947 165.037 69.5C164.385 69.0492 163.997 68.4223 163.872 67.6193L165.878 67.4261C165.969 67.8201 166.162 68.1174 166.457 68.3182C166.753 68.5189 167.137 68.6193 167.611 68.6193C168.099 68.6193 168.491 68.5189 168.787 68.3182C169.086 68.1174 169.236 67.8693 169.236 67.5739C169.236 67.3239 169.139 67.1174 168.946 66.9545C168.756 66.7917 168.461 66.6667 168.06 66.5795L166.571 66.267C165.734 66.0928 165.114 65.7992 164.713 65.3864C164.311 64.9697 164.113 64.4432 164.116 63.8068C164.113 63.2689 164.258 62.803 164.554 62.4091C164.853 62.0114 165.268 61.7045 165.798 61.4886C166.332 61.2689 166.948 61.1591 167.645 61.1591C168.667 61.1591 169.472 61.3769 170.06 61.8125C170.65 62.2481 171.016 62.8371 171.156 63.5795Z" fill="black"/>
<rect x="180" y="51" width="44" height="26" rx="13" fill="#F5F5F5"/>
<path d="M191.819 69H190.421L193.562 60.2727H195.083L198.224 69H196.826L194.359 61.858H194.291L191.819 69ZM192.053 65.5824H196.588V66.6903H192.053V65.5824ZM199.484 69V60.2727H202.595C203.274 60.2727 203.836 60.3963 204.282 60.6435C204.729 60.8906 205.062 61.2287 205.284 61.6577C205.506 62.0838 205.616 62.5639 205.616 63.098C205.616 63.6349 205.504 64.1179 205.28 64.5469C205.058 64.973 204.723 65.3111 204.274 65.5611C203.828 65.8082 203.267 65.9318 202.591 65.9318H200.452V64.8153H202.471C202.9 64.8153 203.248 64.7415 203.515 64.5938C203.782 64.4432 203.979 64.2386 204.104 63.9801C204.229 63.7216 204.291 63.4276 204.291 63.098C204.291 62.7685 204.229 62.4759 204.104 62.2202C203.979 61.9645 203.781 61.7642 203.511 61.6193C203.244 61.4744 202.892 61.402 202.454 61.402H200.801V69H199.484ZM207.16 69V60.2727H210.271C210.95 60.2727 211.512 60.3963 211.958 60.6435C212.404 60.8906 212.738 61.2287 212.96 61.6577C213.181 62.0838 213.292 62.5639 213.292 63.098C213.292 63.6349 213.18 64.1179 212.955 64.5469C212.734 64.973 212.399 65.3111 211.95 65.5611C211.504 65.8082 210.943 65.9318 210.267 65.9318H208.127V64.8153H210.147C210.576 64.8153 210.924 64.7415 211.191 64.5938C211.458 64.4432 211.654 64.2386 211.779 63.9801C211.904 63.7216 211.967 63.4276 211.967 63.098C211.967 62.7685 211.904 62.4759 211.779 62.2202C211.654 61.9645 211.457 61.7642 211.187 61.6193C210.92 61.4744 210.568 61.402 210.13 61.402H208.477V69H207.16Z" fill="black"/>
<g opacity="0.7">
<rect x="234" y="125" width="80" height="80" rx="20" fill="#4A96F8"/>
<rect x="234" y="125" width="80" height="80" rx="20" fill="url(#paint2_radial_20287_516)" fill-opacity="0.1"/>
<rect x="235" y="126" width="78" height="78" rx="19" stroke="white" stroke-opacity="0.5" stroke-width="2"/>
<g clip-path="url(#clip0_20287_516)">
<path d="M287.75 165.338C287.756 165.113 287.756 164.888 287.75 164.663L290.081 161.75C290.203 161.597 290.288 161.418 290.328 161.226C290.368 161.034 290.363 160.836 290.313 160.647C289.93 159.211 289.358 157.831 288.613 156.545C288.515 156.377 288.379 156.234 288.216 156.127C288.054 156.021 287.868 155.954 287.675 155.931L283.969 155.519C283.815 155.356 283.658 155.2 283.5 155.05L283.063 151.334C283.04 151.141 282.973 150.956 282.866 150.793C282.759 150.63 282.615 150.494 282.447 150.397C281.161 149.652 279.782 149.081 278.345 148.7C278.156 148.65 277.958 148.644 277.766 148.684C277.575 148.724 277.395 148.809 277.242 148.931L274.338 151.25C274.113 151.25 273.888 151.25 273.663 151.25L270.75 148.924C270.597 148.801 270.418 148.717 270.226 148.676C270.034 148.636 269.836 148.642 269.647 148.692C268.211 149.075 266.831 149.647 265.545 150.392C265.377 150.49 265.234 150.626 265.127 150.788C265.021 150.951 264.954 151.136 264.931 151.33L264.519 155.042C264.356 155.197 264.2 155.354 264.05 155.511L260.334 155.938C260.141 155.96 259.955 156.027 259.793 156.134C259.63 156.241 259.494 156.385 259.397 156.553C258.652 157.839 258.081 159.219 257.698 160.655C257.648 160.844 257.643 161.042 257.683 161.234C257.724 161.426 257.809 161.605 257.931 161.758L260.25 164.663C260.25 164.888 260.25 165.113 260.25 165.338L257.923 168.25C257.801 168.403 257.717 168.582 257.676 168.774C257.636 168.966 257.642 169.164 257.692 169.353C258.075 170.79 258.647 172.169 259.392 173.455C259.49 173.623 259.626 173.766 259.788 173.873C259.951 173.979 260.136 174.046 260.33 174.069L264.036 174.481C264.191 174.644 264.347 174.8 264.505 174.95L264.938 178.666C264.96 178.859 265.027 179.045 265.134 179.207C265.241 179.37 265.385 179.506 265.553 179.603C266.839 180.348 268.219 180.919 269.655 181.302C269.844 181.352 270.042 181.357 270.234 181.317C270.426 181.276 270.605 181.191 270.758 181.069L273.663 178.75C273.888 178.756 274.113 178.756 274.338 178.75L277.25 181.081C277.403 181.204 277.582 181.288 277.774 181.328C277.966 181.369 278.164 181.363 278.353 181.313C279.79 180.93 281.169 180.359 282.455 179.613C282.623 179.515 282.766 179.379 282.873 179.216C282.979 179.054 283.046 178.868 283.069 178.675L283.481 174.969C283.644 174.815 283.8 174.658 283.95 174.5L287.666 174.063C287.859 174.04 288.045 173.973 288.207 173.866C288.37 173.759 288.506 173.615 288.603 173.447C289.348 172.161 289.919 170.782 290.302 169.345C290.352 169.156 290.357 168.958 290.317 168.766C290.276 168.574 290.191 168.395 290.069 168.242L287.75 165.338ZM274 171.25C272.764 171.25 271.556 170.884 270.528 170.197C269.5 169.51 268.699 168.534 268.226 167.392C267.753 166.25 267.629 164.993 267.87 163.781C268.111 162.568 268.707 161.455 269.581 160.581C270.455 159.707 271.568 159.111 272.781 158.87C273.993 158.629 275.25 158.753 276.392 159.226C277.534 159.699 278.51 160.5 279.197 161.528C279.883 162.556 280.25 163.764 280.25 165C280.25 166.658 279.592 168.247 278.419 169.419C277.247 170.592 275.658 171.25 274 171.25Z" fill="white"/>
</g>
</g>
<g opacity="0.7">
<rect x="82" y="125" width="80" height="80" rx="20" fill="#4A96F8"/>
<rect x="82" y="125" width="80" height="80" rx="20" fill="url(#paint3_radial_20287_516)" fill-opacity="0.1"/>
<rect x="83" y="126" width="78" height="78" rx="19" stroke="white" stroke-opacity="0.5" stroke-width="2"/>
<g clip-path="url(#clip1_20287_516)">
<path d="M128.25 159.375C128.25 159.746 128.14 160.108 127.934 160.417C127.728 160.725 127.435 160.965 127.093 161.107C126.75 161.249 126.373 161.286 126.009 161.214C125.645 161.142 125.311 160.963 125.049 160.701C124.787 160.439 124.608 160.105 124.536 159.741C124.464 159.377 124.501 159 124.643 158.657C124.785 158.315 125.025 158.022 125.333 157.816C125.642 157.61 126.004 157.5 126.375 157.5C126.872 157.5 127.349 157.698 127.701 158.049C128.052 158.401 128.25 158.878 128.25 159.375ZM117.625 157.5C117.254 157.5 116.892 157.61 116.583 157.816C116.275 158.022 116.035 158.315 115.893 158.657C115.751 159 115.714 159.377 115.786 159.741C115.858 160.105 116.037 160.439 116.299 160.701C116.561 160.963 116.895 161.142 117.259 161.214C117.623 161.286 118 161.249 118.343 161.107C118.685 160.965 118.978 160.725 119.184 160.417C119.39 160.108 119.5 159.746 119.5 159.375C119.5 158.878 119.302 158.401 118.951 158.049C118.599 157.698 118.122 157.5 117.625 157.5ZM135.75 167.5C135.753 168.713 135.596 169.922 135.281 171.094L138.756 172.612C139.015 172.73 139.226 172.933 139.354 173.187C139.482 173.441 139.52 173.731 139.461 174.009C139.402 174.288 139.25 174.537 139.03 174.718C138.809 174.898 138.534 174.997 138.25 175C138.078 175 137.908 174.965 137.75 174.895L134.403 173.437C133.283 175.777 131.525 177.753 129.33 179.136C127.135 180.519 124.594 181.252 122 181.252C119.406 181.252 116.865 180.519 114.67 179.136C112.475 177.753 110.717 175.777 109.597 173.437L106.25 174.895C106.092 174.965 105.922 175 105.75 175C105.463 175 105.185 174.901 104.962 174.72C104.739 174.539 104.586 174.286 104.527 174.005C104.468 173.724 104.508 173.432 104.64 173.177C104.772 172.922 104.987 172.72 105.25 172.605L108.719 171.094C108.404 169.922 108.247 168.713 108.25 167.5V166.25H104.5C104.168 166.25 103.851 166.118 103.616 165.884C103.382 165.649 103.25 165.332 103.25 165C103.25 164.668 103.382 164.351 103.616 164.116C103.851 163.882 104.168 163.75 104.5 163.75H108.25V162.5C108.247 161.287 108.404 160.078 108.719 158.906L105.25 157.395C105.096 157.332 104.956 157.239 104.839 157.121C104.721 157.003 104.629 156.862 104.566 156.708C104.504 156.554 104.473 156.389 104.475 156.222C104.477 156.056 104.513 155.891 104.579 155.739C104.646 155.586 104.742 155.449 104.863 155.334C104.983 155.219 105.126 155.129 105.281 155.07C105.437 155.011 105.603 154.984 105.769 154.99C105.935 154.996 106.099 155.035 106.25 155.105L109.597 156.562C110.717 154.223 112.475 152.247 114.67 150.864C116.865 149.481 119.406 148.748 122 148.748C124.594 148.748 127.135 149.481 129.33 150.864C131.525 152.247 133.283 154.223 134.403 156.562L137.75 155.1C138.052 154.976 138.391 154.975 138.694 155.098C138.997 155.22 139.24 155.457 139.37 155.756C139.501 156.056 139.509 156.394 139.393 156.7C139.277 157.005 139.047 157.253 138.75 157.391L135.281 158.914C135.596 160.086 135.753 161.294 135.75 162.508V163.758H139.5C139.832 163.758 140.149 163.89 140.384 164.124C140.618 164.358 140.75 164.676 140.75 165.008C140.75 165.339 140.618 165.657 140.384 165.892C140.149 166.126 139.832 166.258 139.5 166.258H135.75V167.5ZM123.25 167.5C123.25 167.168 123.118 166.851 122.884 166.616C122.649 166.382 122.332 166.25 122 166.25C121.668 166.25 121.351 166.382 121.116 166.616C120.882 166.851 120.75 167.168 120.75 167.5V177.5C120.75 177.832 120.882 178.149 121.116 178.384C121.351 178.618 121.668 178.75 122 178.75C122.332 178.75 122.649 178.618 122.884 178.384C123.118 178.149 123.25 177.832 123.25 177.5V167.5ZM133.25 162.5C133.25 159.516 132.065 156.655 129.955 154.545C127.845 152.435 124.984 151.25 122 151.25C119.016 151.25 116.155 152.435 114.045 154.545C111.935 156.655 110.75 159.516 110.75 162.5V163.75H133.25V162.5Z" fill="white"/>
</g>
</g>
<g filter="url(#filter0_d_20287_516)">
<rect x="143" y="110" width="110" height="110" rx="20" fill="#4A96F8" shape-rendering="crispEdges"/>
<rect x="143" y="110" width="110" height="110" rx="20" fill="url(#paint4_radial_20287_516)" fill-opacity="0.1" shape-rendering="crispEdges"/>
<rect x="144" y="111" width="108" height="108" rx="19" stroke="white" stroke-opacity="0.5" stroke-width="2" shape-rendering="crispEdges"/>
<g clip-path="url(#clip2_20287_516)">
<path d="M222.375 165V183.75C222.375 186.236 221.387 188.621 219.629 190.379C217.871 192.137 215.486 193.125 213 193.125H199.875C199.378 193.125 198.901 192.927 198.549 192.576C198.198 192.224 198 191.747 198 191.25C198 190.753 198.198 190.276 198.549 189.924C198.901 189.572 199.378 189.375 199.875 189.375H213C214.492 189.375 215.923 188.782 216.977 187.727C218.032 186.673 218.625 185.242 218.625 183.75H213C211.508 183.75 210.077 183.157 209.023 182.102C207.968 181.048 207.375 179.617 207.375 178.125V168.75C207.375 167.258 207.968 165.827 209.023 164.772C210.077 163.718 211.508 163.125 213 163.125H218.543C218.188 159.227 216.732 155.511 214.343 152.41C211.955 149.309 208.734 146.952 205.056 145.613C201.378 144.275 197.395 144.01 193.573 144.851C189.75 145.692 186.246 147.603 183.469 150.361C180.016 153.768 177.886 158.292 177.459 163.125H183C184.492 163.125 185.923 163.718 186.977 164.772C188.032 165.827 188.625 167.258 188.625 168.75V178.125C188.625 179.617 188.032 181.048 186.977 182.102C185.923 183.157 184.492 183.75 183 183.75H179.25C177.758 183.75 176.327 183.157 175.273 182.102C174.218 181.048 173.625 179.617 173.625 178.125V165C173.63 160.172 175.068 155.453 177.756 151.442C180.444 147.431 184.261 144.308 188.725 142.468C193.189 140.627 198.099 140.153 202.832 141.104C207.566 142.055 211.911 144.389 215.318 147.811C217.567 150.071 219.348 152.753 220.559 155.702C221.77 158.652 222.387 161.811 222.375 165Z" fill="white"/>
</g>
</g>
<defs>
<filter id="filter0_d_20287_516" x="99.9585" y="84.9585" width="196.083" height="196.083" filterUnits="userSpaceOnUse" color-interpolation-filters="sRGB">
<feFlood flood-opacity="0" result="BackgroundImageFix"/>
<feColorMatrix in="SourceAlpha" type="matrix" values="0 0 0 0 0 0 0 0 0 0 0 0 0 0 0 0 0 0 127 0" result="hardAlpha"/>
<feMorphology radius="12.6593" operator="erode" in="SourceAlpha" result="effect1_dropShadow_20287_516"/>
<feOffset dy="18"/>
<feGaussianBlur stdDeviation="27.8504"/>
<feComposite in2="hardAlpha" operator="out"/>
<feColorMatrix type="matrix" values="0 0 0 0 0.279587 0 0 0 0 0.30862 0 0 0 0 0.339656 0 0 0 0.25 0"/>
<feBlend mode="normal" in2="BackgroundImageFix" result="effect1_dropShadow_20287_516"/>
<feBlend mode="normal" in="SourceGraphic" in2="effect1_dropShadow_20287_516" result="shape"/>
</filter>
<radialGradient id="paint0_radial_20287_516" cx="0" cy="0" r="1" gradientUnits="userSpaceOnUse" gradientTransform="translate(198.667 400) rotate(-90) scale(299.638 297.64)">
<stop stop-color="white"/>
<stop offset="1" stop-color="#F5F8FF"/>
</radialGradient>
<linearGradient id="paint1_linear_20287_516" x1="198.5" y1="208" x2="198.5" y2="400" gradientUnits="userSpaceOnUse">
<stop stop-color="white" stop-opacity="0"/>
<stop offset="0.32" stop-color="white"/>
<stop offset="1" stop-color="white"/>
</linearGradient>
<radialGradient id="paint2_radial_20287_516" cx="0" cy="0" r="1" gradientUnits="userSpaceOnUse" gradientTransform="translate(274 134.091) rotate(90) scale(70.9091 45.056)">
<stop stop-color="white" stop-opacity="0"/>
<stop offset="1" stop-color="white"/>
</radialGradient>
<radialGradient id="paint3_radial_20287_516" cx="0" cy="0" r="1" gradientUnits="userSpaceOnUse" gradientTransform="translate(122 134.091) rotate(90) scale(70.9091 45.056)">
<stop stop-color="white" stop-opacity="0"/>
<stop offset="1" stop-color="white"/>
</radialGradient>
<radialGradient id="paint4_radial_20287_516" cx="0" cy="0" r="1" gradientUnits="userSpaceOnUse" gradientTransform="translate(198 122.5) rotate(90) scale(97.5 61.952)">
<stop stop-color="white" stop-opacity="0"/>
<stop offset="1" stop-color="white"/>
</radialGradient>
<clipPath id="clip0_20287_516">
<rect width="40" height="40" fill="white" transform="translate(254 145)"/>
</clipPath>
<clipPath id="clip1_20287_516">
<rect width="40" height="40" fill="white" transform="translate(102 145)"/>
</clipPath>
<clipPath id="clip2_20287_516">
<rect width="60" height="60" fill="white" transform="translate(168 135)"/>
</clipPath>
</defs>
</svg>
