<svg width="398" height="400" viewBox="0 0 398 400" fill="none" xmlns="http://www.w3.org/2000/svg">
<g clip-path="url(#clip0_20355_460)">
<rect x="0.666626" width="397.333" height="400" rx="32" fill="url(#paint0_radial_20355_460)"/>
<rect x="-87.5" y="33" width="278" height="38" rx="19" fill="white" fill-opacity="0.9" stroke="white" stroke-width="2"/>
<g filter="url(#filter0_d_20355_460)">
<rect x="207.5" y="32" width="143" height="40" rx="20" fill="#4A96F8" shape-rendering="crispEdges"/>
<rect x="208.5" y="33" width="141" height="38" rx="19" stroke="white" stroke-opacity="0.2" stroke-width="2" shape-rendering="crispEdges"/>
<path d="M238.25 43H234.851C234.429 42.5282 233.913 42.1507 233.336 41.8922C232.758 41.6337 232.133 41.5001 231.5 41.5001C230.867 41.5001 230.242 41.6337 229.664 41.8922C229.087 42.1507 228.571 42.5282 228.149 43H224.75C224.352 43 223.971 43.158 223.689 43.4393C223.408 43.7206 223.25 44.1022 223.25 44.5V60.25C223.25 60.6478 223.408 61.0293 223.689 61.3106C223.971 61.592 224.352 61.75 224.75 61.75H238.25C238.648 61.75 239.029 61.592 239.311 61.3106C239.592 61.0293 239.75 60.6478 239.75 60.25V44.5C239.75 44.1022 239.592 43.7206 239.311 43.4393C239.029 43.158 238.648 43 238.25 43ZM231.5 43C232.296 43 233.059 43.3161 233.621 43.8787C234.184 44.4413 234.5 45.2043 234.5 46H228.5C228.5 45.2043 228.816 44.4413 229.379 43.8787C229.941 43.3161 230.704 43 231.5 43ZM234.5 55H228.5C228.301 55 228.11 54.921 227.97 54.7803C227.829 54.6397 227.75 54.4489 227.75 54.25C227.75 54.0511 227.829 53.8603 227.97 53.7197C228.11 53.579 228.301 53.5 228.5 53.5H234.5C234.699 53.5 234.89 53.579 235.03 53.7197C235.171 53.8603 235.25 54.0511 235.25 54.25C235.25 54.4489 235.171 54.6397 235.03 54.7803C234.89 54.921 234.699 55 234.5 55ZM234.5 52H228.5C228.301 52 228.11 51.921 227.97 51.7803C227.829 51.6397 227.75 51.4489 227.75 51.25C227.75 51.0511 227.829 50.8603 227.97 50.7197C228.11 50.579 228.301 50.5 228.5 50.5H234.5C234.699 50.5 234.89 50.579 235.03 50.7197C235.171 50.8603 235.25 51.0511 235.25 51.25C235.25 51.4489 235.171 51.6397 235.03 51.7803C234.89 51.921 234.699 52 234.5 52Z" fill="white"/>
<path d="M255.484 58.1875C254.443 58.1875 253.513 57.9401 252.695 57.4453C251.883 56.9453 251.24 56.2474 250.766 55.3516C250.297 54.4505 250.062 53.3958 250.062 52.1875C250.062 50.974 250.297 49.9167 250.766 49.0156C251.24 48.1146 251.883 47.4167 252.695 46.9219C253.513 46.4219 254.443 46.1719 255.484 46.1719C256.521 46.1719 257.448 46.4219 258.266 46.9219C259.083 47.4167 259.727 48.1146 260.195 49.0156C260.669 49.9167 260.906 50.974 260.906 52.1875C260.906 53.3958 260.669 54.4505 260.195 55.3516C259.727 56.2526 259.083 56.9505 258.266 57.4453C257.448 57.9401 256.521 58.1875 255.484 58.1875ZM255.484 56.3359C256.12 56.3359 256.688 56.1745 257.188 55.8516C257.693 55.5286 258.091 55.0599 258.383 54.4453C258.674 53.8255 258.82 53.0729 258.82 52.1875C258.82 51.2969 258.674 50.5417 258.383 49.9219C258.091 49.3021 257.693 48.8307 257.188 48.5078C256.688 48.1849 256.12 48.0234 255.484 48.0234C254.849 48.0234 254.279 48.1849 253.773 48.5078C253.273 48.8307 252.875 49.3021 252.578 49.9219C252.286 50.5417 252.141 51.2969 252.141 52.1875C252.141 53.0729 252.286 53.8255 252.578 54.4453C252.875 55.0599 253.273 55.5286 253.773 55.8516C254.279 56.1745 254.849 56.3359 255.484 56.3359ZM264.233 53.3359V58H262.264V49.75H264.201V51.0156C264.774 50.0625 265.618 49.5859 266.733 49.5859C267.597 49.5859 268.303 49.8646 268.85 50.4219C269.402 50.9792 269.678 51.7865 269.678 52.8438V58H267.701V53.1562C267.701 52.5521 267.555 52.0938 267.264 51.7812C266.972 51.4688 266.563 51.3125 266.037 51.3125C265.522 51.3125 265.092 51.474 264.748 51.7969C264.404 52.1198 264.233 52.6328 264.233 53.3359ZM275.809 58.1641C275.267 58.1641 274.778 58.0469 274.34 57.8125C273.908 57.5781 273.564 57.2214 273.309 56.7422H273.293V58H271.356V46.3594H273.324V50.9219H273.34C273.606 50.4688 273.952 50.1328 274.379 49.9141C274.806 49.6953 275.285 49.5859 275.817 49.5859C276.525 49.5859 277.145 49.7682 277.676 50.1328C278.212 50.4922 278.629 50.9948 278.926 51.6406C279.228 52.2812 279.379 53.0234 279.379 53.8672C279.379 54.7266 279.231 55.4792 278.934 56.125C278.642 56.7656 278.228 57.2656 277.692 57.625C277.155 57.9844 276.528 58.1641 275.809 58.1641ZM275.348 56.5156C275.957 56.5156 276.449 56.2891 276.824 55.8359C277.199 55.3776 277.387 54.7214 277.387 53.8672C277.387 53.0182 277.199 52.3646 276.824 51.9062C276.449 51.4479 275.957 51.2188 275.348 51.2188C274.702 51.2188 274.184 51.4609 273.793 51.9453C273.408 52.4245 273.215 53.0651 273.215 53.8672C273.215 54.6693 273.408 55.3125 273.793 55.7969C274.184 56.276 274.702 56.5156 275.348 56.5156ZM284.354 58.1875C283.541 58.1875 282.83 58.0078 282.221 57.6484C281.612 57.2839 281.135 56.7786 280.791 56.1328C280.453 55.487 280.283 54.737 280.283 53.8828C280.283 53.0286 280.453 52.2786 280.791 51.6328C281.135 50.9818 281.612 50.474 282.221 50.1094C282.83 49.7448 283.541 49.5625 284.354 49.5625C285.161 49.5625 285.869 49.7448 286.479 50.1094C287.093 50.474 287.57 50.9818 287.908 51.6328C288.252 52.2786 288.424 53.0286 288.424 53.8828C288.424 54.737 288.252 55.487 287.908 56.1328C287.57 56.7786 287.093 57.2839 286.479 57.6484C285.869 58.0078 285.161 58.1875 284.354 58.1875ZM284.354 56.5391C284.984 56.5391 285.487 56.3021 285.862 55.8281C286.237 55.3542 286.424 54.7057 286.424 53.8828C286.424 53.0599 286.237 52.4089 285.862 51.9297C285.487 51.4505 284.984 51.2109 284.354 51.2109C283.718 51.2109 283.213 51.4505 282.838 51.9297C282.463 52.4036 282.276 53.0547 282.276 53.8828C282.276 54.7057 282.463 55.3542 282.838 55.8281C283.213 56.3021 283.718 56.5391 284.354 56.5391ZM292.336 58.1328C291.513 58.1328 290.831 57.9271 290.289 57.5156C289.753 57.099 289.485 56.4792 289.485 55.6562C289.485 55.0312 289.636 54.5495 289.938 54.2109C290.245 53.8672 290.644 53.6172 291.133 53.4609C291.628 53.3047 292.159 53.1979 292.727 53.1406C293.493 53.0521 294.026 52.974 294.328 52.9062C294.631 52.8385 294.782 52.6641 294.782 52.3828V52.3203C294.782 51.9661 294.646 51.6771 294.375 51.4531C294.11 51.2292 293.743 51.1172 293.274 51.1172C292.795 51.1172 292.404 51.2292 292.102 51.4531C291.805 51.6771 291.644 51.9635 291.618 52.3125H289.719C289.766 51.4948 290.107 50.8359 290.743 50.3359C291.378 49.8359 292.235 49.5859 293.313 49.5859C294.386 49.5859 295.224 49.8359 295.828 50.3359C296.433 50.8359 296.735 51.5156 296.735 52.375V58H294.797V56.8359H294.766C294.568 57.2005 294.282 57.5078 293.907 57.7578C293.532 58.0078 293.008 58.1328 292.336 58.1328ZM292.821 56.6719C293.466 56.6719 293.956 56.5052 294.289 56.1719C294.623 55.8333 294.789 55.4245 294.789 54.9453V54.0547C294.67 54.1328 294.438 54.2057 294.094 54.2734C293.75 54.3359 293.375 54.3984 292.969 54.4609C292.547 54.5234 292.18 54.6432 291.868 54.8203C291.56 54.9922 291.407 55.2656 291.407 55.6406C291.407 55.9635 291.534 56.2161 291.789 56.3984C292.045 56.5807 292.388 56.6719 292.821 56.6719ZM298.397 58V49.75H300.295V51.1172H300.319C300.47 50.6484 300.707 50.2917 301.03 50.0469C301.358 49.7969 301.787 49.6719 302.319 49.6719C302.454 49.6719 302.574 49.6771 302.678 49.6875C302.787 49.6927 302.881 49.6979 302.959 49.7031V51.4531C302.886 51.4427 302.761 51.4297 302.584 51.4141C302.407 51.3984 302.222 51.3906 302.03 51.3906C301.561 51.3906 301.165 51.5521 300.842 51.875C300.524 52.1979 300.366 52.6823 300.366 53.3281V58H298.397ZM307.098 58.1641C306.379 58.1641 305.752 57.9844 305.215 57.625C304.679 57.2656 304.262 56.7656 303.965 56.125C303.674 55.4792 303.528 54.7266 303.528 53.8672C303.528 53.0234 303.676 52.2812 303.973 51.6406C304.27 50.9948 304.687 50.4922 305.223 50.1328C305.76 49.7682 306.379 49.5859 307.083 49.5859C307.619 49.5859 308.101 49.6953 308.528 49.9141C308.955 50.1328 309.301 50.4688 309.567 50.9219H309.583V46.3594H311.551V58H309.614V56.7422H309.598C309.338 57.2214 308.989 57.5781 308.551 57.8125C308.119 58.0469 307.635 58.1641 307.098 58.1641ZM307.559 56.5156C308.205 56.5156 308.721 56.276 309.106 55.7969C309.497 55.3125 309.692 54.6693 309.692 53.8672C309.692 53.0651 309.497 52.4245 309.106 51.9453C308.721 51.4609 308.205 51.2188 307.559 51.2188C306.95 51.2188 306.458 51.4479 306.083 51.9062C305.708 52.3646 305.52 53.0182 305.52 53.8672C305.52 54.7214 305.708 55.3776 306.083 55.8359C306.458 56.2891 306.95 56.5156 307.559 56.5156ZM313.221 58V49.75H315.19V58H313.221ZM314.206 48.5234C313.867 48.5234 313.586 48.4167 313.362 48.2031C313.138 47.9844 313.026 47.7161 313.026 47.3984C313.026 47.0807 313.138 46.8151 313.362 46.6016C313.586 46.388 313.867 46.2812 314.206 46.2812C314.539 46.2812 314.818 46.388 315.042 46.6016C315.266 46.8151 315.377 47.0807 315.377 47.3984C315.377 47.7161 315.266 47.9844 315.042 48.2031C314.818 48.4167 314.539 48.5234 314.206 48.5234ZM318.829 53.3359V58H316.86V49.75H318.798V51.0156C319.37 50.0625 320.214 49.5859 321.329 49.5859C322.193 49.5859 322.899 49.8646 323.446 50.4219C323.998 50.9792 324.274 51.7865 324.274 52.8438V58H322.298V53.1562C322.298 52.5521 322.152 52.0938 321.86 51.7812C321.568 51.4688 321.159 51.3125 320.633 51.3125C320.118 51.3125 319.688 51.474 319.344 51.7969C319.001 52.1198 318.829 52.6328 318.829 53.3359ZM329.694 61.375C328.606 61.375 327.741 61.1406 327.1 60.6719C326.46 60.2031 326.085 59.5677 325.975 58.7656H327.905C327.999 59.1198 328.204 59.388 328.522 59.5703C328.84 59.7578 329.231 59.8516 329.694 59.8516C330.309 59.8516 330.785 59.6849 331.124 59.3516C331.467 59.0182 331.639 58.5365 331.639 57.9062V56.6484H331.632C331.366 57.1328 331.02 57.4896 330.592 57.7188C330.165 57.9427 329.681 58.0547 329.139 58.0547C328.421 58.0547 327.793 57.875 327.257 57.5156C326.72 57.1562 326.303 56.6615 326.007 56.0312C325.715 55.3958 325.569 54.6641 325.569 53.8359C325.569 53.0026 325.717 52.2656 326.014 51.625C326.311 50.9844 326.728 50.4844 327.264 50.125C327.801 49.7656 328.421 49.5859 329.124 49.5859C329.66 49.5859 330.145 49.7005 330.577 49.9297C331.014 50.1536 331.369 50.5026 331.639 50.9766H331.647V49.75H333.592V57.7891C333.592 58.638 333.423 59.3255 333.085 59.8516C332.746 60.3828 332.283 60.7682 331.694 61.0078C331.106 61.2526 330.439 61.375 329.694 61.375ZM329.6 56.4297C330.246 56.4297 330.762 56.1927 331.147 55.7188C331.538 55.2396 331.733 54.6042 331.733 53.8125C331.733 53.0208 331.538 52.388 331.147 51.9141C330.762 51.4349 330.246 51.1953 329.6 51.1953C328.991 51.1953 328.499 51.4219 328.124 51.875C327.749 52.3281 327.561 52.974 327.561 53.8125C327.561 54.6562 327.749 55.3047 328.124 55.7578C328.499 56.2057 328.991 56.4297 329.6 56.4297Z" fill="white"/>
</g>
<rect x="367.25" y="32.75" width="118.5" height="38.5" rx="19.25" fill="#F5F8FF" stroke="#F5F5F5" stroke-width="1.5"/>
<rect x="-21.25" y="104.75" width="78.5" height="38.5" rx="19.25" fill="#F5F8FF" stroke="#F5F5F5" stroke-width="1.5"/>
<g filter="url(#filter1_d_20355_460)">
<rect x="74" y="104" width="130" height="40" rx="20" fill="#4A96F8" shape-rendering="crispEdges"/>
<rect x="75" y="105" width="128" height="38" rx="19" stroke="white" stroke-opacity="0.2" stroke-width="2" shape-rendering="crispEdges"/>
<path d="M90.9397 121.31C90.8004 121.171 90.6898 121.006 90.6144 120.824C90.539 120.642 90.5002 120.447 90.5002 120.25C90.5002 120.053 90.539 119.857 90.6144 119.675C90.6898 119.493 90.8004 119.328 90.9397 119.189L96.9397 113.189C97.221 112.907 97.6026 112.749 98.0005 112.749C98.3983 112.749 98.7799 112.907 99.0613 113.189C99.3426 113.47 99.5006 113.852 99.5006 114.25C99.5006 114.647 99.3426 115.029 99.0613 115.31L93.0613 121.31C92.922 121.45 92.7566 121.56 92.5746 121.636C92.3926 121.711 92.1975 121.75 92.0005 121.75C91.8035 121.75 91.6084 121.711 91.4264 121.636C91.2444 121.56 91.079 121.45 90.9397 121.31ZM108.811 122.939C108.672 122.799 108.507 122.689 108.325 122.614C108.143 122.538 107.947 122.499 107.75 122.499C107.553 122.499 107.358 122.538 107.176 122.614C106.994 122.689 106.829 122.799 106.69 122.939L100.69 128.939C100.55 129.078 100.44 129.243 100.364 129.425C100.289 129.607 100.25 129.803 100.25 130C100.25 130.197 100.289 130.392 100.364 130.574C100.44 130.756 100.55 130.921 100.69 131.06C100.829 131.2 100.994 131.31 101.176 131.386C101.358 131.461 101.553 131.5 101.75 131.5C101.947 131.5 102.143 131.461 102.325 131.386C102.507 131.31 102.672 131.2 102.811 131.06L108.811 125.06C108.951 124.921 109.061 124.756 109.137 124.574C109.212 124.392 109.251 124.197 109.251 124C109.251 123.803 109.212 123.607 109.137 123.425C109.061 123.243 108.951 123.078 108.811 122.939ZM105.52 121.458L100.543 116.48C100.508 116.445 100.466 116.418 100.421 116.399C100.375 116.38 100.326 116.37 100.277 116.37C100.228 116.37 100.179 116.38 100.134 116.399C100.088 116.418 100.047 116.445 100.012 116.48L94.2313 122.261C94.1964 122.296 94.1687 122.337 94.1499 122.383C94.131 122.428 94.1213 122.477 94.1213 122.526C94.1213 122.576 94.131 122.624 94.1499 122.67C94.1687 122.715 94.1964 122.757 94.2313 122.792L95.6563 124.219L88.6897 131.19C88.4203 131.473 88.2723 131.851 88.2773 132.242C88.2823 132.633 88.4399 133.007 88.7165 133.284C88.9931 133.56 89.3668 133.718 89.758 133.723C90.1491 133.728 90.5267 133.58 90.8103 133.31L97.7806 126.344L99.2084 127.772C99.2433 127.806 99.2846 127.834 99.3302 127.853C99.3757 127.872 99.4245 127.882 99.4738 127.882C99.523 127.882 99.5718 127.872 99.6174 127.853C99.6629 127.834 99.7042 127.806 99.7391 127.772L105.52 121.991C105.555 121.956 105.583 121.915 105.602 121.869C105.621 121.823 105.631 121.774 105.631 121.724C105.631 121.675 105.621 121.626 105.602 121.58C105.583 121.534 105.555 121.492 105.52 121.458Z" fill="white"/>
<path d="M121.18 130.188C119.737 130.188 118.607 129.836 117.789 129.133C116.977 128.424 116.57 127.448 116.57 126.203H118.594C118.604 126.906 118.836 127.456 119.289 127.852C119.747 128.247 120.383 128.445 121.195 128.445C121.919 128.445 122.503 128.294 122.945 127.992C123.388 127.685 123.609 127.276 123.609 126.766C123.609 126.354 123.443 126.021 123.109 125.766C122.776 125.505 122.221 125.286 121.445 125.109L120.195 124.828C119.034 124.562 118.177 124.169 117.625 123.648C117.073 123.128 116.797 122.458 116.797 121.641C116.797 120.948 116.974 120.341 117.328 119.82C117.688 119.299 118.188 118.896 118.828 118.609C119.474 118.318 120.224 118.172 121.078 118.172C122.38 118.172 123.411 118.503 124.172 119.164C124.938 119.826 125.336 120.734 125.367 121.891H123.406C123.365 121.276 123.135 120.794 122.719 120.445C122.302 120.096 121.753 119.922 121.07 119.922C120.424 119.922 119.896 120.073 119.484 120.375C119.073 120.677 118.867 121.065 118.867 121.539C118.867 121.93 119.029 122.247 119.352 122.492C119.68 122.732 120.224 122.938 120.984 123.109L122.164 123.383C123.372 123.648 124.258 124.044 124.82 124.57C125.383 125.096 125.664 125.786 125.664 126.641C125.664 127.365 125.482 127.992 125.117 128.523C124.753 129.055 124.234 129.466 123.562 129.758C122.891 130.044 122.096 130.188 121.18 130.188ZM129.545 130.133C128.722 130.133 128.04 129.927 127.498 129.516C126.962 129.099 126.693 128.479 126.693 127.656C126.693 127.031 126.844 126.549 127.147 126.211C127.454 125.867 127.852 125.617 128.342 125.461C128.837 125.305 129.368 125.198 129.936 125.141C130.701 125.052 131.235 124.974 131.537 124.906C131.839 124.839 131.99 124.664 131.99 124.383V124.32C131.99 123.966 131.855 123.677 131.584 123.453C131.318 123.229 130.951 123.117 130.483 123.117C130.003 123.117 129.613 123.229 129.311 123.453C129.014 123.677 128.852 123.964 128.826 124.312H126.928C126.975 123.495 127.316 122.836 127.951 122.336C128.587 121.836 129.443 121.586 130.522 121.586C131.594 121.586 132.433 121.836 133.037 122.336C133.641 122.836 133.943 123.516 133.943 124.375V130H132.006V128.836H131.975C131.777 129.201 131.49 129.508 131.115 129.758C130.74 130.008 130.217 130.133 129.545 130.133ZM130.029 128.672C130.675 128.672 131.165 128.505 131.498 128.172C131.831 127.833 131.998 127.424 131.998 126.945V126.055C131.878 126.133 131.647 126.206 131.303 126.273C130.959 126.336 130.584 126.398 130.178 126.461C129.756 126.523 129.389 126.643 129.076 126.82C128.769 126.992 128.615 127.266 128.615 127.641C128.615 127.964 128.743 128.216 128.998 128.398C129.253 128.581 129.597 128.672 130.029 128.672ZM137.574 125.336V130H135.606V121.75H137.543V123.016C138.116 122.062 138.96 121.586 140.074 121.586C140.939 121.586 141.645 121.865 142.192 122.422C142.744 122.979 143.02 123.786 143.02 124.844V130H141.043V125.156C141.043 124.552 140.897 124.094 140.606 123.781C140.314 123.469 139.905 123.312 139.379 123.312C138.863 123.312 138.434 123.474 138.09 123.797C137.746 124.12 137.574 124.633 137.574 125.336ZM148.346 130.188C147.544 130.188 146.838 130.005 146.229 129.641C145.625 129.276 145.153 128.771 144.815 128.125C144.481 127.479 144.315 126.732 144.315 125.883C144.315 125.034 144.481 124.286 144.815 123.641C145.153 122.99 145.625 122.482 146.229 122.117C146.838 121.747 147.544 121.562 148.346 121.562C149.039 121.562 149.656 121.698 150.198 121.969C150.739 122.234 151.174 122.604 151.502 123.078C151.836 123.547 152.031 124.089 152.088 124.703H150.158C150.086 124.26 149.895 123.901 149.588 123.625C149.286 123.344 148.88 123.203 148.369 123.203C147.724 123.203 147.218 123.445 146.854 123.93C146.489 124.414 146.307 125.065 146.307 125.883C146.307 126.695 146.489 127.344 146.854 127.828C147.218 128.307 147.724 128.547 148.369 128.547C148.885 128.547 149.286 128.411 149.573 128.141C149.859 127.865 150.049 127.497 150.143 127.039H152.088C152.041 127.643 151.851 128.182 151.518 128.656C151.19 129.13 150.752 129.505 150.205 129.781C149.664 130.052 149.044 130.188 148.346 130.188ZM157.688 121.75V123.336H156.008V127.633C156.008 127.93 156.068 128.135 156.188 128.25C156.308 128.359 156.526 128.414 156.844 128.414H157.688V130H156.5C155.662 130 155.039 129.831 154.633 129.492C154.232 129.154 154.032 128.63 154.032 127.922V123.336H152.594V121.75H154.032V119.5H156.008V121.75H157.688ZM158.85 130V121.75H160.819V130H158.85ZM159.834 120.523C159.496 120.523 159.215 120.417 158.991 120.203C158.767 119.984 158.655 119.716 158.655 119.398C158.655 119.081 158.767 118.815 158.991 118.602C159.215 118.388 159.496 118.281 159.834 118.281C160.168 118.281 160.446 118.388 160.67 118.602C160.894 118.815 161.006 119.081 161.006 119.398C161.006 119.716 160.894 119.984 160.67 120.203C160.446 120.417 160.168 120.523 159.834 120.523ZM166.176 130.188C165.364 130.188 164.653 130.008 164.043 129.648C163.434 129.284 162.958 128.779 162.614 128.133C162.275 127.487 162.106 126.737 162.106 125.883C162.106 125.029 162.275 124.279 162.614 123.633C162.958 122.982 163.434 122.474 164.043 122.109C164.653 121.745 165.364 121.562 166.176 121.562C166.984 121.562 167.692 121.745 168.301 122.109C168.916 122.474 169.392 122.982 169.731 123.633C170.075 124.279 170.247 125.029 170.247 125.883C170.247 126.737 170.075 127.487 169.731 128.133C169.392 128.779 168.916 129.284 168.301 129.648C167.692 130.008 166.984 130.188 166.176 130.188ZM166.176 128.539C166.806 128.539 167.309 128.302 167.684 127.828C168.059 127.354 168.247 126.706 168.247 125.883C168.247 125.06 168.059 124.409 167.684 123.93C167.309 123.451 166.806 123.211 166.176 123.211C165.541 123.211 165.036 123.451 164.661 123.93C164.286 124.404 164.098 125.055 164.098 125.883C164.098 126.706 164.286 127.354 164.661 127.828C165.036 128.302 165.541 128.539 166.176 128.539ZM173.502 125.336V130H171.534V121.75H173.471V123.016C174.044 122.062 174.888 121.586 176.002 121.586C176.867 121.586 177.573 121.865 178.12 122.422C178.672 122.979 178.948 123.786 178.948 124.844V130H176.971V125.156C176.971 124.552 176.825 124.094 176.534 123.781C176.242 123.469 175.833 123.312 175.307 123.312C174.792 123.312 174.362 123.474 174.018 123.797C173.674 124.12 173.502 124.633 173.502 125.336ZM183.86 130.195C182.855 130.195 182.014 129.961 181.337 129.492C180.665 129.018 180.298 128.339 180.235 127.453H182.18C182.222 127.854 182.383 128.167 182.665 128.391C182.946 128.609 183.334 128.719 183.829 128.719C184.303 128.719 184.675 128.625 184.946 128.438C185.222 128.25 185.36 128.01 185.36 127.719C185.36 127.469 185.258 127.268 185.055 127.117C184.852 126.966 184.579 126.854 184.235 126.781L182.829 126.492C181.225 126.159 180.423 125.365 180.423 124.109C180.423 123.349 180.725 122.737 181.329 122.273C181.933 121.805 182.738 121.57 183.743 121.57C184.743 121.57 185.555 121.818 186.18 122.312C186.811 122.802 187.136 123.471 187.157 124.32H185.305C185.295 123.951 185.152 123.646 184.876 123.406C184.6 123.167 184.238 123.047 183.79 123.047C183.357 123.047 183.016 123.143 182.766 123.336C182.516 123.529 182.391 123.766 182.391 124.047C182.391 124.292 182.488 124.492 182.68 124.648C182.873 124.799 183.141 124.914 183.485 124.992L184.969 125.297C185.787 125.469 186.389 125.74 186.774 126.109C187.165 126.479 187.36 126.966 187.36 127.57C187.36 128.107 187.209 128.573 186.907 128.969C186.61 129.359 186.199 129.661 185.673 129.875C185.146 130.089 184.542 130.195 183.86 130.195Z" fill="white"/>
</g>
<rect x="221" y="105" width="198" height="38" rx="19" fill="white" fill-opacity="0.9" stroke="white" stroke-width="2"/>
<rect x="-96.5" y="177" width="238" height="38" rx="19" fill="white" fill-opacity="0.9" stroke="white" stroke-width="2"/>
<g filter="url(#filter2_d_20355_460)">
<rect x="158.5" y="176" width="137" height="40" rx="20" fill="#4A96F8" shape-rendering="crispEdges"/>
<rect x="159.5" y="177" width="135" height="38" rx="19" stroke="white" stroke-opacity="0.2" stroke-width="2" shape-rendering="crispEdges"/>
<path d="M190 187.75H175C174.403 187.75 173.831 187.987 173.409 188.409C172.987 188.831 172.75 189.403 172.75 190V200.5C172.75 201.097 172.987 201.669 173.409 202.091C173.831 202.513 174.403 202.75 175 202.75H181.75V204.25H179.5C179.301 204.25 179.11 204.329 178.97 204.47C178.829 204.61 178.75 204.801 178.75 205C178.75 205.199 178.829 205.39 178.97 205.53C179.11 205.671 179.301 205.75 179.5 205.75H185.5C185.699 205.75 185.89 205.671 186.03 205.53C186.171 205.39 186.25 205.199 186.25 205C186.25 204.801 186.171 204.61 186.03 204.47C185.89 204.329 185.699 204.25 185.5 204.25H183.25V202.75H190C190.597 202.75 191.169 202.513 191.591 202.091C192.013 201.669 192.25 201.097 192.25 200.5V190C192.25 189.403 192.013 188.831 191.591 188.409C191.169 187.987 190.597 187.75 190 187.75ZM190 201.25H175C174.801 201.25 174.61 201.171 174.47 201.03C174.329 200.89 174.25 200.699 174.25 200.5V199H190.75V200.5C190.75 200.699 190.671 200.89 190.53 201.03C190.39 201.171 190.199 201.25 190 201.25Z" fill="white"/>
<path d="M201.469 202V190.359H204.438L206.703 196.477C206.812 196.799 206.951 197.221 207.117 197.742C207.284 198.258 207.435 198.742 207.57 199.195C207.706 198.742 207.854 198.258 208.016 197.742C208.182 197.221 208.32 196.799 208.43 196.477L210.656 190.359H213.641V202H211.609V196.062C211.609 195.651 211.617 195.146 211.633 194.547C211.648 193.948 211.664 193.352 211.68 192.758C211.471 193.414 211.273 194.042 211.086 194.641C210.898 195.234 210.742 195.708 210.617 196.062L208.398 202H206.711L204.477 196.062C204.357 195.724 204.203 195.273 204.016 194.711C203.833 194.143 203.641 193.547 203.438 192.922C203.453 193.495 203.466 194.065 203.477 194.633C203.492 195.195 203.5 195.672 203.5 196.062V202H201.469ZM219.092 202.188C218.279 202.188 217.568 202.008 216.959 201.648C216.35 201.284 215.873 200.779 215.529 200.133C215.191 199.487 215.022 198.737 215.022 197.883C215.022 197.029 215.191 196.279 215.529 195.633C215.873 194.982 216.35 194.474 216.959 194.109C217.568 193.745 218.279 193.562 219.092 193.562C219.899 193.562 220.608 193.745 221.217 194.109C221.831 194.474 222.308 194.982 222.647 195.633C222.99 196.279 223.162 197.029 223.162 197.883C223.162 198.737 222.99 199.487 222.647 200.133C222.308 200.779 221.831 201.284 221.217 201.648C220.608 202.008 219.899 202.188 219.092 202.188ZM219.092 200.539C219.722 200.539 220.225 200.302 220.6 199.828C220.975 199.354 221.162 198.706 221.162 197.883C221.162 197.06 220.975 196.409 220.6 195.93C220.225 195.451 219.722 195.211 219.092 195.211C218.456 195.211 217.951 195.451 217.576 195.93C217.201 196.404 217.014 197.055 217.014 197.883C217.014 198.706 217.201 199.354 217.576 199.828C217.951 200.302 218.456 200.539 219.092 200.539ZM226.418 197.336V202H224.449V193.75H226.387V195.016C226.96 194.062 227.804 193.586 228.918 193.586C229.783 193.586 230.488 193.865 231.035 194.422C231.587 194.979 231.863 195.786 231.863 196.844V202H229.887V197.156C229.887 196.552 229.741 196.094 229.449 195.781C229.158 195.469 228.749 195.312 228.223 195.312C227.707 195.312 227.278 195.474 226.934 195.797C226.59 196.12 226.418 196.633 226.418 197.336ZM233.541 202V193.75H235.51V202H233.541ZM234.526 192.523C234.187 192.523 233.906 192.417 233.682 192.203C233.458 191.984 233.346 191.716 233.346 191.398C233.346 191.081 233.458 190.815 233.682 190.602C233.906 190.388 234.187 190.281 234.526 190.281C234.859 190.281 235.138 190.388 235.362 190.602C235.586 190.815 235.697 191.081 235.697 191.398C235.697 191.716 235.586 191.984 235.362 192.203C235.138 192.417 234.859 192.523 234.526 192.523ZM241.657 193.75V195.336H239.977V199.633C239.977 199.93 240.037 200.135 240.157 200.25C240.276 200.359 240.495 200.414 240.813 200.414H241.657V202H240.469C239.631 202 239.008 201.831 238.602 201.492C238.201 201.154 238 200.63 238 199.922V195.336H236.563V193.75H238V191.5H239.977V193.75H241.657ZM246.381 202.188C245.569 202.188 244.858 202.008 244.248 201.648C243.639 201.284 243.162 200.779 242.819 200.133C242.48 199.487 242.311 198.737 242.311 197.883C242.311 197.029 242.48 196.279 242.819 195.633C243.162 194.982 243.639 194.474 244.248 194.109C244.858 193.745 245.569 193.562 246.381 193.562C247.189 193.562 247.897 193.745 248.506 194.109C249.121 194.474 249.597 194.982 249.936 195.633C250.28 196.279 250.452 197.029 250.452 197.883C250.452 198.737 250.28 199.487 249.936 200.133C249.597 200.779 249.121 201.284 248.506 201.648C247.897 202.008 247.189 202.188 246.381 202.188ZM246.381 200.539C247.011 200.539 247.514 200.302 247.889 199.828C248.264 199.354 248.452 198.706 248.452 197.883C248.452 197.06 248.264 196.409 247.889 195.93C247.514 195.451 247.011 195.211 246.381 195.211C245.746 195.211 245.241 195.451 244.866 195.93C244.491 196.404 244.303 197.055 244.303 197.883C244.303 198.706 244.491 199.354 244.866 199.828C245.241 200.302 245.746 200.539 246.381 200.539ZM251.739 202V193.75H253.637V195.117H253.661C253.812 194.648 254.049 194.292 254.372 194.047C254.7 193.797 255.129 193.672 255.661 193.672C255.796 193.672 255.916 193.677 256.02 193.688C256.129 193.693 256.223 193.698 256.301 193.703V195.453C256.228 195.443 256.103 195.43 255.926 195.414C255.749 195.398 255.564 195.391 255.372 195.391C254.903 195.391 254.507 195.552 254.184 195.875C253.866 196.198 253.708 196.682 253.708 197.328V202H251.739ZM257.424 202V193.75H259.393V202H257.424ZM258.409 192.523C258.07 192.523 257.789 192.417 257.565 192.203C257.341 191.984 257.229 191.716 257.229 191.398C257.229 191.081 257.341 190.815 257.565 190.602C257.789 190.388 258.07 190.281 258.409 190.281C258.742 190.281 259.021 190.388 259.245 190.602C259.469 190.815 259.581 191.081 259.581 191.398C259.581 191.716 259.469 191.984 259.245 192.203C259.021 192.417 258.742 192.523 258.409 192.523ZM263.032 197.336V202H261.063V193.75H263.001V195.016C263.574 194.062 264.417 193.586 265.532 193.586C266.396 193.586 267.102 193.865 267.649 194.422C268.201 194.979 268.477 195.786 268.477 196.844V202H266.501V197.156C266.501 196.552 266.355 196.094 266.063 195.781C265.771 195.469 265.363 195.312 264.837 195.312C264.321 195.312 263.891 195.474 263.548 195.797C263.204 196.12 263.032 196.633 263.032 197.336ZM273.897 205.375C272.809 205.375 271.944 205.141 271.303 204.672C270.663 204.203 270.288 203.568 270.178 202.766H272.108C272.202 203.12 272.408 203.388 272.725 203.57C273.043 203.758 273.434 203.852 273.897 203.852C274.512 203.852 274.988 203.685 275.327 203.352C275.671 203.018 275.842 202.536 275.842 201.906V200.648H275.835C275.569 201.133 275.223 201.49 274.796 201.719C274.369 201.943 273.884 202.055 273.342 202.055C272.624 202.055 271.996 201.875 271.46 201.516C270.923 201.156 270.507 200.661 270.21 200.031C269.918 199.396 269.772 198.664 269.772 197.836C269.772 197.003 269.921 196.266 270.217 195.625C270.514 194.984 270.931 194.484 271.467 194.125C272.004 193.766 272.624 193.586 273.327 193.586C273.863 193.586 274.348 193.701 274.78 193.93C275.217 194.154 275.572 194.503 275.842 194.977H275.85V193.75H277.796V201.789C277.796 202.638 277.626 203.326 277.288 203.852C276.949 204.383 276.486 204.768 275.897 205.008C275.309 205.253 274.642 205.375 273.897 205.375ZM273.803 200.43C274.449 200.43 274.965 200.193 275.35 199.719C275.741 199.24 275.936 198.604 275.936 197.812C275.936 197.021 275.741 196.388 275.35 195.914C274.965 195.435 274.449 195.195 273.803 195.195C273.194 195.195 272.702 195.422 272.327 195.875C271.952 196.328 271.764 196.974 271.764 197.812C271.764 198.656 271.952 199.305 272.327 199.758C272.702 200.206 273.194 200.43 273.803 200.43Z" fill="white"/>
</g>
<rect x="312.5" y="177" width="182" height="38" rx="19" fill="white" fill-opacity="0.9" stroke="white" stroke-width="2"/>
<rect x="1" y="208" width="397" height="192" fill="url(#paint1_linear_20355_460)"/>
</g>
<rect x="3.16663" y="2.5" width="392.333" height="395" rx="29.5" stroke="white" stroke-width="5"/>
<defs>
<filter id="filter0_d_20355_460" x="203.5" y="32" width="151" height="48" filterUnits="userSpaceOnUse" color-interpolation-filters="sRGB">
<feFlood flood-opacity="0" result="BackgroundImageFix"/>
<feColorMatrix in="SourceAlpha" type="matrix" values="0 0 0 0 0 0 0 0 0 0 0 0 0 0 0 0 0 0 127 0" result="hardAlpha"/>
<feOffset dy="4"/>
<feGaussianBlur stdDeviation="2"/>
<feComposite in2="hardAlpha" operator="out"/>
<feColorMatrix type="matrix" values="0 0 0 0 0 0 0 0 0 0 0 0 0 0 0 0 0 0 0.04 0"/>
<feBlend mode="normal" in2="BackgroundImageFix" result="effect1_dropShadow_20355_460"/>
<feBlend mode="normal" in="SourceGraphic" in2="effect1_dropShadow_20355_460" result="shape"/>
</filter>
<filter id="filter1_d_20355_460" x="70" y="104" width="138" height="48" filterUnits="userSpaceOnUse" color-interpolation-filters="sRGB">
<feFlood flood-opacity="0" result="BackgroundImageFix"/>
<feColorMatrix in="SourceAlpha" type="matrix" values="0 0 0 0 0 0 0 0 0 0 0 0 0 0 0 0 0 0 127 0" result="hardAlpha"/>
<feOffset dy="4"/>
<feGaussianBlur stdDeviation="2"/>
<feComposite in2="hardAlpha" operator="out"/>
<feColorMatrix type="matrix" values="0 0 0 0 0 0 0 0 0 0 0 0 0 0 0 0 0 0 0.04 0"/>
<feBlend mode="normal" in2="BackgroundImageFix" result="effect1_dropShadow_20355_460"/>
<feBlend mode="normal" in="SourceGraphic" in2="effect1_dropShadow_20355_460" result="shape"/>
</filter>
<filter id="filter2_d_20355_460" x="154.5" y="176" width="145" height="48" filterUnits="userSpaceOnUse" color-interpolation-filters="sRGB">
<feFlood flood-opacity="0" result="BackgroundImageFix"/>
<feColorMatrix in="SourceAlpha" type="matrix" values="0 0 0 0 0 0 0 0 0 0 0 0 0 0 0 0 0 0 127 0" result="hardAlpha"/>
<feOffset dy="4"/>
<feGaussianBlur stdDeviation="2"/>
<feComposite in2="hardAlpha" operator="out"/>
<feColorMatrix type="matrix" values="0 0 0 0 0 0 0 0 0 0 0 0 0 0 0 0 0 0 0.04 0"/>
<feBlend mode="normal" in2="BackgroundImageFix" result="effect1_dropShadow_20355_460"/>
<feBlend mode="normal" in="SourceGraphic" in2="effect1_dropShadow_20355_460" result="shape"/>
</filter>
<radialGradient id="paint0_radial_20355_460" cx="0" cy="0" r="1" gradientUnits="userSpaceOnUse" gradientTransform="translate(199.333 400) rotate(-90) scale(299.638 297.64)">
<stop stop-color="white"/>
<stop offset="1" stop-color="#F5F8FF"/>
</radialGradient>
<linearGradient id="paint1_linear_20355_460" x1="199.5" y1="208" x2="199.5" y2="400" gradientUnits="userSpaceOnUse">
<stop stop-color="white" stop-opacity="0"/>
<stop offset="0.32" stop-color="white"/>
<stop offset="1" stop-color="white"/>
</linearGradient>
<clipPath id="clip0_20355_460">
<rect x="0.666626" width="397.333" height="400" rx="32" fill="white"/>
</clipPath>
</defs>
</svg>
