<svg width="17" height="17" viewBox="0 0 17 17" fill="none" xmlns="http://www.w3.org/2000/svg">
<path d="M12.0306 9.0306L7.0306 14.0306C6.8897 14.1715 6.69861 14.2506 6.49935 14.2506C6.30009 14.2506 6.10899 14.1715 5.9681 14.0306C5.8272 13.8897 5.74805 13.6986 5.74805 13.4993C5.74805 13.3001 5.8272 13.109 5.9681 12.9681L10.4375 8.49997L5.96935 4.0306C5.89958 3.96083 5.84424 3.87801 5.80649 3.78686C5.76873 3.69571 5.7493 3.59801 5.7493 3.49935C5.7493 3.40069 5.76873 3.30299 5.80649 3.21184C5.84424 3.12069 5.89958 3.03786 5.96935 2.9681C6.03911 2.89833 6.12194 2.84299 6.21309 2.80524C6.30424 2.76748 6.40194 2.74805 6.5006 2.74805C6.59926 2.74805 6.69696 2.76748 6.78811 2.80524C6.87926 2.84299 6.96208 2.89833 7.03185 2.9681L12.0318 7.9681C12.1017 8.03786 12.1571 8.12072 12.1948 8.21193C12.2326 8.30313 12.2519 8.4009 12.2518 8.49961C12.2517 8.59832 12.2321 8.69603 12.1941 8.78715C12.1562 8.87827 12.1006 8.961 12.0306 9.0306Z" fill="black"/>
</svg>
