<svg width="32" height="32" viewBox="0 0 32 32" fill="none" xmlns="http://www.w3.org/2000/svg">
<path d="M30.9919 15.565C30.7644 9.6925 25.8844 5 20.0081 5C17.964 5.00032 15.9603 5.56958 14.2213 6.64404C12.4823 7.71851 11.0767 9.25577 10.1619 11.0837C9.40148 12.5992 9.00393 14.2707 9.00061 15.9663C9.00453 16.2239 8.91104 16.4735 8.73884 16.6652C8.56664 16.8568 8.32843 16.9764 8.07186 17C7.93467 17.0098 7.79693 16.9912 7.66726 16.9453C7.53759 16.8995 7.41877 16.8274 7.31823 16.7335C7.21769 16.6397 7.13759 16.5261 7.08294 16.3999C7.02829 16.2737 7.00026 16.1375 7.00061 16C6.99955 14.6013 7.22497 13.2116 7.66811 11.885C7.69731 11.7999 7.70302 11.7086 7.68465 11.6205C7.66627 11.5325 7.62449 11.451 7.56371 11.3848C7.50293 11.3185 7.42539 11.2698 7.33927 11.2439C7.25315 11.218 7.16163 11.2158 7.07436 11.2375C5.34164 11.6694 3.80288 12.6678 2.70246 14.0742C1.60204 15.4805 1.00305 17.2143 1.00061 19C1.00061 23.3988 4.71936 27 9.12561 27H20.0006C21.4813 26.9984 22.9465 26.6982 24.3085 26.1173C25.6705 25.5364 26.9013 24.6868 27.9274 23.6193C28.9535 22.5518 29.7537 21.2883 30.2803 19.9044C30.8068 18.5205 31.0488 17.0446 30.9919 15.565ZM24.7081 14.7075L18.7081 20.7075C18.6152 20.8005 18.5049 20.8742 18.3836 20.9246C18.2622 20.9749 18.132 21.0008 18.0006 21.0008C17.8692 21.0008 17.7391 20.9749 17.6177 20.9246C17.4963 20.8742 17.386 20.8005 17.2931 20.7075L14.2931 17.7075C14.1055 17.5199 14.0001 17.2654 14.0001 17C14.0001 16.7346 14.1055 16.4801 14.2931 16.2925C14.4808 16.1049 14.7352 15.9994 15.0006 15.9994C15.266 15.9994 15.5205 16.1049 15.7081 16.2925L18.0006 18.5863L23.2931 13.2925C23.386 13.1996 23.4963 13.1259 23.6177 13.0756C23.7391 13.0253 23.8692 12.9994 24.0006 12.9994C24.132 12.9994 24.2621 13.0253 24.3835 13.0756C24.5049 13.1259 24.6152 13.1996 24.7081 13.2925C24.801 13.3854 24.8747 13.4957 24.925 13.6171C24.9753 13.7385 25.0012 13.8686 25.0012 14C25.0012 14.1314 24.9753 14.2615 24.925 14.3829C24.8747 14.5043 24.801 14.6146 24.7081 14.7075Z" fill="white"/>
</svg>
