<svg width="50" height="50" viewBox="0 0 50 50" fill="none" xmlns="http://www.w3.org/2000/svg">
<path d="M0.195312 2.19873L8.69297 15.5386V23.994H14.1457V15.5386L23.0422 2.19873H17.175L11.727 10.7878L6.32383 2.19873H0.195312ZM25.193 2.24951L15.9508 24.0456H20.3215L22.3289 19.1987H32.1984L33.8594 24.0456H38.5301L29.6629 2.2499L25.193 2.24951ZM27.5336 6.84873L30.5586 14.8468H24.1574L27.5336 6.84873ZM33.8598 26.4343V47.7038H49.8047V43.1585H38.5297V26.4343H33.8598ZM8.69258 26.4386V47.8007H13.2762V33.0651L18.073 42.9694H21.6797L26.6406 32.7171V47.796H31.0375V26.4382H25.0336L19.707 36.0991L14.6344 26.4382L8.69258 26.4386Z" fill="white"/>
</svg>
