<svg width="21" height="20" viewBox="0 0 21 20" fill="none" xmlns="http://www.w3.org/2000/svg">
<path d="M18.3125 11.25V16.25C18.3125 16.4986 18.2137 16.7371 18.0379 16.9129C17.8621 17.0887 17.6236 17.1875 17.375 17.1875H3.625C3.37636 17.1875 3.1379 17.0887 2.96209 16.9129C2.78627 16.7371 2.6875 16.4986 2.6875 16.25V11.25C2.6875 11.0014 2.78627 10.7629 2.96209 10.5871C3.1379 10.4113 3.37636 10.3125 3.625 10.3125C3.87364 10.3125 4.1121 10.4113 4.28791 10.5871C4.46373 10.7629 4.5625 11.0014 4.5625 11.25V15.3125H16.4375V11.25C16.4375 11.0014 16.5363 10.7629 16.7121 10.5871C16.8879 10.4113 17.1264 10.3125 17.375 10.3125C17.6236 10.3125 17.8621 10.4113 18.0379 10.5871C18.2137 10.7629 18.3125 11.0014 18.3125 11.25ZM9.83672 11.9133C9.92382 12.0007 10.0273 12.07 10.1413 12.1173C10.2552 12.1647 10.3774 12.189 10.5008 12.189C10.6242 12.189 10.7463 12.1647 10.8603 12.1173C10.9743 12.07 11.0777 12.0007 11.1648 11.9133L14.2898 8.78828C14.466 8.61216 14.5649 8.37329 14.5649 8.12422C14.5649 7.87515 14.466 7.63628 14.2898 7.46016C14.1137 7.28404 13.8749 7.18509 13.6258 7.18509C13.3767 7.18509 13.1378 7.28404 12.9617 7.46016L11.4375 8.98438V2.5C11.4375 2.25136 11.3387 2.0129 11.1629 1.83709C10.9871 1.66127 10.7486 1.5625 10.5 1.5625C10.2514 1.5625 10.0129 1.66127 9.83709 1.83709C9.66127 2.0129 9.5625 2.25136 9.5625 2.5V8.98438L8.03828 7.46172C7.95108 7.37451 7.84755 7.30534 7.73361 7.25814C7.61967 7.21095 7.49755 7.18666 7.37422 7.18666C7.12515 7.18666 6.88628 7.2856 6.71016 7.46172C6.62295 7.54892 6.55377 7.65245 6.50658 7.76639C6.45938 7.88033 6.43509 8.00245 6.43509 8.12578C6.43509 8.37485 6.53404 8.61372 6.71016 8.78984L9.83672 11.9133Z" fill="white"/>
</svg>
