<svg width="32" height="32" viewBox="0 0 32 32" fill="none" xmlns="http://www.w3.org/2000/svg">
<path d="M17.6797 14H20.3464V15.3333H17.6797V14Z" fill="white"/>
<path d="M26.666 5.33334H5.33268C4.62544 5.33334 3.94716 5.61429 3.44706 6.11439C2.94697 6.61449 2.66602 7.29277 2.66602 8.00001V24C2.66602 24.7073 2.94697 25.3855 3.44706 25.8856C3.94716 26.3857 4.62544 26.6667 5.33268 26.6667H26.666C27.3733 26.6667 28.0515 26.3857 28.5516 25.8856C29.0517 25.3855 29.3327 24.7073 29.3327 24V8.00001C29.3327 7.29277 29.0517 6.61449 28.5516 6.11439C28.0515 5.61429 27.3733 5.33334 26.666 5.33334ZM11.1993 20L10.666 18.36H8.07935L7.49268 20H5.33268L8.26602 12H10.426L13.3327 20H11.1993ZM22.346 15.3333C22.3515 15.5975 22.3035 15.86 22.2049 16.1051C22.1063 16.3502 21.9592 16.5729 21.7724 16.7597C21.5855 16.9465 21.3629 17.0936 21.1178 17.1922C20.8727 17.2908 20.6102 17.3388 20.346 17.3333H17.6793V20H15.6793V12H20.346C20.6102 11.9946 20.8727 12.0426 21.1178 12.1412C21.3629 12.2397 21.5855 12.3869 21.7724 12.5737C21.9592 12.7605 22.1063 12.9831 22.2049 13.2282C22.3035 13.4734 22.3515 13.7359 22.346 14V15.3333ZM26.666 20H24.666V12H26.666V20Z" fill="white"/>
<path d="M8.57422 17.0267H10.1209L9.34755 14.9067L8.57422 17.0267Z" fill="white"/>
</svg>
