<svg width="32" height="32" viewBox="0 0 32 32" fill="none" xmlns="http://www.w3.org/2000/svg">
<path d="M4 7.99998C4 6.52915 5.19583 5.33331 6.66667 5.33331H13.3333V10.6666C13.3333 11.4041 13.9292 12 14.6667 12H20V13.9583L16.1333 15.5041C15.2458 15.8583 14.6667 16.7166 14.6667 17.6708C14.6667 20.0291 15.4542 23.8375 18.5917 26.35C18.2167 26.55 17.7875 26.6666 17.3333 26.6666H6.66667C5.19583 26.6666 4 25.4708 4 24V7.99998ZM20 10.6666H14.6667V5.33331L20 10.6666ZM21.6292 14.7375C21.8667 14.6416 22.1333 14.6416 22.3708 14.7375L27.3708 16.7375C27.75 16.8916 28 17.2583 28 17.6666C28 20.3041 26.9208 24.7 22.3833 26.5916C22.1375 26.6958 21.8583 26.6958 21.6125 26.5916C17.0792 24.7 16 20.3041 16 17.6666C16 17.2583 16.25 16.8916 16.6292 16.7375L21.6292 14.7375ZM25.975 18.3333L22 16.7416V24.5666C24.8417 23.1916 25.8125 20.4416 25.975 18.3291V18.3333Z" fill="white"/>
</svg>
