<svg width="32" height="32" viewBox="0 0 32 32" fill="none" xmlns="http://www.w3.org/2000/svg">
<path d="M11.2008 8.00001C11.2008 6.72697 11.7065 5.50607 12.6067 4.6059C13.5068 3.70573 14.7277 3.20001 16.0008 3.20001C17.2738 3.20001 18.4947 3.70573 19.3949 4.6059C20.2951 5.50607 20.8008 6.72697 20.8008 8.00001V9.60001H22.4008C23.6738 9.60001 24.8947 10.1057 25.7949 11.0059C26.6951 11.9061 27.2008 13.127 27.2008 14.4V14.6016C26.1828 14.3385 25.1158 14.3303 24.0939 14.5776C23.072 14.8249 22.1268 15.3202 21.3418 16.0196C20.5568 16.719 19.9562 17.6011 19.5931 18.5878C19.23 19.5744 19.1156 20.6354 19.26 21.6768L15.3384 25.6C14.7382 26.2 14.401 27.0138 14.4008 27.8624V28.8H9.60078C8.32774 28.8 7.10684 28.2943 6.20667 27.3941C5.30649 26.494 4.80078 25.2731 4.80078 24V14.4C4.80078 13.127 5.30649 11.9061 6.20667 11.0059C7.10684 10.1057 8.32774 9.60001 9.60078 9.60001H11.2008V8.00001ZM16.0008 4.80001C15.1521 4.80001 14.3382 5.13715 13.738 5.73727C13.1379 6.33739 12.8008 7.15132 12.8008 8.00001V9.60001H19.2008V8.00001C19.2008 7.15132 18.8636 6.33739 18.2635 5.73727C17.6634 5.13715 16.8495 4.80001 16.0008 4.80001ZM14.4008 19.2C14.4008 19.6244 14.5694 20.0313 14.8694 20.3314C15.1695 20.6314 15.5764 20.8 16.0008 20.8C16.4251 20.8 16.8321 20.6314 17.1322 20.3314C17.4322 20.0313 17.6008 19.6244 17.6008 19.2C17.6008 18.7757 17.4322 18.3687 17.1322 18.0686C16.8321 17.7686 16.4251 17.6 16.0008 17.6C15.5764 17.6 15.1695 17.7686 14.8694 18.0686C14.5694 18.3687 14.4008 18.7757 14.4008 19.2ZM25.6008 25.6C26.6104 25.5999 27.5943 25.2815 28.4125 24.69C29.2308 24.0985 29.8416 23.2641 30.1583 22.3054C30.4749 21.3467 30.4812 20.3126 30.1762 19.3501C29.8712 18.3876 29.2705 17.5458 28.4595 16.9444C27.6486 16.3431 26.6686 16.0127 25.659 16.0004C24.6495 15.988 23.6617 16.2944 22.8363 16.8758C22.0109 17.4572 21.3898 18.284 21.0614 19.2388C20.733 20.1935 20.7141 21.2275 21.0072 22.1936L16.4696 26.7312C16.1695 27.0312 16.0009 27.4381 16.0008 27.8624V29.6C16.0008 29.8122 16.0851 30.0157 16.2351 30.1657C16.3851 30.3157 16.5886 30.4 16.8008 30.4H20.0008C20.213 30.4 20.4164 30.3157 20.5665 30.1657C20.7165 30.0157 20.8008 29.8122 20.8008 29.6V28.8H21.6008C21.813 28.8 22.0164 28.7157 22.1665 28.5657C22.3165 28.4157 22.4008 28.2122 22.4008 28V27.2H23.2008C23.413 27.2 23.6164 27.1157 23.7665 26.9657C23.9165 26.8157 24.0008 26.6122 24.0008 26.4V25.328C24.5016 25.504 25.0408 25.6 25.6008 25.6ZM26.8008 18.4C27.119 18.4 27.4243 18.5264 27.6493 18.7515C27.8744 18.9765 28.0008 19.2818 28.0008 19.6C28.0008 19.9183 27.8744 20.2235 27.6493 20.4485C27.4243 20.6736 27.119 20.8 26.8008 20.8C26.4825 20.8 26.1773 20.6736 25.9523 20.4485C25.7272 20.2235 25.6008 19.9183 25.6008 19.6C25.6008 19.2818 25.7272 18.9765 25.9523 18.7515C26.1773 18.5264 26.4825 18.4 26.8008 18.4Z" fill="white"/>
</svg>
