<svg width="32" height="32" viewBox="0 0 32 32" fill="none" xmlns="http://www.w3.org/2000/svg">
<path d="M6.625 4.75H25.375C27.4431 4.75 29.125 6.43187 29.125 8.5V19.75C29.125 21.8181 27.4431 23.5 25.375 23.5H13.4125C14.2222 22.803 14.8724 21.9399 15.3188 20.9693C15.7653 19.9987 15.9976 18.9434 16 17.875C15.9976 16.8066 15.7653 15.7513 15.3188 14.7807C14.8724 13.8101 14.2222 12.947 13.4125 12.25H22.5625C22.8111 12.25 23.0496 12.1512 23.2254 11.9754C23.4012 11.7996 23.5 11.5611 23.5 11.3125C23.5 11.0639 23.4012 10.8254 23.2254 10.6496C23.0496 10.4738 22.8111 10.375 22.5625 10.375H8.5C7.43164 10.3774 6.37631 10.6097 5.40571 11.0562C4.43511 11.5026 3.57199 12.1528 2.875 12.9625V8.5C2.875 6.43187 4.55687 4.75 6.625 4.75ZM18.8125 17.875H22.5625C22.8111 17.875 23.0496 17.7762 23.2254 17.6004C23.4012 17.4246 23.5 17.1861 23.5 16.9375C23.5 16.6889 23.4012 16.4504 23.2254 16.2746C23.0496 16.0988 22.8111 16 22.5625 16H18.8125C18.5639 16 18.3254 16.0988 18.1496 16.2746C17.9738 16.4504 17.875 16.6889 17.875 16.9375C17.875 17.1861 17.9738 17.4246 18.1496 17.6004C18.3254 17.7762 18.5639 17.875 18.8125 17.875ZM8.5 23.5C9.99184 23.5 11.4226 22.9074 12.4775 21.8525C13.5324 20.7976 14.125 19.3668 14.125 17.875C14.125 16.3832 13.5324 14.9524 12.4775 13.8975C11.4226 12.8426 9.99184 12.25 8.5 12.25C7.00816 12.25 5.57742 12.8426 4.52252 13.8975C3.46763 14.9524 2.875 16.3832 2.875 17.875C2.875 19.3668 3.46763 20.7976 4.52252 21.8525C5.57742 22.9074 7.00816 23.5 8.5 23.5ZM4.75 28.1875V24.3306C5.88506 25.0054 7.17954 25.3653 8.5 25.3731C9.8725 25.3731 11.1419 24.9756 12.25 24.3306V28.1856C12.2501 28.3553 12.2041 28.5219 12.1169 28.6675C12.0297 28.8132 11.9046 28.9324 11.755 29.0125C11.6056 29.0927 11.4372 29.1309 11.2678 29.1229C11.0985 29.115 10.9344 29.0613 10.7931 28.9675L8.5 27.4375L6.20687 28.9656C6.06626 29.0615 5.90207 29.1171 5.73212 29.1263C5.56217 29.1354 5.39294 29.0979 5.24282 29.0177C5.09269 28.9375 4.96739 28.8178 4.88051 28.6714C4.79363 28.525 4.7485 28.3577 4.75 28.1875Z" fill="#4C4C4C"/>
</svg>
