<svg width="1479" height="311" viewBox="0 0 1479 311" fill="none" xmlns="http://www.w3.org/2000/svg">
<g opacity="0.4">
<path d="M1427.18 182.75C1425.91 193.955 1420.08 205.334 1409.68 216.885C1393.51 235.252 1370.87 244.436 1341.76 244.436C1317.73 244.436 1296.53 236.696 1278.16 221.217C1259.8 205.738 1250.61 180.555 1250.61 145.67C1250.61 112.979 1258.87 87.9115 1275.39 70.4686C1292.03 53.0257 1313.57 44.3042 1340.02 44.3042C1355.73 44.3042 1369.88 47.2499 1382.47 53.1412C1395.07 59.0325 1405.46 68.3315 1413.66 81.0383C1421.06 92.2434 1425.85 105.239 1428.05 120.025C1429.32 128.689 1429.84 141.164 1429.61 157.452H1300.34C1301.04 176.397 1306.99 189.681 1318.19 197.305C1325.01 202.041 1333.21 204.409 1342.8 204.409C1352.96 204.409 1361.22 201.522 1367.57 195.746C1371.04 192.627 1374.1 188.295 1376.76 182.75H1427.18ZM1378.32 124.877C1377.51 111.823 1373.52 101.947 1366.36 95.2468C1359.31 88.4313 1350.53 85.0236 1340.02 85.0236C1328.59 85.0236 1319.69 88.6046 1313.34 95.7666C1307.1 102.929 1303.17 112.632 1301.56 124.877H1378.32Z" fill="white"/>
<path d="M1152.51 85.7053C1135.87 85.7053 1124.46 92.8676 1118.26 107.192C1115.05 114.762 1113.45 124.428 1113.45 136.19V239.256H1064.58V49.1955H1111.9V76.9709C1118.21 67.1884 1124.17 60.1426 1129.79 55.8336C1139.89 48.1473 1152.68 44.3042 1168.17 44.3042C1187.55 44.3042 1203.38 49.4866 1215.66 59.8515C1228.05 70.0998 1234.24 87.1611 1234.24 111.035V239.256H1184V123.438C1184 113.423 1182.68 105.736 1180.04 100.379C1175.22 90.5966 1166.04 85.7053 1152.51 85.7053Z" fill="white"/>
<path d="M1019.17 74.3057C1035.05 94.3068 1042.99 117.95 1042.99 145.234C1042.99 172.981 1035.05 196.74 1019.17 216.51C1003.29 236.164 979.18 245.991 946.843 245.991C914.506 245.991 890.397 236.164 874.517 216.51C858.636 196.74 850.696 172.981 850.696 145.234C850.696 117.95 858.636 94.3068 874.517 74.3057C890.397 54.3047 914.506 44.3042 946.843 44.3042C979.18 44.3042 1003.29 54.3047 1019.17 74.3057ZM946.67 86.0983C932.286 86.0983 921.181 91.243 913.355 101.533C905.645 111.707 901.79 126.274 901.79 145.234C901.79 164.195 905.645 178.82 913.355 189.109C921.181 199.399 932.286 204.544 946.67 204.544C961.055 204.544 972.103 199.399 979.813 189.109C987.523 178.82 991.378 164.195 991.378 145.234C991.378 126.274 987.523 111.707 979.813 101.533C972.103 91.243 961.055 86.0983 946.67 86.0983Z" fill="white"/>
<path d="M845.148 202.293V238.777L822.024 239.634C798.957 240.433 783.199 236.436 774.748 227.644C769.267 222.048 766.526 213.427 766.526 201.779V86.8437H740.49V52.072H766.526V0H814.83V52.072H845.148V86.8437H814.83V185.506C814.83 193.157 815.801 197.953 817.742 199.895C819.683 201.722 825.621 202.635 835.556 202.635C837.041 202.635 838.582 202.635 840.181 202.635C841.894 202.521 843.55 202.407 845.148 202.293Z" fill="white"/>
<path d="M706.203 58.4128C720.947 67.9346 729.413 84.3075 731.601 107.531H682.359C681.668 101.145 679.883 96.0937 677.003 92.3778C671.589 85.6429 662.375 82.2754 649.358 82.2754C638.646 82.2754 630.986 83.9591 626.379 87.3266C621.887 90.6941 619.64 94.6422 619.64 99.1709C619.64 104.861 622.059 108.983 626.897 111.538C631.735 114.208 648.84 118.795 678.213 125.298C697.794 129.943 712.481 136.968 722.271 146.374C731.947 155.895 736.785 167.798 736.785 182.08C736.785 200.892 729.816 216.278 715.878 228.238C702.056 240.082 680.631 246.004 651.605 246.004C622.002 246.004 600.116 239.734 585.948 227.193C571.896 214.536 564.869 198.453 564.869 178.945H614.803C615.839 187.77 618.085 194.041 621.541 197.757C627.646 204.375 638.934 207.685 655.406 207.685C665.081 207.685 672.741 206.233 678.385 203.33C684.145 200.427 687.024 196.073 687.024 190.267C687.024 184.693 684.721 180.455 680.113 177.552C675.506 174.649 658.401 169.656 628.798 162.572C607.488 157.231 592.456 150.554 583.702 142.542C574.948 134.645 570.571 123.266 570.571 108.402C570.571 90.8683 577.367 75.8307 590.959 63.2898C604.666 50.6327 623.902 44.3042 648.667 44.3042C672.165 44.3042 691.344 49.0071 706.203 58.4128Z" fill="white"/>
<path d="M531.205 71.3309C546.232 87.3819 553.745 110.946 553.745 142.024C553.745 174.809 546.346 199.796 531.547 216.985C516.862 234.175 497.908 242.769 474.685 242.769C459.887 242.769 447.592 239.07 437.802 231.67C432.452 227.572 427.215 221.596 422.093 213.741V310.73H373.94V51.3525H420.556V78.8441C425.792 70.7617 431.37 64.3869 437.29 59.7195C448.104 51.4094 460.968 47.2544 475.881 47.2544C497.624 47.2544 516.065 55.2799 531.205 71.3309ZM503.543 144.414C503.543 130.071 500.242 117.378 493.639 106.336C487.151 95.2936 476.564 89.7725 461.879 89.7725C444.234 89.7725 432.11 98.1395 425.508 114.874C422.093 123.753 420.385 135.023 420.385 148.683C420.385 170.312 426.134 185.509 437.631 194.275C444.462 199.397 452.544 201.959 461.879 201.959C475.425 201.959 485.728 196.722 492.785 186.249C499.957 175.776 503.543 161.831 503.543 144.414Z" fill="white"/>
<path d="M201.141 71.7693C213.966 55.426 235.984 47.2544 267.195 47.2544C287.51 47.2544 305.556 51.2835 321.332 59.3416C337.108 67.3998 344.996 82.6081 344.996 104.967V190.088C344.996 195.99 345.109 203.14 345.336 211.539C345.677 217.894 346.641 222.207 348.23 224.477C349.819 226.747 352.203 228.62 355.381 230.095V237.245H302.605C301.13 233.5 300.108 229.982 299.541 226.69C298.973 223.399 298.519 219.654 298.179 215.454C291.483 222.718 283.765 228.903 275.026 234.011C264.584 240.026 252.781 243.034 239.616 243.034C222.818 243.034 208.915 238.267 197.906 228.733C187.011 219.086 181.563 205.467 181.563 187.875C181.563 165.062 190.359 148.549 207.95 138.334C217.597 132.773 231.784 128.801 250.511 126.417L267.025 124.374C275.991 123.239 282.403 121.821 286.262 120.118C293.185 117.167 296.647 112.571 296.647 106.329C296.647 98.7244 293.98 93.5037 288.645 90.6663C283.425 87.7154 275.707 86.24 265.492 86.24C254.029 86.24 245.915 89.0774 241.148 94.7521C237.743 98.9514 235.473 104.626 234.338 111.776H187.521C188.543 95.5466 193.082 82.2109 201.141 71.7693ZM237.232 202.175C241.772 205.921 247.333 207.793 253.916 207.793C264.357 207.793 273.948 204.729 282.687 198.6C291.54 192.471 296.136 181.292 296.477 165.062V147.017C293.412 148.946 290.291 150.535 287.113 151.783C284.049 152.918 279.793 153.997 274.345 155.018L263.45 157.061C253.235 158.877 245.914 161.09 241.488 163.7C233.998 168.127 230.252 174.993 230.252 184.3C230.252 192.585 232.579 198.543 237.232 202.175Z" fill="white"/>
<path d="M173.304 119.163H122.951C122.032 112.15 119.675 105.827 115.881 100.194C110.363 92.6067 101.798 88.813 90.1873 88.813C73.6329 88.813 62.3091 97.0327 56.2162 113.472C52.9973 122.209 51.3878 133.82 51.3878 148.306C51.3878 162.101 52.9973 173.195 56.2162 181.587C62.0792 197.222 73.1155 205.039 89.3251 205.039C100.821 205.039 108.984 201.935 113.812 195.727C118.64 189.519 121.572 181.472 122.606 171.585H172.787C171.638 186.53 166.234 200.671 156.578 214.006C141.173 235.504 118.353 246.253 88.118 246.253C57.8831 246.253 35.6381 237.286 21.3828 219.352C7.12761 201.418 0 178.138 0 149.513C0 117.208 7.87487 92.0894 23.6246 74.1554C39.3743 56.2214 61.1021 47.2544 88.8078 47.2544C112.375 47.2544 131.631 52.5426 146.576 63.1191C161.636 73.6955 170.545 92.3768 173.304 119.163Z" fill="white"/>
<circle cx="1452.21" cy="209.32" r="26.4393" fill="white"/>
</g>
</svg>
