<svg width="50" height="50" viewBox="0 0 50 50" fill="none" xmlns="http://www.w3.org/2000/svg">
<path d="M40.625 7.8125H9.375C8.5462 7.8125 7.75134 8.14174 7.16529 8.72779C6.57924 9.31384 6.25 10.1087 6.25 10.9375V20.3125C6.25 21.1413 6.57924 21.9362 7.16529 22.5222C7.75134 23.1083 8.5462 23.4375 9.375 23.4375H40.625C41.4538 23.4375 42.2487 23.1083 42.8347 22.5222C43.4208 21.9362 43.75 21.1413 43.75 20.3125V10.9375C43.75 10.1087 43.4208 9.31384 42.8347 8.72779C42.2487 8.14174 41.4538 7.8125 40.625 7.8125ZM35.1562 17.9688C34.6927 17.9688 34.2396 17.8313 33.8541 17.5738C33.4687 17.3162 33.1683 16.9502 32.9909 16.5219C32.8135 16.0936 32.7671 15.6224 32.8575 15.1678C32.948 14.7131 33.1712 14.2955 33.499 13.9677C33.8267 13.6399 34.2444 13.4167 34.699 13.3263C35.1537 13.2359 35.6249 13.2823 36.0532 13.4597C36.4814 13.6371 36.8475 13.9375 37.105 14.3229C37.3625 14.7083 37.5 15.1614 37.5 15.625C37.5 16.2466 37.2531 16.8427 36.8135 17.2823C36.374 17.7218 35.7779 17.9688 35.1562 17.9688Z" fill="#4A96F8"/>
<path d="M40.625 26.5625H9.375C8.5462 26.5625 7.75134 26.8917 7.16529 27.4778C6.57924 28.0638 6.25 28.8587 6.25 29.6875V39.0625C6.25 39.8913 6.57924 40.6862 7.16529 41.2722C7.75134 41.8583 8.5462 42.1875 9.375 42.1875H40.625C41.4538 42.1875 42.2487 41.8583 42.8347 41.2722C43.4208 40.6862 43.75 39.8913 43.75 39.0625V29.6875C43.75 28.8587 43.4208 28.0638 42.8347 27.4778C42.2487 26.8917 41.4538 26.5625 40.625 26.5625ZM35.1562 36.7188C34.6927 36.7188 34.2396 36.5813 33.8541 36.3238C33.4687 36.0662 33.1683 35.7002 32.9909 35.2719C32.8135 34.8436 32.7671 34.3724 32.8575 33.9178C32.948 33.4631 33.1712 33.0455 33.499 32.7177C33.8267 32.3899 34.2444 32.1667 34.699 32.0763C35.1537 31.9859 35.6249 32.0323 36.0532 32.2097C36.4814 32.3871 36.8475 32.6875 37.105 33.0729C37.3625 33.4583 37.5 33.9114 37.5 34.375C37.5 34.9966 37.2531 35.5927 36.8135 36.0323C36.374 36.4718 35.7779 36.7188 35.1562 36.7188Z" fill="#4A96F8"/>
</svg>
