<svg width="540" height="540" viewBox="0 0 540 540" fill="none" xmlns="http://www.w3.org/2000/svg">
<g clip-path="url(#clip0_19990_1202)">
<path d="M50 2H490C516.51 2 538 23.4903 538 50V490C538 516.51 516.51 538 490 538H50C23.4903 538 2 516.51 2 490V50L2.00391 49.3799C2.33331 23.3624 23.3624 2.33331 49.3799 2.00391L50 2Z" fill="white" fill-opacity="0.8" stroke="white" stroke-width="4"/>
<rect x="182" y="248" width="176" height="52.9557" rx="26.4779" fill="url(#paint0_linear_19990_1202)"/>
<rect x="183" y="249" width="174" height="50.9557" rx="25.4779" stroke="white" stroke-opacity="0.5" stroke-width="2"/>
<path d="M217.743 288.956H207.709L212.781 283.672H218.115C221.122 283.672 223.56 281.234 223.56 278.227V276.908H228.633V278.066C228.633 284.08 223.757 288.956 217.743 288.956Z" fill="white"/>
<path d="M217.743 288.956H207.709L212.781 283.672H218.115C221.122 283.672 223.56 281.234 223.56 278.227V276.908H228.633V278.066C228.633 284.08 223.757 288.956 217.743 288.956Z" fill="white"/>
<path d="M218.387 260H228.421L223.349 265.284H218.015C215.008 265.284 212.57 267.722 212.57 270.729V272.047H207.497V270.89C207.497 264.876 212.373 260 218.387 260Z" fill="white"/>
<path d="M218.387 260H228.421L223.349 265.284H218.015C215.008 265.284 212.57 267.722 212.57 270.729V272.047H207.497V270.89C207.497 264.876 212.373 260 218.387 260Z" fill="white"/>
<path d="M222.795 270.145H218.319L223.349 265.284C229.23 265.278 234 270.044 234 275.924V276.908H228.693V276.044C228.693 272.786 226.052 270.145 222.795 270.145Z" fill="white"/>
<path d="M222.795 270.145H218.319L223.349 265.284C229.23 265.278 234 270.044 234 275.924V276.908H228.693V276.044C228.693 272.786 226.052 270.145 222.795 270.145Z" fill="white"/>
<path d="M213.206 278.811H217.682L212.651 283.672C206.77 283.677 202 278.912 202 273.031V272.047H207.307V272.912C207.307 276.17 209.948 278.811 213.206 278.811Z" fill="white"/>
<path d="M213.206 278.811H217.682L212.651 283.672C206.77 283.677 202 278.912 202 273.031V272.047H207.307V272.912C207.307 276.17 209.948 278.811 213.206 278.811Z" fill="white"/>
<path d="M259.679 271.663H257.463C257.378 271.189 257.219 270.772 256.987 270.413C256.755 270.053 256.471 269.747 256.135 269.496C255.799 269.245 255.423 269.056 255.006 268.928C254.594 268.8 254.156 268.736 253.692 268.736C252.854 268.736 252.103 268.947 251.441 269.368C250.782 269.79 250.262 270.408 249.878 271.222C249.499 272.037 249.31 273.031 249.31 274.205C249.31 275.389 249.499 276.388 249.878 277.202C250.262 278.017 250.785 278.632 251.448 279.049C252.111 279.466 252.856 279.674 253.685 279.674C254.144 279.674 254.58 279.612 254.992 279.489C255.408 279.361 255.785 279.174 256.121 278.928C256.457 278.682 256.741 278.381 256.973 278.026C257.21 277.666 257.373 277.254 257.463 276.79L259.679 276.797C259.561 277.512 259.331 278.171 258.99 278.772C258.654 279.368 258.221 279.885 257.691 280.32C257.165 280.751 256.564 281.085 255.887 281.322C255.21 281.558 254.471 281.677 253.671 281.677C252.411 281.677 251.289 281.378 250.304 280.782C249.319 280.181 248.543 279.321 247.975 278.204C247.411 277.086 247.13 275.753 247.13 274.205C247.13 272.652 247.414 271.319 247.982 270.207C248.55 269.089 249.326 268.232 250.311 267.636C251.296 267.034 252.416 266.734 253.671 266.734C254.442 266.734 255.162 266.845 255.83 267.067C256.502 267.285 257.106 267.607 257.641 268.033C258.176 268.455 258.619 268.971 258.969 269.582C259.319 270.188 259.556 270.881 259.679 271.663ZM265.21 281.719C264.518 281.719 263.893 281.592 263.335 281.336C262.776 281.075 262.333 280.699 262.006 280.207C261.684 279.714 261.523 279.11 261.523 278.395C261.523 277.78 261.642 277.273 261.879 276.876C262.115 276.478 262.435 276.163 262.837 275.931C263.24 275.699 263.69 275.524 264.187 275.405C264.684 275.287 265.191 275.197 265.707 275.136C266.36 275.06 266.89 274.998 267.298 274.951C267.705 274.899 268.001 274.816 268.185 274.702C268.37 274.589 268.462 274.404 268.462 274.148V274.099C268.462 273.478 268.287 272.998 267.937 272.657C267.591 272.316 267.075 272.145 266.389 272.145C265.674 272.145 265.11 272.304 264.698 272.621C264.291 272.934 264.009 273.282 263.853 273.665L261.857 273.211C262.094 272.548 262.44 272.013 262.894 271.606C263.353 271.194 263.881 270.895 264.478 270.711C265.075 270.521 265.702 270.427 266.36 270.427C266.796 270.427 267.257 270.479 267.745 270.583C268.237 270.682 268.697 270.867 269.123 271.137C269.554 271.407 269.907 271.793 270.181 272.295C270.456 272.792 270.593 273.438 270.593 274.234V281.478H268.519V279.986H268.434C268.297 280.261 268.091 280.531 267.816 280.796C267.541 281.061 267.189 281.281 266.758 281.457C266.327 281.632 265.811 281.719 265.21 281.719ZM265.671 280.015C266.258 280.015 266.76 279.899 267.177 279.667C267.598 279.435 267.918 279.132 268.136 278.758C268.358 278.379 268.469 277.974 268.469 277.543V276.137C268.394 276.213 268.247 276.284 268.029 276.35C267.816 276.412 267.572 276.466 267.298 276.513C267.023 276.556 266.755 276.596 266.495 276.634C266.235 276.667 266.017 276.696 265.842 276.719C265.43 276.771 265.053 276.859 264.712 276.982C264.376 277.105 264.106 277.283 263.903 277.515C263.704 277.742 263.604 278.045 263.604 278.424C263.604 278.949 263.799 279.347 264.187 279.617C264.575 279.882 265.07 280.015 265.671 280.015ZM273.322 285.569V270.569H275.395V272.337H275.573C275.696 272.11 275.874 271.847 276.106 271.549C276.338 271.251 276.66 270.99 277.072 270.768C277.483 270.54 278.028 270.427 278.705 270.427C279.586 270.427 280.372 270.649 281.063 271.094C281.754 271.539 282.296 272.181 282.689 273.019C283.087 273.857 283.286 274.866 283.286 276.045C283.286 277.224 283.09 278.235 282.697 279.077C282.304 279.915 281.764 280.562 281.077 281.016C280.391 281.466 279.607 281.691 278.726 281.691C278.064 281.691 277.521 281.58 277.1 281.357C276.683 281.135 276.357 280.874 276.12 280.576C275.883 280.278 275.701 280.012 275.573 279.78H275.445V285.569H273.322ZM275.403 276.023C275.403 276.79 275.514 277.463 275.736 278.04C275.959 278.618 276.281 279.07 276.702 279.397C277.124 279.719 277.64 279.88 278.251 279.88C278.885 279.88 279.415 279.712 279.841 279.376C280.268 279.035 280.59 278.573 280.807 277.991C281.03 277.408 281.141 276.752 281.141 276.023C281.141 275.304 281.032 274.657 280.814 274.084C280.601 273.511 280.279 273.059 279.849 272.728C279.422 272.396 278.89 272.231 278.251 272.231C277.635 272.231 277.114 272.389 276.688 272.707C276.267 273.024 275.947 273.467 275.729 274.035C275.511 274.603 275.403 275.266 275.403 276.023ZM293.74 273.232L291.815 273.573C291.735 273.327 291.607 273.092 291.432 272.87C291.261 272.647 291.029 272.465 290.736 272.323C290.442 272.181 290.075 272.11 289.635 272.11C289.034 272.11 288.532 272.245 288.129 272.515C287.727 272.78 287.526 273.123 287.526 273.545C287.526 273.909 287.66 274.203 287.93 274.425C288.2 274.648 288.636 274.83 289.237 274.972L290.97 275.37C291.974 275.602 292.722 275.959 293.214 276.442C293.707 276.925 293.953 277.553 293.953 278.324C293.953 278.978 293.764 279.56 293.385 280.072C293.011 280.578 292.488 280.976 291.815 281.265C291.148 281.554 290.374 281.698 289.493 281.698C288.271 281.698 287.275 281.438 286.503 280.917C285.731 280.391 285.258 279.645 285.082 278.68L287.135 278.367C287.263 278.902 287.526 279.307 287.923 279.582C288.321 279.851 288.839 279.986 289.479 279.986C290.175 279.986 290.731 279.842 291.148 279.553C291.564 279.26 291.773 278.902 291.773 278.481C291.773 278.14 291.645 277.853 291.389 277.621C291.138 277.389 290.752 277.214 290.231 277.096L288.385 276.691C287.367 276.459 286.614 276.09 286.126 275.583C285.643 275.076 285.402 274.435 285.402 273.658C285.402 273.014 285.582 272.451 285.942 271.968C286.302 271.485 286.799 271.109 287.433 270.839C288.068 270.564 288.794 270.427 289.614 270.427C290.793 270.427 291.721 270.682 292.398 271.194C293.075 271.7 293.522 272.38 293.74 273.232ZM301.28 270.569V272.273H295.321V270.569H301.28ZM296.919 267.955H299.043V278.275C299.043 278.687 299.105 278.997 299.228 279.205C299.351 279.409 299.509 279.548 299.704 279.624C299.902 279.695 300.118 279.731 300.35 279.731C300.52 279.731 300.669 279.719 300.797 279.695C300.925 279.672 301.025 279.653 301.096 279.638L301.479 281.393C301.356 281.44 301.181 281.487 300.954 281.535C300.726 281.587 300.442 281.615 300.101 281.62C299.543 281.629 299.022 281.53 298.539 281.322C298.056 281.113 297.665 280.791 297.367 280.356C297.069 279.92 296.919 279.373 296.919 278.715V267.955ZM308.007 281.698C306.985 281.698 306.092 281.464 305.33 280.995C304.567 280.526 303.976 279.87 303.554 279.028C303.133 278.185 302.922 277.2 302.922 276.073C302.922 274.941 303.133 273.952 303.554 273.104C303.976 272.257 304.567 271.599 305.33 271.13C306.092 270.661 306.985 270.427 308.007 270.427C309.03 270.427 309.923 270.661 310.685 271.13C311.447 271.599 312.039 272.257 312.46 273.104C312.882 273.952 313.093 274.941 313.093 276.073C313.093 277.2 312.882 278.185 312.46 279.028C312.039 279.87 311.447 280.526 310.685 280.995C309.923 281.464 309.03 281.698 308.007 281.698ZM308.014 279.915C308.677 279.915 309.227 279.74 309.662 279.39C310.098 279.039 310.42 278.573 310.628 277.991C310.841 277.408 310.948 276.767 310.948 276.066C310.948 275.37 310.841 274.731 310.628 274.148C310.42 273.561 310.098 273.09 309.662 272.735C309.227 272.38 308.677 272.202 308.014 272.202C307.347 272.202 306.793 272.38 306.353 272.735C305.917 273.09 305.593 273.561 305.38 274.148C305.171 274.731 305.067 275.37 305.067 276.066C305.067 276.767 305.171 277.408 305.38 277.991C305.593 278.573 305.917 279.039 306.353 279.39C306.793 279.74 307.347 279.915 308.014 279.915ZM317.487 275.001V281.478H315.363V270.569H317.401V272.344H317.536C317.787 271.767 318.18 271.303 318.715 270.952C319.255 270.602 319.934 270.427 320.754 270.427C321.497 270.427 322.148 270.583 322.707 270.895C323.265 271.203 323.699 271.663 324.006 272.273C324.314 272.884 324.468 273.639 324.468 274.539V281.478H322.344V274.795C322.344 274.004 322.139 273.386 321.727 272.941C321.315 272.491 320.749 272.266 320.029 272.266C319.537 272.266 319.099 272.373 318.715 272.586C318.336 272.799 318.036 273.111 317.813 273.523C317.595 273.931 317.487 274.423 317.487 275.001ZM331.918 281.698C330.843 281.698 329.917 281.468 329.141 281.009C328.369 280.545 327.772 279.894 327.351 279.056C326.934 278.213 326.726 277.226 326.726 276.094C326.726 274.977 326.934 273.992 327.351 273.14C327.772 272.288 328.36 271.622 329.112 271.144C329.87 270.666 330.755 270.427 331.769 270.427C332.384 270.427 332.981 270.529 333.558 270.732C334.136 270.936 334.655 271.255 335.114 271.691C335.573 272.127 335.935 272.692 336.2 273.388C336.466 274.08 336.598 274.92 336.598 275.91V276.663H327.926V275.072H334.517C334.517 274.513 334.404 274.018 334.176 273.587C333.949 273.152 333.629 272.808 333.218 272.557C332.81 272.306 332.332 272.181 331.783 272.181C331.186 272.181 330.665 272.328 330.22 272.621C329.78 272.91 329.439 273.289 329.198 273.758C328.961 274.222 328.843 274.726 328.843 275.27V276.513C328.843 277.243 328.97 277.863 329.226 278.374C329.486 278.886 329.849 279.276 330.313 279.546C330.777 279.811 331.319 279.944 331.939 279.944C332.342 279.944 332.709 279.887 333.04 279.773C333.371 279.655 333.658 279.48 333.899 279.248C334.141 279.016 334.325 278.729 334.453 278.388L336.463 278.751C336.302 279.342 336.013 279.861 335.597 280.306C335.185 280.746 334.666 281.09 334.041 281.336C333.421 281.577 332.713 281.698 331.918 281.698Z" fill="white"/>
<path d="M67 0V65C67 81.5685 80.4315 95 97 95H240C256.569 95 270 108.431 270 125V149.5" stroke="#C9D1DA"/>
<path d="M473 0V65C473 81.5685 459.569 95 443 95H300C283.431 95 270 108.431 270 125V149.5" stroke="#C9D1DA"/>
<path d="M270 240L272.887 235H267.113L270 240ZM270 149H269.5V235.5H270H270.5V149H270Z" fill="#C9D1DA"/>
<g filter="url(#filter0_d_19990_1202)">
<rect x="66.8966" y="420" width="38.2377" height="38.2377" rx="7.64754" transform="rotate(15 66.8966 420)" fill="white" shape-rendering="crispEdges"/>
<g clip-path="url(#clip1_19990_1202)">
<path d="M74.02 432.437C73.9312 432.412 73.8381 432.407 73.7472 432.421C73.6563 432.436 73.5698 432.47 73.4937 432.521C73.4176 432.573 73.3538 432.64 73.3068 432.719C73.2598 432.797 73.2307 432.885 73.2216 432.976L71.6299 449.277C71.611 449.476 71.6636 449.676 71.7783 449.842C71.893 450.007 72.0626 450.127 72.2573 450.181L84.6828 453.511C84.8285 453.552 84.9841 453.54 85.1211 453.476C85.2581 453.413 85.3675 453.303 85.4293 453.166L92.2533 438.082C92.291 437.999 92.3097 437.908 92.3084 437.817C92.3069 437.725 92.2854 437.635 92.2452 437.552C92.2049 437.47 92.1471 437.397 92.0756 437.339C92.0041 437.281 91.9208 437.239 91.8314 437.216L74.02 432.437ZM81.904 446.639L77.938 445.576L78.3555 439.723L84.3562 441.331L81.904 446.639Z" fill="#2684FF"/>
<path d="M90.0824 442.865L84.3562 441.331L81.904 446.639L77.938 445.576L71.7761 449.842C71.8904 450.009 72.0606 450.13 72.2564 450.185L84.685 453.515C84.8308 453.556 84.9863 453.544 85.1233 453.48C85.2603 453.417 85.3697 453.307 85.4315 453.17L90.0824 442.865Z" fill="url(#paint1_linear_19990_1202)"/>
</g>
</g>
<g filter="url(#filter1_d_19990_1202)">
<rect x="429.603" y="143" width="76.5324" height="76.5324" rx="15.3065" transform="rotate(11 429.603 143)" fill="white" shape-rendering="crispEdges"/>
<g clip-path="url(#clip2_19990_1202)">
<path d="M466.902 167.768L479.209 178.129C480.926 179.574 481.726 181.816 481.302 183.994L478.361 199.126C477.938 201.305 476.356 203.083 474.222 203.78L458.931 208.777C456.856 209.455 454.567 209.01 452.898 207.604L440.592 197.243C438.874 195.797 438.074 193.556 438.498 191.378L441.439 176.245C441.863 174.067 443.444 172.289 445.578 171.592L460.869 166.595C462.944 165.917 465.233 166.362 466.902 167.768ZM443.727 176.754L440.797 191.825C440.535 193.177 441.032 194.571 442.104 195.473L454.235 205.687C454.398 205.789 454.579 205.86 454.769 205.897C455.616 206.062 456.434 205.515 456.598 204.675L458.966 192.493C459.351 190.508 458.591 188.471 456.993 187.21L456.082 186.491C455.863 186.344 455.648 186.188 455.439 186.022L443.727 176.754ZM456.946 184.916C459.144 186.656 460.994 187.015 463.683 186.226L478.324 181.439C478.142 180.637 477.7 179.897 477.042 179.343L465.39 169.538C464.344 168.657 462.908 168.378 461.608 168.803L447.156 173.534C446.338 173.801 445.652 174.322 445.183 174.997L456.946 184.916ZM463.003 171.721C465.878 172.28 467.952 174.137 467.748 175.925L467.169 178.941C466.812 180.778 464.12 181.8 461.156 181.224C458.192 180.648 456.079 178.692 456.436 176.855L457.022 173.84C457.509 172.108 460.128 171.163 463.003 171.721ZM461.969 177.043C464.459 177.527 466.672 176.919 466.911 175.684C467.151 174.45 465.328 173.057 462.838 172.573C460.349 172.089 458.136 172.697 457.896 173.932C457.656 175.166 459.48 176.559 461.969 177.043Z" fill="#5A45FF"/>
</g>
</g>
<g filter="url(#filter2_d_19990_1202)">
<rect x="115.944" y="195" width="47.2966" height="47.2966" rx="9.45932" transform="rotate(6 115.944 195)" fill="white" shape-rendering="crispEdges"/>
<g clip-path="url(#clip3_19990_1202)">
<path d="M137.936 232.739C143.673 233.342 148.799 229.308 149.385 223.728C149.972 218.149 145.796 213.137 140.06 212.534C134.323 211.931 129.197 215.965 128.611 221.545C128.024 227.124 132.199 232.136 137.936 232.739Z" fill="black"/>
<path d="M135.478 230.34C141.512 230.974 146.938 226.73 147.56 220.812C148.182 214.895 143.756 209.615 137.723 208.981C131.689 208.347 126.262 212.591 125.64 218.509C125.018 224.426 129.444 229.706 135.478 230.34Z" fill="#FF90E8" stroke="black" stroke-width="1.23169"/>
<path d="M135.21 224.962C132.142 224.639 130.6 221.953 130.927 218.847C131.266 215.619 133.526 213.209 137.315 213.607C141.224 214.018 142.266 216.837 142.166 218.366L139.339 218.068C139.369 217.21 138.781 215.855 137.037 215.671C135.173 215.475 133.797 216.993 133.586 219.003C133.375 221.013 134.405 222.784 136.269 222.98C137.953 223.157 138.816 221.893 139.257 220.584L136.551 220.3L136.666 219.204L142.345 219.801L141.756 225.403L139.265 225.142L139.636 221.609C139.321 222.869 138.277 225.284 135.21 224.962Z" fill="black"/>
</g>
</g>
<g filter="url(#filter3_d_19990_1202)">
<rect x="332.049" y="89.5703" width="48.4913" height="48.4913" rx="9.69826" transform="rotate(-20 332.049 89.5703)" fill="white" shape-rendering="crispEdges"/>
<g clip-path="url(#clip4_19990_1202)">
<path fill-rule="evenodd" clip-rule="evenodd" d="M352.679 99.0002C353.654 99.3374 353.919 99.1881 355.297 98.5799L368.318 92.9352C368.601 92.8324 368.263 92.6362 368.152 92.6237L365.36 91.83C364.816 91.6553 364.115 91.4841 363.067 91.972L350.519 97.604C350.066 97.8218 350.057 98.091 350.313 98.2113L352.679 99.0002ZM354.608 101.812L359.706 115.819C359.98 116.572 360.459 116.716 361.289 116.362L375.611 110.19C376.441 109.835 376.347 109.283 376.124 108.671L371.06 94.7583C370.838 94.1478 370.483 93.904 369.982 94.1397L355.018 100.597C354.471 100.85 354.385 101.201 354.608 101.812L354.608 101.812ZM369.325 97.3062C369.573 97.6955 369.633 98.1528 369.226 98.3548L368.572 98.7518L372.336 109.093C371.843 109.644 371.348 110.038 370.877 110.209C370.124 110.483 369.85 110.317 369.03 109.817L361.784 104.257L364.333 111.261L365.912 111.059C365.912 111.059 366.22 111.904 365.043 112.333L361.866 113.702C361.703 113.548 361.626 113.044 361.921 112.83L362.683 112.288L359.312 103.027L358.102 103.361C357.854 102.972 357.866 102.276 358.508 101.989L361.904 100.487L369.372 106.073L367.011 99.5862L365.736 99.8911C365.454 99.4076 365.693 98.8949 366.146 98.677L369.325 97.3062ZM348.975 96.7289L362.024 90.8613C363.619 90.1208 364.077 90.0612 365.385 90.4362L370.76 91.8867C371.655 92.1469 371.941 92.2021 372.147 92.766L378.152 109.265C378.528 110.299 378.374 111.048 377.091 111.621L361.862 118.228C360.891 118.635 360.369 118.666 359.612 118.196L354.971 115.253C354.133 114.706 353.693 114.229 353.453 113.57L348.115 98.9041C347.807 98.0585 347.928 97.216 348.975 96.7289Z" fill="black"/>
</g>
</g>
<g filter="url(#filter4_d_19990_1202)">
<rect x="152.229" y="338" width="75.9557" height="75.9557" rx="15.1911" transform="rotate(5 152.229 338)" fill="white" shape-rendering="crispEdges"/>
<path fill-rule="evenodd" clip-rule="evenodd" d="M186.229 392.078L185.777 397.246C184.921 397.171 184.174 396.763 183.651 396.162C183.649 396.162 183.649 396.162 183.649 396.161L183.266 395.613L170.709 377.754C170.7 377.749 170.694 377.739 170.69 377.73L170.639 377.659C170.635 377.654 170.633 377.65 170.63 377.645C170.569 377.546 170.519 377.441 170.49 377.329C170.449 377.195 170.432 377.052 170.441 376.907L170.448 376.821C170.451 376.794 170.455 376.767 170.462 376.74C170.512 376.457 170.656 376.214 170.86 376.031C171.11 375.804 171.454 375.677 171.819 375.709L174.906 375.979L186.227 392.079L186.229 392.078Z" fill="url(#paint2_linear_19990_1202)"/>
<path fill-rule="evenodd" clip-rule="evenodd" d="M186.229 392.078L185.777 397.246C184.921 397.171 184.174 396.763 183.651 396.162C183.649 396.162 183.649 396.162 183.649 396.161L183.266 395.613L170.709 377.754C170.7 377.749 170.694 377.739 170.69 377.73L170.639 377.659C170.635 377.654 170.633 377.65 170.63 377.645C170.569 377.546 170.519 377.441 170.49 377.329C170.449 377.195 170.432 377.052 170.441 376.907L170.448 376.821C170.451 376.794 170.455 376.767 170.462 376.74C170.512 376.457 170.656 376.214 170.86 376.031C171.11 375.804 171.454 375.677 171.819 375.709L174.906 375.979L186.227 392.079L186.229 392.078Z" fill="url(#paint3_linear_19990_1202)"/>
<path fill-rule="evenodd" clip-rule="evenodd" d="M186.229 392.078L185.777 397.246C184.921 397.171 184.174 396.763 183.651 396.162C183.649 396.162 183.649 396.162 183.649 396.161L183.266 395.613L173.897 382.29L170.709 377.754C170.7 377.749 170.694 377.739 170.69 377.73L170.639 377.659C170.635 377.654 170.633 377.65 170.63 377.645C170.569 377.546 170.519 377.441 170.49 377.329C170.449 377.195 170.432 377.052 170.441 376.907L170.448 376.821C170.451 376.794 170.455 376.767 170.462 376.74C170.512 376.457 170.656 376.214 170.86 376.031C171.11 375.804 171.454 375.677 171.819 375.709L174.906 375.979L176.207 377.829L179.7 382.797L185.427 390.942L186.227 392.079L186.229 392.078Z" fill="url(#paint4_linear_19990_1202)" fill-opacity="0.4"/>
<path fill-rule="evenodd" clip-rule="evenodd" d="M186.83 385.212L186.226 392.113L186.224 392.115L171.283 370.926C171.267 370.905 171.252 370.883 171.237 370.86C171.171 370.758 171.119 370.647 171.084 370.526C171.045 370.393 171.027 370.25 171.036 370.102L171.043 370.017C171.079 369.702 171.232 369.43 171.454 369.232C171.704 369.001 172.048 368.876 172.413 368.908L175.526 369.18L186.83 385.212Z" fill="url(#paint5_linear_19990_1202)"/>
<path fill-rule="evenodd" clip-rule="evenodd" d="M186.83 385.212L186.226 392.113L186.224 392.115L171.283 370.926C171.267 370.905 171.252 370.883 171.237 370.86C171.171 370.758 171.119 370.647 171.084 370.526C171.045 370.393 171.027 370.25 171.036 370.102L171.043 370.017C171.079 369.702 171.232 369.43 171.454 369.232C171.704 369.001 172.048 368.876 172.413 368.908L175.526 369.18L186.83 385.212Z" fill="url(#paint6_linear_19990_1202)"/>
<path fill-rule="evenodd" clip-rule="evenodd" d="M186.83 385.212L186.226 392.113L186.224 392.115L185.425 390.98L179.696 382.856L176.201 377.899L174.9 376.053L171.283 370.926C171.267 370.905 171.252 370.883 171.237 370.86C171.171 370.758 171.119 370.647 171.084 370.526C171.045 370.393 171.027 370.25 171.036 370.102L171.043 370.017C171.079 369.702 171.232 369.43 171.454 369.232C171.704 369.001 172.048 368.876 172.413 368.908L175.526 369.18L176.83 371.029L180.732 376.563L182.034 378.41L185.528 383.366L186.83 385.212Z" fill="url(#paint7_linear_19990_1202)" fill-opacity="0.3"/>
<path fill-rule="evenodd" clip-rule="evenodd" d="M172.966 361.984C172.602 361.953 172.255 362.076 172.007 362.308C171.784 362.502 171.632 362.78 171.595 363.094L171.588 363.177C171.579 363.326 171.596 363.469 171.638 363.602C171.639 363.614 171.643 363.623 171.646 363.635C171.678 363.736 171.722 363.83 171.781 363.92C171.8 363.954 171.823 363.985 171.848 364.014C171.852 364.022 171.858 364.029 171.864 364.036L186.778 385.186L185.724 397.24C185.803 397.247 185.881 397.252 185.958 397.252C186.726 397.265 187.443 397 188.005 396.546C188.008 396.546 188.008 396.546 188.008 396.543L188.481 396.073L203.967 380.688C203.986 380.671 204.004 380.652 204.022 380.633C204.107 380.545 204.178 380.444 204.233 380.331C204.302 380.196 204.345 380.045 204.359 379.882L205.564 366.106C205.593 365.774 205.491 365.458 205.298 365.218C205.09 364.949 204.775 364.767 204.408 364.735L172.966 361.984Z" fill="url(#paint8_linear_19990_1202)"/>
<path fill-rule="evenodd" clip-rule="evenodd" d="M172.966 361.984C172.602 361.953 172.255 362.076 172.007 362.308C171.784 362.502 171.632 362.78 171.595 363.094L171.588 363.177C171.579 363.326 171.596 363.469 171.638 363.602C171.639 363.614 171.643 363.623 171.646 363.635C171.678 363.736 171.722 363.83 171.781 363.92C171.8 363.954 171.823 363.985 171.848 364.014C171.852 364.022 171.858 364.029 171.864 364.036L186.778 385.186L185.724 397.24C185.803 397.247 185.881 397.252 185.958 397.252C186.726 397.265 187.443 397 188.005 396.546C188.008 396.546 188.008 396.546 188.008 396.543L188.481 396.073L203.967 380.688C203.986 380.671 204.004 380.652 204.022 380.633C204.107 380.545 204.178 380.444 204.233 380.331C204.302 380.196 204.345 380.045 204.359 379.882L205.564 366.106C205.593 365.774 205.491 365.458 205.298 365.218C205.09 364.949 204.775 364.767 204.408 364.735L172.966 361.984Z" fill="url(#paint9_linear_19990_1202)"/>
<path fill-rule="evenodd" clip-rule="evenodd" d="M172.966 361.984C172.602 361.953 172.255 362.076 172.007 362.308C171.784 362.502 171.632 362.78 171.595 363.094L171.588 363.177C171.579 363.326 171.596 363.469 171.638 363.602C171.639 363.614 171.643 363.623 171.646 363.635C171.678 363.736 171.722 363.83 171.781 363.92C171.8 363.954 171.823 363.985 171.848 364.014C171.852 364.022 171.858 364.029 171.864 364.036L186.778 385.186L185.724 397.24C185.803 397.247 185.881 397.252 185.958 397.252C186.726 397.265 187.443 397 188.005 396.546C188.008 396.546 188.008 396.546 188.008 396.543L188.481 396.073L203.967 380.688C203.986 380.671 204.004 380.652 204.022 380.633C204.107 380.545 204.178 380.444 204.233 380.331C204.302 380.196 204.345 380.045 204.359 379.882L205.564 366.106C205.593 365.774 205.491 365.458 205.298 365.218C205.09 364.949 204.775 364.767 204.408 364.735L172.966 361.984Z" fill="url(#paint10_linear_19990_1202)"/>
<path fill-rule="evenodd" clip-rule="evenodd" d="M172.966 361.984C172.602 361.953 172.255 362.076 172.007 362.308C171.784 362.502 171.632 362.78 171.595 363.094L171.588 363.177C171.579 363.326 171.596 363.469 171.638 363.602C171.639 363.614 171.643 363.623 171.646 363.635C171.678 363.736 171.722 363.83 171.781 363.92C171.8 363.954 171.823 363.985 171.848 364.014C171.852 364.022 171.858 364.029 171.864 364.036L186.778 385.186L185.724 397.24C185.803 397.247 185.881 397.252 185.958 397.252C186.726 397.265 187.443 397 188.005 396.546C188.008 396.546 188.008 396.546 188.008 396.543L188.481 396.073L203.967 380.688C203.986 380.671 204.004 380.652 204.022 380.633C204.107 380.545 204.178 380.444 204.233 380.331C204.302 380.196 204.345 380.045 204.359 379.882L205.564 366.106C205.593 365.774 205.491 365.458 205.298 365.218C205.09 364.949 204.775 364.767 204.408 364.735L172.966 361.984Z" fill="url(#paint11_linear_19990_1202)"/>
<path fill-rule="evenodd" clip-rule="evenodd" d="M172.966 361.984C172.602 361.953 172.255 362.076 172.007 362.308C171.784 362.502 171.632 362.78 171.595 363.094L171.588 363.177C171.579 363.326 171.596 363.469 171.638 363.602C171.639 363.614 171.643 363.623 171.646 363.635C171.678 363.736 171.722 363.83 171.781 363.92C171.8 363.954 171.823 363.985 171.848 364.014C171.852 364.022 171.858 364.029 171.864 364.036L186.778 385.186L185.724 397.24C185.803 397.247 185.881 397.252 185.958 397.252C186.726 397.265 187.443 397 188.005 396.546C188.008 396.546 188.008 396.546 188.008 396.543L188.481 396.073L203.967 380.688C203.986 380.671 204.004 380.652 204.022 380.633C204.107 380.545 204.178 380.444 204.233 380.331C204.302 380.196 204.345 380.045 204.359 379.882L205.564 366.106C205.593 365.774 205.491 365.458 205.298 365.218C205.09 364.949 204.775 364.767 204.408 364.735L172.966 361.984Z" fill="url(#paint12_linear_19990_1202)"/>
<path fill-rule="evenodd" clip-rule="evenodd" d="M172.966 361.984C172.602 361.953 172.255 362.076 172.007 362.308C171.784 362.502 171.632 362.78 171.595 363.094L171.588 363.177C171.579 363.326 171.596 363.469 171.638 363.602C171.639 363.614 171.643 363.623 171.646 363.635C171.678 363.736 171.722 363.83 171.781 363.92C171.8 363.954 171.823 363.985 171.848 364.014C171.852 364.022 171.858 364.029 171.864 364.036L186.778 385.186L185.724 397.24C185.803 397.247 185.881 397.252 185.958 397.252C186.726 397.265 187.443 397 188.005 396.546C188.008 396.546 188.008 396.546 188.008 396.543L188.481 396.073L203.967 380.688C203.986 380.671 204.004 380.652 204.022 380.633C204.107 380.545 204.178 380.444 204.233 380.331C204.302 380.196 204.345 380.045 204.359 379.882L205.564 366.106C205.593 365.774 205.491 365.458 205.298 365.218C205.09 364.949 204.775 364.767 204.408 364.735L172.966 361.984Z" fill="url(#paint13_linear_19990_1202)"/>
</g>
<g filter="url(#filter5_d_19990_1202)">
<rect x="23" y="123.529" width="67.1784" height="67.1784" rx="13.4357" transform="rotate(-15 23 123.529)" fill="white" shape-rendering="crispEdges"/>
<g clip-path="url(#clip5_19990_1202)">
<path d="M55.4512 154.427C55.9842 156.416 54.8072 158.455 52.818 158.988C50.8287 159.521 48.7902 158.344 48.2572 156.355C47.7241 154.365 48.9011 152.327 50.8903 151.794L54.4874 150.83L55.4512 154.427ZM57.2497 153.945C56.7167 151.956 57.8936 149.917 59.8829 149.384C61.8721 148.851 63.9107 150.028 64.4437 152.017L66.8533 161.01C67.3863 162.999 66.2093 165.038 64.2201 165.571C62.2308 166.104 60.1923 164.927 59.6592 162.938L57.2497 153.945Z" fill="#E01E5A"/>
<path d="M56.9768 138.539C54.9876 139.072 52.949 137.895 52.416 135.906C51.883 133.916 53.0599 131.878 55.0492 131.345C57.0384 130.812 59.077 131.989 59.61 133.978L60.5738 137.575L56.9768 138.539ZM57.466 140.364C59.4553 139.831 61.4938 141.008 62.0269 142.998C62.5599 144.987 61.3829 147.026 59.3937 147.559L50.3739 149.975C48.3846 150.508 46.3461 149.331 45.813 147.342C45.28 145.353 46.457 143.314 48.4462 142.781L57.466 140.364Z" fill="#36C5F0"/>
<path d="M72.8451 140.099C72.3121 138.11 73.4891 136.071 75.4783 135.538C77.4676 135.005 79.5061 136.182 80.0392 138.171C80.5722 140.161 79.3952 142.199 77.406 142.732L73.8089 143.696L72.8451 140.099ZM71.0466 140.581C71.5796 142.57 70.4027 144.609 68.4134 145.142C66.4242 145.675 64.3856 144.498 63.8526 142.509L61.4357 133.489C60.9027 131.499 62.0797 129.461 64.0689 128.928C66.0582 128.395 68.0968 129.572 68.6298 131.561L71.0466 140.581Z" fill="#2EB67D"/>
<path d="M71.3123 155.96C73.3016 155.427 75.3402 156.604 75.8732 158.593C76.4062 160.582 75.2292 162.621 73.24 163.154C71.2507 163.687 69.2122 162.51 68.6791 160.521L67.7153 156.924L71.3123 155.96ZM70.8304 154.161C68.8412 154.695 66.8026 153.518 66.2696 151.528C65.7366 149.539 66.9135 147.5 68.9028 146.967L77.9226 144.551C79.9118 144.018 81.9504 145.195 82.4834 147.184C83.0164 149.173 81.8395 151.212 79.8502 151.745L70.8304 154.161Z" fill="#ECB22E"/>
</g>
</g>
<g filter="url(#filter6_d_19990_1202)">
<rect x="395" y="307.229" width="55.4582" height="55.4582" rx="11.0916" transform="rotate(-5 395 307.229)" fill="white" shape-rendering="crispEdges"/>
<g clip-path="url(#clip6_19990_1202)">
<path d="M421.584 329.255C425.052 326.896 429.802 323.666 429.091 315.535L423.043 316.064C423.441 320.613 421.349 322.036 418.181 324.19C414.713 326.549 409.963 329.779 410.674 337.91L416.722 337.381C416.324 332.831 418.416 331.408 421.584 329.255Z" fill="#FF3C00"/>
<path d="M431.888 326.47C432.286 331.02 430.194 332.442 427.026 334.596C423.559 336.954 418.807 340.185 419.519 348.316L425.566 347.786C425.168 343.237 427.261 341.814 430.428 339.661C433.897 337.302 438.647 334.072 437.935 325.941L431.888 326.47Z" fill="#FF3C00"/>
</g>
</g>
<g filter="url(#filter7_d_19990_1202)">
<rect x="335" y="435.673" width="60.5552" height="60.5552" rx="12.111" transform="rotate(-15 335 435.673)" fill="white" shape-rendering="crispEdges"/>
<g clip-path="url(#clip7_19990_1202)">
<path d="M378.392 454.576C378.574 454.501 378.763 454.45 378.958 454.424C379 454.164 378.909 453.751 378.701 453.343C378.393 452.727 378.098 452.382 377.736 452.544C377.375 452.706 377.484 453.186 377.799 453.801C377.962 454.142 378.187 454.421 378.392 454.576ZM375.258 455.97C375.565 456.018 375.751 456.054 375.798 455.963C375.883 455.816 375.432 455.447 374.847 455.362C374.157 455.273 373.473 455.547 373.037 456.089C372.89 456.272 372.769 456.5 372.824 456.609C372.939 456.82 373.389 456.282 374.15 456.025C374.562 455.882 374.952 455.922 375.258 455.97ZM374.793 456.428C374.262 456.662 373.986 457.069 374.136 457.264C374.195 457.267 374.222 457.293 374.439 457.13C374.767 456.892 375.148 456.751 375.552 456.701C375.734 456.672 375.822 456.661 375.849 456.589C375.894 456.44 375.366 456.202 374.793 456.428ZM378.376 456.591C378.471 456.115 377.484 455.916 377.391 456.398C377.296 456.874 378.288 457.065 378.376 456.591ZM378.998 455.086C378.528 455.205 378.769 456.179 379.241 456.065C379.717 455.938 379.475 454.964 378.998 455.086ZM366.933 463.478C366.858 463.517 366.591 463.667 366.375 463.47C365.928 463.068 366.719 462.046 365.972 461.234C365.132 460.316 364.05 460.861 363.742 461.466C363.369 462.193 363.597 463.046 363.831 463.016C364.103 462.982 363.975 462.553 364.091 462.182C364.23 461.753 364.684 461.52 365.113 461.66C365.113 461.66 365.119 461.658 365.121 461.664C365.952 461.938 365.497 462.726 365.73 463.375C366.088 464.37 367.125 464.073 367.193 463.571C367.206 463.522 367.183 463.463 367.143 463.434C367.161 463.501 367.162 463.357 366.933 463.478ZM384.956 457.531C384.557 456.868 384.648 457.013 384.206 456.387C384.298 456.121 384.745 454.669 383.31 453.8C382.498 453.305 380.967 453.343 380.496 453.339C380.219 452.669 379.822 449.68 377.822 448.622C378.736 446.967 379.14 445.304 378.807 444.061C378.161 441.675 375.03 441.736 371.812 444.205L371.131 444.734C371.123 444.729 369.378 443.747 369.355 443.734C364.273 441.243 355.209 459.037 360.268 461.417L361.374 461.937C361.305 462.654 361.407 463.378 361.673 464.051C362.427 466.037 364.861 467.154 366.785 466.632C372.491 473.815 385.326 470.389 386.514 461.542C386.544 461.24 386.665 459.888 386.375 458.803C386.084 457.719 385.346 457.427 384.956 457.531ZM366.443 465.646C365.038 465.984 363.196 465.132 362.652 463.684C361.272 460.044 365.954 457.876 367.58 461.554C368.345 463.289 368.25 465.201 366.443 465.646ZM363.446 458.972C362.569 459.403 361.893 460.146 361.588 461.005C361.222 460.835 360.539 460.502 360.392 460.345C359.194 459.04 360.068 455.652 360.788 453.683C362.564 448.806 366.234 444.492 368.474 444.492C368.841 444.498 370.31 445.496 370.31 445.496C370.31 445.496 368.536 447.212 367.037 449.344C364.962 452.055 363.775 455.495 363.446 458.972ZM379.688 461.242C379.688 461.242 377.593 462.149 375.325 461.947C375.373 460.615 377.076 461.876 380.986 459.529C381.846 459.011 382.93 458.159 383.685 457.147C384.019 457.567 384.299 458.027 384.514 458.512C384.728 458.409 385.377 458.248 385.51 459.427C385.634 460.693 385.38 461.819 384.759 462.959C384.373 463.689 383.858 464.35 383.24 464.894C382.899 465.207 382.526 465.497 382.137 465.751C379.157 467.692 375.498 467.419 373.738 465.187C373.6 465.015 373.475 464.839 373.359 464.649C372.456 463.108 372.312 461.011 373.194 459.429C373.246 459.33 373.299 459.212 373.268 459.096C373.228 458.996 373.166 458.908 373.077 458.847C372.484 458.339 370.721 457.682 370.473 455.561C370.293 454.035 371.296 452.663 372.513 452.402L372.823 452.339C373.349 452.231 373.818 452.177 374.249 452.081C374.97 451.92 375.588 451.644 376.174 450.807C376.373 450.526 376.529 450.281 376.862 450.133C377.128 449.984 377.442 449.958 377.726 450.045C378.445 450.29 378.793 451.248 379.016 451.959C379.144 452.363 379.46 453.349 379.554 453.624C379.765 454.266 379.96 454.312 380.337 454.329C380.55 454.343 380.744 454.337 381.027 454.346C381.892 454.356 382.429 454.46 382.818 454.669C383.017 454.779 383.169 454.954 383.262 455.158C383.546 455.826 383.143 456.855 381.668 458.079C379.171 460.166 376.184 460.496 375.756 460.558C374.482 460.723 374.207 462.501 375.235 463.388C377.165 465.059 383.037 462.604 384.128 459.608C384.155 459.536 384.108 459.509 384.069 459.558C381.983 461.985 378.766 463.48 376.648 463.251C376.324 463.214 375.64 463.097 375.4 462.495C378.283 462.604 379.75 461.375 379.75 461.375C379.75 461.375 379.842 461.181 379.688 461.242ZM367.254 451.931C367.961 450.474 368.94 449.108 369.92 448.232C369.935 448.215 369.967 448.213 369.986 448.234C369.995 448.244 370 448.263 369.997 448.277C369.95 448.466 369.872 448.859 369.888 449.135C369.888 449.161 369.913 449.181 369.939 449.18C369.953 449.183 369.963 449.174 369.974 449.164C370.547 448.501 371.633 447.655 372.683 447.309C372.707 447.302 372.737 447.314 372.743 447.338C372.748 447.357 372.745 447.37 372.736 447.386C372.595 447.567 372.48 447.768 372.394 447.987C372.387 448.008 372.395 448.039 372.423 448.044C372.431 448.049 372.443 448.046 372.449 448.044C373.2 447.849 374.33 447.827 375.129 448.031C375.185 448.042 375.173 448.144 375.121 448.144C370.613 448.308 367.906 451.292 367.347 451.984C367.326 452.003 367.299 452.003 367.276 451.99C367.252 451.97 367.245 451.946 367.254 451.931Z" fill="black"/>
</g>
</g>
</g>
<defs>
<filter id="filter0_d_19990_1202" x="35.332" y="405.98" width="90.1675" height="90.1676" filterUnits="userSpaceOnUse" color-interpolation-filters="sRGB">
<feFlood flood-opacity="0" result="BackgroundImageFix"/>
<feColorMatrix in="SourceAlpha" type="matrix" values="0 0 0 0 0 0 0 0 0 0 0 0 0 0 0 0 0 0 127 0" result="hardAlpha"/>
<feMorphology radius="6.37295" operator="erode" in="SourceAlpha" result="effect1_dropShadow_19990_1202"/>
<feOffset dy="7.64754"/>
<feGaussianBlur stdDeviation="14.0205"/>
<feComposite in2="hardAlpha" operator="out"/>
<feColorMatrix type="matrix" values="0 0 0 0 0.62745 0 0 0 0 0.669064 0 0 0 0 0.713548 0 0 0 0.25 0"/>
<feBlend mode="normal" in2="BackgroundImageFix" result="effect1_dropShadow_19990_1202"/>
<feBlend mode="normal" in="SourceGraphic" in2="effect1_dropShadow_19990_1202" result="shape"/>
</filter>
<filter id="filter1_d_19990_1202" x="371.632" y="114.938" width="176.466" height="176.466" filterUnits="userSpaceOnUse" color-interpolation-filters="sRGB">
<feFlood flood-opacity="0" result="BackgroundImageFix"/>
<feColorMatrix in="SourceAlpha" type="matrix" values="0 0 0 0 0 0 0 0 0 0 0 0 0 0 0 0 0 0 127 0" result="hardAlpha"/>
<feMorphology radius="12.7554" operator="erode" in="SourceAlpha" result="effect1_dropShadow_19990_1202"/>
<feOffset dy="15.3065"/>
<feGaussianBlur stdDeviation="28.0619"/>
<feComposite in2="hardAlpha" operator="out"/>
<feColorMatrix type="matrix" values="0 0 0 0 0.62745 0 0 0 0 0.669064 0 0 0 0 0.713548 0 0 0 0.25 0"/>
<feBlend mode="normal" in2="BackgroundImageFix" result="effect1_dropShadow_19990_1202"/>
<feBlend mode="normal" in="SourceGraphic" in2="effect1_dropShadow_19990_1202" result="shape"/>
</filter>
<filter id="filter2_d_19990_1202" x="84.1986" y="177.658" width="105.584" height="105.584" filterUnits="userSpaceOnUse" color-interpolation-filters="sRGB">
<feFlood flood-opacity="0" result="BackgroundImageFix"/>
<feColorMatrix in="SourceAlpha" type="matrix" values="0 0 0 0 0 0 0 0 0 0 0 0 0 0 0 0 0 0 127 0" result="hardAlpha"/>
<feMorphology radius="7.88276" operator="erode" in="SourceAlpha" result="effect1_dropShadow_19990_1202"/>
<feOffset dy="9.45932"/>
<feGaussianBlur stdDeviation="17.3421"/>
<feComposite in2="hardAlpha" operator="out"/>
<feColorMatrix type="matrix" values="0 0 0 0 0.62745 0 0 0 0 0.669064 0 0 0 0 0.713548 0 0 0 0.25 0"/>
<feBlend mode="normal" in2="BackgroundImageFix" result="effect1_dropShadow_19990_1202"/>
<feBlend mode="normal" in="SourceGraphic" in2="effect1_dropShadow_19990_1202" result="shape"/>
</filter>
<filter id="filter3_d_19990_1202" x="304.571" y="55.2052" width="117.109" height="117.109" filterUnits="userSpaceOnUse" color-interpolation-filters="sRGB">
<feFlood flood-opacity="0" result="BackgroundImageFix"/>
<feColorMatrix in="SourceAlpha" type="matrix" values="0 0 0 0 0 0 0 0 0 0 0 0 0 0 0 0 0 0 127 0" result="hardAlpha"/>
<feMorphology radius="8.08189" operator="erode" in="SourceAlpha" result="effect1_dropShadow_19990_1202"/>
<feOffset dy="9.69826"/>
<feGaussianBlur stdDeviation="17.7801"/>
<feComposite in2="hardAlpha" operator="out"/>
<feColorMatrix type="matrix" values="0 0 0 0 0.62745 0 0 0 0 0.669064 0 0 0 0 0.713548 0 0 0 0.25 0"/>
<feBlend mode="normal" in2="BackgroundImageFix" result="effect1_dropShadow_19990_1202"/>
<feBlend mode="normal" in="SourceGraphic" in2="effect1_dropShadow_19990_1202" result="shape"/>
</filter>
<filter id="filter4_d_19990_1202" x="102.568" y="310.15" width="168.37" height="168.37" filterUnits="userSpaceOnUse" color-interpolation-filters="sRGB">
<feFlood flood-opacity="0" result="BackgroundImageFix"/>
<feColorMatrix in="SourceAlpha" type="matrix" values="0 0 0 0 0 0 0 0 0 0 0 0 0 0 0 0 0 0 127 0" result="hardAlpha"/>
<feMorphology radius="12.6593" operator="erode" in="SourceAlpha" result="effect1_dropShadow_19990_1202"/>
<feOffset dy="15.1911"/>
<feGaussianBlur stdDeviation="27.8504"/>
<feComposite in2="hardAlpha" operator="out"/>
<feColorMatrix type="matrix" values="0 0 0 0 0.62745 0 0 0 0 0.669064 0 0 0 0 0.713548 0 0 0 0.25 0"/>
<feBlend mode="normal" in2="BackgroundImageFix" result="effect1_dropShadow_19990_1202"/>
<feBlend mode="normal" in="SourceGraphic" in2="effect1_dropShadow_19990_1202" result="shape"/>
</filter>
<filter id="filter5_d_19990_1202" x="-15.0677" y="81.51" width="158.412" height="158.412" filterUnits="userSpaceOnUse" color-interpolation-filters="sRGB">
<feFlood flood-opacity="0" result="BackgroundImageFix"/>
<feColorMatrix in="SourceAlpha" type="matrix" values="0 0 0 0 0 0 0 0 0 0 0 0 0 0 0 0 0 0 127 0" result="hardAlpha"/>
<feMorphology radius="11.1964" operator="erode" in="SourceAlpha" result="effect1_dropShadow_19990_1202"/>
<feOffset dy="13.4357"/>
<feGaussianBlur stdDeviation="24.6321"/>
<feComposite in2="hardAlpha" operator="out"/>
<feColorMatrix type="matrix" values="0 0 0 0 0.62745 0 0 0 0 0.669064 0 0 0 0 0.713548 0 0 0 0.25 0"/>
<feBlend mode="normal" in2="BackgroundImageFix" result="effect1_dropShadow_19990_1202"/>
<feBlend mode="normal" in="SourceGraphic" in2="effect1_dropShadow_19990_1202" result="shape"/>
</filter>
<filter id="filter6_d_19990_1202" x="363.574" y="282.061" width="122.933" height="122.933" filterUnits="userSpaceOnUse" color-interpolation-filters="sRGB">
<feFlood flood-opacity="0" result="BackgroundImageFix"/>
<feColorMatrix in="SourceAlpha" type="matrix" values="0 0 0 0 0 0 0 0 0 0 0 0 0 0 0 0 0 0 127 0" result="hardAlpha"/>
<feMorphology radius="9.24303" operator="erode" in="SourceAlpha" result="effect1_dropShadow_19990_1202"/>
<feOffset dy="11.0916"/>
<feGaussianBlur stdDeviation="20.3347"/>
<feComposite in2="hardAlpha" operator="out"/>
<feColorMatrix type="matrix" values="0 0 0 0 0.62745 0 0 0 0 0.669064 0 0 0 0 0.713548 0 0 0 0.25 0"/>
<feBlend mode="normal" in2="BackgroundImageFix" result="effect1_dropShadow_19990_1202"/>
<feBlend mode="normal" in="SourceGraphic" in2="effect1_dropShadow_19990_1202" result="shape"/>
</filter>
<filter id="filter7_d_19990_1202" x="300.685" y="397.796" width="142.794" height="142.794" filterUnits="userSpaceOnUse" color-interpolation-filters="sRGB">
<feFlood flood-opacity="0" result="BackgroundImageFix"/>
<feColorMatrix in="SourceAlpha" type="matrix" values="0 0 0 0 0 0 0 0 0 0 0 0 0 0 0 0 0 0 127 0" result="hardAlpha"/>
<feMorphology radius="10.0925" operator="erode" in="SourceAlpha" result="effect1_dropShadow_19990_1202"/>
<feOffset dy="12.111"/>
<feGaussianBlur stdDeviation="22.2036"/>
<feComposite in2="hardAlpha" operator="out"/>
<feColorMatrix type="matrix" values="0 0 0 0 0.62745 0 0 0 0 0.669064 0 0 0 0 0.713548 0 0 0 0.25 0"/>
<feBlend mode="normal" in2="BackgroundImageFix" result="effect1_dropShadow_19990_1202"/>
<feBlend mode="normal" in="SourceGraphic" in2="effect1_dropShadow_19990_1202" result="shape"/>
</filter>
<linearGradient id="paint0_linear_19990_1202" x1="182" y1="248" x2="215.123" y2="362.017" gradientUnits="userSpaceOnUse">
<stop stop-color="#2D58A7"/>
<stop offset="1" stop-color="#4A96F8"/>
</linearGradient>
<linearGradient id="paint1_linear_19990_1202" x1="90.9893" y1="444.777" x2="79.5963" y2="449.657" gradientUnits="userSpaceOnUse">
<stop offset="0.18" stop-color="#0052CC"/>
<stop offset="1" stop-color="#2684FF"/>
</linearGradient>
<linearGradient id="paint2_linear_19990_1202" x1="180.246" y1="382.326" x2="177.094" y2="384.388" gradientUnits="userSpaceOnUse">
<stop stop-color="#FFA794" stop-opacity="0.3"/>
<stop offset="1" stop-color="#FF9794"/>
</linearGradient>
<linearGradient id="paint3_linear_19990_1202" x1="180.246" y1="382.326" x2="177.094" y2="384.388" gradientUnits="userSpaceOnUse">
<stop stop-color="#FFA794" stop-opacity="0.3"/>
<stop offset="1" stop-color="#FF9794"/>
</linearGradient>
<linearGradient id="paint4_linear_19990_1202" x1="179.339" y1="389.791" x2="182.748" y2="387.235" gradientUnits="userSpaceOnUse">
<stop stop-color="#FFDFD7"/>
<stop offset="1" stop-color="#FFDFD7"/>
</linearGradient>
<linearGradient id="paint5_linear_19990_1202" x1="180.798" y1="376.009" x2="177.244" y2="378.995" gradientUnits="userSpaceOnUse">
<stop stop-color="#FFA794" stop-opacity="0.3"/>
<stop offset="1" stop-color="#FF9794"/>
</linearGradient>
<linearGradient id="paint6_linear_19990_1202" x1="180.798" y1="376.009" x2="177.244" y2="378.995" gradientUnits="userSpaceOnUse">
<stop stop-color="#FFA794" stop-opacity="0.3"/>
<stop offset="1" stop-color="#FF9794"/>
</linearGradient>
<linearGradient id="paint7_linear_19990_1202" x1="180.793" y1="384.038" x2="184.416" y2="380.931" gradientUnits="userSpaceOnUse">
<stop stop-color="#FFA694"/>
<stop offset="1" stop-color="#FFB7A9"/>
</linearGradient>
<linearGradient id="paint8_linear_19990_1202" x1="197.779" y1="386.978" x2="176.24" y2="369.166" gradientUnits="userSpaceOnUse">
<stop stop-color="#FF6661"/>
<stop offset="1" stop-color="#FF7D73"/>
</linearGradient>
<linearGradient id="paint9_linear_19990_1202" x1="197.779" y1="386.978" x2="176.24" y2="369.166" gradientUnits="userSpaceOnUse">
<stop stop-color="#FF6661"/>
<stop offset="1" stop-color="#FF7D73"/>
</linearGradient>
<linearGradient id="paint10_linear_19990_1202" x1="197.779" y1="386.978" x2="176.24" y2="369.166" gradientUnits="userSpaceOnUse">
<stop stop-color="#FF6661"/>
<stop offset="1" stop-color="#FF7D73"/>
</linearGradient>
<linearGradient id="paint11_linear_19990_1202" x1="197.779" y1="386.978" x2="176.24" y2="369.166" gradientUnits="userSpaceOnUse">
<stop stop-color="#FF6661"/>
<stop offset="1" stop-color="#FF7D73"/>
</linearGradient>
<linearGradient id="paint12_linear_19990_1202" x1="197.779" y1="386.978" x2="176.24" y2="369.166" gradientUnits="userSpaceOnUse">
<stop stop-color="#FF6661"/>
<stop offset="1" stop-color="#FF7D73"/>
</linearGradient>
<linearGradient id="paint13_linear_19990_1202" x1="197.779" y1="386.978" x2="176.24" y2="369.166" gradientUnits="userSpaceOnUse">
<stop stop-color="#FF6661"/>
<stop offset="1" stop-color="#FF7D73"/>
</linearGradient>
<clipPath id="clip0_19990_1202">
<rect width="540" height="540" fill="white"/>
</clipPath>
<clipPath id="clip1_19990_1202">
<rect width="20.3936" height="18.6202" fill="white" transform="translate(73.0405 431.543) rotate(15)"/>
</clipPath>
<clipPath id="clip2_19990_1202">
<rect width="40.8176" height="43.7332" fill="white" transform="translate(444.003 162.506) rotate(11)"/>
</clipPath>
<clipPath id="clip3_19990_1202">
<rect width="25.225" height="24.2548" fill="white" transform="translate(125.766 207.129) rotate(6)"/>
</clipPath>
<clipPath id="clip4_19990_1202">
<rect width="25.862" height="25.862" fill="white" transform="translate(346.551 96.3328) rotate(-20)"/>
</clipPath>
<clipPath id="clip5_19990_1202">
<rect width="35.8285" height="35.8285" fill="white" transform="translate(42.1979 134.613) rotate(-15)"/>
</clipPath>
<clipPath id="clip6_19990_1202">
<rect width="29.5779" height="33.0576" fill="white" transform="translate(408.867 317.259) rotate(-5)"/>
</clipPath>
<clipPath id="clip7_19990_1202">
<rect width="32.2961" height="32.2961" fill="white" transform="translate(352.305 445.664) rotate(-15)"/>
</clipPath>
</defs>
</svg>
