<svg width="635" height="701" viewBox="0 0 635 701" fill="none" xmlns="http://www.w3.org/2000/svg">
<path d="M318.664 2C323.815 2.01153 328.892 3.21994 333.493 5.52832L333.495 5.5293L613.761 145.726C618.771 148.231 623.062 151.961 626.232 156.567C629.403 161.174 631.35 166.506 631.893 172.065C633.214 185.73 660.996 511.016 334.955 694.71H334.954C330.064 697.47 324.549 698.947 318.929 698.999C313.308 699.051 307.766 697.677 302.825 695.008H302.824C-36.4841 511.037 3.19365 174.232 3.62598 171.016L3.62793 171.003C5.01832 160.11 11.8054 150.623 21.6562 145.658L303.817 5.46094L303.818 5.46191C308.43 3.17398 313.513 1.98852 318.664 2Z" fill="white" fill-opacity="0.5" stroke="#FFF4E4" stroke-width="4"/>
<path d="M546.333 191.084L330.507 82.8867C326.75 80.9978 322.605 80.0095 318.4 80.0001C314.194 79.9907 310.045 80.9605 306.28 82.8326L88.9916 191.03C80.9519 195.087 75.4026 202.851 74.2657 211.777C73.9138 214.401 43.2709 475.265 305.467 617.734C309.502 619.918 314.026 621.041 318.614 620.999C323.203 620.956 327.705 619.749 331.698 617.49C583.635 475.238 562.169 223.3 561.14 212.642C560.697 208.091 559.106 203.727 556.517 199.957C553.927 196.187 550.424 193.134 546.333 191.084Z" fill="#FFAE42"/>
<path d="M318.396 82C322.29 82.0088 326.129 82.9245 329.608 84.6738L329.61 84.6748L545.437 192.872H545.438C549.226 194.771 552.47 197.598 554.868 201.089C557.266 204.58 558.739 208.622 559.149 212.836C560.164 223.347 581.538 474.125 330.715 615.749H330.713C327.015 617.841 322.845 618.96 318.596 618.999C314.346 619.038 310.155 617.997 306.419 615.975C45.4015 474.144 75.9185 214.502 76.248 212.043L76.25 212.029C77.3014 203.775 82.4332 196.584 89.8828 192.82L307.171 84.623L307.17 84.6221C310.657 82.8884 314.501 81.9913 318.396 82Z" stroke="white" stroke-opacity="0.2" stroke-width="4"/>
<path d="M318.13 162C320.787 162.006 323.406 162.629 325.779 163.82L325.781 163.821L478.052 240.02C480.636 241.312 482.848 243.237 484.483 245.613C486.118 247.989 487.122 250.74 487.402 253.607C488.113 260.964 503.168 437.233 326.535 536.786H326.533C324.011 538.21 321.167 538.972 318.268 538.999C315.55 539.024 312.868 538.403 310.443 537.19L309.962 536.94C218.009 487.065 177.466 416.525 159.904 358.242C151.118 329.083 148.083 302.98 147.26 284.059C146.848 274.6 146.99 266.94 147.241 261.598C147.367 258.927 147.52 256.835 147.645 255.389C147.707 254.665 147.762 254.103 147.803 253.711C147.823 253.515 147.841 253.362 147.854 253.252C147.86 253.197 147.865 253.154 147.869 253.122C147.871 253.106 147.872 253.093 147.873 253.084C147.874 253.074 147.875 253.07 147.875 253.07L147.877 253.058C148.593 247.445 152.09 242.549 157.173 239.984L310.474 163.786L310.473 163.785C312.851 162.605 315.473 161.994 318.13 162Z" fill="white" fill-opacity="0.5" stroke="#FFF4E4" stroke-width="4"/>
<g filter="url(#filter0_f_20272_10856)">
<path d="M430.143 271.756L323.837 218.423C321.986 217.492 319.945 217.005 317.873 217C315.802 216.995 313.758 217.473 311.903 218.396L204.877 271.73C200.917 273.73 198.183 277.556 197.623 281.956C197.45 283.25 182.357 411.836 311.503 482.063C313.491 483.14 315.719 483.693 317.979 483.672C320.239 483.651 322.457 483.056 324.423 481.943C448.517 411.823 437.943 287.636 437.437 282.383C437.218 280.14 436.435 277.988 435.159 276.13C433.884 274.271 432.158 272.767 430.143 271.756Z" fill="url(#paint0_linear_20272_10856)" fill-opacity="0.5"/>
</g>
<path d="M69 414C69 405.163 76.1634 398 85 398H117C125.837 398 133 405.163 133 414V446C133 454.837 125.837 462 117 462H85C76.1634 462 69 454.837 69 446V414Z" fill="#4A96F8"/>
<path d="M85 399H117C125.284 399 132 405.716 132 414V446C132 454.284 125.284 461 117 461H85C76.7157 461 70 454.284 70 446V414C70 405.716 76.7157 399 85 399Z" stroke="white" stroke-opacity="0.2" stroke-width="2"/>
<g filter="url(#filter1_d_20272_10856)">
<path d="M113 432.666C113 431.933 112.4 431.333 111.667 431.333H108.907C108.84 430.813 108.747 430.306 108.613 429.813L110.907 428.493C111.547 428.12 111.76 427.306 111.4 426.666C111.222 426.36 110.93 426.137 110.588 426.045C110.246 425.952 109.882 425.999 109.573 426.173L107.56 427.333C107.187 426.693 106.733 426.12 106.24 425.613C106.293 425.306 106.333 425 106.333 424.666C106.333 423.6 106.013 422.6 105.467 421.76L106.72 420.506C106.843 420.383 106.941 420.236 107.008 420.075C107.075 419.914 107.109 419.741 107.109 419.566C107.109 419.392 107.075 419.219 107.008 419.058C106.941 418.896 106.843 418.75 106.72 418.626C106.597 418.503 106.45 418.405 106.289 418.338C106.127 418.271 105.955 418.237 105.78 418.237C105.605 418.237 105.433 418.271 105.271 418.338C105.11 418.405 104.963 418.503 104.84 418.626L103.48 419.986C101.24 418.8 99.3467 419.546 98.5067 419.986L97.16 418.613C97.0366 418.49 96.89 418.392 96.7287 418.325C96.5674 418.258 96.3946 418.224 96.22 418.224C96.0454 418.224 95.8726 418.258 95.7113 418.325C95.55 418.392 95.4034 418.49 95.28 418.613C95.0307 418.862 94.8906 419.2 94.8906 419.553C94.8906 419.906 95.0307 420.244 95.28 420.493L96.5333 421.746C95.9867 422.6 95.6667 423.6 95.6667 424.666C95.6667 425 95.7067 425.306 95.76 425.626C95.2667 426.133 94.8133 426.706 94.44 427.333L92.4267 426.173C92.2752 426.086 92.1082 426.03 91.9351 426.008C91.7619 425.986 91.5862 425.998 91.4177 426.044C91.2493 426.09 91.0916 426.168 90.9536 426.275C90.8155 426.382 90.6999 426.515 90.6133 426.666C90.24 427.306 90.4667 428.12 91.1067 428.493L93.4 429.813C93.2667 430.306 93.1733 430.813 93.1067 431.333H90.3333C89.6 431.333 89 431.933 89 432.666C89 433.4 89.6 434 90.3333 434H93.0933C93.16 434.52 93.2533 435.026 93.3867 435.52L91.0933 436.84C90.4533 437.213 90.24 438.026 90.6 438.666C90.9733 439.306 91.7867 439.52 92.4267 439.16L94.44 438C95.88 440.413 98.28 442 101 442C103.72 442 106.12 440.413 107.56 438L109.573 439.16C110.213 439.533 111.027 439.306 111.4 438.666C111.773 438.026 111.547 437.213 110.907 436.84L108.613 435.52C108.747 435.026 108.84 434.52 108.907 434H111.667C112.4 434 113 433.4 113 432.666ZM101 436.666C100.267 436.666 99.6667 436.066 99.6667 435.333V430C99.6667 429.266 100.267 428.666 101 428.666C101.733 428.666 102.333 429.266 102.333 430V435.333C102.333 436.066 101.733 436.666 101 436.666Z" fill="white"/>
</g>
<path d="M401 186C401 177.163 408.163 170 417 170H449C457.837 170 465 177.163 465 186V218C465 226.837 457.837 234 449 234H417C408.163 234 401 226.837 401 218V186Z" fill="#4A96F8"/>
<path d="M417 171H449C457.284 171 464 177.716 464 186V218C464 226.284 457.284 233 449 233H417C408.716 233 402 226.284 402 218V186C402 177.716 408.716 171 417 171Z" stroke="white" stroke-opacity="0.2" stroke-width="2"/>
<g filter="url(#filter2_d_20272_10856)">
<path d="M433 188.667L433.156 188.676C433.454 188.711 433.731 188.846 433.943 189.058C434.155 189.27 434.289 189.547 434.324 189.844L434.333 190V195.334L434.34 195.534C434.388 196.169 434.661 196.765 435.111 197.216C435.56 197.667 436.156 197.943 436.791 197.992L437 198H442.333L442.489 198.01C442.787 198.045 443.064 198.179 443.276 198.391C443.488 198.603 443.622 198.88 443.657 199.178L443.667 199.334V211.334C443.667 212.354 443.277 213.336 442.577 214.078C441.877 214.82 440.92 215.267 439.901 215.327L439.667 215.334H426.333C425.313 215.334 424.331 214.944 423.589 214.244C422.847 213.544 422.4 212.587 422.34 211.568L422.333 211.334V192.667C422.333 191.647 422.723 190.665 423.423 189.923C424.123 189.18 425.08 188.734 426.099 188.674L426.333 188.667H433Z" fill="white"/>
</g>
<path d="M442.334 195.334H437L436.999 189.999L442.334 195.334Z" fill="white"/>
<path d="M507 524C507 515.163 514.163 508 523 508H555C563.837 508 571 515.163 571 524V556C571 564.837 563.837 572 555 572H523C514.163 572 507 564.837 507 556V524Z" fill="#4A96F8"/>
<path d="M523 509H555C563.284 509 570 515.716 570 524V556C570 564.284 563.284 571 555 571H523C514.716 571 508 564.284 508 556V524C508 515.716 514.716 509 523 509Z" stroke="white" stroke-opacity="0.2" stroke-width="2"/>
<g filter="url(#filter3_d_20272_10856)">
<path d="M550 529H528C527.47 529 526.961 529.211 526.586 529.586C526.211 529.961 526 530.47 526 531V549C526 549.53 526.211 550.039 526.586 550.414C526.961 550.789 527.47 551 528 551H550C550.53 551 551.039 550.789 551.414 550.414C551.789 550.039 552 549.53 552 549V531C552 530.47 551.789 529.961 551.414 529.586C551.039 529.211 550.53 529 550 529ZM534.6 542.2C534.812 542.359 534.952 542.596 534.99 542.859C535.027 543.121 534.959 543.388 534.8 543.6C534.641 543.812 534.404 543.952 534.141 543.99C533.879 544.027 533.612 543.959 533.4 543.8L529.4 540.8C529.276 540.707 529.175 540.586 529.106 540.447C529.036 540.308 529 540.155 529 540C529 539.845 529.036 539.692 529.106 539.553C529.175 539.414 529.276 539.293 529.4 539.2L533.4 536.2C533.612 536.041 533.879 535.973 534.141 536.01C534.404 536.048 534.641 536.188 534.8 536.4C534.959 536.612 535.027 536.879 534.99 537.141C534.952 537.404 534.812 537.641 534.6 537.8L531.666 540L534.6 542.2ZM541.961 533.275L537.961 547.275C537.927 547.404 537.868 547.524 537.787 547.629C537.705 547.734 537.604 547.823 537.488 547.888C537.373 547.954 537.245 547.996 537.113 548.012C536.981 548.027 536.847 548.017 536.72 547.98C536.592 547.943 536.473 547.882 536.369 547.799C536.265 547.715 536.179 547.612 536.116 547.495C536.052 547.379 536.013 547.25 536 547.118C535.986 546.986 536 546.852 536.039 546.725L540.039 532.725C540.116 532.475 540.288 532.264 540.518 532.14C540.748 532.015 541.018 531.985 541.27 532.057C541.522 532.129 541.735 532.297 541.864 532.525C541.994 532.753 542.028 533.022 541.961 533.275ZM548.6 540.8L544.6 543.8C544.388 543.959 544.121 544.027 543.859 543.99C543.596 543.952 543.359 543.812 543.2 543.6C543.041 543.388 542.973 543.121 543.01 542.859C543.048 542.596 543.188 542.359 543.4 542.2L546.334 540L543.4 537.8C543.295 537.721 543.206 537.622 543.14 537.509C543.073 537.396 543.029 537.271 543.01 537.141C542.991 537.011 542.999 536.879 543.031 536.752C543.064 536.625 543.121 536.505 543.2 536.4C543.279 536.295 543.378 536.206 543.491 536.14C543.604 536.073 543.729 536.029 543.859 536.01C543.989 535.991 544.121 535.999 544.248 536.031C544.375 536.064 544.495 536.121 544.6 536.2L548.6 539.2C548.724 539.293 548.825 539.414 548.894 539.553C548.964 539.692 549 539.845 549 540C549 540.155 548.964 540.308 548.894 540.447C548.825 540.586 548.724 540.707 548.6 540.8Z" fill="white"/>
</g>
<g filter="url(#filter4_d_20272_10856)">
<path d="M430.143 270.756L323.837 217.423C321.986 216.492 319.945 216.005 317.873 216C315.802 215.995 313.758 216.473 311.903 217.396L204.877 270.73C200.917 272.73 198.183 276.556 197.623 280.956C197.45 282.25 182.357 410.836 311.503 481.063C313.491 482.14 315.719 482.693 317.979 482.672C320.239 482.651 322.457 482.056 324.423 480.943C448.517 410.823 437.943 286.636 437.437 281.383C437.218 279.14 436.435 276.988 435.159 275.13C433.884 273.271 432.158 271.767 430.143 270.756Z" fill="#14326B"/>
<path d="M317.867 218.5C319.55 218.504 321.21 218.9 322.713 219.656L322.716 219.657L429.022 272.991C430.659 273.812 432.062 275.035 433.099 276.545C434.135 278.055 434.771 279.803 434.948 281.625C435.438 286.702 445.892 409.435 323.193 478.767L323.191 478.768C321.594 479.672 319.792 480.156 317.956 480.173C316.121 480.19 314.31 479.74 312.696 478.866H312.697C248.797 444.119 220.655 395.006 208.463 354.44C202.36 334.135 200.252 315.957 199.681 302.784C199.395 296.2 199.493 290.872 199.667 287.162C199.754 285.308 199.859 283.858 199.945 282.859C199.988 282.36 200.027 281.973 200.055 281.705C200.069 281.571 200.081 281.467 200.089 281.395C200.097 281.323 200.101 281.29 200.102 281.288L200.103 281.28L200.104 281.271C200.543 277.818 202.638 274.787 205.704 273.118L206.004 272.961L313.017 219.634L313.018 219.635C314.524 218.885 316.184 218.496 317.867 218.5Z" stroke="white" stroke-opacity="0.2" stroke-width="5"/>
</g>
<path fill-rule="evenodd" clip-rule="evenodd" d="M295 327.333C295 321.498 297.318 315.902 301.444 311.777C305.569 307.651 311.165 305.333 317 305.333C322.835 305.333 328.431 307.651 332.556 311.777C336.682 315.902 339 321.498 339 327.333H342.667C344.612 327.333 346.477 328.106 347.852 329.481C349.227 330.856 350 332.721 350 334.666V371.333C350 373.278 349.227 375.143 347.852 376.518C346.477 377.894 344.612 378.666 342.667 378.666H291.333C289.388 378.666 287.523 377.894 286.148 376.518C284.773 375.143 284 373.278 284 371.333V334.666C284 332.721 284.773 330.856 286.148 329.481C287.523 328.106 289.388 327.333 291.333 327.333H295ZM317 312.666C320.89 312.666 324.62 314.212 327.371 316.962C330.121 319.713 331.667 323.443 331.667 327.333H302.333C302.333 323.443 303.879 319.713 306.629 316.962C309.38 314.212 313.11 312.666 317 312.666ZM324.333 349.333C324.333 350.62 323.994 351.885 323.351 353C322.707 354.114 321.781 355.04 320.667 355.684V360.333C320.667 361.305 320.28 362.238 319.593 362.926C318.905 363.613 317.972 364 317 364C316.028 364 315.095 363.613 314.407 362.926C313.72 362.238 313.333 361.305 313.333 360.333V355.684C311.935 354.876 310.843 353.631 310.225 352.139C309.607 350.648 309.499 348.994 309.917 347.435C310.335 345.876 311.255 344.498 312.536 343.515C313.817 342.532 315.386 342 317 342C318.945 342 320.81 342.772 322.185 344.148C323.561 345.523 324.333 347.388 324.333 349.333Z" fill="white"/>
<defs>
<filter id="filter0_f_20272_10856" x="117" y="137" width="400.86" height="426.673" filterUnits="userSpaceOnUse" color-interpolation-filters="sRGB">
<feFlood flood-opacity="0" result="BackgroundImageFix"/>
<feBlend mode="normal" in="SourceGraphic" in2="BackgroundImageFix" result="shape"/>
<feGaussianBlur stdDeviation="40" result="effect1_foregroundBlur_20272_10856"/>
</filter>
<filter id="filter1_d_20272_10856" x="57" y="390.224" width="88" height="87.7764" filterUnits="userSpaceOnUse" color-interpolation-filters="sRGB">
<feFlood flood-opacity="0" result="BackgroundImageFix"/>
<feColorMatrix in="SourceAlpha" type="matrix" values="0 0 0 0 0 0 0 0 0 0 0 0 0 0 0 0 0 0 127 0" result="hardAlpha"/>
<feOffset dy="4"/>
<feGaussianBlur stdDeviation="16"/>
<feComposite in2="hardAlpha" operator="out"/>
<feColorMatrix type="matrix" values="0 0 0 0 0 0 0 0 0 0 0 0 0 0 0 0 0 0 0.08 0"/>
<feBlend mode="normal" in2="BackgroundImageFix" result="effect1_dropShadow_20272_10856"/>
<feBlend mode="normal" in="SourceGraphic" in2="effect1_dropShadow_20272_10856" result="shape"/>
</filter>
<filter id="filter2_d_20272_10856" x="390.333" y="160.667" width="85.3335" height="90.667" filterUnits="userSpaceOnUse" color-interpolation-filters="sRGB">
<feFlood flood-opacity="0" result="BackgroundImageFix"/>
<feColorMatrix in="SourceAlpha" type="matrix" values="0 0 0 0 0 0 0 0 0 0 0 0 0 0 0 0 0 0 127 0" result="hardAlpha"/>
<feOffset dy="4"/>
<feGaussianBlur stdDeviation="16"/>
<feComposite in2="hardAlpha" operator="out"/>
<feColorMatrix type="matrix" values="0 0 0 0 0 0 0 0 0 0 0 0 0 0 0 0 0 0 0.08 0"/>
<feBlend mode="normal" in2="BackgroundImageFix" result="effect1_dropShadow_20272_10856"/>
<feBlend mode="normal" in="SourceGraphic" in2="effect1_dropShadow_20272_10856" result="shape"/>
</filter>
<filter id="filter3_d_20272_10856" x="494" y="501" width="90" height="86" filterUnits="userSpaceOnUse" color-interpolation-filters="sRGB">
<feFlood flood-opacity="0" result="BackgroundImageFix"/>
<feColorMatrix in="SourceAlpha" type="matrix" values="0 0 0 0 0 0 0 0 0 0 0 0 0 0 0 0 0 0 127 0" result="hardAlpha"/>
<feOffset dy="4"/>
<feGaussianBlur stdDeviation="16"/>
<feComposite in2="hardAlpha" operator="out"/>
<feColorMatrix type="matrix" values="0 0 0 0 0 0 0 0 0 0 0 0 0 0 0 0 0 0 0.08 0"/>
<feBlend mode="normal" in2="BackgroundImageFix" result="effect1_dropShadow_20272_10856"/>
<feBlend mode="normal" in="SourceGraphic" in2="effect1_dropShadow_20272_10856" result="shape"/>
</filter>
<filter id="filter4_d_20272_10856" x="165" y="188" width="304.86" height="330.673" filterUnits="userSpaceOnUse" color-interpolation-filters="sRGB">
<feFlood flood-opacity="0" result="BackgroundImageFix"/>
<feColorMatrix in="SourceAlpha" type="matrix" values="0 0 0 0 0 0 0 0 0 0 0 0 0 0 0 0 0 0 127 0" result="hardAlpha"/>
<feOffset dy="4"/>
<feGaussianBlur stdDeviation="16"/>
<feComposite in2="hardAlpha" operator="out"/>
<feColorMatrix type="matrix" values="0 0 0 0 0 0 0 0 0 0 0 0 0 0 0 0 0 0 0.08 0"/>
<feBlend mode="normal" in2="BackgroundImageFix" result="effect1_dropShadow_20272_10856"/>
<feBlend mode="normal" in="SourceGraphic" in2="effect1_dropShadow_20272_10856" result="shape"/>
</filter>
<linearGradient id="paint0_linear_20272_10856" x1="197" y1="217" x2="507.619" y2="507.572" gradientUnits="userSpaceOnUse">
<stop stop-color="#2D58A7"/>
<stop offset="1" stop-color="#4A96F8"/>
</linearGradient>
</defs>
</svg>
