<svg width="559" height="540" viewBox="0 0 559 540" fill="none" xmlns="http://www.w3.org/2000/svg">
<path d="M63 2H503C529.51 2 551 23.4903 551 50V490C551 516.51 529.51 538 503 538H63C36.4903 538 15 516.51 15 490V50L15.0039 49.3799C15.3333 23.3624 36.3624 2.33331 62.3799 2.00391L63 2Z" fill="white" fill-opacity="0.8" stroke="white" stroke-width="4"/>
<rect x="195" y="248" width="176" height="52.9557" rx="26.4779" fill="#14326B"/>
<rect x="196" y="249" width="174" height="50.9557" rx="25.4779" stroke="white" stroke-opacity="0.5" stroke-width="2"/>
<path d="M230.743 288.956H220.709L225.781 283.673H231.115C234.123 283.673 236.56 281.235 236.56 278.228V276.909H241.633V278.066C241.633 284.081 236.757 288.956 230.743 288.956Z" fill="white"/>
<path d="M230.743 288.956H220.709L225.781 283.673H231.115C234.123 283.673 236.56 281.235 236.56 278.228V276.909H241.633V278.066C241.633 284.081 236.757 288.956 230.743 288.956Z" fill="white"/>
<path d="M231.388 260.001H241.422L236.349 265.284H231.015C228.008 265.284 225.57 267.722 225.57 270.729V272.048H220.498V270.891C220.498 264.876 225.374 260.001 231.388 260.001Z" fill="white"/>
<path d="M231.388 260.001H241.422L236.349 265.284H231.015C228.008 265.284 225.57 267.722 225.57 270.729V272.048H220.498V270.891C220.498 264.876 225.374 260.001 231.388 260.001Z" fill="white"/>
<path d="M235.794 270.145H231.318L236.349 265.284C242.229 265.278 247 270.044 247 275.924V276.908H241.693V276.044C241.693 272.786 239.052 270.145 235.794 270.145Z" fill="white"/>
<path d="M235.794 270.145H231.318L236.349 265.284C242.229 265.278 247 270.044 247 275.924V276.908H241.693V276.044C241.693 272.786 239.052 270.145 235.794 270.145Z" fill="white"/>
<path d="M226.206 278.811H230.682L225.651 283.672C219.771 283.678 215 278.912 215 273.032V272.048H220.307V272.912C220.307 276.17 222.948 278.811 226.206 278.811Z" fill="white"/>
<path d="M226.206 278.811H230.682L225.651 283.672C219.771 283.678 215 278.912 215 273.032V272.048H220.307V272.912C220.307 276.17 222.948 278.811 226.206 278.811Z" fill="white"/>
<path d="M272.679 271.662H270.463C270.378 271.189 270.219 270.772 269.987 270.412C269.755 270.052 269.471 269.747 269.135 269.496C268.799 269.245 268.422 269.056 268.006 268.928C267.594 268.8 267.156 268.736 266.692 268.736C265.854 268.736 265.103 268.947 264.44 269.368C263.782 269.79 263.261 270.407 262.878 271.222C262.499 272.036 262.31 273.031 262.31 274.205C262.31 275.389 262.499 276.388 262.878 277.202C263.261 278.016 263.785 278.632 264.447 279.049C265.11 279.465 265.856 279.674 266.685 279.674C267.144 279.674 267.58 279.612 267.991 279.489C268.408 279.361 268.785 279.174 269.121 278.928C269.457 278.682 269.741 278.381 269.973 278.026C270.21 277.666 270.373 277.254 270.463 276.79L272.679 276.797C272.561 277.512 272.331 278.17 271.99 278.772C271.654 279.368 271.221 279.884 270.69 280.32C270.165 280.751 269.563 281.085 268.886 281.321C268.209 281.558 267.471 281.676 266.67 281.676C265.411 281.676 264.289 281.378 263.304 280.782C262.319 280.18 261.543 279.321 260.974 278.203C260.411 277.086 260.129 275.753 260.129 274.205C260.129 272.652 260.413 271.319 260.982 270.206C261.55 269.089 262.326 268.232 263.311 267.635C264.296 267.034 265.416 266.733 266.67 266.733C267.442 266.733 268.162 266.844 268.83 267.067C269.502 267.285 270.106 267.607 270.641 268.033C271.176 268.454 271.618 268.97 271.969 269.581C272.319 270.187 272.556 270.881 272.679 271.662ZM278.209 281.719C277.518 281.719 276.893 281.591 276.334 281.335C275.776 281.075 275.333 280.699 275.006 280.206C274.684 279.714 274.523 279.11 274.523 278.395C274.523 277.78 274.642 277.273 274.878 276.875C275.115 276.478 275.435 276.163 275.837 275.931C276.24 275.699 276.689 275.523 277.187 275.405C277.684 275.287 278.19 275.197 278.706 275.135C279.36 275.059 279.89 274.998 280.297 274.951C280.705 274.898 281 274.816 281.185 274.702C281.37 274.588 281.462 274.404 281.462 274.148V274.098C281.462 273.478 281.287 272.997 280.937 272.657C280.591 272.316 280.075 272.145 279.388 272.145C278.673 272.145 278.11 272.304 277.698 272.621C277.291 272.934 277.009 273.282 276.853 273.665L274.857 273.21C275.094 272.548 275.439 272.013 275.894 271.605C276.353 271.193 276.881 270.895 277.478 270.71C278.074 270.521 278.702 270.426 279.36 270.426C279.795 270.426 280.257 270.478 280.745 270.583C281.237 270.682 281.697 270.867 282.123 271.137C282.554 271.407 282.906 271.792 283.181 272.294C283.456 272.791 283.593 273.438 283.593 274.233V281.478H281.519V279.986H281.434C281.296 280.261 281.09 280.531 280.816 280.796C280.541 281.061 280.188 281.281 279.758 281.456C279.327 281.631 278.811 281.719 278.209 281.719ZM278.671 280.014C279.258 280.014 279.76 279.898 280.177 279.666C280.598 279.434 280.918 279.131 281.135 278.757C281.358 278.379 281.469 277.974 281.469 277.543V276.137C281.393 276.212 281.247 276.283 281.029 276.35C280.816 276.411 280.572 276.466 280.297 276.513C280.023 276.556 279.755 276.596 279.495 276.634C279.234 276.667 279.017 276.695 278.841 276.719C278.429 276.771 278.053 276.859 277.712 276.982C277.376 277.105 277.106 277.282 276.902 277.514C276.704 277.742 276.604 278.045 276.604 278.424C276.604 278.949 276.798 279.347 277.187 279.617C277.575 279.882 278.07 280.014 278.671 280.014ZM286.321 285.568V270.568H288.395V272.337H288.573C288.696 272.11 288.873 271.847 289.105 271.549C289.337 271.25 289.659 270.99 290.071 270.767C290.483 270.54 291.028 270.426 291.705 270.426C292.586 270.426 293.371 270.649 294.063 271.094C294.754 271.539 295.296 272.181 295.689 273.019C296.087 273.857 296.286 274.865 296.286 276.044C296.286 277.223 296.089 278.234 295.696 279.077C295.303 279.915 294.764 280.561 294.077 281.016C293.39 281.466 292.607 281.691 291.726 281.691C291.063 281.691 290.521 281.579 290.1 281.357C289.683 281.134 289.356 280.874 289.12 280.576C288.883 280.277 288.701 280.012 288.573 279.78H288.445V285.568H286.321ZM288.402 276.023C288.402 276.79 288.514 277.462 288.736 278.04C288.959 278.618 289.281 279.07 289.702 279.397C290.123 279.719 290.639 279.88 291.25 279.88C291.885 279.88 292.415 279.711 292.841 279.375C293.267 279.034 293.589 278.573 293.807 277.99C294.03 277.408 294.141 276.752 294.141 276.023C294.141 275.303 294.032 274.657 293.814 274.084C293.601 273.511 293.279 273.059 292.848 272.728C292.422 272.396 291.889 272.23 291.25 272.23C290.635 272.23 290.114 272.389 289.688 272.706C289.266 273.023 288.947 273.466 288.729 274.034C288.511 274.603 288.402 275.265 288.402 276.023ZM306.74 273.232L304.815 273.573C304.735 273.326 304.607 273.092 304.432 272.87C304.261 272.647 304.029 272.465 303.736 272.323C303.442 272.181 303.075 272.11 302.635 272.11C302.033 272.11 301.531 272.245 301.129 272.514C300.727 272.78 300.525 273.123 300.525 273.544C300.525 273.909 300.66 274.202 300.93 274.425C301.2 274.648 301.636 274.83 302.237 274.972L303.97 275.37C304.974 275.602 305.722 275.959 306.214 276.442C306.707 276.925 306.953 277.552 306.953 278.324C306.953 278.978 306.763 279.56 306.385 280.071C306.011 280.578 305.487 280.976 304.815 281.264C304.147 281.553 303.373 281.698 302.493 281.698C301.271 281.698 300.274 281.437 299.503 280.916C298.731 280.391 298.257 279.645 298.082 278.679L300.135 278.367C300.263 278.902 300.525 279.307 300.923 279.581C301.321 279.851 301.839 279.986 302.478 279.986C303.174 279.986 303.731 279.842 304.147 279.553C304.564 279.259 304.772 278.902 304.772 278.48C304.772 278.139 304.645 277.853 304.389 277.621C304.138 277.389 303.752 277.214 303.231 277.095L301.385 276.691C300.367 276.459 299.614 276.089 299.126 275.583C298.643 275.076 298.402 274.434 298.402 273.658C298.402 273.014 298.582 272.451 298.941 271.968C299.301 271.485 299.798 271.108 300.433 270.838C301.067 270.564 301.794 270.426 302.613 270.426C303.792 270.426 304.72 270.682 305.397 271.193C306.075 271.7 306.522 272.38 306.74 273.232ZM314.28 270.568V272.273H308.321V270.568H314.28ZM309.919 267.955H312.043V278.274C312.043 278.686 312.104 278.996 312.227 279.205C312.351 279.408 312.509 279.548 312.703 279.624C312.902 279.695 313.118 279.73 313.35 279.73C313.52 279.73 313.669 279.719 313.797 279.695C313.925 279.671 314.024 279.652 314.095 279.638L314.479 281.392C314.356 281.44 314.181 281.487 313.953 281.534C313.726 281.586 313.442 281.615 313.101 281.62C312.542 281.629 312.022 281.53 311.539 281.321C311.056 281.113 310.665 280.791 310.367 280.355C310.068 279.92 309.919 279.373 309.919 278.715V267.955ZM321.007 281.698C319.984 281.698 319.092 281.463 318.33 280.995C317.567 280.526 316.975 279.87 316.554 279.027C316.133 278.184 315.922 277.2 315.922 276.073C315.922 274.941 316.133 273.951 316.554 273.104C316.975 272.256 317.567 271.598 318.33 271.13C319.092 270.661 319.984 270.426 321.007 270.426C322.03 270.426 322.922 270.661 323.685 271.13C324.447 271.598 325.039 272.256 325.46 273.104C325.882 273.951 326.092 274.941 326.092 276.073C326.092 277.2 325.882 278.184 325.46 279.027C325.039 279.87 324.447 280.526 323.685 280.995C322.922 281.463 322.03 281.698 321.007 281.698ZM321.014 279.915C321.677 279.915 322.226 279.74 322.662 279.389C323.098 279.039 323.42 278.573 323.628 277.99C323.841 277.408 323.947 276.766 323.947 276.066C323.947 275.37 323.841 274.73 323.628 274.148C323.42 273.561 323.098 273.09 322.662 272.735C322.226 272.38 321.677 272.202 321.014 272.202C320.347 272.202 319.793 272.38 319.352 272.735C318.917 273.09 318.592 273.561 318.379 274.148C318.171 274.73 318.067 275.37 318.067 276.066C318.067 276.766 318.171 277.408 318.379 277.99C318.592 278.573 318.917 279.039 319.352 279.389C319.793 279.74 320.347 279.915 321.014 279.915ZM330.486 275V281.478H328.363V270.568H330.401V272.344H330.536C330.787 271.766 331.18 271.302 331.715 270.952C332.255 270.602 332.934 270.426 333.753 270.426C334.497 270.426 335.148 270.583 335.706 270.895C336.265 271.203 336.698 271.662 337.006 272.273C337.314 272.884 337.468 273.639 337.468 274.539V281.478H335.344V274.794C335.344 274.004 335.138 273.386 334.726 272.941C334.314 272.491 333.749 272.266 333.029 272.266C332.536 272.266 332.099 272.372 331.715 272.585C331.336 272.799 331.036 273.111 330.813 273.523C330.595 273.93 330.486 274.423 330.486 275ZM344.918 281.698C343.843 281.698 342.917 281.468 342.141 281.009C341.369 280.545 340.772 279.894 340.351 279.056C339.934 278.213 339.726 277.226 339.726 276.094C339.726 274.977 339.934 273.992 340.351 273.139C340.772 272.287 341.359 271.622 342.112 271.144C342.87 270.666 343.755 270.426 344.768 270.426C345.384 270.426 345.981 270.528 346.558 270.732C347.136 270.935 347.654 271.255 348.114 271.691C348.573 272.126 348.935 272.692 349.2 273.388C349.465 274.079 349.598 274.92 349.598 275.909V276.662H340.926V275.071H347.517C347.517 274.513 347.403 274.018 347.176 273.587C346.949 273.151 346.629 272.808 346.217 272.557C345.81 272.306 345.332 272.181 344.783 272.181C344.186 272.181 343.665 272.327 343.22 272.621C342.78 272.91 342.439 273.289 342.197 273.757C341.961 274.221 341.842 274.726 341.842 275.27V276.513C341.842 277.242 341.97 277.862 342.226 278.374C342.486 278.885 342.848 279.276 343.312 279.546C343.776 279.811 344.319 279.943 344.939 279.943C345.341 279.943 345.708 279.887 346.04 279.773C346.371 279.655 346.658 279.479 346.899 279.247C347.141 279.015 347.325 278.729 347.453 278.388L349.463 278.75C349.302 279.342 349.013 279.861 348.597 280.306C348.185 280.746 347.666 281.089 347.041 281.335C346.421 281.577 345.713 281.698 344.918 281.698Z" fill="white"/>
<path d="M80 0V65C80 81.5685 93.4315 95 110 95H253C269.569 95 283 108.431 283 125V149.5" stroke="#C9D1DA"/>
<path d="M486 0V65C486 81.5685 472.569 95 456 95H313C296.431 95 283 108.431 283 125V149.5" stroke="#C9D1DA"/>
<path d="M283 240L285.887 235H280.113L283 240ZM283 149H282.5V235.5H283H283.5V149H283Z" fill="#C9D1DA"/>
<g filter="url(#filter0_d_20272_10401)">
<rect x="79.8965" y="420" width="38.2377" height="38.2377" rx="7.64754" transform="rotate(15 79.8965 420)" fill="white" shape-rendering="crispEdges"/>
<g clip-path="url(#clip0_20272_10401)">
<path d="M87.0203 432.437C86.9316 432.412 86.8385 432.407 86.7476 432.421C86.6567 432.436 86.5701 432.47 86.494 432.521C86.418 432.573 86.3542 432.64 86.3072 432.719C86.2602 432.797 86.2311 432.885 86.222 432.976L84.6303 449.276C84.6114 449.476 84.6639 449.676 84.7786 449.842C84.8934 450.007 85.063 450.127 85.2576 450.181L97.6832 453.511C97.8289 453.552 97.9845 453.54 98.1215 453.476C98.2585 453.413 98.3678 453.303 98.4296 453.166L105.254 438.082C105.291 437.999 105.31 437.908 105.309 437.817C105.307 437.725 105.286 437.635 105.246 437.552C105.205 437.47 105.147 437.397 105.076 437.339C105.005 437.281 104.921 437.239 104.832 437.216L87.0203 432.437ZM94.9043 446.639L90.9384 445.576L91.3558 439.723L97.3566 441.331L94.9043 446.639Z" fill="#2684FF"/>
<path d="M103.082 442.865L97.3558 441.331L94.9036 446.639L90.9377 445.576L84.7757 449.841C84.89 450.009 85.0603 450.13 85.2561 450.184L97.6846 453.515C97.8304 453.556 97.9859 453.543 98.1229 453.48C98.2599 453.417 98.3693 453.306 98.4311 453.169L103.082 442.865Z" fill="url(#paint0_linear_20272_10401)"/>
</g>
</g>
<g filter="url(#filter1_d_20272_10401)">
<rect x="442.604" y="143" width="76.5324" height="76.5324" rx="15.3065" transform="rotate(11 442.604 143)" fill="white" shape-rendering="crispEdges"/>
<g clip-path="url(#clip1_20272_10401)">
<path d="M479.902 167.767L492.208 178.128C493.925 179.574 494.725 181.815 494.302 183.994L491.361 199.126C490.937 201.305 489.356 203.083 487.222 203.78L471.93 208.777C469.856 209.455 467.567 209.01 465.897 207.604L453.591 197.243C451.874 195.797 451.074 193.556 451.497 191.378L454.439 176.245C454.862 174.067 456.443 172.289 458.577 171.591L473.869 166.595C475.943 165.917 478.232 166.362 479.902 167.767ZM456.727 176.754L453.797 191.825C453.534 193.177 454.032 194.571 455.103 195.473L467.235 205.687C467.398 205.789 467.578 205.86 467.769 205.897C468.615 206.062 469.434 205.514 469.597 204.675L471.965 192.493C472.351 190.508 471.59 188.471 469.992 187.21L469.081 186.491C468.862 186.344 468.648 186.188 468.439 186.022L456.727 176.754ZM469.945 184.916C472.143 186.656 473.993 187.015 476.683 186.226L491.323 181.439C491.142 180.637 490.7 179.897 490.042 179.343L478.39 169.538C477.344 168.657 475.907 168.378 474.607 168.802L460.156 173.534C459.338 173.801 458.651 174.322 458.182 174.997L469.945 184.916ZM476.003 171.721C478.877 172.28 480.952 174.137 480.748 175.925L480.168 178.941C479.811 180.778 477.119 181.8 474.156 181.224C471.192 180.648 469.079 178.692 469.436 176.855L470.022 173.84C470.509 172.107 473.128 171.162 476.003 171.721ZM474.969 177.043C477.458 177.527 479.671 176.918 479.911 175.684C480.151 174.45 478.327 173.057 475.838 172.573C473.348 172.089 471.136 172.697 470.896 173.932C470.656 175.166 472.479 176.559 474.969 177.043Z" fill="#5A45FF"/>
</g>
</g>
<g filter="url(#filter2_d_20272_10401)">
<rect x="128.943" y="195" width="47.2966" height="47.2966" rx="9.45932" transform="rotate(6 128.943 195)" fill="white" shape-rendering="crispEdges"/>
<g clip-path="url(#clip2_20272_10401)">
<path d="M150.936 232.739C156.672 233.342 161.798 229.308 162.385 223.728C162.971 218.149 158.796 213.137 153.059 212.534C147.322 211.931 142.196 215.965 141.61 221.545C141.024 227.124 145.199 232.136 150.936 232.739Z" fill="black"/>
<path d="M148.479 230.34C154.512 230.974 159.939 226.73 160.561 220.812C161.183 214.895 156.757 209.615 150.724 208.981C144.69 208.347 139.263 212.591 138.641 218.509C138.019 224.426 142.445 229.706 148.479 230.34Z" fill="#FF90E8" stroke="black" stroke-width="1.23169"/>
<path d="M148.209 224.961C145.142 224.639 143.6 221.952 143.927 218.847C144.266 215.619 146.526 213.209 150.315 213.607C154.224 214.018 155.265 216.836 155.166 218.365L152.339 218.068C152.368 217.209 151.781 215.854 150.037 215.671C148.173 215.475 146.797 216.993 146.586 219.003C146.374 221.013 147.404 222.783 149.269 222.979C150.953 223.156 151.815 221.892 152.257 220.584L149.55 220.3L149.666 219.203L155.345 219.8L154.756 225.403L152.264 225.141L152.636 221.609C152.321 222.869 151.276 225.284 148.209 224.961Z" fill="black"/>
</g>
</g>
<g filter="url(#filter3_d_20272_10401)">
<rect x="345.049" y="89.5703" width="48.4913" height="48.4913" rx="9.69826" transform="rotate(-20 345.049 89.5703)" fill="white" shape-rendering="crispEdges"/>
<g clip-path="url(#clip3_20272_10401)">
<path fill-rule="evenodd" clip-rule="evenodd" d="M365.679 98.9999C366.653 99.3372 366.918 99.1879 368.296 98.5797L381.318 92.935C381.6 92.8322 381.263 92.636 381.152 92.6235L378.359 91.8298C377.816 91.6551 377.114 91.4839 376.067 91.9718L363.518 97.6038C363.065 97.8215 363.057 98.0908 363.313 98.211L365.679 98.9999ZM367.607 101.812L372.706 115.819C372.98 116.571 373.458 116.716 374.288 116.361L388.61 110.19C389.441 109.835 389.346 109.283 389.124 108.671L384.06 94.7581C383.838 94.1475 383.483 93.9038 382.982 94.1395L368.017 100.597C367.47 100.85 367.385 101.201 367.607 101.812L367.607 101.812ZM382.324 97.306C382.572 97.6953 382.632 98.1525 382.225 98.3546L381.572 98.7516L385.335 109.093C384.843 109.644 384.347 110.038 383.877 110.209C383.124 110.483 382.85 110.316 382.029 109.817L374.783 104.257L377.332 111.26L378.911 111.058C378.911 111.058 379.219 111.904 378.042 112.333L374.865 113.702C374.702 113.548 374.626 113.044 374.921 112.83L375.682 112.287L372.312 103.027L371.102 103.361C370.853 102.972 370.866 102.276 371.508 101.988L374.904 100.487L382.371 106.073L380.01 99.586L378.736 99.8909C378.453 99.4074 378.692 98.8947 379.146 98.6768L382.324 97.306ZM361.974 96.7287L375.023 90.8611C376.618 90.1205 377.076 90.0609 378.385 90.436L383.76 91.8865C384.654 92.1467 384.941 92.2019 385.146 92.7658L391.151 109.265C391.528 110.299 391.374 111.048 390.091 111.62L374.862 118.228C373.89 118.635 373.369 118.666 372.611 118.195L367.971 115.253C367.132 114.706 366.692 114.228 366.453 113.569L361.115 98.9039C360.807 98.0583 360.927 97.2158 361.974 96.7287Z" fill="black"/>
</g>
</g>
<g filter="url(#filter4_d_20272_10401)">
<rect x="165.229" y="338" width="75.9557" height="75.9557" rx="15.1911" transform="rotate(5 165.229 338)" fill="white" shape-rendering="crispEdges"/>
<path fill-rule="evenodd" clip-rule="evenodd" d="M199.229 392.077L198.777 397.245C197.921 397.17 197.174 396.763 196.651 396.162C196.649 396.162 196.649 396.162 196.649 396.16L196.266 395.613L183.708 377.754C183.7 377.749 183.694 377.739 183.69 377.729L183.639 377.659C183.635 377.654 183.633 377.649 183.629 377.644C183.569 377.546 183.519 377.441 183.49 377.328C183.449 377.195 183.432 377.052 183.44 376.907L183.448 376.821C183.45 376.794 183.455 376.766 183.462 376.739C183.511 376.457 183.656 376.213 183.859 376.03C184.11 375.804 184.454 375.676 184.818 375.708L187.906 375.978L199.227 392.079L199.229 392.077Z" fill="url(#paint1_linear_20272_10401)"/>
<path fill-rule="evenodd" clip-rule="evenodd" d="M199.229 392.077L198.777 397.245C197.921 397.17 197.174 396.763 196.651 396.162C196.649 396.162 196.649 396.162 196.649 396.16L196.266 395.613L183.708 377.754C183.7 377.749 183.694 377.739 183.69 377.729L183.639 377.659C183.635 377.654 183.633 377.649 183.629 377.644C183.569 377.546 183.519 377.441 183.49 377.328C183.449 377.195 183.432 377.052 183.44 376.907L183.448 376.821C183.45 376.794 183.455 376.766 183.462 376.739C183.511 376.457 183.656 376.213 183.859 376.03C184.11 375.804 184.454 375.676 184.818 375.708L187.906 375.978L199.227 392.079L199.229 392.077Z" fill="url(#paint2_linear_20272_10401)"/>
<path fill-rule="evenodd" clip-rule="evenodd" d="M199.229 392.077L198.777 397.245C197.921 397.17 197.174 396.763 196.651 396.162C196.649 396.162 196.649 396.162 196.649 396.16L196.266 395.613L186.897 382.289L183.708 377.754C183.7 377.749 183.694 377.739 183.69 377.729L183.639 377.659C183.635 377.654 183.633 377.649 183.629 377.644C183.569 377.546 183.519 377.441 183.49 377.328C183.449 377.195 183.432 377.052 183.44 376.907L183.448 376.821C183.45 376.794 183.455 376.766 183.462 376.739C183.511 376.457 183.656 376.213 183.859 376.03C184.11 375.804 184.454 375.676 184.818 375.708L187.906 375.978L189.206 377.829L192.699 382.797L198.427 390.941L199.227 392.079L199.229 392.077Z" fill="url(#paint3_linear_20272_10401)" fill-opacity="0.4"/>
<path fill-rule="evenodd" clip-rule="evenodd" d="M199.83 385.212L199.227 392.112L199.224 392.114L184.283 370.925C184.268 370.905 184.252 370.882 184.237 370.859C184.172 370.758 184.119 370.647 184.085 370.526C184.045 370.393 184.028 370.25 184.036 370.102L184.044 370.017C184.08 369.702 184.232 369.429 184.455 369.231C184.704 369.001 185.048 368.875 185.414 368.907L188.526 369.18L199.83 385.212Z" fill="url(#paint4_linear_20272_10401)"/>
<path fill-rule="evenodd" clip-rule="evenodd" d="M199.83 385.212L199.227 392.112L199.224 392.114L184.283 370.925C184.268 370.905 184.252 370.882 184.237 370.859C184.172 370.758 184.119 370.647 184.085 370.526C184.045 370.393 184.028 370.25 184.036 370.102L184.044 370.017C184.08 369.702 184.232 369.429 184.455 369.231C184.704 369.001 185.048 368.875 185.414 368.907L188.526 369.18L199.83 385.212Z" fill="url(#paint5_linear_20272_10401)"/>
<path fill-rule="evenodd" clip-rule="evenodd" d="M199.83 385.212L199.227 392.112L199.224 392.114L198.425 390.979L192.696 382.855L189.201 377.899L187.9 376.052L184.283 370.925C184.268 370.905 184.252 370.882 184.237 370.859C184.172 370.758 184.119 370.647 184.085 370.526C184.045 370.393 184.028 370.25 184.036 370.102L184.044 370.017C184.08 369.702 184.232 369.429 184.455 369.231C184.704 369.001 185.048 368.875 185.414 368.907L188.526 369.18L189.83 371.029L193.732 376.563L195.034 378.409L198.528 383.366L199.83 385.212Z" fill="url(#paint6_linear_20272_10401)" fill-opacity="0.3"/>
<path fill-rule="evenodd" clip-rule="evenodd" d="M185.965 361.985C185.601 361.953 185.254 362.077 185.006 362.308C184.783 362.502 184.631 362.78 184.594 363.094L184.587 363.177C184.578 363.327 184.595 363.469 184.637 363.602C184.638 363.614 184.642 363.623 184.645 363.635C184.677 363.736 184.721 363.83 184.78 363.92C184.799 363.954 184.822 363.985 184.847 364.015C184.851 364.022 184.857 364.029 184.863 364.037L199.777 385.186L198.723 397.241C198.802 397.248 198.88 397.252 198.957 397.252C199.725 397.265 200.442 397 201.004 396.546C201.007 396.546 201.007 396.546 201.007 396.543L201.48 396.073L216.966 380.688C216.985 380.671 217.003 380.652 217.021 380.634C217.106 380.545 217.177 380.444 217.232 380.331C217.301 380.196 217.344 380.045 217.358 379.882L218.563 366.107C218.592 365.774 218.49 365.458 218.297 365.218C218.089 364.949 217.774 364.768 217.407 364.735L185.965 361.985Z" fill="url(#paint7_linear_20272_10401)"/>
<path fill-rule="evenodd" clip-rule="evenodd" d="M185.965 361.985C185.601 361.953 185.254 362.077 185.006 362.308C184.783 362.502 184.631 362.78 184.594 363.094L184.587 363.177C184.578 363.327 184.595 363.469 184.637 363.602C184.638 363.614 184.642 363.623 184.645 363.635C184.677 363.736 184.721 363.83 184.78 363.92C184.799 363.954 184.822 363.985 184.847 364.015C184.851 364.022 184.857 364.029 184.863 364.037L199.777 385.186L198.723 397.241C198.802 397.248 198.88 397.252 198.957 397.252C199.725 397.265 200.442 397 201.004 396.546C201.007 396.546 201.007 396.546 201.007 396.543L201.48 396.073L216.966 380.688C216.985 380.671 217.003 380.652 217.021 380.634C217.106 380.545 217.177 380.444 217.232 380.331C217.301 380.196 217.344 380.045 217.358 379.882L218.563 366.107C218.592 365.774 218.49 365.458 218.297 365.218C218.089 364.949 217.774 364.768 217.407 364.735L185.965 361.985Z" fill="url(#paint8_linear_20272_10401)"/>
<path fill-rule="evenodd" clip-rule="evenodd" d="M185.965 361.985C185.601 361.953 185.254 362.077 185.006 362.308C184.783 362.502 184.631 362.78 184.594 363.094L184.587 363.177C184.578 363.327 184.595 363.469 184.637 363.602C184.638 363.614 184.642 363.623 184.645 363.635C184.677 363.736 184.721 363.83 184.78 363.92C184.799 363.954 184.822 363.985 184.847 364.015C184.851 364.022 184.857 364.029 184.863 364.037L199.777 385.186L198.723 397.241C198.802 397.248 198.88 397.252 198.957 397.252C199.725 397.265 200.442 397 201.004 396.546C201.007 396.546 201.007 396.546 201.007 396.543L201.48 396.073L216.966 380.688C216.985 380.671 217.003 380.652 217.021 380.634C217.106 380.545 217.177 380.444 217.232 380.331C217.301 380.196 217.344 380.045 217.358 379.882L218.563 366.107C218.592 365.774 218.49 365.458 218.297 365.218C218.089 364.949 217.774 364.768 217.407 364.735L185.965 361.985Z" fill="url(#paint9_linear_20272_10401)"/>
<path fill-rule="evenodd" clip-rule="evenodd" d="M185.965 361.985C185.601 361.953 185.254 362.077 185.006 362.308C184.783 362.502 184.631 362.78 184.594 363.094L184.587 363.177C184.578 363.327 184.595 363.469 184.637 363.602C184.638 363.614 184.642 363.623 184.645 363.635C184.677 363.736 184.721 363.83 184.78 363.92C184.799 363.954 184.822 363.985 184.847 364.015C184.851 364.022 184.857 364.029 184.863 364.037L199.777 385.186L198.723 397.241C198.802 397.248 198.88 397.252 198.957 397.252C199.725 397.265 200.442 397 201.004 396.546C201.007 396.546 201.007 396.546 201.007 396.543L201.48 396.073L216.966 380.688C216.985 380.671 217.003 380.652 217.021 380.634C217.106 380.545 217.177 380.444 217.232 380.331C217.301 380.196 217.344 380.045 217.358 379.882L218.563 366.107C218.592 365.774 218.49 365.458 218.297 365.218C218.089 364.949 217.774 364.768 217.407 364.735L185.965 361.985Z" fill="url(#paint10_linear_20272_10401)"/>
<path fill-rule="evenodd" clip-rule="evenodd" d="M185.965 361.985C185.601 361.953 185.254 362.077 185.006 362.308C184.783 362.502 184.631 362.78 184.594 363.094L184.587 363.177C184.578 363.327 184.595 363.469 184.637 363.602C184.638 363.614 184.642 363.623 184.645 363.635C184.677 363.736 184.721 363.83 184.78 363.92C184.799 363.954 184.822 363.985 184.847 364.015C184.851 364.022 184.857 364.029 184.863 364.037L199.777 385.186L198.723 397.241C198.802 397.248 198.88 397.252 198.957 397.252C199.725 397.265 200.442 397 201.004 396.546C201.007 396.546 201.007 396.546 201.007 396.543L201.48 396.073L216.966 380.688C216.985 380.671 217.003 380.652 217.021 380.634C217.106 380.545 217.177 380.444 217.232 380.331C217.301 380.196 217.344 380.045 217.358 379.882L218.563 366.107C218.592 365.774 218.49 365.458 218.297 365.218C218.089 364.949 217.774 364.768 217.407 364.735L185.965 361.985Z" fill="url(#paint11_linear_20272_10401)"/>
<path fill-rule="evenodd" clip-rule="evenodd" d="M185.965 361.985C185.601 361.953 185.254 362.077 185.006 362.308C184.783 362.502 184.631 362.78 184.594 363.094L184.587 363.177C184.578 363.327 184.595 363.469 184.637 363.602C184.638 363.614 184.642 363.623 184.645 363.635C184.677 363.736 184.721 363.83 184.78 363.92C184.799 363.954 184.822 363.985 184.847 364.015C184.851 364.022 184.857 364.029 184.863 364.037L199.777 385.186L198.723 397.241C198.802 397.248 198.88 397.252 198.957 397.252C199.725 397.265 200.442 397 201.004 396.546C201.007 396.546 201.007 396.546 201.007 396.543L201.48 396.073L216.966 380.688C216.985 380.671 217.003 380.652 217.021 380.634C217.106 380.545 217.177 380.444 217.232 380.331C217.301 380.196 217.344 380.045 217.358 379.882L218.563 366.107C218.592 365.774 218.49 365.458 218.297 365.218C218.089 364.949 217.774 364.768 217.407 364.735L185.965 361.985Z" fill="url(#paint12_linear_20272_10401)"/>
</g>
<g filter="url(#filter5_d_20272_10401)">
<rect x="36" y="123.529" width="67.1784" height="67.1784" rx="13.4357" transform="rotate(-15 36 123.529)" fill="white" shape-rendering="crispEdges"/>
<g clip-path="url(#clip4_20272_10401)">
<path d="M68.4508 154.427C68.9838 156.416 67.8069 158.455 65.8176 158.988C63.8284 159.521 61.7898 158.344 61.2568 156.355C60.7238 154.366 61.9007 152.327 63.89 151.794L67.487 150.83L68.4508 154.427ZM70.2493 153.945C69.7163 151.956 70.8933 149.917 72.8825 149.384C74.8718 148.851 76.9103 150.028 77.4434 152.018L79.8529 161.01C80.3859 162.999 79.209 165.038 77.2197 165.571C75.2304 166.104 73.1919 164.927 72.6589 162.938L70.2493 153.945Z" fill="#E01E5A"/>
<path d="M69.9761 138.539C67.9868 139.072 65.9483 137.895 65.4152 135.906C64.8822 133.916 66.0592 131.878 68.0484 131.345C70.0377 130.812 72.0763 131.989 72.6093 133.978L73.5731 137.575L69.9761 138.539ZM70.4653 140.365C72.4545 139.832 74.4931 141.009 75.0261 142.998C75.5591 144.987 74.3822 147.026 72.3929 147.559L63.3731 149.976C61.3839 150.509 59.3453 149.332 58.8123 147.342C58.2793 145.353 59.4562 143.315 61.4455 142.782L70.4653 140.365Z" fill="#36C5F0"/>
<path d="M85.8439 140.099C85.3109 138.11 86.4878 136.071 88.4771 135.538C90.4664 135.005 92.5049 136.182 93.0379 138.171C93.571 140.16 92.394 142.199 90.4047 142.732L86.8077 143.696L85.8439 140.099ZM84.0454 140.581C84.5784 142.57 83.4015 144.609 81.4122 145.142C79.4229 145.675 77.3844 144.498 76.8514 142.508L74.4345 133.489C73.9015 131.499 75.0785 129.461 77.0677 128.928C79.057 128.395 81.0955 129.572 81.6286 131.561L84.0454 140.581Z" fill="#2EB67D"/>
<path d="M84.3112 155.96C86.3005 155.427 88.3391 156.604 88.8721 158.594C89.4051 160.583 88.2281 162.621 86.2389 163.154C84.2496 163.687 82.2111 162.51 81.678 160.521L80.7142 156.924L84.3112 155.96ZM83.8293 154.162C81.8401 154.695 79.8015 153.518 79.2685 151.529C78.7355 149.539 79.9124 147.501 81.9017 146.968L90.9215 144.551C92.9107 144.018 94.9493 145.195 95.4823 147.184C96.0153 149.173 94.8384 151.212 92.8491 151.745L83.8293 154.162Z" fill="#ECB22E"/>
</g>
</g>
<g filter="url(#filter6_d_20272_10401)">
<rect x="408" y="307.229" width="55.4582" height="55.4582" rx="11.0916" transform="rotate(-5 408 307.229)" fill="white" shape-rendering="crispEdges"/>
<g clip-path="url(#clip5_20272_10401)">
<path d="M434.584 329.255C438.052 326.897 442.802 323.666 442.091 315.536L436.043 316.065C436.441 320.614 434.349 322.037 431.181 324.19C427.713 326.55 422.962 329.779 423.674 337.91L429.722 337.381C429.324 332.832 431.416 331.409 434.584 329.255Z" fill="#FF3C00"/>
<path d="M444.889 326.471C445.287 331.02 443.194 332.443 440.027 334.597C436.559 336.955 431.808 340.185 432.52 348.316L438.567 347.787C438.169 343.238 440.262 341.815 443.429 339.661C446.897 337.303 451.647 334.073 450.936 325.942L444.889 326.471Z" fill="#FF3C00"/>
</g>
</g>
<g filter="url(#filter7_d_20272_10401)">
<rect x="348" y="435.673" width="60.5552" height="60.5552" rx="12.111" transform="rotate(-15 348 435.673)" fill="white" shape-rendering="crispEdges"/>
<g clip-path="url(#clip6_20272_10401)">
<path d="M391.39 454.576C391.573 454.501 391.762 454.45 391.957 454.424C391.999 454.165 391.908 453.752 391.7 453.344C391.391 452.728 391.096 452.382 390.735 452.544C390.374 452.707 390.483 453.187 390.798 453.801C390.961 454.143 391.186 454.422 391.39 454.576ZM388.257 455.971C388.564 456.019 388.75 456.054 388.797 455.963C388.882 455.816 388.431 455.448 387.846 455.362C387.156 455.273 386.472 455.548 386.036 456.089C385.889 456.272 385.768 456.501 385.823 456.61C385.938 456.821 386.388 456.282 387.149 456.026C387.561 455.883 387.951 455.922 388.257 455.971ZM387.792 456.428C387.261 456.662 386.984 457.069 387.135 457.264C387.194 457.268 387.221 457.293 387.438 457.13C387.766 456.892 388.147 456.751 388.551 456.702C388.733 456.673 388.821 456.662 388.848 456.59C388.893 456.44 388.365 456.203 387.792 456.428ZM391.375 456.591C391.47 456.116 390.483 455.916 390.39 456.398C390.295 456.874 391.287 457.066 391.375 456.591ZM391.997 455.086C391.527 455.206 391.768 456.179 392.24 456.066C392.715 455.938 392.474 454.965 391.997 455.086ZM379.931 463.478C379.857 463.518 379.59 463.667 379.374 463.471C378.927 463.068 379.718 462.046 378.971 461.234C378.131 460.317 377.049 460.861 376.741 461.466C376.368 462.193 376.596 463.046 376.83 463.016C377.102 462.983 376.973 462.553 377.09 462.182C377.229 461.753 377.683 461.521 378.112 461.66C378.112 461.66 378.118 461.659 378.12 461.665C378.951 461.938 378.496 462.726 378.729 463.376C379.087 464.371 380.124 464.073 380.192 463.572C380.205 463.522 380.182 463.463 380.142 463.435C380.16 463.502 380.16 463.358 379.931 463.478ZM397.955 457.532C397.556 456.868 397.647 457.014 397.205 456.388C397.297 456.122 397.743 454.67 396.309 453.8C395.497 453.306 393.966 453.344 393.495 453.34C393.217 452.669 392.821 449.68 390.821 448.623C391.735 446.967 392.139 445.305 391.806 444.062C391.16 441.675 388.029 441.737 384.811 444.206L384.13 444.734C384.122 444.73 382.377 443.748 382.353 443.734C377.271 441.243 368.208 459.038 373.267 461.417L374.373 461.937C374.304 462.655 374.406 463.378 374.671 464.052C375.426 466.037 377.86 467.155 379.784 466.633C385.49 473.815 398.325 470.389 399.513 461.542C399.543 461.24 399.664 459.889 399.374 458.804C399.083 457.72 398.345 457.427 397.955 457.532ZM379.442 465.647C378.036 465.984 376.195 465.132 375.651 463.685C374.27 460.045 378.953 457.876 380.578 461.555C381.344 463.289 381.249 465.202 379.442 465.647ZM376.445 458.972C375.568 459.403 374.892 460.146 374.587 461.005C374.221 460.835 373.538 460.503 373.391 460.346C372.193 459.041 373.067 455.652 373.787 453.683C375.563 448.806 379.233 444.492 381.473 444.493C381.84 444.499 383.309 445.496 383.309 445.496C383.309 445.496 381.535 447.212 380.036 449.344C377.961 452.055 376.774 455.495 376.445 458.972ZM392.687 461.242C392.687 461.242 390.592 462.15 388.324 461.948C388.372 460.616 390.075 461.877 393.985 459.53C394.845 459.012 395.929 458.16 396.683 457.148C397.018 457.568 397.298 458.028 397.513 458.512C397.727 458.409 398.376 458.249 398.509 459.428C398.633 460.694 398.379 461.82 397.757 462.959C397.372 463.69 396.857 464.35 396.238 464.895C395.898 465.208 395.525 465.497 395.136 465.752C392.156 467.693 388.497 467.419 386.737 465.187C386.599 465.015 386.474 464.84 386.358 464.649C385.455 463.108 385.311 461.011 386.193 459.43C386.245 459.331 386.298 459.212 386.267 459.096C386.227 458.996 386.165 458.908 386.076 458.847C385.483 458.34 383.72 457.683 383.472 455.562C383.292 454.036 384.295 452.663 385.512 452.403L385.822 452.339C386.348 452.231 386.816 452.177 387.248 452.081C387.969 451.921 388.587 451.644 389.173 450.808C389.371 450.526 389.528 450.282 389.861 450.134C390.127 449.984 390.441 449.959 390.725 450.046C391.444 450.291 391.792 451.249 392.015 451.96C392.143 452.363 392.459 453.349 392.553 453.625C392.764 454.267 392.959 454.312 393.336 454.329C393.549 454.344 393.743 454.338 394.026 454.347C394.891 454.357 395.428 454.461 395.817 454.67C396.016 454.78 396.168 454.955 396.261 455.158C396.545 455.827 396.141 456.856 394.667 458.08C392.17 460.166 389.183 460.496 388.755 460.559C387.48 460.724 387.206 462.502 388.234 463.389C390.164 465.059 396.036 462.604 397.127 459.608C397.154 459.536 397.107 459.509 397.068 459.559C394.982 461.986 391.765 463.481 389.647 463.252C389.323 463.215 388.639 463.098 388.399 462.496C391.282 462.605 392.749 461.376 392.749 461.376C392.749 461.376 392.84 461.182 392.687 461.242ZM380.253 451.931C380.96 450.475 381.939 449.109 382.919 448.233C382.934 448.215 382.966 448.213 382.985 448.234C382.994 448.245 382.999 448.263 382.996 448.277C382.949 448.466 382.871 448.859 382.887 449.136C382.887 449.162 382.912 449.181 382.938 449.181C382.952 449.184 382.962 449.174 382.973 449.165C383.546 448.502 384.632 447.656 385.682 447.309C385.706 447.303 385.735 447.315 385.742 447.339C385.747 447.357 385.744 447.371 385.735 447.386C385.594 447.568 385.478 447.769 385.393 447.987C385.386 448.009 385.394 448.039 385.422 448.045C385.43 448.049 385.442 448.046 385.448 448.045C386.199 447.85 387.329 447.828 388.128 448.032C388.184 448.043 388.172 448.144 388.12 448.145C383.612 448.308 380.905 451.293 380.346 451.985C380.324 452.003 380.298 452.004 380.275 451.991C380.25 451.971 380.244 451.947 380.253 451.931Z" fill="black"/>
</g>
</g>
<defs>
<filter id="filter0_d_20272_10401" x="48.332" y="405.98" width="90.1681" height="90.1671" filterUnits="userSpaceOnUse" color-interpolation-filters="sRGB">
<feFlood flood-opacity="0" result="BackgroundImageFix"/>
<feColorMatrix in="SourceAlpha" type="matrix" values="0 0 0 0 0 0 0 0 0 0 0 0 0 0 0 0 0 0 127 0" result="hardAlpha"/>
<feMorphology radius="6.37295" operator="erode" in="SourceAlpha" result="effect1_dropShadow_20272_10401"/>
<feOffset dy="7.64754"/>
<feGaussianBlur stdDeviation="14.0205"/>
<feComposite in2="hardAlpha" operator="out"/>
<feColorMatrix type="matrix" values="0 0 0 0 0.62745 0 0 0 0 0.669064 0 0 0 0 0.713548 0 0 0 0.25 0"/>
<feBlend mode="normal" in2="BackgroundImageFix" result="effect1_dropShadow_20272_10401"/>
<feBlend mode="normal" in="SourceGraphic" in2="effect1_dropShadow_20272_10401" result="shape"/>
</filter>
<filter id="filter1_d_20272_10401" x="384.632" y="114.938" width="176.467" height="176.466" filterUnits="userSpaceOnUse" color-interpolation-filters="sRGB">
<feFlood flood-opacity="0" result="BackgroundImageFix"/>
<feColorMatrix in="SourceAlpha" type="matrix" values="0 0 0 0 0 0 0 0 0 0 0 0 0 0 0 0 0 0 127 0" result="hardAlpha"/>
<feMorphology radius="12.7554" operator="erode" in="SourceAlpha" result="effect1_dropShadow_20272_10401"/>
<feOffset dy="15.3065"/>
<feGaussianBlur stdDeviation="28.0619"/>
<feComposite in2="hardAlpha" operator="out"/>
<feColorMatrix type="matrix" values="0 0 0 0 0.62745 0 0 0 0 0.669064 0 0 0 0 0.713548 0 0 0 0.25 0"/>
<feBlend mode="normal" in2="BackgroundImageFix" result="effect1_dropShadow_20272_10401"/>
<feBlend mode="normal" in="SourceGraphic" in2="effect1_dropShadow_20272_10401" result="shape"/>
</filter>
<filter id="filter2_d_20272_10401" x="97.1986" y="177.658" width="105.583" height="105.584" filterUnits="userSpaceOnUse" color-interpolation-filters="sRGB">
<feFlood flood-opacity="0" result="BackgroundImageFix"/>
<feColorMatrix in="SourceAlpha" type="matrix" values="0 0 0 0 0 0 0 0 0 0 0 0 0 0 0 0 0 0 127 0" result="hardAlpha"/>
<feMorphology radius="7.88276" operator="erode" in="SourceAlpha" result="effect1_dropShadow_20272_10401"/>
<feOffset dy="9.45932"/>
<feGaussianBlur stdDeviation="17.3421"/>
<feComposite in2="hardAlpha" operator="out"/>
<feColorMatrix type="matrix" values="0 0 0 0 0.62745 0 0 0 0 0.669064 0 0 0 0 0.713548 0 0 0 0.25 0"/>
<feBlend mode="normal" in2="BackgroundImageFix" result="effect1_dropShadow_20272_10401"/>
<feBlend mode="normal" in="SourceGraphic" in2="effect1_dropShadow_20272_10401" result="shape"/>
</filter>
<filter id="filter3_d_20272_10401" x="317.57" y="55.2052" width="117.109" height="117.109" filterUnits="userSpaceOnUse" color-interpolation-filters="sRGB">
<feFlood flood-opacity="0" result="BackgroundImageFix"/>
<feColorMatrix in="SourceAlpha" type="matrix" values="0 0 0 0 0 0 0 0 0 0 0 0 0 0 0 0 0 0 127 0" result="hardAlpha"/>
<feMorphology radius="8.08189" operator="erode" in="SourceAlpha" result="effect1_dropShadow_20272_10401"/>
<feOffset dy="9.69826"/>
<feGaussianBlur stdDeviation="17.7801"/>
<feComposite in2="hardAlpha" operator="out"/>
<feColorMatrix type="matrix" values="0 0 0 0 0.62745 0 0 0 0 0.669064 0 0 0 0 0.713548 0 0 0 0.25 0"/>
<feBlend mode="normal" in2="BackgroundImageFix" result="effect1_dropShadow_20272_10401"/>
<feBlend mode="normal" in="SourceGraphic" in2="effect1_dropShadow_20272_10401" result="shape"/>
</filter>
<filter id="filter4_d_20272_10401" x="115.568" y="310.15" width="168.368" height="168.369" filterUnits="userSpaceOnUse" color-interpolation-filters="sRGB">
<feFlood flood-opacity="0" result="BackgroundImageFix"/>
<feColorMatrix in="SourceAlpha" type="matrix" values="0 0 0 0 0 0 0 0 0 0 0 0 0 0 0 0 0 0 127 0" result="hardAlpha"/>
<feMorphology radius="12.6593" operator="erode" in="SourceAlpha" result="effect1_dropShadow_20272_10401"/>
<feOffset dy="15.1911"/>
<feGaussianBlur stdDeviation="27.8504"/>
<feComposite in2="hardAlpha" operator="out"/>
<feColorMatrix type="matrix" values="0 0 0 0 0.62745 0 0 0 0 0.669064 0 0 0 0 0.713548 0 0 0 0.25 0"/>
<feBlend mode="normal" in2="BackgroundImageFix" result="effect1_dropShadow_20272_10401"/>
<feBlend mode="normal" in="SourceGraphic" in2="effect1_dropShadow_20272_10401" result="shape"/>
</filter>
<filter id="filter5_d_20272_10401" x="-2.06775" y="81.5105" width="158.413" height="158.412" filterUnits="userSpaceOnUse" color-interpolation-filters="sRGB">
<feFlood flood-opacity="0" result="BackgroundImageFix"/>
<feColorMatrix in="SourceAlpha" type="matrix" values="0 0 0 0 0 0 0 0 0 0 0 0 0 0 0 0 0 0 127 0" result="hardAlpha"/>
<feMorphology radius="11.1964" operator="erode" in="SourceAlpha" result="effect1_dropShadow_20272_10401"/>
<feOffset dy="13.4357"/>
<feGaussianBlur stdDeviation="24.6321"/>
<feComposite in2="hardAlpha" operator="out"/>
<feColorMatrix type="matrix" values="0 0 0 0 0.62745 0 0 0 0 0.669064 0 0 0 0 0.713548 0 0 0 0.25 0"/>
<feBlend mode="normal" in2="BackgroundImageFix" result="effect1_dropShadow_20272_10401"/>
<feBlend mode="normal" in="SourceGraphic" in2="effect1_dropShadow_20272_10401" result="shape"/>
</filter>
<filter id="filter6_d_20272_10401" x="376.574" y="282.061" width="122.933" height="122.934" filterUnits="userSpaceOnUse" color-interpolation-filters="sRGB">
<feFlood flood-opacity="0" result="BackgroundImageFix"/>
<feColorMatrix in="SourceAlpha" type="matrix" values="0 0 0 0 0 0 0 0 0 0 0 0 0 0 0 0 0 0 127 0" result="hardAlpha"/>
<feMorphology radius="9.24303" operator="erode" in="SourceAlpha" result="effect1_dropShadow_20272_10401"/>
<feOffset dy="11.0916"/>
<feGaussianBlur stdDeviation="20.3347"/>
<feComposite in2="hardAlpha" operator="out"/>
<feColorMatrix type="matrix" values="0 0 0 0 0.62745 0 0 0 0 0.669064 0 0 0 0 0.713548 0 0 0 0.25 0"/>
<feBlend mode="normal" in2="BackgroundImageFix" result="effect1_dropShadow_20272_10401"/>
<feBlend mode="normal" in="SourceGraphic" in2="effect1_dropShadow_20272_10401" result="shape"/>
</filter>
<filter id="filter7_d_20272_10401" x="313.685" y="397.796" width="142.793" height="142.794" filterUnits="userSpaceOnUse" color-interpolation-filters="sRGB">
<feFlood flood-opacity="0" result="BackgroundImageFix"/>
<feColorMatrix in="SourceAlpha" type="matrix" values="0 0 0 0 0 0 0 0 0 0 0 0 0 0 0 0 0 0 127 0" result="hardAlpha"/>
<feMorphology radius="10.0925" operator="erode" in="SourceAlpha" result="effect1_dropShadow_20272_10401"/>
<feOffset dy="12.111"/>
<feGaussianBlur stdDeviation="22.2036"/>
<feComposite in2="hardAlpha" operator="out"/>
<feColorMatrix type="matrix" values="0 0 0 0 0.62745 0 0 0 0 0.669064 0 0 0 0 0.713548 0 0 0 0.25 0"/>
<feBlend mode="normal" in2="BackgroundImageFix" result="effect1_dropShadow_20272_10401"/>
<feBlend mode="normal" in="SourceGraphic" in2="effect1_dropShadow_20272_10401" result="shape"/>
</filter>
<linearGradient id="paint0_linear_20272_10401" x1="103.989" y1="444.776" x2="92.596" y2="449.657" gradientUnits="userSpaceOnUse">
<stop offset="0.18" stop-color="#0052CC"/>
<stop offset="1" stop-color="#2684FF"/>
</linearGradient>
<linearGradient id="paint1_linear_20272_10401" x1="193.245" y1="382.326" x2="190.093" y2="384.388" gradientUnits="userSpaceOnUse">
<stop stop-color="#FFA794" stop-opacity="0.3"/>
<stop offset="1" stop-color="#FF9794"/>
</linearGradient>
<linearGradient id="paint2_linear_20272_10401" x1="193.245" y1="382.326" x2="190.093" y2="384.388" gradientUnits="userSpaceOnUse">
<stop stop-color="#FFA794" stop-opacity="0.3"/>
<stop offset="1" stop-color="#FF9794"/>
</linearGradient>
<linearGradient id="paint3_linear_20272_10401" x1="192.338" y1="389.79" x2="195.748" y2="387.234" gradientUnits="userSpaceOnUse">
<stop stop-color="#FFDFD7"/>
<stop offset="1" stop-color="#FFDFD7"/>
</linearGradient>
<linearGradient id="paint4_linear_20272_10401" x1="193.799" y1="376.009" x2="190.245" y2="378.995" gradientUnits="userSpaceOnUse">
<stop stop-color="#FFA794" stop-opacity="0.3"/>
<stop offset="1" stop-color="#FF9794"/>
</linearGradient>
<linearGradient id="paint5_linear_20272_10401" x1="193.799" y1="376.009" x2="190.245" y2="378.995" gradientUnits="userSpaceOnUse">
<stop stop-color="#FFA794" stop-opacity="0.3"/>
<stop offset="1" stop-color="#FF9794"/>
</linearGradient>
<linearGradient id="paint6_linear_20272_10401" x1="193.793" y1="384.037" x2="197.416" y2="380.931" gradientUnits="userSpaceOnUse">
<stop stop-color="#FFA694"/>
<stop offset="1" stop-color="#FFB7A9"/>
</linearGradient>
<linearGradient id="paint7_linear_20272_10401" x1="210.778" y1="386.979" x2="189.239" y2="369.166" gradientUnits="userSpaceOnUse">
<stop stop-color="#FF6661"/>
<stop offset="1" stop-color="#FF7D73"/>
</linearGradient>
<linearGradient id="paint8_linear_20272_10401" x1="210.778" y1="386.979" x2="189.239" y2="369.166" gradientUnits="userSpaceOnUse">
<stop stop-color="#FF6661"/>
<stop offset="1" stop-color="#FF7D73"/>
</linearGradient>
<linearGradient id="paint9_linear_20272_10401" x1="210.778" y1="386.979" x2="189.239" y2="369.166" gradientUnits="userSpaceOnUse">
<stop stop-color="#FF6661"/>
<stop offset="1" stop-color="#FF7D73"/>
</linearGradient>
<linearGradient id="paint10_linear_20272_10401" x1="210.778" y1="386.979" x2="189.239" y2="369.166" gradientUnits="userSpaceOnUse">
<stop stop-color="#FF6661"/>
<stop offset="1" stop-color="#FF7D73"/>
</linearGradient>
<linearGradient id="paint11_linear_20272_10401" x1="210.778" y1="386.979" x2="189.239" y2="369.166" gradientUnits="userSpaceOnUse">
<stop stop-color="#FF6661"/>
<stop offset="1" stop-color="#FF7D73"/>
</linearGradient>
<linearGradient id="paint12_linear_20272_10401" x1="210.778" y1="386.979" x2="189.239" y2="369.166" gradientUnits="userSpaceOnUse">
<stop stop-color="#FF6661"/>
<stop offset="1" stop-color="#FF7D73"/>
</linearGradient>
<clipPath id="clip0_20272_10401">
<rect width="20.3936" height="18.6202" fill="white" transform="translate(86.041 431.543) rotate(15)"/>
</clipPath>
<clipPath id="clip1_20272_10401">
<rect width="40.8176" height="43.7332" fill="white" transform="translate(457.004 162.506) rotate(11)"/>
</clipPath>
<clipPath id="clip2_20272_10401">
<rect width="25.225" height="24.2548" fill="white" transform="translate(138.766 207.129) rotate(6)"/>
</clipPath>
<clipPath id="clip3_20272_10401">
<rect width="25.862" height="25.862" fill="white" transform="translate(359.551 96.333) rotate(-20)"/>
</clipPath>
<clipPath id="clip4_20272_10401">
<rect width="35.8285" height="35.8285" fill="white" transform="translate(55.1973 134.613) rotate(-15)"/>
</clipPath>
<clipPath id="clip5_20272_10401">
<rect width="29.5779" height="33.0576" fill="white" transform="translate(421.867 317.26) rotate(-5)"/>
</clipPath>
<clipPath id="clip6_20272_10401">
<rect width="32.2961" height="32.2961" fill="white" transform="translate(365.305 445.664) rotate(-15)"/>
</clipPath>
</defs>
</svg>
