<svg width="667" height="733" viewBox="0 0 667 733" fill="none" xmlns="http://www.w3.org/2000/svg">
<path d="M334.723 2C340.15 2.01208 345.499 3.28249 350.346 5.70996L350.348 5.71094L644.736 152.708H644.737C650.015 155.342 654.534 159.265 657.874 164.108C661.109 168.8 663.135 174.207 663.778 179.854L663.837 180.402C665.226 194.743 694.408 535.855 351.886 728.488L351.885 728.489C346.733 731.392 340.922 732.943 335.001 732.998C329.08 733.053 323.242 731.609 318.036 728.802C-38.4299 535.876 3.25388 182.678 3.70898 179.298L3.70996 179.285C5.17439 167.833 12.3239 157.857 22.7012 152.637L319.082 5.63965L319.083 5.64062C323.941 3.2347 329.296 1.98793 334.723 2Z" fill="url(#paint0_radial_20037_2352)" stroke="white" stroke-width="4"/>
<path d="M334.421 92C338.437 92.0089 342.395 92.9503 345.982 94.749L345.984 94.75L567.99 205.748C571.896 207.7 575.241 210.606 577.713 214.195C580.03 217.56 581.509 221.421 582.033 225.459L582.125 226.27C583.169 237.063 605.153 494.353 347.123 639.656L347.122 639.657C343.309 641.808 339.01 642.958 334.628 642.999C330.247 643.04 325.927 641.97 322.075 639.891H322.076C53.5411 494.368 84.9469 227.961 85.2842 225.453L85.2861 225.44C86.3695 216.957 91.6582 209.564 99.3389 205.694L322.848 94.6973L322.847 94.6963C326.442 92.9136 330.405 91.9911 334.421 92Z" fill="#93CCFD"/>
<path d="M334.421 92C338.437 92.0089 342.395 92.9503 345.982 94.749L345.984 94.75L567.99 205.748C571.896 207.7 575.241 210.606 577.713 214.195C580.03 217.56 581.509 221.421 582.033 225.459L582.125 226.27C583.169 237.063 605.153 494.353 347.123 639.656L347.122 639.657C343.309 641.808 339.01 642.958 334.628 642.999C330.247 643.04 325.927 641.97 322.075 639.891H322.076C53.5411 494.368 84.9469 227.961 85.2842 225.453L85.2861 225.44C86.3695 216.957 91.6582 209.564 99.3389 205.694L322.848 94.6973L322.847 94.6963C326.442 92.9136 330.405 91.9911 334.421 92Z" fill="url(#paint1_radial_20037_2352)" fill-opacity="0.7"/>
<path d="M334.421 92C338.437 92.0089 342.395 92.9503 345.982 94.749L345.984 94.75L567.99 205.748C571.896 207.7 575.241 210.606 577.713 214.195C580.03 217.56 581.509 221.421 582.033 225.459L582.125 226.27C583.169 237.063 605.153 494.353 347.123 639.656L347.122 639.657C343.309 641.808 339.01 642.958 334.628 642.999C330.247 643.04 325.927 641.97 322.075 639.891H322.076C53.5411 494.368 84.9469 227.961 85.2842 225.453L85.2861 225.44C86.3695 216.957 91.6582 209.564 99.3389 205.694L322.848 94.6973L322.847 94.6963C326.442 92.9136 330.405 91.9911 334.421 92Z" stroke="white" stroke-width="4"/>
<path d="M334.127 180C336.766 180.006 339.368 180.626 341.726 181.81L341.728 181.811L493.115 257.608V257.609C495.682 258.894 497.881 260.808 499.506 263.17C501.13 265.532 502.128 268.266 502.406 271.117C503.114 278.439 518.077 453.772 342.477 552.799L342.476 552.8C339.969 554.216 337.143 554.972 334.263 554.999C331.383 555.026 328.543 554.321 326.011 552.952C234.595 503.341 194.288 433.174 176.829 375.199C168.094 346.194 165.077 320.228 164.259 301.407C163.85 291.998 163.99 284.379 164.239 279.064C164.364 276.408 164.517 274.328 164.641 272.889C164.703 272.169 164.758 271.61 164.799 271.22C164.819 271.025 164.836 270.873 164.849 270.764C164.855 270.709 164.859 270.665 164.863 270.634C164.865 270.618 164.867 270.606 164.868 270.597C164.869 270.587 164.87 270.583 164.87 270.583L164.872 270.57C165.584 264.99 169.058 260.122 174.107 257.573L326.52 181.774C328.882 180.601 331.488 179.994 334.127 180Z" fill="url(#paint2_radial_20037_2352)" stroke="white" stroke-width="4"/>
<g filter="url(#filter0_f_20037_2352)">
<path d="M446.143 288.756L339.837 235.423C337.986 234.492 335.945 234.005 333.873 234C331.802 233.995 329.758 234.473 327.903 235.396L220.877 288.73C216.917 290.73 214.183 294.556 213.623 298.956C213.45 300.25 198.357 428.836 327.503 499.063C329.491 500.14 331.719 500.693 333.979 500.672C336.239 500.651 338.457 500.056 340.423 498.943C464.517 428.823 453.943 304.636 453.437 299.383C453.218 297.14 452.435 294.988 451.159 293.13C449.884 291.271 448.158 289.767 446.143 288.756Z" fill="url(#paint3_linear_20037_2352)" fill-opacity="0.5"/>
</g>
<path d="M85 431C85 422.163 92.1634 415 101 415H133C141.837 415 149 422.163 149 431V463C149 471.837 141.837 479 133 479H101C92.1634 479 85 471.837 85 463V431Z" fill="#4A96F8"/>
<path d="M85 431C85 422.163 92.1634 415 101 415H133C141.837 415 149 422.163 149 431V463C149 471.837 141.837 479 133 479H101C92.1634 479 85 471.837 85 463V431Z" fill="url(#paint4_radial_20037_2352)" fill-opacity="0.1"/>
<path d="M101 416H133C141.284 416 148 422.716 148 431V463C148 471.284 141.284 478 133 478H101C92.7157 478 86 471.284 86 463V431C86 422.716 92.7157 416 101 416Z" stroke="white" stroke-opacity="0.2" stroke-width="2"/>
<g filter="url(#filter1_d_20037_2352)">
<path d="M129 449.667C129 448.933 128.4 448.333 127.667 448.333H124.907C124.84 447.813 124.747 447.307 124.613 446.813L126.907 445.493C127.547 445.12 127.76 444.307 127.4 443.667C127.222 443.361 126.93 443.138 126.588 443.045C126.246 442.953 125.882 442.999 125.573 443.173L123.56 444.333C123.187 443.693 122.733 443.12 122.24 442.613C122.293 442.307 122.333 442 122.333 441.667C122.333 440.6 122.013 439.6 121.467 438.76L122.72 437.507C122.843 437.383 122.941 437.237 123.008 437.075C123.075 436.914 123.109 436.741 123.109 436.567C123.109 436.392 123.075 436.219 123.008 436.058C122.941 435.897 122.843 435.75 122.72 435.627C122.597 435.503 122.45 435.405 122.289 435.339C122.127 435.272 121.955 435.237 121.78 435.237C121.605 435.237 121.433 435.272 121.271 435.339C121.11 435.405 120.963 435.503 120.84 435.627L119.48 436.987C117.24 435.8 115.347 436.547 114.507 436.987L113.16 435.613C113.037 435.49 112.89 435.392 112.729 435.325C112.567 435.258 112.395 435.224 112.22 435.224C112.045 435.224 111.873 435.258 111.711 435.325C111.55 435.392 111.403 435.49 111.28 435.613C111.031 435.863 110.891 436.201 110.891 436.553C110.891 436.906 111.031 437.244 111.28 437.493L112.533 438.747C111.987 439.6 111.667 440.6 111.667 441.667C111.667 442 111.707 442.307 111.76 442.627C111.267 443.133 110.813 443.707 110.44 444.333L108.427 443.173C108.275 443.087 108.108 443.03 107.935 443.008C107.762 442.986 107.586 442.998 107.418 443.044C107.249 443.09 107.092 443.169 106.954 443.275C106.816 443.382 106.7 443.515 106.613 443.667C106.24 444.307 106.467 445.12 107.107 445.493L109.4 446.813C109.267 447.307 109.173 447.813 109.107 448.333H106.333C105.6 448.333 105 448.933 105 449.667C105 450.4 105.6 451 106.333 451H109.093C109.16 451.52 109.253 452.027 109.387 452.52L107.093 453.84C106.453 454.213 106.24 455.027 106.6 455.667C106.973 456.307 107.787 456.52 108.427 456.16L110.44 455C111.88 457.413 114.28 459 117 459C119.72 459 122.12 457.413 123.56 455L125.573 456.16C126.213 456.533 127.027 456.307 127.4 455.667C127.773 455.027 127.547 454.213 126.907 453.84L124.613 452.52C124.747 452.027 124.84 451.52 124.907 451H127.667C128.4 451 129 450.4 129 449.667ZM117 453.667C116.267 453.667 115.667 453.067 115.667 452.333V447C115.667 446.267 116.267 445.667 117 445.667C117.733 445.667 118.333 446.267 118.333 447V452.333C118.333 453.067 117.733 453.667 117 453.667Z" fill="white"/>
</g>
<path d="M417 203C417 194.163 424.163 187 433 187H465C473.837 187 481 194.163 481 203V235C481 243.837 473.837 251 465 251H433C424.163 251 417 243.837 417 235V203Z" fill="#4A96F8"/>
<path d="M417 203C417 194.163 424.163 187 433 187H465C473.837 187 481 194.163 481 203V235C481 243.837 473.837 251 465 251H433C424.163 251 417 243.837 417 235V203Z" fill="url(#paint5_radial_20037_2352)" fill-opacity="0.1"/>
<path d="M433 188H465C473.284 188 480 194.716 480 203V235C480 243.284 473.284 250 465 250H433C424.716 250 418 243.284 418 235V203C418 194.716 424.716 188 433 188Z" stroke="white" stroke-opacity="0.2" stroke-width="2"/>
<g filter="url(#filter2_d_20037_2352)">
<path d="M448.999 205.667L449.155 205.676C449.452 205.711 449.729 205.845 449.941 206.057C450.153 206.269 450.288 206.546 450.323 206.844L450.332 207V212.333L450.339 212.533C450.386 213.168 450.66 213.765 451.109 214.216C451.559 214.667 452.155 214.942 452.789 214.992L452.999 215H458.332L458.488 215.009C458.786 215.044 459.063 215.179 459.275 215.391C459.487 215.603 459.621 215.88 459.656 216.177L459.665 216.333V228.333C459.665 229.354 459.276 230.335 458.576 231.078C457.876 231.82 456.919 232.267 455.9 232.327L455.665 232.333H442.332C441.312 232.333 440.33 231.944 439.588 231.244C438.845 230.544 438.399 229.587 438.339 228.568L438.332 228.333V209.667C438.332 208.646 438.722 207.665 439.422 206.922C440.122 206.18 441.079 205.733 442.097 205.673L442.332 205.667H448.999Z" fill="white"/>
</g>
<path d="M458.331 212.333H452.997L452.996 206.999L458.331 212.333Z" fill="white"/>
<path d="M523 541C523 532.163 530.163 525 539 525H571C579.837 525 587 532.163 587 541V573C587 581.837 579.837 589 571 589H539C530.163 589 523 581.837 523 573V541Z" fill="#4A96F8"/>
<path d="M523 541C523 532.163 530.163 525 539 525H571C579.837 525 587 532.163 587 541V573C587 581.837 579.837 589 571 589H539C530.163 589 523 581.837 523 573V541Z" fill="url(#paint6_radial_20037_2352)" fill-opacity="0.1"/>
<path d="M539 526H571C579.284 526 586 532.716 586 541V573C586 581.284 579.284 588 571 588H539C530.716 588 524 581.284 524 573V541C524 532.716 530.716 526 539 526Z" stroke="white" stroke-opacity="0.2" stroke-width="2"/>
<g filter="url(#filter3_d_20037_2352)">
<path d="M566 546H544C543.47 546 542.961 546.211 542.586 546.586C542.211 546.961 542 547.47 542 548V566C542 566.53 542.211 567.039 542.586 567.414C542.961 567.789 543.47 568 544 568H566C566.53 568 567.039 567.789 567.414 567.414C567.789 567.039 568 566.53 568 566V548C568 547.47 567.789 546.961 567.414 546.586C567.039 546.211 566.53 546 566 546ZM550.6 559.2C550.812 559.359 550.952 559.596 550.99 559.859C551.027 560.121 550.959 560.388 550.8 560.6C550.641 560.812 550.404 560.952 550.141 560.99C549.879 561.027 549.612 560.959 549.4 560.8L545.4 557.8C545.276 557.707 545.175 557.586 545.106 557.447C545.036 557.308 545 557.155 545 557C545 556.845 545.036 556.692 545.106 556.553C545.175 556.414 545.276 556.293 545.4 556.2L549.4 553.2C549.612 553.041 549.879 552.973 550.141 553.01C550.404 553.048 550.641 553.188 550.8 553.4C550.959 553.612 551.027 553.879 550.99 554.141C550.952 554.404 550.812 554.641 550.6 554.8L547.666 557L550.6 559.2ZM557.961 550.275L553.961 564.275C553.927 564.404 553.868 564.524 553.787 564.629C553.705 564.734 553.604 564.823 553.488 564.888C553.373 564.954 553.245 564.996 553.113 565.012C552.981 565.027 552.847 565.017 552.72 564.98C552.592 564.943 552.473 564.882 552.369 564.799C552.265 564.715 552.179 564.612 552.116 564.495C552.052 564.379 552.013 564.25 552 564.118C551.986 563.986 552 563.852 552.039 563.725L556.039 549.725C556.116 549.475 556.288 549.264 556.518 549.14C556.748 549.015 557.018 548.985 557.27 549.057C557.522 549.129 557.735 549.297 557.864 549.525C557.994 549.753 558.028 550.022 557.961 550.275ZM564.6 557.8L560.6 560.8C560.388 560.959 560.121 561.027 559.859 560.99C559.596 560.952 559.359 560.812 559.2 560.6C559.041 560.388 558.973 560.121 559.01 559.859C559.048 559.596 559.188 559.359 559.4 559.2L562.334 557L559.4 554.8C559.295 554.721 559.206 554.622 559.14 554.509C559.073 554.396 559.029 554.271 559.01 554.141C558.991 554.011 558.999 553.879 559.031 553.752C559.064 553.625 559.121 553.505 559.2 553.4C559.279 553.295 559.378 553.206 559.491 553.14C559.604 553.073 559.729 553.029 559.859 553.01C559.989 552.991 560.121 552.999 560.248 553.031C560.375 553.064 560.495 553.121 560.6 553.2L564.6 556.2C564.724 556.293 564.825 556.414 564.894 556.553C564.964 556.692 565 556.845 565 557C565 557.155 564.964 557.308 564.894 557.447C564.825 557.586 564.724 557.707 564.6 557.8Z" fill="white"/>
</g>
<g clip-path="url(#clip0_20037_2352)">
<g filter="url(#filter4_d_20037_2352)">
<path d="M446.143 287.756L339.837 234.423C337.986 233.492 335.945 233.005 333.873 233C331.802 232.995 329.758 233.473 327.903 234.396L220.877 287.73C216.917 289.73 214.183 293.556 213.623 297.956C213.45 299.25 198.357 427.836 327.503 498.063C329.491 499.14 331.719 499.693 333.979 499.672C336.239 499.651 338.457 499.056 340.423 497.943C464.517 427.823 453.943 303.636 453.437 298.383C453.218 296.14 452.435 293.988 451.159 292.13C449.884 290.271 448.158 288.767 446.143 287.756Z" fill="url(#paint7_linear_20037_2352)"/>
<path d="M446.143 287.756L339.837 234.423C337.986 233.492 335.945 233.005 333.873 233C331.802 232.995 329.758 233.473 327.903 234.396L220.877 287.73C216.917 289.73 214.183 293.556 213.623 297.956C213.45 299.25 198.357 427.836 327.503 498.063C329.491 499.14 331.719 499.693 333.979 499.672C336.239 499.651 338.457 499.056 340.423 497.943C464.517 427.823 453.943 303.636 453.437 298.383C453.218 296.14 452.435 293.988 451.159 292.13C449.884 290.271 448.158 288.767 446.143 287.756Z" fill="url(#paint8_radial_20037_2352)" fill-opacity="0.08"/>
<path d="M333.867 235.5C335.55 235.504 337.21 235.9 338.713 236.656L338.716 236.657L445.022 289.991C446.659 290.812 448.062 292.035 449.099 293.545C450.135 295.055 450.771 296.803 450.948 298.625C451.438 303.702 461.892 426.435 339.193 495.767L339.191 495.768C337.594 496.672 335.792 497.156 333.956 497.173C332.121 497.19 330.31 496.74 328.696 495.866H328.697C264.797 461.119 236.655 412.006 224.463 371.44C218.36 351.135 216.252 332.957 215.681 319.784C215.395 313.2 215.493 307.872 215.667 304.162C215.754 302.308 215.859 300.858 215.945 299.859C215.988 299.36 216.027 298.973 216.055 298.705C216.069 298.571 216.081 298.467 216.089 298.395C216.097 298.323 216.101 298.29 216.102 298.288L216.103 298.28L216.104 298.271C216.543 294.818 218.638 291.787 221.704 290.118L222.004 289.961L329.017 236.634L329.018 236.635C330.524 235.885 332.184 235.496 333.867 235.5Z" stroke="white" stroke-opacity="0.2" stroke-width="5"/>
</g>
<path fill-rule="evenodd" clip-rule="evenodd" d="M311 344.333C311 338.499 313.318 332.903 317.444 328.777C321.569 324.651 327.165 322.333 333 322.333C338.835 322.333 344.431 324.651 348.556 328.777C352.682 332.903 355 338.499 355 344.333H358.667C360.612 344.333 362.477 345.106 363.852 346.481C365.227 347.856 366 349.722 366 351.667V388.333C366 390.278 365.227 392.143 363.852 393.519C362.477 394.894 360.612 395.667 358.667 395.667H307.333C305.388 395.667 303.523 394.894 302.148 393.519C300.773 392.143 300 390.278 300 388.333V351.667C300 349.722 300.773 347.856 302.148 346.481C303.523 345.106 305.388 344.333 307.333 344.333H311ZM333 329.667C336.89 329.667 340.62 331.212 343.371 333.962C346.121 336.713 347.667 340.443 347.667 344.333H318.333C318.333 340.443 319.879 336.713 322.629 333.962C325.38 331.212 329.11 329.667 333 329.667ZM340.333 366.333C340.333 367.621 339.994 368.885 339.351 370C338.707 371.115 337.781 372.04 336.667 372.684V377.333C336.667 378.306 336.28 379.238 335.593 379.926C334.905 380.614 333.972 381 333 381C332.028 381 331.095 380.614 330.407 379.926C329.72 379.238 329.333 378.306 329.333 377.333V372.684C327.935 371.877 326.843 370.631 326.225 369.139C325.607 367.648 325.499 365.995 325.917 364.435C326.335 362.876 327.255 361.498 328.536 360.515C329.817 359.533 331.386 359 333 359C334.945 359 336.81 359.773 338.185 361.148C339.561 362.523 340.333 364.388 340.333 366.333Z" fill="white"/>
</g>
<defs>
<filter id="filter0_f_20037_2352" x="133" y="154" width="400.859" height="426.673" filterUnits="userSpaceOnUse" color-interpolation-filters="sRGB">
<feFlood flood-opacity="0" result="BackgroundImageFix"/>
<feBlend mode="normal" in="SourceGraphic" in2="BackgroundImageFix" result="shape"/>
<feGaussianBlur stdDeviation="40" result="effect1_foregroundBlur_20037_2352"/>
</filter>
<filter id="filter1_d_20037_2352" x="73" y="407.224" width="88" height="87.776" filterUnits="userSpaceOnUse" color-interpolation-filters="sRGB">
<feFlood flood-opacity="0" result="BackgroundImageFix"/>
<feColorMatrix in="SourceAlpha" type="matrix" values="0 0 0 0 0 0 0 0 0 0 0 0 0 0 0 0 0 0 127 0" result="hardAlpha"/>
<feOffset dy="4"/>
<feGaussianBlur stdDeviation="16"/>
<feComposite in2="hardAlpha" operator="out"/>
<feColorMatrix type="matrix" values="0 0 0 0 0 0 0 0 0 0 0 0 0 0 0 0 0 0 0.08 0"/>
<feBlend mode="normal" in2="BackgroundImageFix" result="effect1_dropShadow_20037_2352"/>
<feBlend mode="normal" in="SourceGraphic" in2="effect1_dropShadow_20037_2352" result="shape"/>
</filter>
<filter id="filter2_d_20037_2352" x="406.332" y="177.667" width="85.332" height="90.6667" filterUnits="userSpaceOnUse" color-interpolation-filters="sRGB">
<feFlood flood-opacity="0" result="BackgroundImageFix"/>
<feColorMatrix in="SourceAlpha" type="matrix" values="0 0 0 0 0 0 0 0 0 0 0 0 0 0 0 0 0 0 127 0" result="hardAlpha"/>
<feOffset dy="4"/>
<feGaussianBlur stdDeviation="16"/>
<feComposite in2="hardAlpha" operator="out"/>
<feColorMatrix type="matrix" values="0 0 0 0 0 0 0 0 0 0 0 0 0 0 0 0 0 0 0.08 0"/>
<feBlend mode="normal" in2="BackgroundImageFix" result="effect1_dropShadow_20037_2352"/>
<feBlend mode="normal" in="SourceGraphic" in2="effect1_dropShadow_20037_2352" result="shape"/>
</filter>
<filter id="filter3_d_20037_2352" x="510" y="518" width="90" height="86" filterUnits="userSpaceOnUse" color-interpolation-filters="sRGB">
<feFlood flood-opacity="0" result="BackgroundImageFix"/>
<feColorMatrix in="SourceAlpha" type="matrix" values="0 0 0 0 0 0 0 0 0 0 0 0 0 0 0 0 0 0 127 0" result="hardAlpha"/>
<feOffset dy="4"/>
<feGaussianBlur stdDeviation="16"/>
<feComposite in2="hardAlpha" operator="out"/>
<feColorMatrix type="matrix" values="0 0 0 0 0 0 0 0 0 0 0 0 0 0 0 0 0 0 0.08 0"/>
<feBlend mode="normal" in2="BackgroundImageFix" result="effect1_dropShadow_20037_2352"/>
<feBlend mode="normal" in="SourceGraphic" in2="effect1_dropShadow_20037_2352" result="shape"/>
</filter>
<filter id="filter4_d_20037_2352" x="181" y="205" width="304.859" height="330.673" filterUnits="userSpaceOnUse" color-interpolation-filters="sRGB">
<feFlood flood-opacity="0" result="BackgroundImageFix"/>
<feColorMatrix in="SourceAlpha" type="matrix" values="0 0 0 0 0 0 0 0 0 0 0 0 0 0 0 0 0 0 127 0" result="hardAlpha"/>
<feOffset dy="4"/>
<feGaussianBlur stdDeviation="16"/>
<feComposite in2="hardAlpha" operator="out"/>
<feColorMatrix type="matrix" values="0 0 0 0 0 0 0 0 0 0 0 0 0 0 0 0 0 0 0.08 0"/>
<feBlend mode="normal" in2="BackgroundImageFix" result="effect1_dropShadow_20037_2352"/>
<feBlend mode="normal" in="SourceGraphic" in2="effect1_dropShadow_20037_2352" result="shape"/>
</filter>
<radialGradient id="paint0_radial_20037_2352" cx="0" cy="0" r="1" gradientUnits="userSpaceOnUse" gradientTransform="translate(333.5 735) rotate(-90) scale(550.585 499.646)">
<stop stop-color="white"/>
<stop offset="1" stop-color="#F5F8FF"/>
</radialGradient>
<radialGradient id="paint1_radial_20037_2352" cx="0" cy="0" r="1" gradientUnits="userSpaceOnUse" gradientTransform="translate(333.5 153.068) rotate(90) scale(491.932 283.289)">
<stop stop-color="white" stop-opacity="0"/>
<stop offset="1" stop-color="white"/>
</radialGradient>
<radialGradient id="paint2_radial_20037_2352" cx="0" cy="0" r="1" gradientUnits="userSpaceOnUse" gradientTransform="translate(333.5 557) rotate(-90) scale(283.907 256.94)">
<stop stop-color="white"/>
<stop offset="1" stop-color="#F5F8FF"/>
</radialGradient>
<linearGradient id="paint3_linear_20037_2352" x1="213" y1="234" x2="523.619" y2="524.572" gradientUnits="userSpaceOnUse">
<stop stop-color="#2D58A7"/>
<stop offset="1" stop-color="#4A96F8"/>
</linearGradient>
<radialGradient id="paint4_radial_20037_2352" cx="0" cy="0" r="1" gradientUnits="userSpaceOnUse" gradientTransform="translate(117 422.273) rotate(90) scale(56.7273 36.0448)">
<stop stop-color="white" stop-opacity="0"/>
<stop offset="1" stop-color="white"/>
</radialGradient>
<radialGradient id="paint5_radial_20037_2352" cx="0" cy="0" r="1" gradientUnits="userSpaceOnUse" gradientTransform="translate(449 194.273) rotate(90) scale(56.7273 36.0448)">
<stop stop-color="white" stop-opacity="0"/>
<stop offset="1" stop-color="white"/>
</radialGradient>
<radialGradient id="paint6_radial_20037_2352" cx="0" cy="0" r="1" gradientUnits="userSpaceOnUse" gradientTransform="translate(555 532.273) rotate(90) scale(56.7273 36.0448)">
<stop stop-color="white" stop-opacity="0"/>
<stop offset="1" stop-color="white"/>
</radialGradient>
<linearGradient id="paint7_linear_20037_2352" x1="213" y1="233" x2="523.619" y2="523.572" gradientUnits="userSpaceOnUse">
<stop stop-color="#2D58A7"/>
<stop offset="1" stop-color="#4A96F8"/>
</linearGradient>
<radialGradient id="paint8_radial_20037_2352" cx="0" cy="0" r="1" gradientUnits="userSpaceOnUse" gradientTransform="translate(333.43 263.304) rotate(90) scale(236.369 135.652)">
<stop stop-opacity="0"/>
<stop offset="1"/>
</radialGradient>
<clipPath id="clip0_20037_2352">
<rect width="320" height="320" fill="white" transform="translate(173 207)"/>
</clipPath>
</defs>
</svg>
