<svg width="447" height="372" viewBox="0 0 447 372" fill="none" xmlns="http://www.w3.org/2000/svg">
<g clip-path="url(#clip0_20272_11382)">
<rect width="447" height="372" rx="30" fill="url(#paint0_radial_20272_11382)"/>
<rect x="24" y="24" width="399" height="495" rx="40" fill="#93CCFD"/>
<rect x="24" y="24" width="399" height="495" rx="40" fill="url(#paint1_radial_20272_11382)" fill-opacity="0.7"/>
<rect x="36" y="36" width="375" height="495" rx="40" fill="white"/>
<rect x="287" y="88" width="96" height="8" rx="4" fill="#DFE4EA"/>
<rect x="320" y="102" width="63" height="8" rx="4" fill="#F1F4F8"/>
<path d="M72.9766 89.2812C71.4141 89.2812 70.0195 88.9102 68.793 88.168C67.5742 87.418 66.6094 86.3711 65.8984 85.0273C65.1953 83.6758 64.8438 82.0938 64.8438 80.2812C64.8438 78.4609 65.1953 76.875 65.8984 75.5234C66.6094 74.1719 67.5742 73.125 68.793 72.3828C70.0195 71.6328 71.4141 71.2578 72.9766 71.2578C74.5312 71.2578 75.9219 71.6328 77.1484 72.3828C78.375 73.125 79.3398 74.1719 80.043 75.5234C80.7539 76.875 81.1094 78.4609 81.1094 80.2812C81.1094 82.0938 80.7539 83.6758 80.043 85.0273C79.3398 86.3789 78.375 87.4258 77.1484 88.168C75.9219 88.9102 74.5312 89.2812 72.9766 89.2812ZM72.9766 86.5039C73.9297 86.5039 74.7812 86.2617 75.5312 85.7773C76.2891 85.293 76.8867 84.5898 77.3242 83.668C77.7617 82.7383 77.9805 81.6094 77.9805 80.2812C77.9805 78.9453 77.7617 77.8125 77.3242 76.8828C76.8867 75.9531 76.2891 75.2461 75.5312 74.7617C74.7812 74.2773 73.9297 74.0352 72.9766 74.0352C72.0234 74.0352 71.168 74.2773 70.4102 74.7617C69.6602 75.2461 69.0625 75.9531 68.6172 76.8828C68.1797 77.8125 67.9609 78.9453 67.9609 80.2812C67.9609 81.6094 68.1797 82.7383 68.6172 83.668C69.0625 84.5898 69.6602 85.293 70.4102 85.7773C71.168 86.2617 72.0234 86.5039 72.9766 86.5039ZM82.6656 93.8984V76.625H85.5719V78.3477H85.607C85.9977 77.6914 86.5211 77.1992 87.1773 76.8711C87.8336 76.543 88.5602 76.3789 89.357 76.3789C90.4195 76.3789 91.3492 76.6523 92.1461 77.1992C92.9508 77.7383 93.5758 78.4922 94.0211 79.4609C94.4742 80.4219 94.7008 81.5352 94.7008 82.8008C94.7008 84.0898 94.4781 85.2188 94.0328 86.1875C93.5953 87.1484 92.9742 87.8984 92.1695 88.4375C91.3648 88.9766 90.4234 89.2461 89.3453 89.2461C88.5328 89.2461 87.8102 89.0703 87.1773 88.7188C86.5523 88.3672 86.0445 87.8398 85.6539 87.1367H85.6187V93.8984H82.6656ZM88.6539 86.7734C89.568 86.7734 90.3062 86.4336 90.8687 85.7539C91.4312 85.0664 91.7125 84.082 91.7125 82.8008C91.7125 81.5273 91.4312 80.5469 90.8687 79.8594C90.3062 79.1719 89.568 78.8281 88.6539 78.8281C87.6852 78.8281 86.9078 79.1914 86.3219 79.918C85.7437 80.6367 85.4547 81.5977 85.4547 82.8008C85.4547 84.0039 85.7437 84.9688 86.3219 85.6953C86.9078 86.4141 87.6852 86.7734 88.6539 86.7734ZM101.612 89.2812C100.378 89.2812 99.3078 89.0039 98.4016 88.4492C97.4953 87.8945 96.7961 87.1328 96.3039 86.1641C95.8195 85.1875 95.5773 84.0742 95.5773 82.8242C95.5773 81.5664 95.8273 80.4531 96.3273 79.4844C96.8352 78.5078 97.5344 77.7422 98.425 77.1875C99.3156 76.625 100.339 76.3438 101.495 76.3438C102.683 76.3438 103.722 76.6172 104.612 77.1641C105.503 77.7109 106.195 78.4688 106.687 79.4375C107.179 80.3984 107.425 81.5117 107.425 82.7773V83.5859H98.4719C98.5109 84.5938 98.8078 85.4062 99.3625 86.0234C99.9172 86.6406 100.691 86.9492 101.683 86.9492C102.425 86.9492 103.038 86.7891 103.523 86.4688C104.007 86.1406 104.335 85.7109 104.507 85.1797H107.273C107.116 85.9844 106.773 86.6953 106.241 87.3125C105.718 87.9297 105.058 88.4141 104.261 88.7656C103.464 89.1094 102.581 89.2812 101.612 89.2812ZM98.4953 81.5469H104.589C104.495 80.6641 104.175 79.9688 103.628 79.4609C103.089 78.9453 102.394 78.6875 101.542 78.6875C100.683 78.6875 99.9836 78.9453 99.4445 79.4609C98.9133 79.9688 98.5969 80.6641 98.4953 81.5469ZM108.841 89V76.625H111.688V78.6758H111.723C111.95 77.9727 112.305 77.4375 112.79 77.0703C113.282 76.6953 113.927 76.5078 114.723 76.5078C114.927 76.5078 115.106 76.5156 115.263 76.5312C115.427 76.5391 115.567 76.5469 115.684 76.5547V79.1797C115.575 79.1641 115.388 79.1445 115.122 79.1211C114.856 79.0977 114.579 79.0859 114.29 79.0859C113.587 79.0859 112.993 79.3281 112.509 79.8125C112.032 80.2969 111.794 81.0234 111.794 81.9922V89H108.841ZM120.334 89.1992C119.1 89.1992 118.077 88.8906 117.264 88.2734C116.459 87.6484 116.057 86.7188 116.057 85.4844C116.057 84.5469 116.284 83.8242 116.737 83.3164C117.198 82.8008 117.795 82.4258 118.53 82.1914C119.272 81.957 120.069 81.7969 120.92 81.7109C122.069 81.5781 122.87 81.4609 123.323 81.3594C123.776 81.2578 124.002 80.9961 124.002 80.5742V80.4805C124.002 79.9492 123.799 79.5156 123.393 79.1797C122.995 78.8438 122.444 78.6758 121.741 78.6758C121.022 78.6758 120.436 78.8438 119.983 79.1797C119.537 79.5156 119.295 79.9453 119.256 80.4688H116.409C116.479 79.2422 116.991 78.2539 117.944 77.5039C118.897 76.7539 120.182 76.3789 121.799 76.3789C123.409 76.3789 124.666 76.7539 125.573 77.5039C126.479 78.2539 126.932 79.2734 126.932 80.5625V89H124.026V87.2539H123.979C123.682 87.8008 123.252 88.2617 122.69 88.6367C122.127 89.0117 121.342 89.1992 120.334 89.1992ZM121.061 87.0078C122.03 87.0078 122.764 86.7578 123.264 86.2578C123.764 85.75 124.014 85.1367 124.014 84.418V83.082C123.834 83.1992 123.487 83.3086 122.971 83.4102C122.455 83.5039 121.893 83.5977 121.284 83.6914C120.651 83.7852 120.1 83.9648 119.631 84.2305C119.17 84.4883 118.94 84.8984 118.94 85.4609C118.94 85.9453 119.131 86.3242 119.514 86.5977C119.897 86.8711 120.412 87.0078 121.061 87.0078ZM135.473 76.625V79.0039H132.953V85.4492C132.953 85.8945 133.043 86.2031 133.223 86.375C133.402 86.5391 133.73 86.6211 134.207 86.6211H135.473V89H133.691C132.434 89 131.5 88.7461 130.891 88.2383C130.289 87.7305 129.988 86.9453 129.988 85.8828V79.0039H127.832V76.625H129.988V73.25H132.953V76.625H135.473ZM136.736 89V76.625H139.689V89H136.736ZM138.213 74.7852C137.705 74.7852 137.283 74.625 136.947 74.3047C136.611 73.9766 136.443 73.5742 136.443 73.0977C136.443 72.6211 136.611 72.2227 136.947 71.9023C137.283 71.582 137.705 71.4219 138.213 71.4219C138.713 71.4219 139.13 71.582 139.466 71.9023C139.802 72.2227 139.97 72.6211 139.97 73.0977C139.97 73.5742 139.802 73.9766 139.466 74.3047C139.13 74.625 138.713 74.7852 138.213 74.7852ZM147.245 89.2812C146.027 89.2812 144.96 89.0117 144.046 88.4727C143.132 87.9258 142.417 87.168 141.902 86.1992C141.394 85.2305 141.14 84.1055 141.14 82.8242C141.14 81.543 141.394 80.418 141.902 79.4492C142.417 78.4727 143.132 77.7109 144.046 77.1641C144.96 76.6172 146.027 76.3438 147.245 76.3438C148.456 76.3438 149.519 76.6172 150.433 77.1641C151.355 77.7109 152.07 78.4727 152.577 79.4492C153.093 80.418 153.351 81.543 153.351 82.8242C153.351 84.1055 153.093 85.2305 152.577 86.1992C152.07 87.168 151.355 87.9258 150.433 88.4727C149.519 89.0117 148.456 89.2812 147.245 89.2812ZM147.245 86.8086C148.191 86.8086 148.945 86.4531 149.507 85.7422C150.07 85.0312 150.351 84.0586 150.351 82.8242C150.351 81.5898 150.07 80.6133 149.507 79.8945C148.945 79.1758 148.191 78.8164 147.245 78.8164C146.292 78.8164 145.534 79.1758 144.972 79.8945C144.409 80.6055 144.128 81.582 144.128 82.8242C144.128 84.0586 144.409 85.0312 144.972 85.7422C145.534 86.4531 146.292 86.8086 147.245 86.8086ZM157.755 82.0039V89H154.802V76.625H157.708V78.5234C158.567 77.0938 159.833 76.3789 161.505 76.3789C162.802 76.3789 163.86 76.7969 164.68 77.6328C165.509 78.4688 165.923 79.6797 165.923 81.2656V89H162.958V81.7344C162.958 80.8281 162.739 80.1406 162.302 79.6719C161.864 79.2031 161.251 78.9688 160.462 78.9688C159.688 78.9688 159.044 79.2109 158.528 79.6953C158.012 80.1797 157.755 80.9492 157.755 82.0039ZM171.733 89.1992C170.498 89.1992 169.475 88.8906 168.662 88.2734C167.858 87.6484 167.455 86.7188 167.455 85.4844C167.455 84.5469 167.682 83.8242 168.135 83.3164C168.596 82.8008 169.194 82.4258 169.928 82.1914C170.67 81.957 171.467 81.7969 172.319 81.7109C173.467 81.5781 174.268 81.4609 174.721 81.3594C175.174 81.2578 175.401 80.9961 175.401 80.5742V80.4805C175.401 79.9492 175.198 79.5156 174.791 79.1797C174.393 78.8438 173.842 78.6758 173.139 78.6758C172.42 78.6758 171.834 78.8438 171.381 79.1797C170.936 79.5156 170.694 79.9453 170.655 80.4688H167.807C167.877 79.2422 168.389 78.2539 169.342 77.5039C170.295 76.7539 171.58 76.3789 173.198 76.3789C174.807 76.3789 176.065 76.7539 176.971 77.5039C177.877 78.2539 178.33 79.2734 178.33 80.5625V89H175.424V87.2539H175.377C175.08 87.8008 174.651 88.2617 174.088 88.6367C173.526 89.0117 172.741 89.1992 171.733 89.1992ZM172.459 87.0078C173.428 87.0078 174.162 86.7578 174.662 86.2578C175.162 85.75 175.412 85.1367 175.412 84.418V83.082C175.233 83.1992 174.885 83.3086 174.37 83.4102C173.854 83.5039 173.291 83.5977 172.682 83.6914C172.049 83.7852 171.498 83.9648 171.03 84.2305C170.569 84.4883 170.338 84.8984 170.338 85.4609C170.338 85.9453 170.53 86.3242 170.912 86.5977C171.295 86.8711 171.811 87.0078 172.459 87.0078ZM183.297 71.5391V89H180.344V71.5391H183.297ZM65.4531 121V103.539H69.9062L73.3047 112.715C73.4688 113.199 73.6758 113.832 73.9258 114.613C74.1758 115.387 74.4023 116.113 74.6055 116.793C74.8086 116.113 75.0312 115.387 75.2734 114.613C75.5234 113.832 75.7305 113.199 75.8945 112.715L79.2344 103.539H83.7109V121H80.6641V112.094C80.6641 111.477 80.6758 110.719 80.6992 109.82C80.7227 108.922 80.7461 108.027 80.7695 107.137C80.457 108.121 80.1602 109.062 79.8789 109.961C79.5977 110.852 79.3633 111.562 79.1758 112.094L75.8477 121H73.3164L69.9648 112.094C69.7852 111.586 69.5547 110.91 69.2734 110.066C69 109.215 68.7109 108.32 68.4062 107.383C68.4297 108.242 68.4492 109.098 68.4648 109.949C68.4883 110.793 68.5 111.508 68.5 112.094V121H65.4531ZM89.65 121.199C88.4156 121.199 87.3922 120.891 86.5797 120.273C85.775 119.648 85.3727 118.719 85.3727 117.484C85.3727 116.547 85.5992 115.824 86.0523 115.316C86.5133 114.801 87.1109 114.426 87.8453 114.191C88.5875 113.957 89.3844 113.797 90.2359 113.711C91.3844 113.578 92.1852 113.461 92.6383 113.359C93.0914 113.258 93.318 112.996 93.318 112.574V112.48C93.318 111.949 93.1148 111.516 92.7086 111.18C92.3102 110.844 91.7594 110.676 91.0562 110.676C90.3375 110.676 89.7516 110.844 89.2984 111.18C88.8531 111.516 88.6109 111.945 88.5719 112.469H85.7242C85.7945 111.242 86.3062 110.254 87.2594 109.504C88.2125 108.754 89.4977 108.379 91.1148 108.379C92.7242 108.379 93.982 108.754 94.8883 109.504C95.7945 110.254 96.2477 111.273 96.2477 112.562V121H93.3414V119.254H93.2945C92.9977 119.801 92.568 120.262 92.0055 120.637C91.443 121.012 90.6578 121.199 89.65 121.199ZM90.3766 119.008C91.3453 119.008 92.0797 118.758 92.5797 118.258C93.0797 117.75 93.3297 117.137 93.3297 116.418V115.082C93.15 115.199 92.8023 115.309 92.2867 115.41C91.7711 115.504 91.2086 115.598 90.5992 115.691C89.9664 115.785 89.4156 115.965 88.9469 116.23C88.4859 116.488 88.2555 116.898 88.2555 117.461C88.2555 117.945 88.4469 118.324 88.8297 118.598C89.2125 118.871 89.7281 119.008 90.3766 119.008ZM101.214 114.004V121H98.2609V108.625H101.167V110.523C102.027 109.094 103.292 108.379 104.964 108.379C106.261 108.379 107.32 108.797 108.14 109.633C108.968 110.469 109.382 111.68 109.382 113.266V121H106.417V113.734C106.417 112.828 106.198 112.141 105.761 111.672C105.323 111.203 104.71 110.969 103.921 110.969C103.148 110.969 102.503 111.211 101.987 111.695C101.472 112.18 101.214 112.949 101.214 114.004ZM115.192 121.199C113.958 121.199 112.934 120.891 112.122 120.273C111.317 119.648 110.915 118.719 110.915 117.484C110.915 116.547 111.141 115.824 111.595 115.316C112.055 114.801 112.653 114.426 113.388 114.191C114.13 113.957 114.927 113.797 115.778 113.711C116.927 113.578 117.727 113.461 118.18 113.359C118.634 113.258 118.86 112.996 118.86 112.574V112.48C118.86 111.949 118.657 111.516 118.251 111.18C117.852 110.844 117.302 110.676 116.598 110.676C115.88 110.676 115.294 110.844 114.841 111.18C114.395 111.516 114.153 111.945 114.114 112.469H111.266C111.337 111.242 111.848 110.254 112.802 109.504C113.755 108.754 115.04 108.379 116.657 108.379C118.266 108.379 119.524 108.754 120.43 109.504C121.337 110.254 121.79 111.273 121.79 112.562V121H118.884V119.254H118.837C118.54 119.801 118.11 120.262 117.548 120.637C116.985 121.012 116.2 121.199 115.192 121.199ZM115.919 119.008C116.888 119.008 117.622 118.758 118.122 118.258C118.622 117.75 118.872 117.137 118.872 116.418V115.082C118.692 115.199 118.345 115.309 117.829 115.41C117.313 115.504 116.751 115.598 116.141 115.691C115.509 115.785 114.958 115.965 114.489 116.23C114.028 116.488 113.798 116.898 113.798 117.461C113.798 117.945 113.989 118.324 114.372 118.598C114.755 118.871 115.27 119.008 115.919 119.008ZM129.416 126.062C127.784 126.062 126.487 125.711 125.526 125.008C124.565 124.305 124.002 123.352 123.838 122.148H126.733C126.873 122.68 127.182 123.082 127.659 123.355C128.135 123.637 128.721 123.777 129.416 123.777C130.338 123.777 131.053 123.527 131.561 123.027C132.077 122.527 132.334 121.805 132.334 120.859V118.973H132.323C131.924 119.699 131.405 120.234 130.764 120.578C130.123 120.914 129.397 121.082 128.584 121.082C127.506 121.082 126.565 120.812 125.76 120.273C124.955 119.734 124.33 118.992 123.885 118.047C123.448 117.094 123.229 115.996 123.229 114.754C123.229 113.504 123.452 112.398 123.897 111.438C124.342 110.477 124.967 109.727 125.772 109.188C126.577 108.648 127.506 108.379 128.561 108.379C129.366 108.379 130.092 108.551 130.741 108.895C131.397 109.23 131.928 109.754 132.334 110.465H132.346V108.625H135.264V120.684C135.264 121.957 135.01 122.988 134.502 123.777C133.995 124.574 133.299 125.152 132.416 125.512C131.534 125.879 130.534 126.062 129.416 126.062ZM129.276 118.645C130.245 118.645 131.018 118.289 131.596 117.578C132.182 116.859 132.475 115.906 132.475 114.719C132.475 113.531 132.182 112.582 131.596 111.871C131.018 111.152 130.245 110.793 129.276 110.793C128.362 110.793 127.623 111.133 127.061 111.812C126.498 112.492 126.217 113.461 126.217 114.719C126.217 115.984 126.498 116.957 127.061 117.637C127.623 118.309 128.362 118.645 129.276 118.645ZM142.75 121.281C141.516 121.281 140.445 121.004 139.539 120.449C138.633 119.895 137.934 119.133 137.441 118.164C136.957 117.188 136.715 116.074 136.715 114.824C136.715 113.566 136.965 112.453 137.465 111.484C137.973 110.508 138.672 109.742 139.562 109.188C140.453 108.625 141.477 108.344 142.633 108.344C143.82 108.344 144.859 108.617 145.75 109.164C146.641 109.711 147.332 110.469 147.824 111.438C148.316 112.398 148.562 113.512 148.562 114.777V115.586H139.609C139.648 116.594 139.945 117.406 140.5 118.023C141.055 118.641 141.828 118.949 142.82 118.949C143.562 118.949 144.176 118.789 144.66 118.469C145.145 118.141 145.473 117.711 145.645 117.18H148.41C148.254 117.984 147.91 118.695 147.379 119.312C146.855 119.93 146.195 120.414 145.398 120.766C144.602 121.109 143.719 121.281 142.75 121.281ZM139.633 113.547H145.727C145.633 112.664 145.312 111.969 144.766 111.461C144.227 110.945 143.531 110.688 142.68 110.688C141.82 110.688 141.121 110.945 140.582 111.461C140.051 111.969 139.734 112.664 139.633 113.547ZM149.978 121V108.625H152.838V110.77C153.213 109.973 153.732 109.375 154.396 108.977C155.06 108.578 155.783 108.379 156.564 108.379C157.4 108.379 158.138 108.594 158.779 109.023C159.42 109.445 159.869 110.012 160.127 110.723C160.455 110.012 160.966 109.445 161.662 109.023C162.357 108.594 163.158 108.379 164.064 108.379C165.236 108.379 166.22 108.758 167.017 109.516C167.814 110.273 168.213 111.379 168.213 112.832V121H165.248V113.254C165.248 112.434 165.021 111.836 164.568 111.461C164.123 111.078 163.584 110.887 162.951 110.887C162.201 110.887 161.607 111.121 161.17 111.59C160.74 112.059 160.525 112.664 160.525 113.406V121H157.654V113.113C157.654 112.441 157.443 111.902 157.021 111.496C156.599 111.09 156.06 110.887 155.404 110.887C154.74 110.887 154.162 111.121 153.67 111.59C153.177 112.051 152.931 112.727 152.931 113.617V121H149.978ZM175.698 121.281C174.464 121.281 173.394 121.004 172.488 120.449C171.581 119.895 170.882 119.133 170.39 118.164C169.905 117.188 169.663 116.074 169.663 114.824C169.663 113.566 169.913 112.453 170.413 111.484C170.921 110.508 171.62 109.742 172.511 109.188C173.402 108.625 174.425 108.344 175.581 108.344C176.769 108.344 177.808 108.617 178.698 109.164C179.589 109.711 180.28 110.469 180.773 111.438C181.265 112.398 181.511 113.512 181.511 114.777V115.586H172.558C172.597 116.594 172.894 117.406 173.448 118.023C174.003 118.641 174.777 118.949 175.769 118.949C176.511 118.949 177.124 118.789 177.609 118.469C178.093 118.141 178.421 117.711 178.593 117.18H181.359C181.202 117.984 180.859 118.695 180.327 119.312C179.804 119.93 179.144 120.414 178.347 120.766C177.55 121.109 176.667 121.281 175.698 121.281ZM172.581 113.547H178.675C178.581 112.664 178.261 111.969 177.714 111.461C177.175 110.945 176.48 110.688 175.628 110.688C174.769 110.688 174.07 110.945 173.53 111.461C172.999 111.969 172.683 112.664 172.581 113.547ZM185.88 114.004V121H182.927V108.625H185.833V110.523C186.692 109.094 187.958 108.379 189.63 108.379C190.927 108.379 191.985 108.797 192.805 109.633C193.634 110.469 194.048 111.68 194.048 113.266V121H191.083V113.734C191.083 112.828 190.864 112.141 190.427 111.672C189.989 111.203 189.376 110.969 188.587 110.969C187.813 110.969 187.169 111.211 186.653 111.695C186.137 112.18 185.88 112.949 185.88 114.004ZM202.612 108.625V111.004H200.092V117.449C200.092 117.895 200.182 118.203 200.362 118.375C200.541 118.539 200.87 118.621 201.346 118.621H202.612V121H200.83C199.573 121 198.639 120.746 198.03 120.238C197.428 119.73 197.127 118.945 197.127 117.883V111.004H194.971V108.625H197.127V105.25H200.092V108.625H202.612Z" fill="black"/>
<rect x="277" y="171" width="106" height="174" rx="10" fill="#93CCFD"/>
<rect x="277" y="171" width="106" height="174" rx="10" fill="url(#paint2_radial_20272_11382)" fill-opacity="0.7"/>
<rect x="170" y="291" width="107" height="54" rx="10" fill="url(#paint3_linear_20272_11382)"/>
<rect x="170" y="291" width="107" height="54" rx="10" fill="url(#paint4_radial_20272_11382)" fill-opacity="0.2"/>
<g clip-path="url(#clip1_20272_11382)">
<rect x="-31" y="211.259" width="385" height="4" transform="rotate(-30 -31 211.259)" fill="#E7EDF4"/>
<rect x="-27" y="218.188" width="385" height="4" transform="rotate(-30 -27 218.188)" fill="#E7EDF4"/>
<rect x="-23" y="225.118" width="385" height="4" transform="rotate(-30 -23 225.118)" fill="#E7EDF4"/>
<rect x="-19" y="232.044" width="385" height="4" transform="rotate(-30 -19 232.044)" fill="#E7EDF4"/>
<rect x="-15" y="238.974" width="385" height="4" transform="rotate(-30 -15 238.974)" fill="#E7EDF4"/>
<rect x="-11" y="245.899" width="385" height="4" transform="rotate(-30 -11 245.899)" fill="#E7EDF4"/>
<rect x="-7" y="252.829" width="385" height="4" transform="rotate(-30 -7 252.829)" fill="#E7EDF4"/>
<rect x="-3" y="259.759" width="385" height="4" transform="rotate(-30 -3 259.759)" fill="#E7EDF4"/>
<rect x="1" y="266.685" width="385" height="4" transform="rotate(-30 1 266.685)" fill="#E7EDF4"/>
<rect x="5" y="273.614" width="385" height="4" transform="rotate(-30 5 273.614)" fill="#E7EDF4"/>
<rect x="9" y="280.544" width="385" height="4" transform="rotate(-30 9 280.544)" fill="#E7EDF4"/>
<rect x="13" y="287.47" width="385" height="4" transform="rotate(-30 13 287.47)" fill="#E7EDF4"/>
<rect x="17" y="294.399" width="385" height="4" transform="rotate(-30 17 294.399)" fill="#E7EDF4"/>
<rect x="21" y="301.325" width="385" height="4" transform="rotate(-30 21 301.325)" fill="#E7EDF4"/>
<rect x="25" y="308.255" width="385" height="4" transform="rotate(-30 25 308.255)" fill="#E7EDF4"/>
<rect x="29" y="315.185" width="385" height="4" transform="rotate(-30 29 315.185)" fill="#E7EDF4"/>
<rect x="33" y="322.11" width="385" height="4" transform="rotate(-30 33 322.11)" fill="#E7EDF4"/>
<rect x="37" y="329.04" width="385" height="4" transform="rotate(-30 37 329.04)" fill="#E7EDF4"/>
<rect x="41" y="335.966" width="385" height="4" transform="rotate(-30 41 335.966)" fill="#E7EDF4"/>
<rect x="45" y="342.896" width="385" height="4" transform="rotate(-30 45 342.896)" fill="#E7EDF4"/>
<rect x="49" y="349.825" width="385" height="4" transform="rotate(-30 49 349.825)" fill="#E7EDF4"/>
<rect x="53" y="356.751" width="385" height="4" transform="rotate(-30 53 356.751)" fill="#E7EDF4"/>
<rect x="57" y="363.681" width="385" height="4" transform="rotate(-30 57 363.681)" fill="#E7EDF4"/>
<rect x="61" y="370.61" width="385" height="4" transform="rotate(-30 61 370.61)" fill="#E7EDF4"/>
<rect x="65" y="377.535" width="385" height="4" transform="rotate(-30 65 377.535)" fill="#E7EDF4"/>
<rect x="65" y="387.536" width="385" height="4" transform="rotate(-30 65 387.536)" fill="#E7EDF4"/>
<rect x="65" y="397.535" width="385" height="4" transform="rotate(-30 65 397.535)" fill="#E7EDF4"/>
<rect x="65" y="407.535" width="385" height="4" transform="rotate(-30 65 407.535)" fill="#E7EDF4"/>
<rect x="65" y="417.534" width="385" height="4" transform="rotate(-30 65 417.534)" fill="#E7EDF4"/>
<rect x="65" y="427.533" width="385" height="4" transform="rotate(-30 65 427.533)" fill="#E7EDF4"/>
<rect x="65" y="437.532" width="385" height="4" transform="rotate(-30 65 437.532)" fill="#E7EDF4"/>
<rect x="65" y="447.531" width="385" height="4" transform="rotate(-30 65 447.531)" fill="#E7EDF4"/>
</g>
<path d="M72.9048 199V197.668L76.4396 194.202C76.7777 193.861 77.0594 193.558 77.2848 193.293C77.5102 193.027 77.6792 192.771 77.7919 192.522C77.9046 192.273 77.9609 192.008 77.9609 191.727C77.9609 191.405 77.888 191.13 77.7422 190.901C77.5964 190.669 77.3958 190.49 77.1406 190.364C76.8854 190.238 76.5954 190.175 76.2706 190.175C75.9358 190.175 75.6425 190.245 75.3906 190.384C75.1387 190.52 74.9432 190.714 74.804 190.966C74.6681 191.218 74.6001 191.518 74.6001 191.866H72.8452C72.8452 191.219 72.9927 190.658 73.2876 190.18C73.5826 189.703 73.9886 189.334 74.5057 189.072C75.026 188.81 75.6226 188.679 76.2955 188.679C76.9782 188.679 77.5781 188.807 78.0952 189.062C78.6122 189.317 79.0133 189.667 79.2983 190.111C79.5866 190.555 79.7308 191.062 79.7308 191.632C79.7308 192.013 79.6579 192.388 79.5121 192.756C79.3662 193.124 79.1094 193.531 78.7415 193.979C78.3769 194.426 77.8648 194.968 77.2053 195.604L75.4503 197.389V197.459H79.8849V199H72.9048ZM85.0349 188.679C85.5222 188.682 85.9961 188.768 86.4568 188.938C86.9208 189.103 87.3384 189.375 87.7097 189.753C88.0809 190.127 88.3759 190.629 88.5946 191.259C88.8134 191.889 88.9227 192.668 88.9227 193.596C88.926 194.471 88.8332 195.253 88.6443 195.942C88.4587 196.629 88.1919 197.209 87.8439 197.683C87.4959 198.156 87.0766 198.518 86.5861 198.766C86.0955 199.015 85.5437 199.139 84.9305 199.139C84.2875 199.139 83.7175 199.013 83.2203 198.761C82.7265 198.509 82.3271 198.165 82.0222 197.727C81.7172 197.29 81.53 196.789 81.4604 196.226H83.275C83.3678 196.63 83.5567 196.952 83.8418 197.19C84.1301 197.426 84.493 197.543 84.9305 197.543C85.6365 197.543 86.1801 197.237 86.5612 196.624C86.9424 196.01 87.133 195.159 87.133 194.068H87.0634C86.9009 194.36 86.6905 194.612 86.432 194.824C86.1734 195.033 85.8801 195.193 85.552 195.306C85.2272 195.419 84.8825 195.475 84.5179 195.475C83.9213 195.475 83.3844 195.333 82.9071 195.048C82.4331 194.763 82.057 194.371 81.7786 193.874C81.5035 193.377 81.3643 192.809 81.3609 192.169C81.3609 191.506 81.5134 190.911 81.8183 190.384C82.1266 189.854 82.5558 189.436 83.106 189.131C83.6562 188.823 84.2991 188.672 85.0349 188.679ZM85.0399 190.17C84.682 190.17 84.3588 190.258 84.0705 190.434C83.7854 190.606 83.56 190.842 83.3943 191.14C83.2319 191.435 83.1507 191.765 83.1507 192.129C83.154 192.491 83.2352 192.819 83.3943 193.114C83.5567 193.409 83.7771 193.642 84.0555 193.815C84.3373 193.987 84.6588 194.073 85.02 194.073C85.2885 194.073 85.5387 194.022 85.7707 193.919C86.0027 193.816 86.2049 193.674 86.3773 193.491C86.5529 193.306 86.6888 193.095 86.7849 192.86C86.8844 192.625 86.9324 192.376 86.9291 192.114C86.9291 191.766 86.8463 191.445 86.6805 191.15C86.5181 190.855 86.2944 190.618 86.0094 190.439C85.7277 190.26 85.4045 190.17 85.0399 190.17ZM95.9222 197.091V196.554C95.9222 196.16 96.005 195.797 96.1707 195.465C96.3398 195.134 96.585 194.867 96.9065 194.665C97.228 194.463 97.6175 194.362 98.0749 194.362C98.5455 194.362 98.9399 194.463 99.2581 194.665C99.5763 194.864 99.8166 195.129 99.979 195.46C100.145 195.792 100.228 196.156 100.228 196.554V197.091C100.228 197.485 100.145 197.848 99.979 198.18C99.8133 198.511 99.5696 198.778 99.2482 198.98C98.93 199.182 98.5389 199.283 98.0749 199.283C97.6108 199.283 97.2181 199.182 96.8966 198.98C96.5751 198.778 96.3315 198.511 96.1658 198.18C96.0034 197.848 95.9222 197.485 95.9222 197.091ZM97.2197 196.554V197.091C97.2197 197.353 97.2827 197.593 97.4087 197.812C97.5346 198.031 97.7567 198.14 98.0749 198.14C98.3964 198.14 98.6168 198.032 98.7361 197.817C98.8587 197.598 98.92 197.356 98.92 197.091V196.554C98.92 196.289 98.862 196.047 98.746 195.828C98.63 195.606 98.4063 195.495 98.0749 195.495C97.7633 195.495 97.5429 195.606 97.4136 195.828C97.2844 196.047 97.2197 196.289 97.2197 196.554ZM90.7467 191.264V190.727C90.7467 190.33 90.8312 189.965 91.0003 189.634C91.1693 189.302 91.4146 189.037 91.7361 188.838C92.0576 188.636 92.447 188.535 92.9044 188.535C93.3717 188.535 93.7645 188.636 94.0827 188.838C94.4042 189.037 94.6461 189.302 94.8085 189.634C94.9709 189.965 95.0521 190.33 95.0521 190.727V191.264C95.0521 191.662 94.9693 192.027 94.8036 192.358C94.6411 192.686 94.3992 192.95 94.0777 193.148C93.7562 193.347 93.3651 193.447 92.9044 193.447C92.4371 193.447 92.0427 193.347 91.7212 193.148C91.403 192.95 91.161 192.684 90.9953 192.353C90.8296 192.022 90.7467 191.659 90.7467 191.264ZM92.0543 190.727V191.264C92.0543 191.529 92.1156 191.771 92.2382 191.99C92.3642 192.205 92.5862 192.313 92.9044 192.313C93.2226 192.313 93.4413 192.205 93.5607 191.99C93.6833 191.771 93.7446 191.529 93.7446 191.264V190.727C93.7446 190.462 93.6866 190.22 93.5706 190.001C93.4546 189.779 93.2325 189.668 92.9044 189.668C92.5895 189.668 92.3691 189.779 92.2432 190.001C92.1172 190.223 92.0543 190.465 92.0543 190.727ZM91.3135 199L98.3135 188.818H99.5564L92.5564 199H91.3135Z" fill="black"/>
<path d="M130.858 192.545C130.815 192.186 130.643 191.906 130.339 191.707C130.036 191.509 129.665 191.409 129.224 191.409C128.902 191.409 128.621 191.461 128.379 191.565C128.14 191.67 127.953 191.813 127.818 191.995C127.686 192.177 127.619 192.384 127.619 192.616C127.619 192.811 127.665 192.978 127.758 193.117C127.853 193.254 127.973 193.369 128.12 193.462C128.267 193.552 128.421 193.626 128.582 193.685C128.743 193.742 128.891 193.788 129.026 193.824L129.764 194.023C129.954 194.072 130.164 194.141 130.396 194.229C130.631 194.316 130.854 194.436 131.067 194.587C131.283 194.737 131.46 194.928 131.6 195.163C131.74 195.397 131.81 195.685 131.81 196.026C131.81 196.419 131.707 196.774 131.501 197.091C131.297 197.408 130.999 197.66 130.606 197.847C130.215 198.034 129.741 198.128 129.182 198.128C128.661 198.128 128.21 198.044 127.829 197.876C127.45 197.708 127.152 197.473 126.934 197.173C126.719 196.872 126.597 196.523 126.568 196.125H127.477C127.501 196.4 127.593 196.627 127.754 196.807C127.918 196.984 128.124 197.117 128.372 197.205C128.623 197.29 128.893 197.332 129.182 197.332C129.518 197.332 129.82 197.278 130.087 197.169C130.355 197.058 130.567 196.904 130.723 196.707C130.879 196.509 130.957 196.277 130.957 196.011C130.957 195.77 130.89 195.573 130.755 195.422C130.62 195.27 130.442 195.147 130.222 195.053C130.002 194.958 129.764 194.875 129.509 194.804L128.614 194.548C128.045 194.385 127.596 194.152 127.264 193.849C126.933 193.546 126.767 193.149 126.767 192.659C126.767 192.252 126.877 191.897 127.097 191.594C127.32 191.288 127.618 191.052 127.992 190.884C128.369 190.713 128.789 190.628 129.253 190.628C129.722 190.628 130.138 190.712 130.503 190.88C130.867 191.046 131.156 191.273 131.369 191.562C131.585 191.851 131.698 192.179 131.71 192.545H130.858ZM135.431 198.114C134.905 198.114 134.452 197.998 134.071 197.766C133.692 197.531 133.4 197.205 133.194 196.786C132.99 196.364 132.888 195.874 132.888 195.315C132.888 194.757 132.99 194.264 133.194 193.838C133.4 193.41 133.686 193.076 134.053 192.837C134.422 192.595 134.853 192.474 135.346 192.474C135.63 192.474 135.91 192.522 136.187 192.616C136.464 192.711 136.716 192.865 136.944 193.078C137.171 193.289 137.352 193.568 137.487 193.916C137.622 194.264 137.689 194.693 137.689 195.202V195.557H133.485V194.832H136.837C136.837 194.525 136.776 194.25 136.653 194.009C136.532 193.767 136.359 193.576 136.134 193.437C135.912 193.297 135.649 193.227 135.346 193.227C135.012 193.227 134.723 193.31 134.479 193.476C134.238 193.639 134.052 193.852 133.922 194.115C133.791 194.378 133.726 194.66 133.726 194.96V195.443C133.726 195.855 133.797 196.204 133.939 196.491C134.084 196.775 134.284 196.991 134.54 197.141C134.795 197.287 135.092 197.361 135.431 197.361C135.651 197.361 135.85 197.33 136.028 197.268C136.207 197.205 136.363 197.11 136.493 196.984C136.623 196.857 136.724 196.698 136.795 196.509L137.604 196.736C137.519 197.01 137.376 197.252 137.175 197.46C136.973 197.666 136.725 197.827 136.429 197.943C136.133 198.057 135.8 198.114 135.431 198.114ZM138.964 198V192.545H139.774V193.369H139.831C139.93 193.099 140.11 192.88 140.371 192.712C140.631 192.544 140.925 192.46 141.251 192.46C141.313 192.46 141.39 192.461 141.482 192.464C141.574 192.466 141.644 192.47 141.692 192.474V193.327C141.663 193.32 141.598 193.309 141.496 193.295C141.397 193.278 141.291 193.27 141.18 193.27C140.915 193.27 140.678 193.326 140.47 193.437C140.264 193.546 140.101 193.697 139.98 193.891C139.862 194.083 139.802 194.302 139.802 194.548V198H138.964ZM147.311 192.545L145.294 198H144.442L142.425 192.545H143.334L144.84 196.892H144.896L146.402 192.545H147.311ZM148.417 198V192.545H149.256V198H148.417ZM148.844 191.636C148.68 191.636 148.539 191.581 148.421 191.469C148.305 191.358 148.247 191.224 148.247 191.068C148.247 190.912 148.305 190.778 148.421 190.667C148.539 190.556 148.68 190.5 148.844 190.5C149.007 190.5 149.147 190.556 149.263 190.667C149.381 190.778 149.44 190.912 149.44 191.068C149.44 191.224 149.381 191.358 149.263 191.469C149.147 191.581 149.007 191.636 148.844 191.636ZM153.006 198.114C152.495 198.114 152.055 197.993 151.685 197.751C151.316 197.51 151.032 197.177 150.833 196.754C150.634 196.33 150.535 195.846 150.535 195.301C150.535 194.747 150.637 194.258 150.84 193.835C151.046 193.408 151.333 193.076 151.7 192.837C152.069 192.595 152.5 192.474 152.992 192.474C153.376 192.474 153.721 192.545 154.029 192.688C154.337 192.83 154.589 193.028 154.786 193.284C154.982 193.54 155.104 193.838 155.151 194.179H154.313C154.249 193.93 154.107 193.71 153.887 193.518C153.669 193.324 153.376 193.227 153.006 193.227C152.68 193.227 152.393 193.312 152.147 193.483C151.903 193.651 151.713 193.889 151.575 194.197C151.44 194.502 151.373 194.861 151.373 195.273C151.373 195.694 151.439 196.061 151.572 196.374C151.707 196.686 151.896 196.929 152.14 197.102C152.386 197.274 152.675 197.361 153.006 197.361C153.224 197.361 153.422 197.323 153.599 197.247C153.777 197.171 153.927 197.062 154.05 196.92C154.174 196.778 154.261 196.608 154.313 196.409H155.151C155.104 196.731 154.987 197.021 154.8 197.279C154.615 197.535 154.37 197.738 154.065 197.89C153.762 198.039 153.409 198.114 153.006 198.114ZM158.663 198.114C158.138 198.114 157.684 197.998 157.303 197.766C156.924 197.531 156.632 197.205 156.426 196.786C156.223 196.364 156.121 195.874 156.121 195.315C156.121 194.757 156.223 194.264 156.426 193.838C156.632 193.41 156.919 193.076 157.286 192.837C157.655 192.595 158.086 192.474 158.578 192.474C158.862 192.474 159.143 192.522 159.42 192.616C159.697 192.711 159.949 192.865 160.176 193.078C160.403 193.289 160.585 193.568 160.719 193.916C160.854 194.264 160.922 194.693 160.922 195.202V195.557H156.717V194.832H160.07C160.07 194.525 160.008 194.25 159.885 194.009C159.764 193.767 159.591 193.576 159.366 193.437C159.144 193.297 158.881 193.227 158.578 193.227C158.244 193.227 157.955 193.31 157.712 193.476C157.47 193.639 157.284 193.852 157.154 194.115C157.024 194.378 156.959 194.66 156.959 194.96V195.443C156.959 195.855 157.03 196.204 157.172 196.491C157.316 196.775 157.516 196.991 157.772 197.141C158.028 197.287 158.325 197.361 158.663 197.361C158.884 197.361 159.082 197.33 159.26 197.268C159.44 197.205 159.595 197.11 159.725 196.984C159.855 196.857 159.956 196.698 160.027 196.509L160.837 196.736C160.751 197.01 160.608 197.252 160.407 197.46C160.206 197.666 159.957 197.827 159.661 197.943C159.365 198.057 159.033 198.114 158.663 198.114Z" fill="#8F8F8F"/>
<path d="M182.524 282.139C181.785 282.139 181.129 282.015 180.555 281.766C179.985 281.518 179.538 281.178 179.213 280.747C178.892 280.313 178.732 279.821 178.736 279.271C178.732 278.843 178.825 278.45 179.014 278.092C179.203 277.734 179.458 277.436 179.78 277.197C180.105 276.955 180.466 276.801 180.864 276.735V276.665C180.34 276.549 179.916 276.283 179.591 275.865C179.269 275.444 179.11 274.959 179.114 274.408C179.11 273.885 179.256 273.417 179.551 273.006C179.846 272.595 180.25 272.272 180.764 272.037C181.278 271.798 181.865 271.679 182.524 271.679C183.177 271.679 183.759 271.798 184.269 272.037C184.783 272.272 185.187 272.595 185.482 273.006C185.781 273.417 185.93 273.885 185.93 274.408C185.93 274.959 185.766 275.444 185.438 275.865C185.113 276.283 184.693 276.549 184.18 276.665V276.735C184.577 276.801 184.935 276.955 185.254 277.197C185.575 277.436 185.83 277.734 186.019 278.092C186.211 278.45 186.308 278.843 186.308 279.271C186.308 279.821 186.145 280.313 185.82 280.747C185.496 281.178 185.048 281.518 184.478 281.766C183.911 282.015 183.26 282.139 182.524 282.139ZM182.524 280.717C182.905 280.717 183.237 280.653 183.518 280.523C183.8 280.391 184.019 280.205 184.175 279.967C184.33 279.728 184.41 279.453 184.413 279.141C184.41 278.817 184.326 278.53 184.16 278.281C183.997 278.029 183.774 277.832 183.489 277.69C183.207 277.547 182.885 277.476 182.524 277.476C182.16 277.476 181.835 277.547 181.55 277.69C181.265 277.832 181.039 278.029 180.874 278.281C180.711 278.53 180.632 278.817 180.635 279.141C180.632 279.453 180.708 279.728 180.864 279.967C181.019 280.202 181.238 280.386 181.52 280.518C181.805 280.651 182.14 280.717 182.524 280.717ZM182.524 276.079C182.836 276.079 183.111 276.016 183.349 275.89C183.591 275.764 183.782 275.588 183.921 275.363C184.06 275.138 184.132 274.877 184.135 274.582C184.132 274.291 184.062 274.036 183.926 273.817C183.79 273.595 183.601 273.424 183.359 273.305C183.117 273.182 182.839 273.121 182.524 273.121C182.203 273.121 181.919 273.182 181.674 273.305C181.432 273.424 181.243 273.595 181.107 273.817C180.975 274.036 180.91 274.291 180.913 274.582C180.91 274.877 180.976 275.138 181.112 275.363C181.251 275.585 181.442 275.761 181.684 275.89C181.929 276.016 182.209 276.079 182.524 276.079ZM193.286 280.091V279.554C193.286 279.16 193.369 278.797 193.534 278.465C193.703 278.134 193.949 277.867 194.27 277.665C194.592 277.463 194.981 277.362 195.439 277.362C195.909 277.362 196.304 277.463 196.622 277.665C196.94 277.864 197.18 278.129 197.343 278.46C197.508 278.792 197.591 279.156 197.591 279.554V280.091C197.591 280.485 197.508 280.848 197.343 281.18C197.177 281.511 196.933 281.778 196.612 281.98C196.294 282.182 195.903 282.283 195.439 282.283C194.975 282.283 194.582 282.182 194.26 281.98C193.939 281.778 193.695 281.511 193.529 281.18C193.367 280.848 193.286 280.485 193.286 280.091ZM194.583 279.554V280.091C194.583 280.353 194.646 280.593 194.772 280.812C194.898 281.031 195.12 281.14 195.439 281.14C195.76 281.14 195.98 281.032 196.1 280.817C196.222 280.598 196.284 280.356 196.284 280.091V279.554C196.284 279.289 196.226 279.047 196.11 278.828C195.994 278.606 195.77 278.495 195.439 278.495C195.127 278.495 194.907 278.606 194.777 278.828C194.648 279.047 194.583 279.289 194.583 279.554ZM188.11 274.264V273.727C188.11 273.33 188.195 272.965 188.364 272.634C188.533 272.302 188.778 272.037 189.1 271.838C189.421 271.636 189.811 271.535 190.268 271.535C190.735 271.535 191.128 271.636 191.446 271.838C191.768 272.037 192.01 272.302 192.172 272.634C192.335 272.965 192.416 273.33 192.416 273.727V274.264C192.416 274.662 192.333 275.027 192.167 275.358C192.005 275.686 191.763 275.95 191.441 276.148C191.12 276.347 190.729 276.447 190.268 276.447C189.801 276.447 189.406 276.347 189.085 276.148C188.767 275.95 188.525 275.684 188.359 275.353C188.193 275.022 188.11 274.659 188.11 274.264ZM189.418 273.727V274.264C189.418 274.529 189.479 274.771 189.602 274.99C189.728 275.205 189.95 275.313 190.268 275.313C190.586 275.313 190.805 275.205 190.924 274.99C191.047 274.771 191.108 274.529 191.108 274.264V273.727C191.108 273.462 191.05 273.22 190.934 273.001C190.818 272.779 190.596 272.668 190.268 272.668C189.953 272.668 189.733 272.779 189.607 273.001C189.481 273.223 189.418 273.465 189.418 273.727ZM188.677 282L195.677 271.818H196.92L189.92 282H188.677Z" fill="black"/>
<path d="M212.881 273.727H213.932L216.403 279.764H216.489L218.96 273.727H220.011V281H219.188V275.474H219.116L216.844 281H216.048L213.776 275.474H213.705V281H212.881V273.727ZM223.95 281.114C223.425 281.114 222.972 280.998 222.59 280.766C222.212 280.531 221.919 280.205 221.713 279.786C221.51 279.364 221.408 278.874 221.408 278.315C221.408 277.757 221.51 277.264 221.713 276.838C221.919 276.41 222.206 276.076 222.573 275.837C222.942 275.595 223.373 275.474 223.865 275.474C224.149 275.474 224.43 275.522 224.707 275.616C224.984 275.711 225.236 275.865 225.463 276.078C225.691 276.289 225.872 276.568 226.007 276.916C226.142 277.264 226.209 277.693 226.209 278.202V278.557H222.004V277.832H225.357C225.357 277.525 225.295 277.25 225.172 277.009C225.051 276.767 224.878 276.576 224.654 276.437C224.431 276.297 224.168 276.227 223.865 276.227C223.531 276.227 223.243 276.31 222.999 276.476C222.757 276.639 222.571 276.852 222.441 277.115C222.311 277.378 222.246 277.66 222.246 277.96V278.443C222.246 278.855 222.317 279.204 222.459 279.491C222.603 279.775 222.803 279.991 223.059 280.141C223.315 280.287 223.612 280.361 223.95 280.361C224.171 280.361 224.369 280.33 224.547 280.268C224.727 280.205 224.882 280.11 225.012 279.984C225.142 279.857 225.243 279.698 225.314 279.509L226.124 279.736C226.039 280.01 225.895 280.252 225.694 280.46C225.493 280.666 225.244 280.827 224.948 280.943C224.652 281.057 224.32 281.114 223.95 281.114ZM229.089 281.128C228.743 281.128 228.43 281.063 228.148 280.933C227.866 280.8 227.642 280.609 227.477 280.361C227.311 280.11 227.228 279.807 227.228 279.452C227.228 279.139 227.29 278.886 227.413 278.692C227.536 278.495 227.7 278.341 227.906 278.23C228.112 278.119 228.34 278.036 228.588 277.982C228.839 277.925 229.091 277.88 229.345 277.847C229.676 277.804 229.945 277.772 230.151 277.751C230.359 277.727 230.511 277.688 230.605 277.634C230.702 277.579 230.751 277.484 230.751 277.349V277.321C230.751 276.971 230.655 276.698 230.463 276.504C230.274 276.31 229.986 276.213 229.6 276.213C229.2 276.213 228.887 276.301 228.659 276.476C228.432 276.651 228.272 276.838 228.18 277.037L227.384 276.753C227.526 276.421 227.716 276.163 227.953 275.979C228.192 275.792 228.452 275.661 228.734 275.588C229.018 275.512 229.297 275.474 229.572 275.474C229.747 275.474 229.948 275.496 230.176 275.538C230.405 275.579 230.627 275.663 230.84 275.79C231.055 275.918 231.234 276.111 231.376 276.369C231.518 276.627 231.589 276.973 231.589 277.406V281H230.751V280.261H230.708C230.651 280.38 230.557 280.506 230.424 280.641C230.292 280.776 230.115 280.891 229.895 280.986C229.675 281.08 229.406 281.128 229.089 281.128ZM229.217 280.375C229.548 280.375 229.828 280.31 230.055 280.18C230.285 280.049 230.457 279.881 230.573 279.675C230.692 279.469 230.751 279.253 230.751 279.026V278.259C230.715 278.301 230.637 278.34 230.517 278.376C230.398 278.409 230.261 278.438 230.105 278.464C229.951 278.488 229.8 278.509 229.654 278.528C229.509 278.545 229.392 278.559 229.302 278.571C229.084 278.599 228.881 278.646 228.691 278.71C228.504 278.771 228.353 278.865 228.237 278.99C228.123 279.113 228.066 279.281 228.066 279.494C228.066 279.786 228.174 280.006 228.389 280.155C228.607 280.302 228.883 280.375 229.217 280.375ZM236.982 276.767L236.229 276.98C236.182 276.855 236.112 276.733 236.02 276.614C235.93 276.494 235.807 276.394 235.651 276.316C235.494 276.238 235.294 276.199 235.05 276.199C234.717 276.199 234.438 276.276 234.216 276.43C233.996 276.581 233.886 276.774 233.886 277.009C233.886 277.217 233.961 277.381 234.113 277.502C234.264 277.623 234.501 277.723 234.823 277.804L235.633 278.003C236.121 278.121 236.484 278.302 236.723 278.546C236.962 278.788 237.082 279.099 237.082 279.48C237.082 279.793 236.992 280.072 236.812 280.318C236.634 280.564 236.386 280.759 236.066 280.901C235.746 281.043 235.375 281.114 234.951 281.114C234.395 281.114 233.934 280.993 233.57 280.751C233.205 280.51 232.974 280.157 232.877 279.693L233.673 279.494C233.748 279.788 233.892 280.008 234.102 280.155C234.315 280.302 234.594 280.375 234.937 280.375C235.327 280.375 235.638 280.292 235.867 280.126C236.099 279.958 236.215 279.757 236.215 279.523C236.215 279.333 236.149 279.175 236.016 279.047C235.884 278.917 235.68 278.82 235.406 278.756L234.496 278.543C233.997 278.424 233.63 278.241 233.396 277.992C233.164 277.741 233.048 277.428 233.048 277.051C233.048 276.743 233.134 276.471 233.307 276.234C233.482 275.998 233.72 275.812 234.021 275.677C234.324 275.542 234.667 275.474 235.05 275.474C235.59 275.474 236.014 275.593 236.322 275.83C236.632 276.066 236.852 276.379 236.982 276.767ZM241.781 278.77V275.545H242.619V281H241.781V280.077H241.724C241.596 280.354 241.397 280.589 241.127 280.783C240.857 280.975 240.517 281.071 240.105 281.071C239.764 281.071 239.461 280.996 239.195 280.847C238.93 280.696 238.722 280.469 238.57 280.165C238.419 279.86 238.343 279.475 238.343 279.011V275.545H239.181V278.955C239.181 279.352 239.293 279.67 239.515 279.906C239.74 280.143 240.026 280.261 240.374 280.261C240.583 280.261 240.795 280.208 241.01 280.102C241.228 279.995 241.41 279.832 241.557 279.612C241.706 279.391 241.781 279.111 241.781 278.77ZM244.154 281V275.545H244.963V276.369H245.02C245.12 276.099 245.3 275.88 245.56 275.712C245.82 275.544 246.114 275.46 246.441 275.46C246.502 275.46 246.579 275.461 246.672 275.464C246.764 275.466 246.834 275.47 246.881 275.474V276.327C246.853 276.32 246.788 276.309 246.686 276.295C246.586 276.278 246.481 276.27 246.37 276.27C246.105 276.27 245.868 276.326 245.659 276.437C245.453 276.546 245.29 276.697 245.169 276.891C245.051 277.083 244.992 277.302 244.992 277.548V281H244.154ZM249.48 281.128C249.134 281.128 248.82 281.063 248.539 280.933C248.257 280.8 248.033 280.609 247.867 280.361C247.702 280.11 247.619 279.807 247.619 279.452C247.619 279.139 247.68 278.886 247.803 278.692C247.927 278.495 248.091 278.341 248.297 278.23C248.503 278.119 248.73 278.036 248.979 277.982C249.23 277.925 249.482 277.88 249.735 277.847C250.067 277.804 250.335 277.772 250.541 277.751C250.75 277.727 250.901 277.688 250.996 277.634C251.093 277.579 251.142 277.484 251.142 277.349V277.321C251.142 276.971 251.046 276.698 250.854 276.504C250.664 276.31 250.377 276.213 249.991 276.213C249.591 276.213 249.277 276.301 249.05 276.476C248.823 276.651 248.663 276.838 248.57 277.037L247.775 276.753C247.917 276.421 248.106 276.163 248.343 275.979C248.582 275.792 248.843 275.661 249.124 275.588C249.409 275.512 249.688 275.474 249.963 275.474C250.138 275.474 250.339 275.496 250.566 275.538C250.796 275.579 251.017 275.663 251.23 275.79C251.446 275.918 251.624 276.111 251.767 276.369C251.909 276.627 251.98 276.973 251.98 277.406V281H251.142V280.261H251.099C251.042 280.38 250.947 280.506 250.815 280.641C250.682 280.776 250.506 280.891 250.286 280.986C250.066 281.08 249.797 281.128 249.48 281.128ZM249.607 280.375C249.939 280.375 250.218 280.31 250.445 280.18C250.675 280.049 250.848 279.881 250.964 279.675C251.082 279.469 251.142 279.253 251.142 279.026V278.259C251.106 278.301 251.028 278.34 250.907 278.376C250.789 278.409 250.651 278.438 250.495 278.464C250.341 278.488 250.191 278.509 250.044 278.528C249.9 278.545 249.783 278.559 249.693 278.571C249.475 278.599 249.271 278.646 249.082 278.71C248.895 278.771 248.743 278.865 248.627 278.99C248.514 279.113 248.457 279.281 248.457 279.494C248.457 279.786 248.565 280.006 248.78 280.155C248.998 280.302 249.274 280.375 249.607 280.375ZM253.623 281V273.727H254.461V276.412H254.532C254.594 276.317 254.679 276.196 254.788 276.05C254.899 275.901 255.058 275.768 255.263 275.652C255.472 275.534 255.754 275.474 256.109 275.474C256.568 275.474 256.973 275.589 257.323 275.819C257.674 276.049 257.947 276.374 258.143 276.795C258.34 277.217 258.438 277.714 258.438 278.287C258.438 278.865 258.34 279.365 258.143 279.789C257.947 280.21 257.675 280.537 257.327 280.769C256.979 280.999 256.577 281.114 256.123 281.114C255.772 281.114 255.492 281.056 255.281 280.94C255.071 280.821 254.908 280.687 254.795 280.538C254.681 280.387 254.594 280.261 254.532 280.162H254.433V281H253.623ZM254.447 278.273C254.447 278.685 254.507 279.048 254.628 279.363C254.749 279.675 254.925 279.92 255.157 280.098C255.389 280.273 255.673 280.361 256.009 280.361C256.36 280.361 256.652 280.268 256.886 280.084C257.123 279.897 257.301 279.646 257.419 279.331C257.54 279.014 257.6 278.661 257.6 278.273C257.6 277.889 257.541 277.544 257.423 277.236C257.307 276.926 257.13 276.681 256.893 276.501C256.659 276.318 256.364 276.227 256.009 276.227C255.668 276.227 255.382 276.314 255.15 276.487C254.918 276.657 254.743 276.896 254.624 277.204C254.506 277.509 254.447 277.866 254.447 278.273ZM260.558 273.727V281H259.72V273.727H260.558ZM264.38 281.114C263.855 281.114 263.401 280.998 263.02 280.766C262.641 280.531 262.349 280.205 262.143 279.786C261.939 279.364 261.838 278.874 261.838 278.315C261.838 277.757 261.939 277.264 262.143 276.838C262.349 276.41 262.635 276.076 263.002 275.837C263.372 275.595 263.802 275.474 264.295 275.474C264.579 275.474 264.86 275.522 265.137 275.616C265.414 275.711 265.666 275.865 265.893 276.078C266.12 276.289 266.301 276.568 266.436 276.916C266.571 277.264 266.639 277.693 266.639 278.202V278.557H262.434V277.832H265.786C265.786 277.525 265.725 277.25 265.602 277.009C265.481 276.767 265.308 276.576 265.083 276.437C264.861 276.297 264.598 276.227 264.295 276.227C263.961 276.227 263.672 276.31 263.428 276.476C263.187 276.639 263.001 276.852 262.871 277.115C262.741 277.378 262.676 277.66 262.676 277.96V278.443C262.676 278.855 262.747 279.204 262.889 279.491C263.033 279.775 263.233 279.991 263.489 280.141C263.744 280.287 264.042 280.361 264.38 280.361C264.6 280.361 264.799 280.33 264.977 280.268C265.157 280.205 265.312 280.11 265.442 279.984C265.572 279.857 265.673 279.698 265.744 279.509L266.553 279.736C266.468 280.01 266.325 280.252 266.124 280.46C265.923 280.666 265.674 280.827 265.378 280.943C265.082 281.057 264.749 281.114 264.38 281.114Z" fill="#8F8F8F"/>
<path d="M285.721 160.111V158.644L290.041 151.818H291.264V153.906H290.518L287.61 158.515V158.594H293.641V160.111H285.721ZM290.578 162V159.663L290.598 159.007V151.818H292.338V162H290.578ZM295.502 162L299.832 153.429V153.359H294.806V151.818H301.741V153.394L297.416 162H295.502ZM308.69 160.091V159.554C308.69 159.16 308.773 158.797 308.938 158.465C309.107 158.134 309.353 157.867 309.674 157.665C309.996 157.463 310.385 157.362 310.842 157.362C311.313 157.362 311.707 157.463 312.026 157.665C312.344 157.864 312.584 158.129 312.747 158.46C312.912 158.792 312.995 159.156 312.995 159.554V160.091C312.995 160.485 312.912 160.848 312.747 161.18C312.581 161.511 312.337 161.778 312.016 161.98C311.698 162.182 311.306 162.283 310.842 162.283C310.378 162.283 309.986 162.182 309.664 161.98C309.343 161.778 309.099 161.511 308.933 161.18C308.771 160.848 308.69 160.485 308.69 160.091ZM309.987 159.554V160.091C309.987 160.353 310.05 160.593 310.176 160.812C310.302 161.031 310.524 161.14 310.842 161.14C311.164 161.14 311.384 161.032 311.504 160.817C311.626 160.598 311.688 160.356 311.688 160.091V159.554C311.688 159.289 311.63 159.047 311.514 158.828C311.398 158.606 311.174 158.495 310.842 158.495C310.531 158.495 310.31 158.606 310.181 158.828C310.052 159.047 309.987 159.289 309.987 159.554ZM303.514 154.264V153.727C303.514 153.33 303.599 152.965 303.768 152.634C303.937 152.302 304.182 152.037 304.504 151.838C304.825 151.636 305.215 151.535 305.672 151.535C306.139 151.535 306.532 151.636 306.85 151.838C307.172 152.037 307.414 152.302 307.576 152.634C307.739 152.965 307.82 153.33 307.82 153.727V154.264C307.82 154.662 307.737 155.027 307.571 155.358C307.409 155.686 307.167 155.95 306.845 156.148C306.524 156.347 306.133 156.447 305.672 156.447C305.205 156.447 304.81 156.347 304.489 156.148C304.171 155.95 303.929 155.684 303.763 155.353C303.597 155.022 303.514 154.659 303.514 154.264ZM304.822 153.727V154.264C304.822 154.529 304.883 154.771 305.006 154.99C305.132 155.205 305.354 155.313 305.672 155.313C305.99 155.313 306.209 155.205 306.328 154.99C306.451 154.771 306.512 154.529 306.512 154.264V153.727C306.512 153.462 306.454 153.22 306.338 153.001C306.222 152.779 306 152.668 305.672 152.668C305.357 152.668 305.137 152.779 305.011 153.001C304.885 153.223 304.822 153.465 304.822 153.727ZM304.081 162L311.081 151.818H312.324L305.324 162H304.081Z" fill="black"/>
<path d="M347.858 155.545C347.815 155.186 347.643 154.906 347.339 154.707C347.036 154.509 346.665 154.409 346.224 154.409C345.902 154.409 345.621 154.461 345.379 154.565C345.14 154.67 344.953 154.813 344.818 154.995C344.686 155.177 344.619 155.384 344.619 155.616C344.619 155.811 344.665 155.978 344.758 156.117C344.853 156.254 344.973 156.369 345.12 156.462C345.267 156.552 345.421 156.626 345.582 156.685C345.743 156.742 345.891 156.788 346.026 156.824L346.764 157.023C346.954 157.072 347.164 157.141 347.396 157.229C347.631 157.316 347.854 157.436 348.067 157.587C348.283 157.737 348.46 157.928 348.6 158.163C348.74 158.397 348.81 158.685 348.81 159.026C348.81 159.419 348.707 159.774 348.501 160.091C348.297 160.408 347.999 160.66 347.606 160.847C347.215 161.034 346.741 161.128 346.182 161.128C345.661 161.128 345.21 161.044 344.829 160.876C344.45 160.708 344.152 160.473 343.934 160.173C343.719 159.872 343.597 159.523 343.568 159.125H344.477C344.501 159.4 344.593 159.627 344.754 159.807C344.918 159.984 345.124 160.117 345.372 160.205C345.623 160.29 345.893 160.332 346.182 160.332C346.518 160.332 346.82 160.278 347.087 160.169C347.355 160.058 347.567 159.904 347.723 159.707C347.879 159.509 347.957 159.277 347.957 159.011C347.957 158.77 347.89 158.573 347.755 158.422C347.62 158.27 347.442 158.147 347.222 158.053C347.002 157.958 346.764 157.875 346.509 157.804L345.614 157.548C345.045 157.385 344.596 157.152 344.264 156.849C343.933 156.546 343.767 156.149 343.767 155.659C343.767 155.252 343.877 154.897 344.097 154.594C344.32 154.288 344.618 154.052 344.992 153.884C345.369 153.713 345.789 153.628 346.253 153.628C346.722 153.628 347.138 153.712 347.503 153.88C347.867 154.046 348.156 154.273 348.369 154.562C348.585 154.851 348.698 155.179 348.71 155.545H347.858ZM351.749 161.128C351.403 161.128 351.09 161.063 350.808 160.933C350.526 160.8 350.303 160.609 350.137 160.361C349.971 160.11 349.888 159.807 349.888 159.452C349.888 159.139 349.95 158.886 350.073 158.692C350.196 158.495 350.361 158.341 350.567 158.23C350.773 158.119 351 158.036 351.248 157.982C351.499 157.925 351.751 157.88 352.005 157.847C352.336 157.804 352.605 157.772 352.811 157.751C353.019 157.727 353.171 157.688 353.265 157.634C353.363 157.579 353.411 157.484 353.411 157.349V157.321C353.411 156.971 353.315 156.698 353.123 156.504C352.934 156.31 352.646 156.213 352.26 156.213C351.86 156.213 351.547 156.301 351.319 156.476C351.092 156.651 350.932 156.838 350.84 157.037L350.045 156.753C350.187 156.421 350.376 156.163 350.613 155.979C350.852 155.792 351.112 155.661 351.394 155.588C351.678 155.512 351.957 155.474 352.232 155.474C352.407 155.474 352.608 155.496 352.836 155.538C353.065 155.579 353.287 155.663 353.5 155.79C353.715 155.918 353.894 156.111 354.036 156.369C354.178 156.627 354.249 156.973 354.249 157.406V161H353.411V160.261H353.368C353.312 160.38 353.217 160.506 353.084 160.641C352.952 160.776 352.775 160.891 352.555 160.986C352.335 161.08 352.066 161.128 351.749 161.128ZM351.877 160.375C352.208 160.375 352.488 160.31 352.715 160.18C352.945 160.049 353.117 159.881 353.233 159.675C353.352 159.469 353.411 159.253 353.411 159.026V158.259C353.376 158.301 353.297 158.34 353.177 158.376C353.058 158.409 352.921 158.438 352.765 158.464C352.611 158.488 352.461 158.509 352.314 158.528C352.169 158.545 352.052 158.559 351.962 158.571C351.744 158.599 351.541 158.646 351.351 158.71C351.164 158.771 351.013 158.865 350.897 158.99C350.783 159.113 350.726 159.281 350.726 159.494C350.726 159.786 350.834 160.006 351.05 160.155C351.267 160.302 351.543 160.375 351.877 160.375ZM360.044 155.545L358.027 161H357.174L355.157 155.545H356.066L357.572 159.892H357.629L359.135 155.545H360.044ZM361.15 161V155.545H361.988V161H361.15ZM361.576 154.636C361.413 154.636 361.272 154.581 361.153 154.469C361.037 154.358 360.979 154.224 360.979 154.068C360.979 153.912 361.037 153.778 361.153 153.667C361.272 153.556 361.413 153.5 361.576 153.5C361.739 153.5 361.879 153.556 361.995 153.667C362.113 153.778 362.173 153.912 362.173 154.068C362.173 154.224 362.113 154.358 361.995 154.469C361.879 154.581 361.739 154.636 361.576 154.636ZM364.361 157.719V161H363.523V155.545H364.333V156.398H364.404C364.531 156.121 364.726 155.898 364.986 155.73C365.246 155.56 365.583 155.474 365.994 155.474C366.364 155.474 366.687 155.55 366.964 155.702C367.241 155.851 367.456 156.078 367.61 156.384C367.764 156.687 367.841 157.07 367.841 157.534V161H367.003V157.591C367.003 157.162 366.892 156.829 366.669 156.589C366.447 156.348 366.141 156.227 365.753 156.227C365.485 156.227 365.246 156.285 365.036 156.401C364.827 156.517 364.663 156.687 364.542 156.909C364.421 157.132 364.361 157.402 364.361 157.719ZM371.574 163.159C371.169 163.159 370.821 163.107 370.53 163.003C370.239 162.901 369.996 162.766 369.802 162.598C369.61 162.432 369.458 162.255 369.344 162.065L370.012 161.597C370.087 161.696 370.183 161.81 370.299 161.938C370.415 162.068 370.574 162.18 370.775 162.275C370.979 162.372 371.245 162.42 371.574 162.42C372.015 162.42 372.378 162.314 372.664 162.101C372.951 161.888 373.094 161.554 373.094 161.099V159.991H373.023C372.962 160.091 372.874 160.214 372.76 160.361C372.649 160.505 372.488 160.634 372.277 160.748C372.069 160.859 371.787 160.915 371.432 160.915C370.992 160.915 370.596 160.811 370.246 160.602C369.898 160.394 369.622 160.091 369.419 159.693C369.217 159.295 369.117 158.812 369.117 158.244C369.117 157.686 369.215 157.199 369.412 156.785C369.608 156.368 369.882 156.046 370.232 155.819C370.582 155.589 370.987 155.474 371.446 155.474C371.801 155.474 372.083 155.534 372.292 155.652C372.502 155.768 372.663 155.901 372.775 156.05C372.888 156.196 372.976 156.317 373.037 156.412H373.123V155.545H373.932V161.156C373.932 161.625 373.826 162.006 373.613 162.3C373.402 162.596 373.118 162.812 372.76 162.95C372.405 163.089 372.01 163.159 371.574 163.159ZM371.546 160.162C371.882 160.162 372.166 160.085 372.398 159.931C372.63 159.777 372.806 159.556 372.927 159.267C373.048 158.978 373.108 158.633 373.108 158.23C373.108 157.837 373.049 157.49 372.931 157.19C372.812 156.889 372.637 156.653 372.405 156.483C372.173 156.312 371.887 156.227 371.546 156.227C371.191 156.227 370.895 156.317 370.658 156.497C370.424 156.677 370.247 156.919 370.129 157.222C370.013 157.525 369.955 157.861 369.955 158.23C369.955 158.609 370.014 158.944 370.132 159.235C370.253 159.524 370.431 159.751 370.665 159.917C370.902 160.08 371.195 160.162 371.546 160.162Z" fill="#8F8F8F"/>
<g filter="url(#filter0_d_20272_11382)">
<rect x="250" y="192" width="60" height="60" rx="30" fill="#FF9500" shape-rendering="crispEdges"/>
<g clip-path="url(#clip2_20272_11382)">
<path d="M289.75 222V229.5C289.75 230.494 289.355 231.448 288.652 232.151C287.948 232.855 286.995 233.25 286 233.25H280.75C280.551 233.25 280.36 233.171 280.22 233.03C280.079 232.889 280 232.699 280 232.5C280 232.301 280.079 232.11 280.22 231.969C280.36 231.829 280.551 231.75 280.75 231.75H286C286.597 231.75 287.169 231.513 287.591 231.091C288.013 230.669 288.25 230.096 288.25 229.5H286C285.403 229.5 284.831 229.263 284.409 228.841C283.987 228.419 283.75 227.846 283.75 227.25V223.5C283.75 222.903 283.987 222.331 284.409 221.909C284.831 221.487 285.403 221.25 286 221.25H288.217C288.075 219.691 287.493 218.204 286.537 216.964C285.582 215.723 284.294 214.78 282.822 214.245C281.351 213.71 279.758 213.604 278.229 213.94C276.7 214.276 275.298 215.041 274.188 216.144C272.806 217.507 271.954 219.317 271.784 221.25H274C274.597 221.25 275.169 221.487 275.591 221.909C276.013 222.331 276.25 222.903 276.25 223.5V227.25C276.25 227.846 276.013 228.419 275.591 228.841C275.169 229.263 274.597 229.5 274 229.5H272.5C271.903 229.5 271.331 229.263 270.909 228.841C270.487 228.419 270.25 227.846 270.25 227.25V222C270.252 220.068 270.827 218.181 271.902 216.577C272.978 214.972 274.505 213.723 276.29 212.987C278.076 212.251 280.039 212.061 281.933 212.441C283.826 212.822 285.565 213.755 286.927 215.124C287.827 216.028 288.539 217.101 289.024 218.281C289.508 219.46 289.755 220.724 289.75 222Z" fill="white"/>
</g>
</g>
</g>
<defs>
<filter id="filter0_d_20272_11382" x="234" y="186" width="92" height="92" filterUnits="userSpaceOnUse" color-interpolation-filters="sRGB">
<feFlood flood-opacity="0" result="BackgroundImageFix"/>
<feColorMatrix in="SourceAlpha" type="matrix" values="0 0 0 0 0 0 0 0 0 0 0 0 0 0 0 0 0 0 127 0" result="hardAlpha"/>
<feOffset dy="10"/>
<feGaussianBlur stdDeviation="8"/>
<feComposite in2="hardAlpha" operator="out"/>
<feColorMatrix type="matrix" values="0 0 0 0 0.42413 0 0 0 0 0.433567 0 0 0 0 0.453933 0 0 0 0.2 0"/>
<feBlend mode="normal" in2="BackgroundImageFix" result="effect1_dropShadow_20272_11382"/>
<feBlend mode="normal" in="SourceGraphic" in2="effect1_dropShadow_20272_11382" result="shape"/>
</filter>
<radialGradient id="paint0_radial_20272_11382" cx="0" cy="0" r="1" gradientUnits="userSpaceOnUse" gradientTransform="translate(223.5 372) rotate(-90) scale(278.663 334.845)">
<stop stop-color="white"/>
<stop offset="1" stop-color="#F5F8FF"/>
</radialGradient>
<radialGradient id="paint1_radial_20272_11382" cx="0" cy="0" r="1" gradientUnits="userSpaceOnUse" gradientTransform="translate(223.5 80.25) rotate(90) scale(438.75 224.717)">
<stop stop-color="white" stop-opacity="0"/>
<stop offset="1" stop-color="white"/>
</radialGradient>
<radialGradient id="paint2_radial_20272_11382" cx="0" cy="0" r="1" gradientUnits="userSpaceOnUse" gradientTransform="translate(330 190.773) rotate(90) scale(154.227 59.6992)">
<stop stop-color="white" stop-opacity="0"/>
<stop offset="1" stop-color="white"/>
</radialGradient>
<linearGradient id="paint3_linear_20272_11382" x1="170" y1="291" x2="219.646" y2="392.886" gradientUnits="userSpaceOnUse">
<stop stop-color="#2D58A7"/>
<stop offset="1" stop-color="#4A96F8"/>
</linearGradient>
<radialGradient id="paint4_radial_20272_11382" cx="0" cy="0" r="1" gradientUnits="userSpaceOnUse" gradientTransform="translate(223.5 297.136) rotate(90) scale(47.8636 60.2624)">
<stop stop-opacity="0"/>
<stop offset="1"/>
</radialGradient>
<clipPath id="clip0_20272_11382">
<rect width="447" height="372" rx="30" fill="white"/>
</clipPath>
<clipPath id="clip1_20272_11382">
<rect x="64" y="345" width="137" height="106" rx="10" transform="rotate(-90 64 345)" fill="white"/>
</clipPath>
<clipPath id="clip2_20272_11382">
<rect width="24" height="24" fill="white" transform="translate(268 210)"/>
</clipPath>
</defs>
</svg>
