<svg width="447" height="372" viewBox="0 0 447 372" fill="none" xmlns="http://www.w3.org/2000/svg">
<g clip-path="url(#clip0_20272_11111)">
<rect width="447" height="372" rx="30" fill="url(#paint0_radial_20272_11111)"/>
<rect x="24" y="24" width="399" height="495" rx="40" fill="#93CCFD"/>
<rect x="24" y="24" width="399" height="495" rx="40" fill="url(#paint1_radial_20272_11111)" fill-opacity="0.7"/>
<rect x="36" y="36" width="375" height="495" rx="40" fill="white"/>
<g clip-path="url(#clip1_20272_11111)">
<path d="M84 151.75C80.7861 151.75 77.6443 152.703 74.972 154.489C72.2997 156.274 70.2169 158.812 68.987 161.781C67.757 164.751 67.4352 168.018 68.0622 171.17C68.6893 174.322 70.2369 177.218 72.5095 179.49C74.7821 181.763 77.6776 183.311 80.8298 183.938C83.982 184.565 87.2493 184.243 90.2186 183.013C93.1879 181.783 95.7258 179.7 97.5114 177.028C99.297 174.356 100.25 171.214 100.25 168C100.245 163.692 98.5319 159.561 95.4855 156.515C92.439 153.468 88.3084 151.755 84 151.75ZM91.1344 165.134L82.3844 173.884C82.2683 174.001 82.1304 174.093 81.9787 174.156C81.8269 174.219 81.6643 174.251 81.5 174.251C81.3357 174.251 81.1731 174.219 81.0213 174.156C80.8696 174.093 80.7317 174.001 80.6156 173.884L76.8656 170.134C76.6311 169.9 76.4993 169.582 76.4993 169.25C76.4993 168.918 76.6311 168.6 76.8656 168.366C77.1002 168.131 77.4183 167.999 77.75 167.999C78.0817 167.999 78.3998 168.131 78.6344 168.366L81.5 171.233L89.3656 163.366C89.4818 163.249 89.6196 163.157 89.7714 163.095C89.9231 163.032 90.0858 162.999 90.25 162.999C90.4143 162.999 90.5769 163.032 90.7286 163.095C90.8804 163.157 91.0182 163.249 91.1344 163.366C91.2505 163.482 91.3426 163.62 91.4055 163.771C91.4684 163.923 91.5007 164.086 91.5007 164.25C91.5007 164.414 91.4684 164.577 91.4055 164.729C91.3426 164.88 91.2505 165.018 91.1344 165.134Z" fill="#33C181"/>
</g>
<rect x="112" y="157" width="82" height="10" rx="5" fill="#DFE4EA"/>
<rect x="112" y="171" width="148" height="8" rx="4" fill="#F1F4F8"/>
<g clip-path="url(#clip2_20272_11111)">
<path d="M84 207.75C80.7861 207.75 77.6443 208.703 74.972 210.489C72.2997 212.274 70.2169 214.812 68.987 217.781C67.757 220.751 67.4352 224.018 68.0622 227.17C68.6893 230.322 70.2369 233.218 72.5095 235.49C74.7821 237.763 77.6776 239.311 80.8298 239.938C83.982 240.565 87.2493 240.243 90.2186 239.013C93.1879 237.783 95.7258 235.7 97.5114 233.028C99.297 230.356 100.25 227.214 100.25 224C100.245 219.692 98.5319 215.561 95.4855 212.515C92.439 209.468 88.3084 207.755 84 207.75ZM91.1344 221.134L82.3844 229.884C82.2683 230.001 82.1304 230.093 81.9787 230.156C81.8269 230.219 81.6643 230.251 81.5 230.251C81.3357 230.251 81.1731 230.219 81.0213 230.156C80.8696 230.093 80.7317 230.001 80.6156 229.884L76.8656 226.134C76.6311 225.9 76.4993 225.582 76.4993 225.25C76.4993 224.918 76.6311 224.6 76.8656 224.366C77.1002 224.131 77.4183 223.999 77.75 223.999C78.0817 223.999 78.3998 224.131 78.6344 224.366L81.5 227.233L89.3656 219.366C89.4818 219.249 89.6196 219.157 89.7714 219.095C89.9231 219.032 90.0858 218.999 90.25 218.999C90.4143 218.999 90.5769 219.032 90.7286 219.095C90.8804 219.157 91.0182 219.249 91.1344 219.366C91.2505 219.482 91.3426 219.62 91.4055 219.771C91.4684 219.923 91.5007 220.086 91.5007 220.25C91.5007 220.414 91.4684 220.577 91.4055 220.729C91.3426 220.88 91.2505 221.018 91.1344 221.134Z" fill="#D0D6E1"/>
</g>
<rect x="112" y="213" width="82" height="10" rx="5" fill="#DFE4EA"/>
<rect x="112" y="227" width="148" height="8" rx="4" fill="#F1F4F8"/>
<g clip-path="url(#clip3_20272_11111)">
<path d="M84 263.75C80.7861 263.75 77.6443 264.703 74.972 266.489C72.2997 268.274 70.2169 270.812 68.987 273.781C67.757 276.751 67.4352 280.018 68.0622 283.17C68.6893 286.322 70.2369 289.218 72.5095 291.49C74.7821 293.763 77.6776 295.311 80.8298 295.938C83.982 296.565 87.2493 296.243 90.2186 295.013C93.1879 293.783 95.7258 291.7 97.5114 289.028C99.297 286.356 100.25 283.214 100.25 280C100.245 275.692 98.5319 271.561 95.4855 268.515C92.439 265.468 88.3084 263.755 84 263.75ZM91.1344 277.134L82.3844 285.884C82.2683 286.001 82.1304 286.093 81.9787 286.156C81.8269 286.219 81.6643 286.251 81.5 286.251C81.3357 286.251 81.1731 286.219 81.0213 286.156C80.8696 286.093 80.7317 286.001 80.6156 285.884L76.8656 282.134C76.6311 281.9 76.4993 281.582 76.4993 281.25C76.4993 280.918 76.6311 280.6 76.8656 280.366C77.1002 280.131 77.4183 279.999 77.75 279.999C78.0817 279.999 78.3998 280.131 78.6344 280.366L81.5 283.233L89.3656 275.366C89.4818 275.249 89.6196 275.157 89.7714 275.095C89.9231 275.032 90.0858 274.999 90.25 274.999C90.4143 274.999 90.5769 275.032 90.7286 275.095C90.8804 275.157 91.0182 275.249 91.1344 275.366C91.2505 275.482 91.3426 275.62 91.4055 275.771C91.4684 275.923 91.5007 276.086 91.5007 276.25C91.5007 276.414 91.4684 276.577 91.4055 276.729C91.3426 276.88 91.2505 277.018 91.1344 277.134Z" fill="#D0D6E1"/>
</g>
<rect x="112" y="269" width="82" height="10" rx="5" fill="#DFE4EA"/>
<rect x="112" y="283" width="148" height="8" rx="4" fill="#F1F4F8"/>
<g filter="url(#filter0_f_20272_11111)">
<rect x="36" y="261" width="375" height="111" fill="white"/>
</g>
<rect x="68" y="308" width="311" height="44" rx="22" fill="#14326B"/>
<rect x="69" y="309" width="309" height="42" rx="21" stroke="white" stroke-opacity="0.2" stroke-width="2"/>
<path d="M201.312 335.5H199.343L202.928 325.318H205.205L208.794 335.5H206.825L204.106 327.406H204.026L201.312 335.5ZM201.376 331.508H206.746V332.989H201.376V331.508ZM213.084 335.649C212.322 335.649 211.667 335.482 211.12 335.147C210.577 334.812 210.158 334.35 209.863 333.76C209.571 333.167 209.425 332.484 209.425 331.712C209.425 330.936 209.574 330.252 209.872 329.658C210.171 329.062 210.592 328.598 211.135 328.266C211.682 327.932 212.328 327.764 213.074 327.764C213.694 327.764 214.243 327.879 214.72 328.107C215.2 328.333 215.583 328.652 215.868 329.067C216.153 329.478 216.316 329.958 216.355 330.509H214.635C214.566 330.141 214.4 329.834 214.138 329.589C213.88 329.34 213.533 329.216 213.099 329.216C212.731 329.216 212.408 329.315 212.13 329.514C211.851 329.71 211.634 329.991 211.478 330.359C211.326 330.727 211.25 331.168 211.25 331.682C211.25 332.202 211.326 332.65 211.478 333.024C211.631 333.395 211.845 333.682 212.12 333.884C212.398 334.083 212.725 334.183 213.099 334.183C213.364 334.183 213.601 334.133 213.81 334.033C214.022 333.931 214.199 333.783 214.342 333.591C214.484 333.399 214.582 333.165 214.635 332.89H216.355C216.312 333.43 216.153 333.909 215.878 334.327C215.603 334.741 215.229 335.066 214.755 335.301C214.281 335.533 213.724 335.649 213.084 335.649ZM221.094 335.649C220.332 335.649 219.677 335.482 219.13 335.147C218.587 334.812 218.168 334.35 217.873 333.76C217.581 333.167 217.435 332.484 217.435 331.712C217.435 330.936 217.584 330.252 217.883 329.658C218.181 329.062 218.602 328.598 219.145 328.266C219.692 327.932 220.339 327.764 221.084 327.764C221.704 327.764 222.253 327.879 222.73 328.107C223.21 328.333 223.593 328.652 223.878 329.067C224.163 329.478 224.326 329.958 224.366 330.509H222.645C222.576 330.141 222.41 329.834 222.148 329.589C221.89 329.34 221.543 329.216 221.109 329.216C220.741 329.216 220.418 329.315 220.14 329.514C219.861 329.71 219.644 329.991 219.488 330.359C219.336 330.727 219.26 331.168 219.26 331.682C219.26 332.202 219.336 332.65 219.488 333.024C219.641 333.395 219.855 333.682 220.13 333.884C220.408 334.083 220.735 334.183 221.109 334.183C221.374 334.183 221.611 334.133 221.82 334.033C222.032 333.931 222.209 333.783 222.352 333.591C222.495 333.399 222.592 333.165 222.645 332.89H224.366C224.322 333.43 224.163 333.909 223.888 334.327C223.613 334.741 223.239 335.066 222.765 335.301C222.291 335.533 221.734 335.649 221.094 335.649ZM229.154 335.649C228.388 335.649 227.727 335.49 227.17 335.172C226.617 334.85 226.191 334.396 225.893 333.81C225.594 333.22 225.445 332.525 225.445 331.727C225.445 330.941 225.594 330.252 225.893 329.658C226.194 329.062 226.615 328.598 227.155 328.266C227.696 327.932 228.33 327.764 229.06 327.764C229.53 327.764 229.974 327.84 230.392 327.993C230.813 328.142 231.184 328.374 231.506 328.689C231.83 329.004 232.086 329.405 232.271 329.892C232.457 330.376 232.55 330.953 232.55 331.622V332.174H226.29V330.961H230.824C230.821 330.616 230.747 330.31 230.601 330.041C230.455 329.769 230.251 329.556 229.989 329.4C229.731 329.244 229.429 329.166 229.084 329.166C228.716 329.166 228.393 329.256 228.115 329.435C227.837 329.61 227.619 329.842 227.464 330.131C227.311 330.416 227.233 330.729 227.23 331.07V332.129C227.23 332.573 227.311 332.955 227.474 333.273C227.636 333.588 227.863 333.83 228.155 333.999C228.446 334.164 228.788 334.247 229.179 334.247C229.441 334.247 229.678 334.211 229.89 334.138C230.102 334.062 230.286 333.951 230.442 333.805C230.597 333.659 230.715 333.478 230.795 333.263L232.475 333.452C232.369 333.896 232.167 334.284 231.868 334.615C231.574 334.943 231.196 335.198 230.735 335.381C230.274 335.56 229.747 335.649 229.154 335.649ZM234.002 338.364V327.864H235.772V329.126H235.876C235.969 328.941 236.1 328.744 236.269 328.535C236.438 328.323 236.667 328.142 236.955 327.993C237.244 327.84 237.612 327.764 238.059 327.764C238.649 327.764 239.181 327.915 239.655 328.217C240.132 328.515 240.51 328.957 240.788 329.544C241.07 330.127 241.211 330.843 241.211 331.692C241.211 332.53 241.073 333.243 240.798 333.83C240.523 334.416 240.149 334.864 239.675 335.172C239.201 335.48 238.664 335.634 238.064 335.634C237.626 335.634 237.264 335.561 236.975 335.415C236.687 335.27 236.455 335.094 236.279 334.888C236.107 334.68 235.973 334.482 235.876 334.297H235.802V338.364H234.002ZM235.767 331.682C235.767 332.176 235.837 332.608 235.976 332.979C236.118 333.351 236.322 333.641 236.587 333.849C236.856 334.055 237.181 334.158 237.562 334.158C237.96 334.158 238.293 334.052 238.561 333.839C238.83 333.624 239.032 333.331 239.168 332.96C239.307 332.585 239.376 332.159 239.376 331.682C239.376 331.208 239.308 330.787 239.173 330.419C239.037 330.051 238.835 329.763 238.566 329.554C238.298 329.345 237.963 329.241 237.562 329.241C237.177 329.241 236.851 329.342 236.582 329.544C236.314 329.746 236.11 330.03 235.971 330.394C235.835 330.759 235.767 331.188 235.767 331.682ZM246.495 327.864V329.256H242.105V327.864H246.495ZM243.189 326.034H244.989V333.203C244.989 333.445 245.025 333.631 245.098 333.76C245.175 333.886 245.274 333.972 245.397 334.018C245.519 334.065 245.655 334.088 245.804 334.088C245.917 334.088 246.02 334.08 246.113 334.063C246.209 334.047 246.282 334.032 246.331 334.018L246.635 335.425C246.538 335.459 246.401 335.495 246.222 335.535C246.046 335.575 245.831 335.598 245.576 335.604C245.125 335.618 244.719 335.55 244.358 335.401C243.996 335.248 243.71 335.013 243.497 334.695C243.289 334.376 243.186 333.979 243.189 333.501V326.034Z" fill="white"/>
<path d="M64.1523 89L70.3867 71.5391H74.2773L80.4883 89H77.0781L75.6836 84.8281H68.9102L67.4805 89H64.1523ZM69.7773 82.2852H74.8398L74.0195 79.8242C73.7617 79.0195 73.4961 78.1797 73.2227 77.3047C72.957 76.4297 72.6602 75.4414 72.332 74.3398C72.0039 75.4414 71.7031 76.4297 71.4297 77.3047C71.1562 78.1797 70.8867 79.0195 70.6211 79.8242L69.7773 82.2852ZM88.0328 89.2461C87.2203 89.2461 86.4859 89.0703 85.8297 88.7188C85.1812 88.3672 84.6656 87.832 84.2828 87.1133H84.2594V89H81.3531V71.5391H84.3062V78.3828H84.3297C84.7281 77.7031 85.2477 77.1992 85.8883 76.8711C86.5289 76.543 87.2477 76.3789 88.0445 76.3789C89.107 76.3789 90.0367 76.6523 90.8336 77.1992C91.6383 77.7383 92.2633 78.4922 92.7086 79.4609C93.1617 80.4219 93.3883 81.5352 93.3883 82.8008C93.3883 84.0898 93.1656 85.2188 92.7203 86.1875C92.2828 87.1484 91.6617 87.8984 90.857 88.4375C90.0523 88.9766 89.1109 89.2461 88.0328 89.2461ZM87.3414 86.7734C88.2555 86.7734 88.9937 86.4336 89.5562 85.7539C90.1187 85.0664 90.4 84.082 90.4 82.8008C90.4 81.5273 90.1187 80.5469 89.5562 79.8594C88.9937 79.1719 88.2555 78.8281 87.3414 78.8281C86.3727 78.8281 85.5953 79.1914 85.0094 79.918C84.4312 80.6367 84.1422 81.5977 84.1422 82.8008C84.1422 84.0039 84.4312 84.9688 85.0094 85.6953C85.5953 86.4141 86.3727 86.7734 87.3414 86.7734ZM100.37 89.2812C99.1516 89.2812 98.0852 89.0117 97.1711 88.4727C96.257 87.9258 95.5422 87.168 95.0266 86.1992C94.5187 85.2305 94.2648 84.1055 94.2648 82.8242C94.2648 81.543 94.5187 80.418 95.0266 79.4492C95.5422 78.4727 96.257 77.7109 97.1711 77.1641C98.0852 76.6172 99.1516 76.3438 100.37 76.3438C101.581 76.3438 102.644 76.6172 103.558 77.1641C104.48 77.7109 105.195 78.4727 105.702 79.4492C106.218 80.418 106.476 81.543 106.476 82.8242C106.476 84.1055 106.218 85.2305 105.702 86.1992C105.195 87.168 104.48 87.9258 103.558 88.4727C102.644 89.0117 101.581 89.2812 100.37 89.2812ZM100.37 86.8086C101.316 86.8086 102.07 86.4531 102.632 85.7422C103.195 85.0312 103.476 84.0586 103.476 82.8242C103.476 81.5898 103.195 80.6133 102.632 79.8945C102.07 79.1758 101.316 78.8164 100.37 78.8164C99.4172 78.8164 98.6594 79.1758 98.0969 79.8945C97.5344 80.6055 97.2531 81.582 97.2531 82.8242C97.2531 84.0586 97.5344 85.0312 98.0969 85.7422C98.6594 86.4531 99.4172 86.8086 100.37 86.8086ZM112.333 89.2461C111.036 89.2461 109.977 88.8281 109.157 87.9922C108.337 87.1562 107.927 85.9453 107.927 84.3594V76.625H110.88V83.8906C110.88 84.7969 111.098 85.4844 111.536 85.9531C111.973 86.4219 112.587 86.6562 113.376 86.6562C114.157 86.6562 114.802 86.4141 115.309 85.9297C115.825 85.4453 116.083 84.6758 116.083 83.6211V76.625H119.048V89H116.141V87.1016C115.274 88.5312 114.005 89.2461 112.333 89.2461ZM127.612 76.625V79.0039H125.092V85.4492C125.092 85.8945 125.182 86.2031 125.362 86.375C125.541 86.5391 125.87 86.6211 126.346 86.6211H127.612V89H125.83C124.573 89 123.639 88.7461 123.03 88.2383C122.428 87.7305 122.127 86.9453 122.127 85.8828V79.0039H119.971V76.625H122.127V73.25H125.092V76.625H127.612ZM138.998 89V82.25L132.552 71.5391H136.115L139.267 76.918C139.486 77.293 139.701 77.6719 139.912 78.0547C140.123 78.4297 140.334 78.8086 140.545 79.1914C140.748 78.8086 140.951 78.4297 141.154 78.0547C141.365 77.6719 141.58 77.293 141.798 76.918L144.88 71.5391H148.431L142.045 82.25V89H138.998ZM152.144 89.2812C150.925 89.2812 149.859 89.0117 148.945 88.4727C148.03 87.9258 147.316 87.168 146.8 86.1992C146.292 85.2305 146.038 84.1055 146.038 82.8242C146.038 81.543 146.292 80.418 146.8 79.4492C147.316 78.4727 148.03 77.7109 148.945 77.1641C149.859 76.6172 150.925 76.3438 152.144 76.3438C153.355 76.3438 154.417 76.6172 155.331 77.1641C156.253 77.7109 156.968 78.4727 157.476 79.4492C157.991 80.418 158.249 81.543 158.249 82.8242C158.249 84.1055 157.991 85.2305 157.476 86.1992C156.968 87.168 156.253 87.9258 155.331 88.4727C154.417 89.0117 153.355 89.2812 152.144 89.2812ZM152.144 86.8086C153.089 86.8086 153.843 86.4531 154.405 85.7422C154.968 85.0312 155.249 84.0586 155.249 82.8242C155.249 81.5898 154.968 80.6133 154.405 79.8945C153.843 79.1758 153.089 78.8164 152.144 78.8164C151.191 78.8164 150.433 79.1758 149.87 79.8945C149.308 80.6055 149.027 81.582 149.027 82.8242C149.027 84.0586 149.308 85.0312 149.87 85.7422C150.433 86.4531 151.191 86.8086 152.144 86.8086ZM164.106 89.2461C162.809 89.2461 161.751 88.8281 160.93 87.9922C160.11 87.1562 159.7 85.9453 159.7 84.3594V76.625H162.653V83.8906C162.653 84.7969 162.872 85.4844 163.309 85.9531C163.747 86.4219 164.36 86.6562 165.149 86.6562C165.93 86.6562 166.575 86.4141 167.083 85.9297C167.598 85.4453 167.856 84.6758 167.856 83.6211V76.625H170.821V89H167.915V87.1016C167.048 88.5312 165.778 89.2461 164.106 89.2461ZM172.858 89V76.625H175.705V78.6758H175.741C175.967 77.9727 176.323 77.4375 176.807 77.0703C177.299 76.6953 177.944 76.5078 178.741 76.5078C178.944 76.5078 179.123 76.5156 179.28 76.5312C179.444 76.5391 179.584 76.5469 179.702 76.5547V79.1797C179.592 79.1641 179.405 79.1445 179.139 79.1211C178.873 79.0977 178.596 79.0859 178.307 79.0859C177.604 79.0859 177.01 79.3281 176.526 79.8125C176.049 80.2969 175.811 81.0234 175.811 81.9922V89H172.858ZM73.0703 121.281C71.4609 121.281 70.0391 120.91 68.8047 120.168C67.5703 119.426 66.6016 118.379 65.8984 117.027C65.1953 115.676 64.8438 114.094 64.8438 112.281C64.8438 110.453 65.1953 108.863 65.8984 107.512C66.6016 106.16 67.5703 105.113 68.8047 104.371C70.0391 103.629 71.4609 103.258 73.0703 103.258C74.3828 103.258 75.5703 103.516 76.6328 104.031C77.6953 104.547 78.5703 105.273 79.2578 106.211C79.9531 107.148 80.3984 108.254 80.5938 109.527H77.4414C77.207 108.418 76.7031 107.559 75.9297 106.949C75.1562 106.34 74.2109 106.035 73.0938 106.035C72.0312 106.035 71.1133 106.293 70.3398 106.809C69.5742 107.324 68.9844 108.051 68.5703 108.988C68.1641 109.926 67.9609 111.023 67.9609 112.281C67.9609 113.531 68.1641 114.625 68.5703 115.562C68.9844 116.492 69.5742 117.215 70.3398 117.73C71.1055 118.246 72.0234 118.504 73.0938 118.504C74.2031 118.504 75.1445 118.203 75.918 117.602C76.6914 117 77.2031 116.145 77.4531 115.035H80.5938C80.3984 116.309 79.9531 117.414 79.2578 118.352C78.5703 119.281 77.6953 120.004 76.6328 120.52C75.5703 121.027 74.3828 121.281 73.0703 121.281ZM87.6344 121.281C86.4156 121.281 85.3492 121.012 84.4352 120.473C83.5211 119.926 82.8062 119.168 82.2906 118.199C81.7828 117.23 81.5289 116.105 81.5289 114.824C81.5289 113.543 81.7828 112.418 82.2906 111.449C82.8062 110.473 83.5211 109.711 84.4352 109.164C85.3492 108.617 86.4156 108.344 87.6344 108.344C88.8453 108.344 89.9078 108.617 90.8219 109.164C91.7437 109.711 92.4586 110.473 92.9664 111.449C93.482 112.418 93.7398 113.543 93.7398 114.824C93.7398 116.105 93.482 117.23 92.9664 118.199C92.4586 119.168 91.7437 119.926 90.8219 120.473C89.9078 121.012 88.8453 121.281 87.6344 121.281ZM87.6344 118.809C88.5797 118.809 89.3336 118.453 89.8961 117.742C90.4586 117.031 90.7398 116.059 90.7398 114.824C90.7398 113.59 90.4586 112.613 89.8961 111.895C89.3336 111.176 88.5797 110.816 87.6344 110.816C86.6812 110.816 85.9234 111.176 85.3609 111.895C84.7984 112.605 84.5172 113.582 84.5172 114.824C84.5172 116.059 84.7984 117.031 85.3609 117.742C85.9234 118.453 86.6812 118.809 87.6344 118.809ZM95.1906 121V108.625H98.05V110.77C98.425 109.973 98.9445 109.375 99.6086 108.977C100.273 108.578 100.995 108.379 101.777 108.379C102.612 108.379 103.351 108.594 103.991 109.023C104.632 109.445 105.081 110.012 105.339 110.723C105.667 110.012 106.179 109.445 106.874 109.023C107.57 108.594 108.37 108.379 109.277 108.379C110.448 108.379 111.433 108.758 112.23 109.516C113.027 110.273 113.425 111.379 113.425 112.832V121H110.46V113.254C110.46 112.434 110.234 111.836 109.78 111.461C109.335 111.078 108.796 110.887 108.163 110.887C107.413 110.887 106.82 111.121 106.382 111.59C105.952 112.059 105.737 112.664 105.737 113.406V121H102.866V113.113C102.866 112.441 102.655 111.902 102.234 111.496C101.812 111.09 101.273 110.887 100.616 110.887C99.9523 110.887 99.3742 111.121 98.882 111.59C98.3898 112.051 98.1437 112.727 98.1437 113.617V121H95.1906ZM115.45 125.898V108.625H118.356V110.348H118.391C118.782 109.691 119.305 109.199 119.962 108.871C120.618 108.543 121.345 108.379 122.141 108.379C123.204 108.379 124.134 108.652 124.93 109.199C125.735 109.738 126.36 110.492 126.805 111.461C127.259 112.422 127.485 113.535 127.485 114.801C127.485 116.09 127.263 117.219 126.817 118.188C126.38 119.148 125.759 119.898 124.954 120.438C124.149 120.977 123.208 121.246 122.13 121.246C121.317 121.246 120.595 121.07 119.962 120.719C119.337 120.367 118.829 119.84 118.438 119.137H118.403V125.898H115.45ZM121.438 118.773C122.352 118.773 123.091 118.434 123.653 117.754C124.216 117.066 124.497 116.082 124.497 114.801C124.497 113.527 124.216 112.547 123.653 111.859C123.091 111.172 122.352 110.828 121.438 110.828C120.47 110.828 119.692 111.191 119.106 111.918C118.528 112.637 118.239 113.598 118.239 114.801C118.239 116.004 118.528 116.969 119.106 117.695C119.692 118.414 120.47 118.773 121.438 118.773ZM132.873 121.199C131.639 121.199 130.616 120.891 129.803 120.273C128.998 119.648 128.596 118.719 128.596 117.484C128.596 116.547 128.823 115.824 129.276 115.316C129.737 114.801 130.334 114.426 131.069 114.191C131.811 113.957 132.608 113.797 133.459 113.711C134.608 113.578 135.409 113.461 135.862 113.359C136.315 113.258 136.541 112.996 136.541 112.574V112.48C136.541 111.949 136.338 111.516 135.932 111.18C135.534 110.844 134.983 110.676 134.28 110.676C133.561 110.676 132.975 110.844 132.522 111.18C132.077 111.516 131.834 111.945 131.795 112.469H128.948C129.018 111.242 129.53 110.254 130.483 109.504C131.436 108.754 132.721 108.379 134.338 108.379C135.948 108.379 137.205 108.754 138.112 109.504C139.018 110.254 139.471 111.273 139.471 112.562V121H136.565V119.254H136.518C136.221 119.801 135.791 120.262 135.229 120.637C134.666 121.012 133.881 121.199 132.873 121.199ZM133.6 119.008C134.569 119.008 135.303 118.758 135.803 118.258C136.303 117.75 136.553 117.137 136.553 116.418V115.082C136.373 115.199 136.026 115.309 135.51 115.41C134.995 115.504 134.432 115.598 133.823 115.691C133.19 115.785 132.639 115.965 132.17 116.23C131.709 116.488 131.479 116.898 131.479 117.461C131.479 117.945 131.67 118.324 132.053 118.598C132.436 118.871 132.952 119.008 133.6 119.008ZM144.438 114.004V121H141.484V108.625H144.391V110.523C145.25 109.094 146.516 108.379 148.188 108.379C149.484 108.379 150.543 108.797 151.363 109.633C152.191 110.469 152.605 111.68 152.605 113.266V121H149.641V113.734C149.641 112.828 149.422 112.141 148.984 111.672C148.547 111.203 147.934 110.969 147.145 110.969C146.371 110.969 145.727 111.211 145.211 111.695C144.695 112.18 144.438 112.949 144.438 114.004ZM154.326 125.898V123.496H155.791C156.189 123.496 156.498 123.387 156.716 123.168C156.943 122.957 157.142 122.609 157.314 122.125L157.771 120.93L153.002 108.625H156.13L158.404 115.07C158.56 115.531 158.713 115.992 158.861 116.453C159.009 116.906 159.154 117.359 159.295 117.812C159.576 116.906 159.873 115.992 160.185 115.07L162.447 108.625H165.541L160.009 123.039C159.275 124.945 158.025 125.898 156.259 125.898H154.326Z" fill="black"/>
<g filter="url(#filter1_d_20272_11111)">
<rect x="314" y="89" width="60" height="60" rx="30" fill="#FF9500" shape-rendering="crispEdges"/>
<g clip-path="url(#clip4_20272_11111)">
<path d="M342.5 125C346.642 125 350 121.642 350 117.5C350 113.358 346.642 110 342.5 110C338.358 110 335 113.358 335 117.5C335 121.642 338.358 125 342.5 125Z" stroke="white" stroke-width="3" stroke-linecap="round" stroke-linejoin="round"/>
<path d="M347.804 122.804L353 128" stroke="white" stroke-width="3" stroke-linecap="round" stroke-linejoin="round"/>
</g>
</g>
</g>
<defs>
<filter id="filter0_f_20272_11111" x="-28" y="197" width="503" height="239" filterUnits="userSpaceOnUse" color-interpolation-filters="sRGB">
<feFlood flood-opacity="0" result="BackgroundImageFix"/>
<feBlend mode="normal" in="SourceGraphic" in2="BackgroundImageFix" result="shape"/>
<feGaussianBlur stdDeviation="32" result="effect1_foregroundBlur_20272_11111"/>
</filter>
<filter id="filter1_d_20272_11111" x="298" y="83" width="92" height="92" filterUnits="userSpaceOnUse" color-interpolation-filters="sRGB">
<feFlood flood-opacity="0" result="BackgroundImageFix"/>
<feColorMatrix in="SourceAlpha" type="matrix" values="0 0 0 0 0 0 0 0 0 0 0 0 0 0 0 0 0 0 127 0" result="hardAlpha"/>
<feOffset dy="10"/>
<feGaussianBlur stdDeviation="8"/>
<feComposite in2="hardAlpha" operator="out"/>
<feColorMatrix type="matrix" values="0 0 0 0 0.42413 0 0 0 0 0.433567 0 0 0 0 0.453933 0 0 0 0.2 0"/>
<feBlend mode="normal" in2="BackgroundImageFix" result="effect1_dropShadow_20272_11111"/>
<feBlend mode="normal" in="SourceGraphic" in2="effect1_dropShadow_20272_11111" result="shape"/>
</filter>
<radialGradient id="paint0_radial_20272_11111" cx="0" cy="0" r="1" gradientUnits="userSpaceOnUse" gradientTransform="translate(223.5 372) rotate(-90) scale(278.663 334.845)">
<stop stop-color="white"/>
<stop offset="1" stop-color="#F5F8FF"/>
</radialGradient>
<radialGradient id="paint1_radial_20272_11111" cx="0" cy="0" r="1" gradientUnits="userSpaceOnUse" gradientTransform="translate(223.5 80.25) rotate(90) scale(438.75 224.717)">
<stop stop-color="white" stop-opacity="0"/>
<stop offset="1" stop-color="white"/>
</radialGradient>
<clipPath id="clip0_20272_11111">
<rect width="447" height="372" rx="30" fill="white"/>
</clipPath>
<clipPath id="clip1_20272_11111">
<rect width="40" height="40" fill="white" transform="translate(64 148)"/>
</clipPath>
<clipPath id="clip2_20272_11111">
<rect width="40" height="40" fill="white" transform="translate(64 204)"/>
</clipPath>
<clipPath id="clip3_20272_11111">
<rect width="40" height="40" fill="white" transform="translate(64 260)"/>
</clipPath>
<clipPath id="clip4_20272_11111">
<rect width="24" height="24" fill="white" transform="translate(332 107)"/>
</clipPath>
</defs>
</svg>
