<svg width="447" height="372" viewBox="0 0 447 372" fill="none" xmlns="http://www.w3.org/2000/svg">
<g clip-path="url(#clip0_20272_11325)">
<rect width="447" height="372" rx="30" fill="url(#paint0_radial_20272_11325)"/>
<rect x="24" y="24" width="399" height="495" rx="40" fill="#93CCFD"/>
<rect x="24" y="24" width="399" height="495" rx="40" fill="url(#paint1_radial_20272_11325)" fill-opacity="0.7"/>
<rect x="36" y="36" width="375" height="495" rx="40" fill="white"/>
<path d="M65.4091 69.8636H67.0909L71.0455 79.5227H71.1818L75.1364 69.8636H76.8182V81.5H75.5V72.6591H75.3864L71.75 81.5H70.4773L66.8409 72.6591H66.7273V81.5H65.4091V69.8636ZM82.7071 81.6818C81.9192 81.6818 81.2279 81.4943 80.6332 81.1193C80.0423 80.7443 79.5802 80.2197 79.2469 79.5455C78.9173 78.8712 78.7526 78.0833 78.7526 77.1818C78.7526 76.2727 78.9173 75.4792 79.2469 74.8011C79.5802 74.1231 80.0423 73.5966 80.6332 73.2216C81.2279 72.8466 81.9192 72.6591 82.7071 72.6591C83.495 72.6591 84.1844 72.8466 84.7753 73.2216C85.37 73.5966 85.8321 74.1231 86.1616 74.8011C86.495 75.4792 86.6616 76.2727 86.6616 77.1818C86.6616 78.0833 86.495 78.8712 86.1616 79.5455C85.8321 80.2197 85.37 80.7443 84.7753 81.1193C84.1844 81.4943 83.495 81.6818 82.7071 81.6818ZM82.7071 80.4773C83.3056 80.4773 83.798 80.3239 84.1844 80.017C84.5707 79.7102 84.8567 79.3068 85.0423 78.8068C85.2279 78.3068 85.3207 77.7652 85.3207 77.1818C85.3207 76.5985 85.2279 76.0549 85.0423 75.5511C84.8567 75.0473 84.5707 74.6402 84.1844 74.3295C83.798 74.0189 83.3056 73.8636 82.7071 73.8636C82.1086 73.8636 81.6162 74.0189 81.2298 74.3295C80.8435 74.6402 80.5575 75.0473 80.3719 75.5511C80.1863 76.0549 80.0935 76.5985 80.0935 77.1818C80.0935 77.7652 80.1863 78.3068 80.3719 78.8068C80.5575 79.3068 80.8435 79.7102 81.2298 80.017C81.6162 80.3239 82.1086 80.4773 82.7071 80.4773ZM89.7494 76.25V81.5H88.4085V72.7727H89.704V74.1364H89.8176C90.0222 73.6932 90.3328 73.3371 90.7494 73.0682C91.1661 72.7955 91.704 72.6591 92.3631 72.6591C92.954 72.6591 93.471 72.7803 93.9142 73.0227C94.3574 73.2614 94.7021 73.625 94.9483 74.1136C95.1945 74.5985 95.3176 75.2121 95.3176 75.9545V81.5H93.9767V76.0455C93.9767 75.3598 93.7987 74.8258 93.4426 74.4432C93.0866 74.0568 92.5979 73.8636 91.9767 73.8636C91.5487 73.8636 91.1661 73.9564 90.829 74.142C90.4956 74.3277 90.2324 74.5985 90.0392 74.9545C89.846 75.3106 89.7494 75.7424 89.7494 76.25ZM101.263 72.7727V73.9091H96.7406V72.7727H101.263ZM98.0588 70.6818H99.3997V79C99.3997 79.3788 99.4546 79.6629 99.5645 79.8523C99.6781 80.0379 99.8221 80.1629 99.9963 80.2273C100.174 80.2879 100.362 80.3182 100.559 80.3182C100.707 80.3182 100.828 80.3106 100.922 80.2955C101.017 80.2765 101.093 80.2614 101.15 80.25L101.422 81.4545C101.332 81.4886 101.205 81.5227 101.042 81.5568C100.879 81.5947 100.672 81.6136 100.422 81.6136C100.044 81.6136 99.6724 81.5322 99.3088 81.3693C98.949 81.2064 98.6497 80.9583 98.4111 80.625C98.1762 80.2917 98.0588 79.8712 98.0588 79.3636V70.6818ZM104.509 76.25V81.5H103.168V69.8636H104.509V74.1364H104.622C104.827 73.6856 105.134 73.3277 105.543 73.0625C105.956 72.7936 106.505 72.6591 107.191 72.6591C107.785 72.6591 108.306 72.7784 108.753 73.017C109.2 73.2519 109.547 73.6136 109.793 74.1023C110.043 74.5871 110.168 75.2045 110.168 75.9545V81.5H108.827V76.0455C108.827 75.3523 108.647 74.8163 108.287 74.4375C107.931 74.0549 107.437 73.8636 106.804 73.8636C106.365 73.8636 105.971 73.9564 105.622 74.142C105.278 74.3277 105.005 74.5985 104.804 74.9545C104.607 75.3106 104.509 75.7424 104.509 76.25ZM113.662 69.8636V81.5H112.321V69.8636H113.662ZM116.682 84.7727C116.454 84.7727 116.252 84.7538 116.074 84.7159C115.896 84.6818 115.772 84.6477 115.704 84.6136L116.045 83.4318C116.371 83.5152 116.659 83.5455 116.909 83.5227C117.159 83.5 117.38 83.3883 117.574 83.1875C117.771 82.9905 117.95 82.6705 118.113 82.2273L118.363 81.5455L115.136 72.7727H116.591L119 79.7273H119.091L121.5 72.7727H122.954L119.25 82.7727C119.083 83.2235 118.877 83.5966 118.63 83.892C118.384 84.1913 118.098 84.4129 117.772 84.5568C117.45 84.7008 117.087 84.7727 116.682 84.7727ZM135.17 72.7727C135.101 72.197 134.825 71.75 134.34 71.4318C133.855 71.1136 133.261 70.9545 132.556 70.9545C132.041 70.9545 131.59 71.0379 131.204 71.2045C130.821 71.3712 130.522 71.6004 130.306 71.892C130.094 72.1837 129.988 72.5152 129.988 72.8864C129.988 73.197 130.062 73.464 130.209 73.6875C130.361 73.9072 130.554 74.0909 130.789 74.2386C131.024 74.3826 131.27 74.5019 131.528 74.5966C131.785 74.6875 132.022 74.7614 132.238 74.8182L133.42 75.1364C133.723 75.2159 134.06 75.3258 134.431 75.4659C134.806 75.6061 135.164 75.7973 135.505 76.0398C135.85 76.2784 136.134 76.5852 136.357 76.9602C136.581 77.3352 136.692 77.7955 136.692 78.3409C136.692 78.9697 136.528 79.5379 136.198 80.0455C135.872 80.553 135.395 80.9564 134.766 81.2557C134.141 81.5549 133.382 81.7045 132.488 81.7045C131.654 81.7045 130.933 81.5701 130.323 81.3011C129.717 81.0322 129.24 80.6572 128.891 80.1761C128.546 79.6951 128.351 79.1364 128.306 78.5H129.761C129.798 78.9394 129.946 79.303 130.204 79.5909C130.465 79.875 130.795 80.0871 131.192 80.2273C131.594 80.3636 132.026 80.4318 132.488 80.4318C133.026 80.4318 133.509 80.3447 133.937 80.1705C134.365 79.9924 134.704 79.7462 134.954 79.4318C135.204 79.1136 135.329 78.7424 135.329 78.3182C135.329 77.9318 135.221 77.6174 135.005 77.375C134.789 77.1326 134.505 76.9356 134.153 76.7841C133.8 76.6326 133.42 76.5 133.011 76.3864L131.579 75.9773C130.67 75.7159 129.95 75.3428 129.42 74.858C128.889 74.3731 128.624 73.7386 128.624 72.9545C128.624 72.303 128.8 71.7348 129.153 71.25C129.509 70.7614 129.986 70.3826 130.584 70.1136C131.187 69.8409 131.859 69.7045 132.601 69.7045C133.351 69.7045 134.018 69.839 134.601 70.108C135.185 70.3731 135.647 70.7367 135.988 71.1989C136.332 71.661 136.514 72.1856 136.533 72.7727H135.17ZM141.095 81.7045C140.542 81.7045 140.041 81.6004 139.59 81.392C139.139 81.1799 138.781 80.875 138.516 80.4773C138.251 80.0758 138.118 79.5909 138.118 79.0227C138.118 78.5227 138.217 78.1174 138.414 77.8068C138.611 77.4924 138.874 77.2462 139.203 77.0682C139.533 76.8902 139.897 76.7576 140.294 76.6705C140.696 76.5795 141.099 76.5076 141.505 76.4545C142.035 76.3864 142.465 76.3352 142.794 76.3011C143.128 76.2633 143.37 76.2008 143.522 76.1136C143.677 76.0265 143.755 75.875 143.755 75.6591V75.6136C143.755 75.053 143.601 74.6174 143.294 74.3068C142.991 73.9962 142.531 73.8409 141.914 73.8409C141.273 73.8409 140.772 73.9811 140.408 74.2614C140.044 74.5417 139.789 74.8409 139.641 75.1591L138.368 74.7045C138.595 74.1742 138.898 73.7614 139.277 73.4659C139.66 73.1667 140.077 72.9583 140.527 72.8409C140.982 72.7197 141.429 72.6591 141.868 72.6591C142.148 72.6591 142.47 72.6932 142.834 72.7614C143.202 72.8258 143.556 72.9602 143.897 73.1648C144.241 73.3693 144.527 73.678 144.755 74.0909C144.982 74.5038 145.095 75.0568 145.095 75.75V81.5H143.755V80.3182H143.686C143.595 80.5076 143.444 80.7102 143.232 80.9261C143.02 81.142 142.738 81.3258 142.385 81.4773C142.033 81.6288 141.603 81.7045 141.095 81.7045ZM141.3 80.5C141.83 80.5 142.277 80.3958 142.641 80.1875C143.008 79.9792 143.285 79.7102 143.47 79.3807C143.66 79.0511 143.755 78.7045 143.755 78.3409V77.1136C143.698 77.1818 143.573 77.2443 143.38 77.3011C143.19 77.3542 142.97 77.4015 142.72 77.4432C142.474 77.4811 142.234 77.5152 141.999 77.5455C141.768 77.572 141.58 77.5947 141.436 77.6136C141.088 77.6591 140.762 77.733 140.459 77.8352C140.16 77.9337 139.917 78.0833 139.732 78.2841C139.55 78.4811 139.459 78.75 139.459 79.0909C139.459 79.5568 139.631 79.9091 139.976 80.1477C140.325 80.3826 140.766 80.5 141.3 80.5ZM154.067 72.7727L150.839 81.5H149.476L146.249 72.7727H147.703L150.112 79.7273H150.203L152.612 72.7727H154.067ZM155.537 81.5V72.7727H156.878V81.5H155.537ZM156.218 71.3182C155.957 71.3182 155.732 71.2292 155.542 71.0511C155.357 70.8731 155.264 70.6591 155.264 70.4091C155.264 70.1591 155.357 69.9451 155.542 69.767C155.732 69.589 155.957 69.5 156.218 69.5C156.48 69.5 156.703 69.589 156.889 69.767C157.078 69.9451 157.173 70.1591 157.173 70.4091C157.173 70.6591 157.078 70.8731 156.889 71.0511C156.703 71.2292 156.48 71.3182 156.218 71.3182ZM160.374 76.25V81.5H159.034V72.7727H160.329V74.1364H160.443C160.647 73.6932 160.958 73.3371 161.374 73.0682C161.791 72.7955 162.329 72.6591 162.988 72.6591C163.579 72.6591 164.096 72.7803 164.539 73.0227C164.982 73.2614 165.327 73.625 165.573 74.1136C165.82 74.5985 165.943 75.2121 165.943 75.9545V81.5H164.602V76.0455C164.602 75.3598 164.424 74.8258 164.068 74.4432C163.712 74.0568 163.223 73.8636 162.602 73.8636C162.174 73.8636 161.791 73.9564 161.454 74.142C161.121 74.3277 160.857 74.5985 160.664 74.9545C160.471 75.3106 160.374 75.7424 160.374 76.25ZM171.616 84.9545C170.968 84.9545 170.411 84.8712 169.945 84.7045C169.479 84.5417 169.091 84.3258 168.78 84.0568C168.474 83.7917 168.229 83.5076 168.047 83.2045L169.116 82.4545C169.237 82.6136 169.39 82.7955 169.576 83C169.761 83.2083 170.015 83.3883 170.337 83.5398C170.663 83.6951 171.089 83.7727 171.616 83.7727C172.32 83.7727 172.902 83.6023 173.36 83.2614C173.818 82.9205 174.047 82.3864 174.047 81.6591V79.8864H173.934C173.835 80.0455 173.695 80.2424 173.513 80.4773C173.335 80.7083 173.078 80.9148 172.741 81.0966C172.407 81.2746 171.957 81.3636 171.388 81.3636C170.684 81.3636 170.051 81.197 169.491 80.8636C168.934 80.5303 168.493 80.0455 168.167 79.4091C167.845 78.7727 167.684 78 167.684 77.0909C167.684 76.197 167.841 75.4186 168.155 74.7557C168.47 74.089 168.907 73.5739 169.468 73.2102C170.029 72.8428 170.676 72.6591 171.411 72.6591C171.979 72.6591 172.43 72.7538 172.763 72.9432C173.1 73.1288 173.358 73.3409 173.536 73.5795C173.718 73.8144 173.858 74.0076 173.957 74.1591H174.093V72.7727H175.388V81.75C175.388 82.5 175.218 83.1098 174.877 83.5795C174.54 84.053 174.085 84.3996 173.513 84.6193C172.945 84.8428 172.313 84.9545 171.616 84.9545ZM171.57 80.1591C172.108 80.1591 172.563 80.036 172.934 79.7898C173.305 79.5436 173.587 79.1894 173.78 78.7273C173.974 78.2652 174.07 77.7121 174.07 77.0682C174.07 76.4394 173.975 75.8845 173.786 75.4034C173.597 74.9223 173.316 74.5455 172.945 74.2727C172.574 74 172.116 73.8636 171.57 73.8636C171.002 73.8636 170.529 74.0076 170.15 74.2955C169.775 74.5833 169.493 74.9697 169.303 75.4545C169.118 75.9394 169.025 76.4773 169.025 77.0682C169.025 77.6742 169.119 78.2102 169.309 78.6761C169.502 79.1383 169.786 79.5019 170.161 79.767C170.54 80.0284 171.01 80.1591 171.57 80.1591Z" fill="black"/>
<g clip-path="url(#clip1_20272_11325)">
<path d="M381.307 74.0509C381.286 73.9453 381.242 73.8454 381.179 73.7581C381.116 73.6707 381.035 73.5979 380.942 73.5447L378.145 71.9509L378.134 68.799C378.134 68.6905 378.11 68.5833 378.064 68.4849C378.018 68.3865 377.952 68.2992 377.869 68.229C376.854 67.3709 375.686 66.7134 374.426 66.2912C374.327 66.2577 374.222 66.2452 374.118 66.2547C374.013 66.2643 373.912 66.2955 373.821 66.3465L371 67.9234L368.176 66.3437C368.084 66.2924 367.983 66.2609 367.879 66.2513C367.774 66.2416 367.669 66.2539 367.569 66.2875C366.31 66.7123 365.143 67.3725 364.131 68.2328C364.048 68.3028 363.981 68.39 363.936 68.4882C363.89 68.5865 363.866 68.6935 363.865 68.8019L363.851 71.9565L361.055 73.5503C360.961 73.6036 360.88 73.6763 360.817 73.7637C360.754 73.8511 360.711 73.9509 360.69 74.0565C360.434 75.3427 360.434 76.6667 360.69 77.9528C360.711 78.0584 360.754 78.1583 360.817 78.2456C360.88 78.333 360.961 78.4058 361.055 78.459L363.851 80.0528L363.863 83.2056C363.863 83.3142 363.887 83.4213 363.933 83.5197C363.978 83.6182 364.045 83.7055 364.128 83.7756C365.142 84.6337 366.31 85.2913 367.57 85.7134C367.67 85.747 367.775 85.7594 367.879 85.7499C367.983 85.7404 368.084 85.7091 368.176 85.6581L371 84.0765L373.823 85.6562C373.935 85.7185 374.061 85.7508 374.189 85.75C374.271 85.75 374.352 85.7367 374.43 85.7106C375.689 85.286 376.856 84.6265 377.869 83.7672C377.951 83.6971 378.018 83.61 378.064 83.5117C378.11 83.4135 378.134 83.3065 378.134 83.1981L378.148 80.0434L380.945 78.4497C381.038 78.3964 381.119 78.3236 381.182 78.2363C381.245 78.1489 381.288 78.049 381.309 77.9434C381.564 76.6583 381.563 75.3357 381.307 74.0509ZM371 79.75C370.258 79.75 369.533 79.53 368.916 79.118C368.3 78.7059 367.819 78.1203 367.535 77.435C367.251 76.7498 367.177 75.9958 367.322 75.2684C367.466 74.541 367.824 73.8728 368.348 73.3483C368.872 72.8239 369.541 72.4667 370.268 72.322C370.996 72.1773 371.75 72.2516 372.435 72.5354C373.12 72.8193 373.706 73.2999 374.118 73.9166C374.53 74.5333 374.75 75.2583 374.75 76C374.75 76.9945 374.355 77.9484 373.651 78.6516C372.948 79.3549 371.994 79.75 371 79.75Z" fill="#8F8F8F"/>
</g>
<path d="M73.4205 141.909V112.818H75.2841V141.909H73.4205ZM79.25 121.841C79.1288 120.765 78.6288 119.932 77.75 119.341C76.8712 118.742 75.7652 118.443 74.4318 118.443C73.4773 118.443 72.6515 118.595 71.9545 118.898C71.2576 119.193 70.7159 119.602 70.3295 120.125C69.9508 120.64 69.7614 121.227 69.7614 121.886C69.7614 122.439 69.8902 122.917 70.1477 123.318C70.4129 123.72 70.7576 124.057 71.1818 124.33C71.6136 124.595 72.0758 124.818 72.5682 125C73.0606 125.174 73.5341 125.318 73.9886 125.432L76.2614 126.023C77.0038 126.205 77.7652 126.451 78.5455 126.761C79.3258 127.072 80.0492 127.481 80.7159 127.989C81.3826 128.496 81.9205 129.125 82.3295 129.875C82.7462 130.625 82.9545 131.523 82.9545 132.568C82.9545 133.886 82.6136 135.057 81.9318 136.08C81.2576 137.102 80.2765 137.909 78.9886 138.5C77.7083 139.091 76.1591 139.386 74.3409 139.386C72.5985 139.386 71.0909 139.11 69.8182 138.557C68.5455 138.004 67.5492 137.22 66.8295 136.205C66.1098 135.182 65.7121 133.97 65.6364 132.568H69.1591C69.2273 133.409 69.5 134.11 69.9773 134.67C70.4621 135.223 71.0795 135.636 71.8295 135.909C72.5871 136.174 73.4167 136.307 74.3182 136.307C75.3106 136.307 76.1932 136.152 76.9659 135.841C77.7462 135.523 78.3598 135.083 78.8068 134.523C79.2538 133.955 79.4773 133.292 79.4773 132.534C79.4773 131.845 79.2803 131.28 78.8864 130.841C78.5 130.402 77.9735 130.038 77.3068 129.75C76.6477 129.462 75.9015 129.208 75.0682 128.989L72.3182 128.239C70.4545 127.731 68.9773 126.985 67.8864 126C66.803 125.015 66.2614 123.712 66.2614 122.091C66.2614 120.75 66.625 119.58 67.3523 118.58C68.0795 117.58 69.0644 116.803 70.3068 116.25C71.5492 115.689 72.9508 115.409 74.5114 115.409C76.0871 115.409 77.4773 115.686 78.6818 116.239C79.8939 116.792 80.8485 117.553 81.5455 118.523C82.2424 119.485 82.6061 120.591 82.6364 121.841H79.25ZM93.571 115.409C94.6089 115.417 95.6316 115.606 96.6392 115.977C97.6468 116.348 98.5559 116.955 99.3665 117.795C100.185 118.636 100.836 119.773 101.321 121.205C101.813 122.629 102.063 124.402 102.071 126.523C102.071 128.561 101.866 130.375 101.457 131.966C101.048 133.549 100.461 134.886 99.696 135.977C98.9384 137.068 98.018 137.898 96.9347 138.466C95.8513 139.034 94.6316 139.318 93.2756 139.318C91.8892 139.318 90.6581 139.045 89.5824 138.5C88.5066 137.955 87.6316 137.201 86.9574 136.239C86.2831 135.269 85.8627 134.155 85.696 132.898H89.1619C89.3892 133.898 89.8513 134.708 90.5483 135.33C91.2528 135.943 92.1619 136.25 93.2756 136.25C94.9801 136.25 96.3097 135.508 97.2642 134.023C98.2188 132.53 98.6998 130.447 98.7074 127.773H98.5256C98.1316 128.424 97.6392 128.985 97.0483 129.455C96.465 129.924 95.8097 130.288 95.0824 130.545C94.3551 130.803 93.5786 130.932 92.7528 130.932C91.4119 130.932 90.1922 130.602 89.0938 129.943C87.9953 129.284 87.1203 128.379 86.4688 127.227C85.8172 126.076 85.4915 124.761 85.4915 123.284C85.4915 121.814 85.8248 120.481 86.4915 119.284C87.1657 118.087 88.1051 117.14 89.3097 116.443C90.5218 115.739 91.9422 115.394 93.571 115.409ZM93.5824 118.364C92.696 118.364 91.8968 118.583 91.1847 119.023C90.4801 119.455 89.9233 120.042 89.5142 120.784C89.1051 121.519 88.9006 122.337 88.9006 123.239C88.9006 124.14 89.0975 124.958 89.4915 125.693C89.893 126.42 90.4384 127 91.1278 127.432C91.8248 127.856 92.6203 128.068 93.5142 128.068C94.1809 128.068 94.8021 127.939 95.3778 127.682C95.9536 127.424 96.4574 127.068 96.8892 126.614C97.321 126.152 97.6581 125.629 97.9006 125.045C98.143 124.462 98.2642 123.848 98.2642 123.205C98.2642 122.348 98.0597 121.553 97.6506 120.818C97.2491 120.083 96.696 119.492 95.9915 119.045C95.2869 118.591 94.4839 118.364 93.5824 118.364ZM108.798 135.818L108.628 137.057C108.514 137.966 108.321 138.913 108.048 139.898C107.783 140.89 107.507 141.811 107.219 142.659C106.938 143.508 106.707 144.182 106.526 144.682H104.116C104.215 144.212 104.351 143.576 104.526 142.773C104.7 141.977 104.87 141.087 105.037 140.102C105.204 139.117 105.329 138.114 105.412 137.091L105.526 135.818H108.798ZM119.832 139.318C118.795 139.303 117.772 139.114 116.764 138.75C115.764 138.386 114.855 137.78 114.037 136.932C113.219 136.083 112.563 134.943 112.071 133.511C111.586 132.08 111.344 130.292 111.344 128.148C111.344 126.117 111.545 124.314 111.946 122.739C112.355 121.163 112.942 119.833 113.707 118.75C114.473 117.659 115.397 116.83 116.48 116.261C117.563 115.693 118.779 115.409 120.128 115.409C121.514 115.409 122.745 115.682 123.821 116.227C124.897 116.773 125.768 117.527 126.435 118.489C127.109 119.451 127.537 120.545 127.719 121.773H124.253C124.018 120.803 123.552 120.011 122.855 119.398C122.158 118.784 121.249 118.477 120.128 118.477C118.423 118.477 117.094 119.22 116.139 120.705C115.192 122.189 114.715 124.254 114.707 126.898H114.878C115.279 126.239 115.772 125.678 116.355 125.216C116.946 124.746 117.605 124.386 118.332 124.136C119.067 123.879 119.84 123.75 120.651 123.75C121.999 123.75 123.219 124.08 124.31 124.739C125.408 125.39 126.283 126.292 126.935 127.443C127.586 128.595 127.912 129.913 127.912 131.398C127.912 132.883 127.575 134.227 126.901 135.432C126.234 136.636 125.295 137.591 124.082 138.295C122.87 138.992 121.454 139.333 119.832 139.318ZM119.821 136.364C120.715 136.364 121.514 136.144 122.219 135.705C122.923 135.265 123.48 134.674 123.889 133.932C124.298 133.189 124.503 132.36 124.503 131.443C124.503 130.549 124.302 129.735 123.901 129C123.507 128.265 122.961 127.682 122.264 127.25C121.575 126.818 120.787 126.602 119.901 126.602C119.226 126.602 118.601 126.731 118.026 126.989C117.457 127.246 116.957 127.602 116.526 128.057C116.094 128.511 115.753 129.034 115.503 129.625C115.26 130.208 115.139 130.826 115.139 131.477C115.139 132.348 115.34 133.155 115.741 133.898C116.151 134.64 116.707 135.239 117.412 135.693C118.124 136.14 118.927 136.364 119.821 136.364ZM139.153 139.386C137.358 139.379 135.824 138.905 134.551 137.966C133.278 137.027 132.305 135.659 131.631 133.864C130.956 132.068 130.619 129.905 130.619 127.375C130.619 124.852 130.956 122.697 131.631 120.909C132.313 119.121 133.29 117.758 134.562 116.818C135.843 115.879 137.373 115.409 139.153 115.409C140.934 115.409 142.46 115.883 143.733 116.83C145.006 117.769 145.979 119.133 146.653 120.92C147.335 122.701 147.676 124.852 147.676 127.375C147.676 129.913 147.339 132.08 146.665 133.875C145.991 135.663 145.017 137.03 143.744 137.977C142.472 138.917 140.941 139.386 139.153 139.386ZM139.153 136.352C140.729 136.352 141.96 135.583 142.847 134.045C143.741 132.508 144.188 130.284 144.188 127.375C144.188 125.443 143.983 123.811 143.574 122.477C143.172 121.136 142.593 120.121 141.835 119.432C141.085 118.735 140.191 118.386 139.153 118.386C137.585 118.386 136.354 119.159 135.46 120.705C134.566 122.25 134.116 124.473 134.108 127.375C134.108 129.314 134.309 130.955 134.71 132.295C135.119 133.629 135.699 134.64 136.449 135.33C137.199 136.011 138.1 136.352 139.153 136.352ZM158.81 139.386C157.014 139.379 155.48 138.905 154.207 137.966C152.935 137.027 151.961 135.659 151.287 133.864C150.613 132.068 150.276 129.905 150.276 127.375C150.276 124.852 150.613 122.697 151.287 120.909C151.969 119.121 152.946 117.758 154.219 116.818C155.499 115.879 157.029 115.409 158.81 115.409C160.59 115.409 162.116 115.883 163.389 116.83C164.662 117.769 165.635 119.133 166.31 120.92C166.991 122.701 167.332 124.852 167.332 127.375C167.332 129.913 166.995 132.08 166.321 133.875C165.647 135.663 164.673 137.03 163.401 137.977C162.128 138.917 160.598 139.386 158.81 139.386ZM158.81 136.352C160.385 136.352 161.616 135.583 162.503 134.045C163.397 132.508 163.844 130.284 163.844 127.375C163.844 125.443 163.639 123.811 163.23 122.477C162.829 121.136 162.249 120.121 161.491 119.432C160.741 118.735 159.848 118.386 158.81 118.386C157.241 118.386 156.01 119.159 155.116 120.705C154.223 122.25 153.772 124.473 153.764 127.375C153.764 129.314 153.965 130.955 154.366 132.295C154.776 133.629 155.355 134.64 156.105 135.33C156.855 136.011 157.757 136.352 158.81 136.352Z" fill="black"/>
<rect x="178" y="115" width="74" height="25" rx="12.5" fill="#E3FAE8"/>
<path d="M186.979 133V131.886L190.425 128.317C190.793 127.929 191.096 127.589 191.335 127.298C191.576 127.003 191.757 126.723 191.876 126.457C191.996 126.192 192.055 125.911 192.055 125.612C192.055 125.274 191.976 124.982 191.817 124.737C191.658 124.489 191.441 124.298 191.165 124.165C190.89 124.03 190.58 123.962 190.236 123.962C189.871 123.962 189.553 124.036 189.281 124.185C189.009 124.335 188.801 124.545 188.655 124.817C188.509 125.089 188.436 125.407 188.436 125.771H186.969C186.969 125.152 187.112 124.61 187.397 124.146C187.682 123.682 188.073 123.322 188.57 123.067C189.067 122.808 189.633 122.679 190.266 122.679C190.905 122.679 191.469 122.807 191.956 123.062C192.446 123.314 192.829 123.658 193.104 124.096C193.379 124.53 193.517 125.021 193.517 125.567C193.517 125.945 193.446 126.315 193.303 126.676C193.164 127.037 192.92 127.44 192.572 127.884C192.224 128.325 191.741 128.86 191.121 129.49L189.097 131.608V131.683H193.681V133H186.979ZM196.519 131.608L196.445 132.15C196.395 132.548 196.31 132.962 196.191 133.393C196.075 133.827 195.954 134.23 195.828 134.601C195.705 134.972 195.604 135.267 195.525 135.486H194.471C194.514 135.28 194.574 135.002 194.65 134.651C194.726 134.303 194.801 133.913 194.874 133.482C194.946 133.051 195.001 132.612 195.038 132.165L195.087 131.608H196.519ZM200.795 133.139C200.172 133.139 199.612 133.02 199.115 132.781C198.621 132.539 198.227 132.208 197.932 131.787C197.637 131.366 197.479 130.885 197.459 130.345H198.951C198.987 130.783 199.181 131.142 199.532 131.424C199.884 131.706 200.305 131.847 200.795 131.847C201.186 131.847 201.533 131.757 201.834 131.578C202.139 131.396 202.378 131.146 202.55 130.827C202.726 130.509 202.814 130.146 202.814 129.739C202.814 129.324 202.724 128.955 202.545 128.63C202.366 128.305 202.119 128.05 201.805 127.864C201.493 127.679 201.135 127.584 200.731 127.581C200.422 127.581 200.113 127.634 199.801 127.74C199.489 127.846 199.238 127.985 199.045 128.158L197.638 127.949L198.21 122.818H203.808V124.136H199.488L199.165 126.984H199.224C199.423 126.792 199.687 126.631 200.015 126.502C200.346 126.373 200.701 126.308 201.079 126.308C201.698 126.308 202.25 126.456 202.734 126.751C203.221 127.046 203.604 127.448 203.883 127.959C204.164 128.466 204.304 129.049 204.3 129.709C204.304 130.368 204.154 130.957 203.853 131.474C203.555 131.991 203.14 132.398 202.61 132.697C202.083 132.992 201.478 133.139 200.795 133.139ZM208.556 133.139C207.844 133.139 207.214 133.017 206.667 132.771C206.124 132.526 205.698 132.188 205.39 131.757C205.081 131.326 204.929 130.836 204.932 130.286C204.929 129.855 205.017 129.459 205.196 129.097C205.378 128.733 205.625 128.429 205.936 128.188C206.248 127.942 206.596 127.786 206.98 127.72V127.661C206.473 127.538 206.067 127.266 205.762 126.845C205.458 126.424 205.307 125.94 205.31 125.393C205.307 124.873 205.444 124.409 205.723 124.001C206.004 123.59 206.391 123.267 206.881 123.032C207.372 122.797 207.93 122.679 208.556 122.679C209.176 122.679 209.73 122.798 210.217 123.037C210.708 123.272 211.094 123.595 211.375 124.006C211.657 124.414 211.8 124.876 211.803 125.393C211.8 125.94 211.644 126.424 211.336 126.845C211.027 127.266 210.626 127.538 210.132 127.661V127.72C210.514 127.786 210.857 127.942 211.162 128.188C211.47 128.429 211.715 128.733 211.897 129.097C212.083 129.459 212.177 129.855 212.181 130.286C212.177 130.836 212.022 131.326 211.713 131.757C211.405 132.188 210.978 132.526 210.431 132.771C209.887 133.017 209.262 133.139 208.556 133.139ZM208.556 131.881C208.977 131.881 209.342 131.812 209.65 131.673C209.958 131.53 210.197 131.333 210.366 131.081C210.535 130.826 210.621 130.527 210.625 130.186C210.621 129.831 210.529 129.518 210.346 129.246C210.167 128.975 209.924 128.761 209.615 128.605C209.307 128.449 208.954 128.371 208.556 128.371C208.155 128.371 207.799 128.449 207.488 128.605C207.176 128.761 206.931 128.975 206.752 129.246C206.573 129.518 206.485 129.831 206.488 130.186C206.485 130.527 206.566 130.826 206.732 131.081C206.901 131.333 207.141 131.53 207.453 131.673C207.764 131.812 208.132 131.881 208.556 131.881ZM208.556 127.143C208.895 127.143 209.194 127.076 209.456 126.94C209.718 126.804 209.924 126.615 210.073 126.373C210.225 126.131 210.303 125.848 210.306 125.523C210.303 125.205 210.227 124.926 210.078 124.688C209.932 124.449 209.728 124.265 209.466 124.136C209.204 124.003 208.901 123.937 208.556 123.937C208.205 123.937 207.897 124.003 207.632 124.136C207.37 124.265 207.166 124.449 207.02 124.688C206.874 124.926 206.803 125.205 206.806 125.523C206.803 125.848 206.876 126.131 207.025 126.373C207.174 126.615 207.38 126.804 207.642 126.94C207.907 127.076 208.212 127.143 208.556 127.143ZM218.276 131.091V130.554C218.276 130.17 218.356 129.818 218.515 129.5C218.677 129.179 218.913 128.922 219.221 128.729C219.533 128.534 219.909 128.436 220.35 128.436C220.8 128.436 221.178 128.532 221.483 128.724C221.788 128.917 222.018 129.174 222.174 129.495C222.333 129.817 222.413 130.17 222.413 130.554V131.091C222.413 131.475 222.333 131.828 222.174 132.15C222.015 132.468 221.781 132.725 221.473 132.92C221.168 133.113 220.794 133.209 220.35 133.209C219.902 133.209 219.524 133.113 219.216 132.92C218.908 132.725 218.674 132.468 218.515 132.15C218.356 131.828 218.276 131.475 218.276 131.091ZM219.435 130.554V131.091C219.435 131.376 219.503 131.634 219.639 131.866C219.775 132.098 220.012 132.214 220.35 132.214C220.684 132.214 220.918 132.098 221.051 131.866C221.183 131.634 221.249 131.376 221.249 131.091V130.554C221.249 130.269 221.185 130.01 221.056 129.778C220.93 129.546 220.694 129.43 220.35 129.43C220.018 129.43 219.783 129.546 219.644 129.778C219.504 130.01 219.435 130.269 219.435 130.554ZM213.156 125.264V124.727C213.156 124.343 213.235 123.99 213.394 123.668C213.557 123.347 213.792 123.09 214.1 122.898C214.412 122.705 214.788 122.609 215.229 122.609C215.68 122.609 216.057 122.705 216.362 122.898C216.667 123.09 216.898 123.347 217.053 123.668C217.209 123.99 217.287 124.343 217.287 124.727V125.264C217.287 125.649 217.208 126.002 217.048 126.323C216.893 126.641 216.661 126.898 216.352 127.094C216.048 127.286 215.673 127.382 215.229 127.382C214.778 127.382 214.399 127.286 214.09 127.094C213.785 126.898 213.553 126.641 213.394 126.323C213.235 126.002 213.156 125.649 213.156 125.264ZM214.319 124.727V125.264C214.319 125.549 214.385 125.808 214.518 126.04C214.654 126.272 214.891 126.388 215.229 126.388C215.56 126.388 215.792 126.272 215.925 126.04C216.061 125.808 216.129 125.549 216.129 125.264V124.727C216.129 124.442 216.064 124.184 215.935 123.952C215.806 123.72 215.57 123.604 215.229 123.604C214.897 123.604 214.662 123.72 214.523 123.952C214.387 124.184 214.319 124.442 214.319 124.727ZM213.628 133L220.628 122.818H221.816L214.816 133H213.628Z" fill="#33C181"/>
<path d="M242.5 123L236.5 129L234 126.5L229.5 131" stroke="#33C181" stroke-width="1.5" stroke-linecap="round" stroke-linejoin="round"/>
<path d="M242.5 127V123H238.5" stroke="#33C181" stroke-width="1.5" stroke-linecap="round" stroke-linejoin="round"/>
<path d="M323.023 139L333.182 118.909V118.739H321.432V115.727H336.818V118.841L326.693 139H323.023ZM337.406 134.455V131.614L347.463 115.727H349.702V119.909H348.281L341.088 131.295V131.477H354.872V134.455H337.406ZM348.44 139V133.591L348.463 132.295V115.727H351.793V139H348.44ZM369.98 134.636V133.409C369.98 132.53 370.162 131.727 370.526 131C370.897 130.265 371.435 129.678 372.139 129.239C372.851 128.792 373.711 128.568 374.719 128.568C375.749 128.568 376.613 128.788 377.31 129.227C378.007 129.667 378.533 130.254 378.889 130.989C379.253 131.723 379.435 132.53 379.435 133.409V134.636C379.435 135.515 379.253 136.322 378.889 137.057C378.526 137.784 377.991 138.371 377.287 138.818C376.59 139.258 375.734 139.477 374.719 139.477C373.696 139.477 372.832 139.258 372.128 138.818C371.423 138.371 370.889 137.784 370.526 137.057C370.162 136.322 369.98 135.515 369.98 134.636ZM372.628 133.409V134.636C372.628 135.288 372.783 135.879 373.094 136.409C373.404 136.939 373.946 137.205 374.719 137.205C375.484 137.205 376.018 136.939 376.321 136.409C376.624 135.879 376.776 135.288 376.776 134.636V133.409C376.776 132.758 376.628 132.167 376.332 131.636C376.045 131.106 375.507 130.841 374.719 130.841C373.961 130.841 373.423 131.106 373.105 131.636C372.787 132.167 372.628 132.758 372.628 133.409ZM358.276 121.318V120.091C358.276 119.212 358.457 118.405 358.821 117.67C359.192 116.936 359.73 116.348 360.435 115.909C361.147 115.47 362.007 115.25 363.014 115.25C364.045 115.25 364.908 115.47 365.605 115.909C366.302 116.348 366.829 116.936 367.185 117.67C367.541 118.405 367.719 119.212 367.719 120.091V121.318C367.719 122.197 367.537 123.004 367.173 123.739C366.817 124.466 366.287 125.053 365.582 125.5C364.885 125.939 364.029 126.159 363.014 126.159C361.984 126.159 361.116 125.939 360.412 125.5C359.715 125.053 359.185 124.466 358.821 123.739C358.457 123.004 358.276 122.197 358.276 121.318ZM360.935 120.091V121.318C360.935 121.97 361.086 122.561 361.389 123.091C361.7 123.621 362.241 123.886 363.014 123.886C363.772 123.886 364.302 123.621 364.605 123.091C364.916 122.561 365.071 121.97 365.071 121.318V120.091C365.071 119.439 364.923 118.848 364.628 118.318C364.332 117.788 363.795 117.523 363.014 117.523C362.257 117.523 361.719 117.788 361.401 118.318C361.09 118.848 360.935 119.439 360.935 120.091ZM359.355 139L375.355 115.727H378.071L362.071 139H359.355Z" fill="black"/>
<rect x="64" y="159" width="319" height="45" rx="8" fill="#F5F5F5"/>
<rect x="64.5" y="159.5" width="275" height="44" rx="7.5" fill="url(#paint2_linear_20272_11325)"/>
<rect x="64.5" y="159.5" width="275" height="44" rx="7.5" fill="url(#paint3_radial_20272_11325)" fill-opacity="0.2"/>
<rect x="64.5" y="159.5" width="275" height="44" rx="7.5" stroke="#93CCFD"/>
<rect x="64.5" y="159.5" width="275" height="44" rx="7.5" stroke="url(#paint4_radial_20272_11325)" stroke-opacity="0.7"/>
<rect x="284" y="214" width="96" height="8" rx="4" fill="#DFE4EA"/>
<rect x="64" y="268" width="98" height="8" rx="4" fill="#DFE4EA"/>
<rect x="339" y="262" width="41" height="8" rx="4" fill="#F1F4F8"/>
<rect x="64" y="288" width="78" height="8" rx="4" fill="#DFE4EA"/>
<rect x="349" y="282" width="31" height="8" rx="4" fill="#F1F4F8"/>
<rect x="64" y="308" width="53" height="8" rx="4" fill="#DFE4EA"/>
<rect x="357" y="302" width="23" height="8" rx="4" fill="#F1F4F8"/>
<rect x="64" y="328" width="59" height="8" rx="4" fill="#DFE4EA"/>
<rect x="349" y="322" width="31" height="8" rx="4" fill="#F1F4F8"/>
<line x1="64" y1="247.5" x2="383" y2="247.5" stroke="#E7EEF4"/>
<g filter="url(#filter0_d_20272_11325)">
<rect x="309" y="286" width="60" height="60" rx="30" fill="#FF9500" shape-rendering="crispEdges"/>
<g clip-path="url(#clip2_20272_11325)">
<path d="M339 303C336.429 303 333.915 303.762 331.778 305.191C329.64 306.619 327.974 308.65 326.99 311.025C326.006 313.401 325.748 316.014 326.25 318.536C326.751 321.058 327.99 323.374 329.808 325.192C331.626 327.01 333.942 328.249 336.464 328.75C338.986 329.252 341.599 328.994 343.975 328.01C346.35 327.026 348.381 325.36 349.809 323.222C351.238 321.085 352 318.571 352 316C351.996 312.553 350.626 309.249 348.188 306.812C345.751 304.374 342.447 303.004 339 303ZM339 305C340.761 305.001 342.496 305.424 344.059 306.235C345.623 307.046 346.969 308.22 347.984 309.659L339 314.845V305ZM339 327C337.239 326.999 335.504 326.576 333.941 325.765C332.377 324.954 331.031 323.78 330.016 322.341L348.986 311.39C349.76 313.066 350.099 314.91 349.973 316.751C349.847 318.593 349.26 320.373 348.265 321.928C347.27 323.483 345.9 324.762 344.281 325.649C342.662 326.535 340.846 327 339 327Z" fill="white"/>
</g>
</g>
</g>
<defs>
<filter id="filter0_d_20272_11325" x="293" y="280" width="92" height="92" filterUnits="userSpaceOnUse" color-interpolation-filters="sRGB">
<feFlood flood-opacity="0" result="BackgroundImageFix"/>
<feColorMatrix in="SourceAlpha" type="matrix" values="0 0 0 0 0 0 0 0 0 0 0 0 0 0 0 0 0 0 127 0" result="hardAlpha"/>
<feOffset dy="10"/>
<feGaussianBlur stdDeviation="8"/>
<feComposite in2="hardAlpha" operator="out"/>
<feColorMatrix type="matrix" values="0 0 0 0 0.42413 0 0 0 0 0.433567 0 0 0 0 0.453933 0 0 0 0.2 0"/>
<feBlend mode="normal" in2="BackgroundImageFix" result="effect1_dropShadow_20272_11325"/>
<feBlend mode="normal" in="SourceGraphic" in2="effect1_dropShadow_20272_11325" result="shape"/>
</filter>
<radialGradient id="paint0_radial_20272_11325" cx="0" cy="0" r="1" gradientUnits="userSpaceOnUse" gradientTransform="translate(223.5 372) rotate(-90) scale(278.663 334.845)">
<stop stop-color="white"/>
<stop offset="1" stop-color="#F5F8FF"/>
</radialGradient>
<radialGradient id="paint1_radial_20272_11325" cx="0" cy="0" r="1" gradientUnits="userSpaceOnUse" gradientTransform="translate(223.5 80.25) rotate(90) scale(438.75 224.717)">
<stop stop-color="white" stop-opacity="0"/>
<stop offset="1" stop-color="white"/>
</radialGradient>
<linearGradient id="paint2_linear_20272_11325" x1="64" y1="159" x2="80.1395" y2="261.524" gradientUnits="userSpaceOnUse">
<stop stop-color="#2D58A7"/>
<stop offset="1" stop-color="#4A96F8"/>
</linearGradient>
<radialGradient id="paint3_radial_20272_11325" cx="0" cy="0" r="1" gradientUnits="userSpaceOnUse" gradientTransform="translate(202 164.114) rotate(90) scale(39.8864 155.443)">
<stop stop-opacity="0"/>
<stop offset="1"/>
</radialGradient>
<radialGradient id="paint4_radial_20272_11325" cx="0" cy="0" r="1" gradientUnits="userSpaceOnUse" gradientTransform="translate(202 164.114) rotate(90) scale(39.8864 155.443)">
<stop stop-color="white" stop-opacity="0"/>
<stop offset="1" stop-color="white"/>
</radialGradient>
<clipPath id="clip0_20272_11325">
<rect width="447" height="372" rx="30" fill="white"/>
</clipPath>
<clipPath id="clip1_20272_11325">
<rect width="24" height="24" fill="white" transform="translate(359 64)"/>
</clipPath>
<clipPath id="clip2_20272_11325">
<rect width="32" height="32" fill="white" transform="translate(323 300)"/>
</clipPath>
</defs>
</svg>
