<svg width="33" height="32" viewBox="0 0 33 32" fill="none" xmlns="http://www.w3.org/2000/svg">
<path d="M29.3334 13.5H17.8334V11.5H18.3334C18.6617 11.5 18.9868 11.4353 19.2901 11.3097C19.5934 11.1841 19.869 10.9999 20.1011 10.7678C20.3333 10.5356 20.5174 10.26 20.6431 9.95671C20.7687 9.65339 20.8334 9.3283 20.8334 9V5C20.8334 4.6717 20.7687 4.34661 20.6431 4.04329C20.5174 3.73998 20.3333 3.46438 20.1011 3.23223C19.869 3.00009 19.5934 2.81594 19.2901 2.6903C18.9868 2.56466 18.6617 2.5 18.3334 2.5H14.3334C13.6703 2.5 13.0344 2.76339 12.5656 3.23223C12.0968 3.70107 11.8334 4.33696 11.8334 5V9C11.8334 9.3283 11.898 9.65339 12.0237 9.95671C12.1493 10.26 12.3335 10.5356 12.5656 10.7678C13.0344 11.2366 13.6703 11.5 14.3334 11.5H14.8334V13.5H3.33337C2.93555 13.5 2.55402 13.658 2.27271 13.9393C1.99141 14.2206 1.83337 14.6022 1.83337 15C1.83337 15.3978 1.99141 15.7794 2.27271 16.0607C2.55402 16.342 2.93555 16.5 3.33337 16.5H6.83337V19.5H6.33337C5.67033 19.5 5.03445 19.7634 4.56561 20.2322C4.09677 20.7011 3.83337 21.337 3.83337 22V26C3.83337 26.663 4.09677 27.2989 4.56561 27.7678C5.03445 28.2366 5.67033 28.5 6.33337 28.5H10.3334C10.9964 28.5 11.6323 28.2366 12.1011 27.7678C12.57 27.2989 12.8334 26.663 12.8334 26V22C12.8334 21.337 12.57 20.7011 12.1011 20.2322C11.6323 19.7634 10.9964 19.5 10.3334 19.5H9.83337V16.5H22.8334V19.5H22.3334C21.6703 19.5 21.0344 19.7634 20.5656 20.2322C20.0968 20.7011 19.8334 21.337 19.8334 22V26C19.8334 26.663 20.0968 27.2989 20.5656 27.7678C21.0344 28.2366 21.6703 28.5 22.3334 28.5H26.3334C26.9964 28.5 27.6323 28.2366 28.1011 27.7678C28.57 27.2989 28.8334 26.663 28.8334 26V22C28.8334 21.337 28.57 20.7011 28.1011 20.2322C27.6323 19.7634 26.9964 19.5 26.3334 19.5H25.8334V16.5H29.3334C29.7312 16.5 30.1127 16.342 30.394 16.0607C30.6753 15.7794 30.8334 15.3978 30.8334 15C30.8334 14.6022 30.6753 14.2206 30.394 13.9393C30.1127 13.658 29.7312 13.5 29.3334 13.5ZM14.8334 5.5H17.8334V8.5H14.8334V5.5ZM9.83337 25.5H6.83337V22.5H9.83337V25.5ZM25.8334 25.5H22.8334V22.5H25.8334V25.5Z" fill="white"/>
</svg>
