<svg width="20" height="20" viewBox="0 0 20 20" fill="none" xmlns="http://www.w3.org/2000/svg">
<path d="M16.2868 14.962C16.4629 15.1381 16.5618 15.377 16.5618 15.626C16.5618 15.8751 16.4629 16.114 16.2868 16.2901C16.1107 16.4662 15.8718 16.5652 15.6227 16.5652C15.3736 16.5652 15.1348 16.4662 14.9587 16.2901L9.9985 11.3284L5.03678 16.2885C4.86066 16.4647 4.62179 16.5636 4.37272 16.5636C4.12365 16.5636 3.88478 16.4647 3.70866 16.2885C3.53254 16.1124 3.43359 15.8735 3.43359 15.6245C3.43359 15.3754 3.53254 15.1365 3.70866 14.9604L8.67038 10.0003L3.71022 5.03854C3.5341 4.86242 3.43516 4.62355 3.43516 4.37448C3.43516 4.12541 3.5341 3.88654 3.71022 3.71042C3.88634 3.53429 4.12521 3.43535 4.37428 3.43535C4.62335 3.43535 4.86222 3.53429 5.03834 3.71042L9.9985 8.67213L14.9602 3.70963C15.1363 3.53351 15.3752 3.43457 15.6243 3.43457C15.8734 3.43457 16.1122 3.53351 16.2883 3.70963C16.4645 3.88575 16.5634 4.12462 16.5634 4.3737C16.5634 4.62277 16.4645 4.86164 16.2883 5.03776L11.3266 10.0003L16.2868 14.962Z" fill="#14326B"/>
</svg>
