<svg width="20" height="20" viewBox="0 0 20 20" fill="none" xmlns="http://www.w3.org/2000/svg">
<path d="M16.9137 8.16305L10.6637 14.4131C10.5766 14.5005 10.4731 14.5698 10.3592 14.6171C10.2452 14.6644 10.1231 14.6888 9.99967 14.6888C9.87628 14.6888 9.75411 14.6644 9.64016 14.6171C9.5262 14.5698 9.42271 14.5005 9.33561 14.4131L3.08561 8.16305C2.90949 7.98693 2.81055 7.74806 2.81055 7.49899C2.81055 7.24992 2.90949 7.01105 3.08561 6.83493C3.26173 6.65881 3.5006 6.55986 3.74967 6.55986C3.99874 6.55986 4.23762 6.65881 4.41374 6.83493L10.0005 12.4216L15.5872 6.83415C15.7633 6.65803 16.0022 6.55908 16.2512 6.55908C16.5003 6.55908 16.7392 6.65803 16.9153 6.83415C17.0914 7.01027 17.1904 7.24914 17.1904 7.49821C17.1904 7.74728 17.0914 7.98615 16.9153 8.16227L16.9137 8.16305Z" fill="white" fill-opacity="0.8"/>
</svg>
