<svg width="17" height="16" viewBox="0 0 17 16" fill="none" xmlns="http://www.w3.org/2000/svg">
<path d="M13.9838 6.53061L8.98385 11.5306C8.91417 11.6005 8.83137 11.656 8.74021 11.6939C8.64905 11.7317 8.55131 11.7512 8.45259 11.7512C8.35388 11.7512 8.25614 11.7317 8.16498 11.6939C8.07382 11.656 7.99102 11.6005 7.92134 11.5306L2.92134 6.53061C2.78045 6.38972 2.70129 6.19862 2.70129 5.99936C2.70129 5.80011 2.78045 5.60901 2.92134 5.46811C3.06224 5.32722 3.25334 5.24806 3.45259 5.24806C3.65185 5.24806 3.84295 5.32722 3.98384 5.46811L8.45322 9.93749L12.9226 5.46749C13.0635 5.32659 13.2546 5.24744 13.4538 5.24744C13.6531 5.24744 13.8442 5.32659 13.9851 5.46749C14.126 5.60838 14.2051 5.79948 14.2051 5.99874C14.2051 6.198 14.126 6.38909 13.9851 6.52999L13.9838 6.53061Z" fill="#111111"/>
</svg>
