<svg width="32" height="32" viewBox="0 0 32 32" fill="none" xmlns="http://www.w3.org/2000/svg">
<path d="M3.93875 17.0612L12.9387 26.0612C13.2205 26.343 13.6027 26.5013 14.0012 26.5013C14.3998 26.5013 14.782 26.343 15.0637 26.0612C15.3455 25.7794 15.5039 25.3972 15.5039 24.9987C15.5039 24.6002 15.3455 24.218 15.0637 23.9362L8.625 17.5H27C27.3978 17.5 27.7794 17.3419 28.0607 17.0606C28.342 16.7793 28.5 16.3978 28.5 16C28.5 15.6022 28.342 15.2206 28.0607 14.9393C27.7794 14.658 27.3978 14.5 27 14.5H8.625L15.0613 8.05998C15.343 7.77818 15.5014 7.39599 15.5014 6.99747C15.5014 6.59896 15.343 6.21677 15.0613 5.93497C14.7795 5.65318 14.3973 5.49487 13.9988 5.49487C13.6002 5.49487 13.218 5.65318 12.9363 5.93497L3.93625 14.935C3.79639 15.0745 3.68547 15.2403 3.60986 15.4228C3.53426 15.6054 3.49546 15.8011 3.49569 15.9986C3.49592 16.1962 3.53518 16.3918 3.61122 16.5741C3.68725 16.7565 3.79856 16.922 3.93875 17.0612Z" fill="black" fill-opacity="0.5"/>
</svg>
