<svg width="50" height="50" viewBox="0 0 50 50" fill="none" xmlns="http://www.w3.org/2000/svg">
<path d="M14.0004 18.9884L6.78553 25.0001L14.0004 31.0119C14.2396 31.2079 14.4377 31.4495 14.5832 31.7225C14.7287 31.9955 14.8187 32.2946 14.848 32.6026C14.8773 32.9106 14.8453 33.2213 14.754 33.5169C14.6626 33.8124 14.5136 34.087 14.3156 34.3247C14.1176 34.5624 13.8745 34.7585 13.6003 34.9018C13.3262 35.0451 13.0263 35.1327 12.7181 35.1595C12.4099 35.1864 12.0995 35.1519 11.8047 35.0582C11.5098 34.9645 11.2365 34.8133 11.0004 34.6134L1.62537 26.8009C1.36133 26.581 1.14889 26.3056 1.0031 25.9944C0.85731 25.6832 0.781738 25.3438 0.781738 25.0001C0.781738 24.6565 0.85731 24.317 1.0031 24.0058C1.14889 23.6946 1.36133 23.4193 1.62537 23.1994L11.0004 15.3869C11.4786 14.9949 12.0924 14.8078 12.708 14.8664C13.3236 14.925 13.8911 15.2245 14.2868 15.6996C14.6826 16.1747 14.8745 16.787 14.8209 17.403C14.7672 18.019 14.4723 18.5889 14.0004 18.9884ZM48.3754 23.1994L39.0004 15.3869C38.7643 15.187 38.4909 15.0358 38.1961 14.9421C37.9013 14.8483 37.5908 14.8139 37.2826 14.8407C36.9744 14.8676 36.6746 14.9552 36.4004 15.0985C36.1262 15.2417 35.8831 15.4379 35.6851 15.6756C35.4871 15.9133 35.3382 16.1878 35.2468 16.4834C35.1554 16.779 35.1235 17.0897 35.1528 17.3977C35.1821 17.7056 35.2721 18.0048 35.4175 18.2778C35.563 18.5508 35.7611 18.7923 36.0004 18.9884L43.2152 25.0001L36.0004 31.0119C35.7611 31.2079 35.563 31.4495 35.4175 31.7225C35.2721 31.9955 35.1821 32.2946 35.1528 32.6026C35.1235 32.9106 35.1554 33.2213 35.2468 33.5169C35.3382 33.8124 35.4871 34.087 35.6851 34.3247C35.8831 34.5624 36.1262 34.7585 36.4004 34.9018C36.6746 35.0451 36.9744 35.1327 37.2826 35.1595C37.5908 35.1864 37.9013 35.1519 38.1961 35.0582C38.4909 34.9645 38.7643 34.8133 39.0004 34.6134L48.3754 26.8009C48.6394 26.581 48.8519 26.3056 48.9976 25.9944C49.1434 25.6832 49.219 25.3438 49.219 25.0001C49.219 24.6565 49.1434 24.317 48.9976 24.0058C48.8519 23.6946 48.6394 23.4193 48.3754 23.1994ZM32.0512 5.60951C31.7618 5.5043 31.4546 5.45711 31.1471 5.47065C30.8395 5.48419 30.5376 5.55818 30.2587 5.68841C29.9797 5.81863 29.7292 6.00254 29.5213 6.22962C29.3135 6.4567 29.1524 6.72251 29.0472 7.01186L16.5472 41.3869C16.3354 41.9709 16.3641 42.6152 16.627 43.1781C16.89 43.741 17.3657 44.1765 17.9496 44.3888C18.2059 44.4835 18.4771 44.5318 18.7504 44.5314C19.2316 44.5315 19.7011 44.3834 20.0953 44.1074C20.4895 43.8313 20.7891 43.4407 20.9535 42.9884L33.4535 8.61342C33.5587 8.32411 33.6059 8.0169 33.5924 7.70934C33.5788 7.40179 33.5048 7.09991 33.3746 6.82096C33.2444 6.54201 33.0605 6.29145 32.8334 6.08358C32.6063 5.87572 32.3405 5.71463 32.0512 5.60951Z" fill="#4A96F8"/>
</svg>
