<svg width="52" height="52" viewBox="0 0 52 52" fill="none" xmlns="http://www.w3.org/2000/svg">
<path d="M46.3129 26C46.3129 26.6465 46.0561 27.2664 45.599 27.7236C45.1418 28.1807 44.5219 28.4375 43.8754 28.4375H26.0004C25.3539 28.4375 24.7339 28.1807 24.2768 27.7236C23.8197 27.2664 23.5629 26.6465 23.5629 26C23.5629 25.3535 23.8197 24.7335 24.2768 24.2764C24.7339 23.8193 25.3539 23.5625 26.0004 23.5625H43.8754C44.5219 23.5625 45.1418 23.8193 45.599 24.2764C46.0561 24.7335 46.3129 25.3535 46.3129 26ZM26.0004 15.4375H43.8754C44.5219 15.4375 45.1418 15.1807 45.599 14.7236C46.0561 14.2664 46.3129 13.6465 46.3129 13C46.3129 12.3535 46.0561 11.7335 45.599 11.2764C45.1418 10.8193 44.5219 10.5625 43.8754 10.5625H26.0004C25.3539 10.5625 24.7339 10.8193 24.2768 11.2764C23.8197 11.7335 23.5629 12.3535 23.5629 13C23.5629 13.6465 23.8197 14.2664 24.2768 14.7236C24.7339 15.1807 25.3539 15.4375 26.0004 15.4375ZM43.8754 36.5625H26.0004C25.3539 36.5625 24.7339 36.8193 24.2768 37.2764C23.8197 37.7335 23.5629 38.3535 23.5629 39C23.5629 39.6465 23.8197 40.2664 24.2768 40.7236C24.7339 41.1807 25.3539 41.4375 26.0004 41.4375H43.8754C44.5219 41.4375 45.1418 41.1807 45.599 40.7236C46.0561 40.2664 46.3129 39.6465 46.3129 39C46.3129 38.3535 46.0561 37.7335 45.599 37.2764C45.1418 36.8193 44.5219 36.5625 43.8754 36.5625ZM16.1509 8.02546L11.3754 12.7969L9.84993 11.2694C9.39202 10.8115 8.77096 10.5542 8.12337 10.5542C7.47578 10.5542 6.85472 10.8115 6.39681 11.2694C5.93889 11.7273 5.68164 12.3483 5.68164 12.9959C5.68164 13.6435 5.93889 14.2646 6.39681 14.7225L9.64681 17.9725C9.87326 18.1997 10.1423 18.38 10.4386 18.5031C10.7349 18.6261 11.0526 18.6894 11.3734 18.6894C11.6942 18.6894 12.0118 18.6261 12.3081 18.5031C12.6044 18.38 12.8735 18.1997 13.0999 17.9725L19.5999 11.4725C20.0578 11.0146 20.3151 10.3935 20.3151 9.74593C20.3151 9.09834 20.0578 8.47728 19.5999 8.01936C19.142 7.56145 18.521 7.3042 17.8734 7.3042C17.2258 7.3042 16.6047 7.56145 16.1468 8.01936L16.1509 8.02546ZM16.1509 21.0255L11.3754 25.7969L9.84993 24.2694C9.39202 23.8115 8.77096 23.5542 8.12337 23.5542C7.47578 23.5542 6.85472 23.8115 6.39681 24.2694C5.93889 24.7273 5.68164 25.3483 5.68164 25.9959C5.68164 26.6435 5.93889 27.2646 6.39681 27.7225L9.64681 30.9725C9.87326 31.1997 10.1423 31.38 10.4386 31.5031C10.7349 31.6261 11.0526 31.6894 11.3734 31.6894C11.6942 31.6894 12.0118 31.6261 12.3081 31.5031C12.6044 31.38 12.8735 31.1997 13.0999 30.9725L19.5999 24.4725C20.0578 24.0146 20.3151 23.3935 20.3151 22.7459C20.3151 22.0983 20.0578 21.4773 19.5999 21.0194C19.142 20.5615 18.521 20.3042 17.8734 20.3042C17.2258 20.3042 16.6047 20.5615 16.1468 21.0194L16.1509 21.0255ZM16.1509 34.0255L11.3754 38.7969L9.84993 37.2694C9.6232 37.0426 9.35402 36.8628 9.05778 36.7401C8.76153 36.6174 8.44402 36.5542 8.12337 36.5542C7.80272 36.5542 7.4852 36.6174 7.18896 36.7401C6.89272 36.8628 6.62354 37.0426 6.39681 37.2694C6.17007 37.4961 5.99021 37.7653 5.86751 38.0615C5.7448 38.3578 5.68164 38.6753 5.68164 38.9959C5.68164 39.3166 5.7448 39.6341 5.86751 39.9303C5.99021 40.2266 6.17007 40.4958 6.39681 40.7225L9.64681 43.9725C9.87326 44.1997 10.1423 44.38 10.4386 44.5031C10.7349 44.6261 11.0526 44.6894 11.3734 44.6894C11.6942 44.6894 12.0118 44.6261 12.3081 44.5031C12.6044 44.38 12.8735 44.1997 13.0999 43.9725L19.5999 37.4725C20.0578 37.0146 20.3151 36.3935 20.3151 35.7459C20.3151 35.0983 20.0578 34.4773 19.5999 34.0194C19.142 33.5615 18.521 33.3042 17.8734 33.3042C17.2258 33.3042 16.6047 33.5615 16.1468 34.0194L16.1509 34.0255Z" fill="#4A96F8"/>
</svg>
