<svg width="33" height="32" viewBox="0 0 33 32" fill="none" xmlns="http://www.w3.org/2000/svg">
<path d="M3 21.3334C3 18.88 4.33334 16.7334 6.30667 15.5734C7.2 15.0534 8.33334 15.68 8.33334 16.72C8.33334 17.2 8.08 17.6267 7.66667 17.8667C6.46667 18.56 5.66667 19.8534 5.66667 21.3334C5.66667 23.8 7.90667 25.7467 10.4667 25.2534C12.36 24.88 13.6667 23.1067 13.6667 21.1734C13.6667 20.52 14.1867 20 14.84 20H21.5067C21.8667 19.5867 22.4 19.3334 23 19.3334C24.1067 19.3334 25 20.2267 25 21.3334C25 22.44 24.1067 23.3334 23 23.3334C22.4133 23.3334 21.88 23.08 21.5067 22.6667H16.2C15.871 24.2869 14.9517 25.7271 13.6206 26.7076C12.2895 27.6882 10.6416 28.1391 8.99668 27.973C7.35178 27.8068 5.82729 27.0354 4.71917 25.8085C3.61104 24.5815 2.99834 22.9866 3 21.3334ZM22.16 9.33336C23.0267 9.33336 23.68 8.50669 23.4533 7.66669C23.086 6.23479 22.2522 4.966 21.0837 4.0606C19.9151 3.1552 18.4783 2.66476 17 2.66669C15.6682 2.66776 14.3672 3.06752 13.2647 3.81449C12.1621 4.56146 11.3084 5.62142 10.8135 6.85786C10.3186 8.09429 10.2053 9.45057 10.488 10.752C10.7708 12.0534 11.4367 13.2404 12.4 14.16L9.26667 19.36C8.36 19.5467 7.66667 20.36 7.66667 21.3334C7.66667 22.44 8.56 23.3334 9.66667 23.3334C9.98078 23.3337 10.2906 23.26 10.5708 23.1182C10.8511 22.9764 11.094 22.7705 11.2798 22.5172C11.4655 22.2639 11.5889 21.9703 11.6399 21.6604C11.6909 21.3504 11.6681 21.0328 11.5733 20.7334L15.3867 14.4C15.72 13.8534 15.56 13.1334 15.0133 12.8134C13.8133 12.1067 13 10.8134 13 9.33336C13 7.13336 14.8 5.33336 17 5.33336C18.84 5.33336 20.3867 6.57336 20.8533 8.26669C21.0267 8.88003 21.5333 9.33336 22.16 9.33336ZM23 17.3334C22.4933 17.3334 22 17.4267 21.5467 17.6C21.0133 17.8134 20.4 17.5467 20.1067 17.0534L16.64 11.2934C15.7067 11.1334 15 10.32 15 9.33336C15 8.22669 15.8933 7.33336 17 7.33336C18.1067 7.33336 19 8.22669 19 9.33336C19 9.53336 18.9733 9.72003 18.92 9.90669L21.84 14.7734C22.2133 14.7067 22.6 14.6667 23 14.6667C26.68 14.6667 29.6667 17.6534 29.6667 21.3334C29.6667 25.0134 26.68 28 23 28C21.8533 28 20.76 27.7067 19.8133 27.1867C18.5867 26.52 19.04 24.6667 20.44 24.6667C20.6667 24.6667 20.8933 24.7334 21.0933 24.8534C21.6533 25.16 22.3067 25.3334 23 25.3334C25.2 25.3334 27 23.5334 27 21.3334C27 19.1334 25.2 17.3334 23 17.3334Z" fill="white"/>
</svg>
