<svg width="337" height="222" viewBox="0 0 337 222" fill="none" xmlns="http://www.w3.org/2000/svg">
<g clip-path="url(#clip0_19958_397)">
<path d="M0 24C0 10.7452 10.7452 0 24 0H313C326.255 0 337 10.7452 337 24V198C337 211.255 326.255 222 313 222H24C10.7452 222 0 211.255 0 198V24Z" fill="white"/>
<rect x="34" y="66" width="269" height="287" rx="20" fill="#2D4F8C"/>
<rect x="35.5" y="67.5" width="266" height="284" rx="18.5" stroke="white" stroke-opacity="0.5" stroke-width="3"/>
<path d="M23.5028 28.9091L26.6669 38.8551H26.7884L29.9588 28.9091H33.027L28.5142 42H24.9474L20.4283 28.9091H23.5028ZM34.3515 42V32.1818H37.0745V42H34.3515ZM35.7194 30.9162C35.3146 30.9162 34.9673 30.782 34.6775 30.5135C34.392 30.2408 34.2492 29.9148 34.2492 29.5355C34.2492 29.1605 34.392 28.8388 34.6775 28.5703C34.9673 28.2976 35.3146 28.1612 35.7194 28.1612C36.1242 28.1612 36.4694 28.2976 36.7549 28.5703C37.0447 28.8388 37.1896 29.1605 37.1896 29.5355C37.1896 29.9148 37.0447 30.2408 36.7549 30.5135C36.4694 30.782 36.1242 30.9162 35.7194 30.9162ZM39.0558 42V32.1818H41.6957V33.8949H41.798C41.977 33.2855 42.2774 32.8253 42.6993 32.5142C43.1211 32.1989 43.6069 32.0412 44.1566 32.0412C44.293 32.0412 44.44 32.0497 44.5977 32.0668C44.7554 32.0838 44.8939 32.1072 45.0132 32.1371V34.5533C44.8853 34.5149 44.7085 34.4808 44.4826 34.451C44.2568 34.4212 44.0501 34.4062 43.8626 34.4062C43.462 34.4062 43.1041 34.4936 42.7887 34.6683C42.4777 34.8388 42.2305 35.0774 42.0473 35.3842C41.8683 35.6911 41.7788 36.0447 41.7788 36.4453V42H39.0558ZM51.9355 32.1818V34.2273H46.0229V32.1818H51.9355ZM47.3652 29.8295H50.0882V38.983C50.0882 39.2344 50.1266 39.4304 50.2033 39.571C50.28 39.7074 50.3865 39.8033 50.5229 39.8587C50.6635 39.9141 50.8254 39.9418 51.0087 39.9418C51.1365 39.9418 51.2643 39.9311 51.3922 39.9098C51.52 39.8842 51.618 39.8651 51.6862 39.8523L52.1145 41.8786C51.9781 41.9212 51.7864 41.9702 51.5392 42.0256C51.292 42.0852 50.9916 42.1214 50.6379 42.1342C49.9817 42.1598 49.4064 42.0724 48.9121 41.8722C48.422 41.6719 48.0406 41.3608 47.7679 40.9389C47.4952 40.517 47.3609 39.9844 47.3652 39.3409V29.8295ZM59.8055 37.8196V32.1818H62.5285V42H59.9141V40.2166H59.8119C59.5903 40.7919 59.2217 41.2543 58.706 41.6037C58.1947 41.9531 57.5704 42.1278 56.8332 42.1278C56.1769 42.1278 55.5995 41.9787 55.1009 41.6804C54.6023 41.3821 54.2124 40.9581 53.9312 40.4084C53.6542 39.8587 53.5136 39.2003 53.5093 38.4332V32.1818H56.2323V37.9474C56.2366 38.527 56.3921 38.9851 56.6989 39.3217C57.0058 39.6584 57.417 39.8267 57.9326 39.8267C58.2607 39.8267 58.5675 39.7521 58.8531 39.603C59.1386 39.4496 59.3687 39.2237 59.5434 38.9254C59.7224 38.6271 59.8097 38.2585 59.8055 37.8196ZM67.3063 42.1854C66.6799 42.1854 66.1216 42.0767 65.6316 41.8594C65.1415 41.6378 64.7537 41.3118 64.4682 40.8814C64.187 40.4467 64.0463 39.9055 64.0463 39.2578C64.0463 38.7124 64.1465 38.2543 64.3468 37.8835C64.5471 37.5128 64.8198 37.2145 65.165 36.9886C65.5101 36.7628 65.9022 36.5923 66.3411 36.4773C66.7843 36.3622 67.2488 36.2812 67.7346 36.2344C68.3056 36.1747 68.7658 36.1193 69.1152 36.0682C69.4647 36.0128 69.7182 35.9318 69.8759 35.8253C70.0336 35.7187 70.1124 35.5611 70.1124 35.3523V35.3139C70.1124 34.9091 69.9846 34.5959 69.7289 34.3743C69.4775 34.1527 69.1195 34.0419 68.655 34.0419C68.165 34.0419 67.775 34.1506 67.4853 34.3679C67.1955 34.581 67.0037 34.8494 66.91 35.1733L64.3915 34.9688C64.5194 34.3722 64.7708 33.8565 65.1458 33.4219C65.5208 32.983 66.0044 32.6463 66.5968 32.4119C67.1934 32.1733 67.8837 32.054 68.6678 32.054C69.2132 32.054 69.7353 32.1179 70.2338 32.2457C70.7367 32.3736 71.182 32.5717 71.5698 32.8402C71.9618 33.1087 72.2708 33.4538 72.4966 33.8757C72.7225 34.2933 72.8354 34.794 72.8354 35.3778V42H70.253V40.6385H70.1763C70.0186 40.9453 69.8077 41.2159 69.5435 41.4503C69.2793 41.6804 68.9618 41.8615 68.5911 41.9936C68.2203 42.1214 67.7921 42.1854 67.3063 42.1854ZM68.0861 40.3061C68.4867 40.3061 68.8404 40.2273 69.1472 40.0696C69.454 39.9077 69.6948 39.6903 69.8695 39.4176C70.0442 39.1449 70.1316 38.8359 70.1316 38.4908V37.4489C70.0463 37.5043 69.9292 37.5554 69.78 37.6023C69.6351 37.6449 69.4711 37.6854 69.2878 37.7237C69.1046 37.7578 68.9213 37.7898 68.7381 37.8196C68.5549 37.8452 68.3887 37.8686 68.2395 37.8899C67.9199 37.9368 67.6408 38.0114 67.4022 38.1136C67.1635 38.2159 66.9782 38.3544 66.8461 38.5291C66.714 38.6996 66.6479 38.9126 66.6479 39.1683C66.6479 39.5391 66.7821 39.8224 67.0506 40.0185C67.3233 40.2102 67.6685 40.3061 68.0861 40.3061ZM77.471 28.9091V42H74.748V28.9091H77.471ZM95.0199 33.4922H92.2201C92.169 33.13 92.0646 32.8082 91.9069 32.527C91.7493 32.2415 91.5468 31.9986 91.2997 31.7983C91.0525 31.598 90.767 31.4446 90.4431 31.3381C90.1235 31.2315 89.7762 31.1783 89.4012 31.1783C88.7237 31.1783 88.1335 31.3466 87.6306 31.6832C87.1278 32.0156 86.7379 32.5014 86.4609 33.1406C86.1839 33.7756 86.0454 34.5469 86.0454 35.4545C86.0454 36.3878 86.1839 37.1719 86.4609 37.8068C86.7422 38.4418 87.1342 38.9212 87.637 39.245C88.1399 39.5689 88.7216 39.7308 89.3821 39.7308C89.7528 39.7308 90.0958 39.6818 90.4112 39.5838C90.7308 39.4858 91.0142 39.343 91.2613 39.1555C91.5085 38.9638 91.713 38.7315 91.875 38.4588C92.0412 38.1861 92.1562 37.875 92.2201 37.5256L95.0199 37.5384C94.9474 38.1392 94.7663 38.7188 94.4765 39.277C94.191 39.831 93.8054 40.3274 93.3196 40.7663C92.838 41.201 92.2628 41.5462 91.5937 41.8018C90.9289 42.0533 90.1768 42.179 89.3373 42.179C88.1697 42.179 87.1257 41.9148 86.2052 41.3864C85.289 40.858 84.5646 40.093 84.0319 39.0916C83.5035 38.0902 83.2393 36.8778 83.2393 35.4545C83.2393 34.027 83.5078 32.8125 84.0447 31.8111C84.5816 30.8097 85.3103 30.0469 86.2308 29.5227C87.1512 28.9943 88.1868 28.7301 89.3373 28.7301C90.0958 28.7301 90.799 28.8366 91.4467 29.0497C92.0987 29.2628 92.6761 29.5739 93.1789 29.983C93.6818 30.3878 94.0909 30.8842 94.4062 31.4723C94.7258 32.0604 94.9304 32.7337 95.0199 33.4922ZM99.5532 42.1854C98.9267 42.1854 98.3685 42.0767 97.8784 41.8594C97.3884 41.6378 97.0006 41.3118 96.7151 40.8814C96.4338 40.4467 96.2932 39.9055 96.2932 39.2578C96.2932 38.7124 96.3934 38.2543 96.5936 37.8835C96.7939 37.5128 97.0667 37.2145 97.4118 36.9886C97.757 36.7628 98.149 36.5923 98.588 36.4773C99.0311 36.3622 99.4956 36.2812 99.9814 36.2344C100.552 36.1747 101.013 36.1193 101.362 36.0682C101.712 36.0128 101.965 35.9318 102.123 35.8253C102.28 35.7187 102.359 35.5611 102.359 35.3523V35.3139C102.359 34.9091 102.231 34.5959 101.976 34.3743C101.724 34.1527 101.366 34.0419 100.902 34.0419C100.412 34.0419 100.022 34.1506 99.7321 34.3679C99.4424 34.581 99.2506 34.8494 99.1569 35.1733L96.6384 34.9688C96.7662 34.3722 97.0176 33.8565 97.3926 33.4219C97.7676 32.983 98.2513 32.6463 98.8436 32.4119C99.4402 32.1733 100.131 32.054 100.915 32.054C101.46 32.054 101.982 32.1179 102.481 32.2457C102.984 32.3736 103.429 32.5717 103.817 32.8402C104.209 33.1087 104.518 33.4538 104.743 33.8757C104.969 34.2933 105.082 34.794 105.082 35.3778V42H102.5V40.6385H102.423C102.266 40.9453 102.055 41.2159 101.79 41.4503C101.526 41.6804 101.209 41.8615 100.838 41.9936C100.467 42.1214 100.039 42.1854 99.5532 42.1854ZM100.333 40.3061C100.734 40.3061 101.087 40.2273 101.394 40.0696C101.701 39.9077 101.942 39.6903 102.116 39.4176C102.291 39.1449 102.378 38.8359 102.378 38.4908V37.4489C102.293 37.5043 102.176 37.5554 102.027 37.6023C101.882 37.6449 101.718 37.6854 101.535 37.7237C101.351 37.7578 101.168 37.7898 100.985 37.8196C100.802 37.8452 100.636 37.8686 100.486 37.8899C100.167 37.9368 99.8877 38.0114 99.649 38.1136C99.4104 38.2159 99.225 38.3544 99.0929 38.5291C98.9608 38.6996 98.8948 38.9126 98.8948 39.1683C98.8948 39.5391 99.029 39.8224 99.2975 40.0185C99.5702 40.2102 99.9154 40.3061 100.333 40.3061ZM106.995 42V32.1818H109.635V33.8949H109.737C109.916 33.2855 110.216 32.8253 110.638 32.5142C111.06 32.1989 111.546 32.0412 112.096 32.0412C112.232 32.0412 112.379 32.0497 112.537 32.0668C112.694 32.0838 112.833 32.1072 112.952 32.1371V34.5533C112.824 34.5149 112.648 34.4808 112.422 34.451C112.196 34.4212 111.989 34.4062 111.802 34.4062C111.401 34.4062 111.043 34.4936 110.728 34.6683C110.417 34.8388 110.17 35.0774 109.986 35.3842C109.807 35.6911 109.718 36.0447 109.718 36.4453V42H106.995ZM117.321 42.1598C116.575 42.1598 115.9 41.968 115.295 41.5845C114.694 41.1967 114.217 40.6278 113.863 39.8778C113.513 39.1236 113.339 38.1989 113.339 37.1037C113.339 35.9787 113.52 35.0433 113.882 34.2976C114.244 33.5476 114.726 32.9872 115.327 32.6165C115.932 32.2415 116.594 32.054 117.315 32.054C117.864 32.054 118.322 32.1477 118.689 32.3352C119.06 32.5185 119.358 32.7486 119.584 33.0256C119.814 33.2983 119.989 33.5668 120.108 33.831H120.191V28.9091H122.908V42H120.223V40.4276H120.108C119.98 40.7003 119.799 40.9709 119.565 41.2393C119.334 41.5036 119.034 41.723 118.663 41.8977C118.297 42.0724 117.849 42.1598 117.321 42.1598ZM118.184 39.9929C118.623 39.9929 118.994 39.8736 119.296 39.6349C119.603 39.392 119.837 39.0533 119.999 38.6186C120.165 38.1839 120.249 37.6747 120.249 37.0909C120.249 36.5071 120.168 36 120.006 35.5696C119.844 35.1392 119.609 34.8068 119.302 34.5724C118.996 34.3381 118.623 34.2209 118.184 34.2209C117.736 34.2209 117.359 34.3423 117.052 34.5852C116.746 34.8281 116.513 35.1648 116.356 35.5952C116.198 36.0256 116.119 36.5241 116.119 37.0909C116.119 37.6619 116.198 38.1669 116.356 38.6058C116.518 39.0405 116.75 39.3814 117.052 39.6286C117.359 39.8714 117.736 39.9929 118.184 39.9929Z" fill="#1F1F1F"/>
<rect x="133" y="20" width="58" height="30" rx="15" fill="#F5F5F5"/>
<path d="M143.308 31.6191V29.8145H151.586V31.6191H148.503V40H146.397V31.6191H143.308ZM153.958 40.1641C153.229 40.1641 152.589 40.0068 152.037 39.6924C151.491 39.3779 151.062 38.9404 150.752 38.3799C150.447 37.8148 150.294 37.154 150.294 36.3975C150.294 35.641 150.447 34.9801 150.752 34.415C151.062 33.8499 151.491 33.4102 152.037 33.0957C152.589 32.7767 153.229 32.6172 153.958 32.6172C154.692 32.6172 155.332 32.7767 155.879 33.0957C156.431 33.4102 156.859 33.8499 157.164 34.415C157.474 34.9801 157.629 35.641 157.629 36.3975C157.629 37.1494 157.474 37.8079 157.164 38.373C156.859 38.9382 156.431 39.3779 155.879 39.6924C155.332 40.0068 154.692 40.1641 153.958 40.1641ZM153.958 38.5303C154.45 38.5303 154.847 38.3434 155.148 37.9697C155.449 37.5915 155.599 37.0674 155.599 36.3975C155.599 35.723 155.449 35.1966 155.148 34.8184C154.847 34.4401 154.45 34.251 153.958 34.251C153.471 34.251 153.076 34.4401 152.776 34.8184C152.475 35.1966 152.324 35.723 152.324 36.3975C152.324 37.0674 152.475 37.5915 152.776 37.9697C153.076 38.3434 153.471 38.5303 153.958 38.5303ZM161.273 40.1504C160.644 40.1504 160.095 39.9932 159.626 39.6787C159.156 39.3643 158.792 38.9245 158.532 38.3594C158.277 37.7943 158.149 37.1357 158.149 36.3838C158.149 35.6455 158.279 34.9938 158.539 34.4287C158.803 33.8636 159.168 33.4238 159.632 33.1094C160.102 32.7904 160.644 32.6309 161.259 32.6309C161.724 32.6309 162.137 32.7266 162.497 32.918C162.857 33.1048 163.153 33.3919 163.385 33.7793H163.392V29.8145H165.402V40H163.419V38.8926H163.413C163.203 39.3118 162.911 39.6263 162.538 39.8359C162.169 40.0456 161.747 40.1504 161.273 40.1504ZM161.793 38.5098C162.303 38.5098 162.713 38.3184 163.023 37.9355C163.333 37.5482 163.488 37.0309 163.488 36.3838C163.488 35.7412 163.333 35.2262 163.023 34.8389C162.713 34.4515 162.303 34.2578 161.793 34.2578C161.305 34.2578 160.913 34.4447 160.617 34.8184C160.325 35.1875 160.179 35.7093 160.179 36.3838C160.179 37.0583 160.325 37.5824 160.617 37.9561C160.913 38.3252 161.305 38.5098 161.793 38.5098ZM168.759 40.123C168.039 40.123 167.444 39.943 166.974 39.583C166.51 39.223 166.277 38.6829 166.277 37.9629C166.277 37.4206 166.407 36.9967 166.667 36.6914C166.927 36.3815 167.271 36.1559 167.699 36.0146C168.127 35.8734 168.592 35.7799 169.094 35.7344C169.754 35.666 170.217 35.5977 170.481 35.5293C170.746 35.4609 170.878 35.3105 170.878 35.0781V35.0303C170.878 34.766 170.773 34.5495 170.563 34.3809C170.354 34.2122 170.064 34.1279 169.695 34.1279C169.321 34.1279 169.018 34.2145 168.786 34.3877C168.554 34.5609 168.426 34.7865 168.403 35.0645H166.51C166.555 34.3216 166.861 33.7314 167.426 33.2939C167.991 32.8519 168.768 32.6309 169.757 32.6309C170.746 32.6309 171.511 32.8519 172.054 33.2939C172.596 33.7314 172.867 34.3353 172.867 35.1055V40H170.898V38.9814H170.871C170.68 39.3324 170.417 39.6104 170.085 39.8154C169.752 40.0205 169.31 40.123 168.759 40.123ZM169.319 38.7217C169.802 38.7217 170.185 38.5941 170.468 38.3389C170.75 38.0791 170.891 37.7533 170.891 37.3613V36.6367C170.778 36.7005 170.588 36.7598 170.324 36.8145C170.06 36.8646 169.766 36.9147 169.442 36.9648C169.096 37.0195 168.802 37.1198 168.56 37.2656C168.323 37.4069 168.205 37.6211 168.205 37.9082C168.205 38.1634 168.305 38.3639 168.506 38.5098C168.711 38.651 168.982 38.7217 169.319 38.7217ZM173.872 42.8574V41.2646H174.788C175.03 41.2646 175.207 41.2054 175.321 41.0869C175.44 40.973 175.547 40.777 175.643 40.499L175.841 39.9727L173.066 32.7812H175.178L176.388 36.3496C176.47 36.6094 176.55 36.8691 176.627 37.1289C176.709 37.3887 176.789 37.6484 176.866 37.9082C176.944 37.6484 177.024 37.3887 177.106 37.1289C177.188 36.8646 177.27 36.6048 177.352 36.3496L178.568 32.7812H180.66L177.482 41.1143C177.254 41.7158 176.957 42.1556 176.593 42.4336C176.228 42.7161 175.766 42.8574 175.205 42.8574H173.872Z" fill="#1F1F1F"/>
<path opacity="0.5" d="M275.273 41.1875C273.784 41.1875 272.622 40.8359 271.789 40.1328C270.961 39.4297 270.547 38.4453 270.547 37.1797H272.867C272.883 37.8203 273.104 38.3203 273.531 38.6797C273.958 39.0339 274.544 39.2109 275.289 39.2109C275.956 39.2109 276.492 39.0755 276.898 38.8047C277.305 38.5339 277.508 38.1719 277.508 37.7188C277.508 37.3438 277.344 37.0391 277.016 36.8047C276.693 36.5703 276.161 36.3724 275.422 36.2109L274.195 35.9453C271.914 35.4505 270.773 34.3724 270.773 32.7109C270.773 32.0026 270.958 31.3854 271.328 30.8594C271.698 30.3281 272.214 29.9141 272.875 29.6172C273.536 29.3203 274.31 29.1719 275.195 29.1719C276.534 29.1719 277.594 29.5052 278.375 30.1719C279.161 30.8385 279.573 31.7578 279.609 32.9297H277.359C277.318 32.3776 277.104 31.9427 276.719 31.625C276.333 31.3073 275.828 31.1484 275.203 31.1484C274.609 31.1484 274.122 31.2839 273.742 31.5547C273.367 31.8255 273.18 32.1719 273.18 32.5938C273.18 32.9531 273.336 33.2422 273.648 33.4609C273.961 33.6797 274.474 33.8672 275.188 34.0234L276.305 34.2656C277.544 34.5312 278.451 34.9297 279.023 35.4609C279.602 35.987 279.891 36.6875 279.891 37.5625C279.891 38.6823 279.479 39.5677 278.656 40.2188C277.833 40.8646 276.706 41.1875 275.273 41.1875ZM284.696 41.1875C283.862 41.1875 283.136 41.0026 282.516 40.6328C281.901 40.263 281.422 39.7552 281.078 39.1094C280.74 38.4583 280.571 37.7161 280.571 36.8828C280.571 36.0443 280.743 35.2995 281.086 34.6484C281.435 33.9974 281.914 33.487 282.524 33.1172C283.133 32.7474 283.831 32.5625 284.618 32.5625C285.43 32.5625 286.138 32.7448 286.743 33.1094C287.352 33.4688 287.826 33.9714 288.164 34.6172C288.508 35.2578 288.68 35.9974 288.68 36.8359V37.4531H282.813C282.834 38.0625 283.013 38.5495 283.352 38.9141C283.69 39.2786 284.162 39.4609 284.766 39.4609C285.214 39.4609 285.586 39.3646 285.883 39.1719C286.185 38.9792 286.388 38.724 286.493 38.4062H288.594C288.495 38.9531 288.263 39.4349 287.899 39.8516C287.534 40.2682 287.076 40.5964 286.524 40.8359C285.972 41.0703 285.362 41.1875 284.696 41.1875ZM282.828 35.9844H286.508C286.451 35.4688 286.258 35.0625 285.93 34.7656C285.607 34.4635 285.185 34.3125 284.664 34.3125C284.149 34.3125 283.729 34.4635 283.407 34.7656C283.084 35.0625 282.891 35.4688 282.828 35.9844ZM293.36 41.1875C292.527 41.1875 291.8 41.0026 291.18 40.6328C290.566 40.263 290.087 39.7552 289.743 39.1094C289.404 38.4583 289.235 37.7161 289.235 36.8828C289.235 36.0443 289.407 35.2995 289.751 34.6484C290.1 33.9974 290.579 33.487 291.188 33.1172C291.798 32.7474 292.495 32.5625 293.282 32.5625C294.094 32.5625 294.803 32.7448 295.407 33.1094C296.016 33.4688 296.49 33.9714 296.829 34.6172C297.173 35.2578 297.344 35.9974 297.344 36.8359V37.4531H291.477C291.498 38.0625 291.678 38.5495 292.016 38.9141C292.355 39.2786 292.826 39.4609 293.43 39.4609C293.878 39.4609 294.251 39.3646 294.548 39.1719C294.85 38.9792 295.053 38.724 295.157 38.4062H297.258C297.159 38.9531 296.928 39.4349 296.563 39.8516C296.199 40.2682 295.74 40.5964 295.188 40.8359C294.636 41.0703 294.027 41.1875 293.36 41.1875ZM291.493 35.9844H295.173C295.115 35.4688 294.923 35.0625 294.594 34.7656C294.271 34.4635 293.85 34.3125 293.329 34.3125C292.813 34.3125 292.394 34.4635 292.071 34.7656C291.748 35.0625 291.555 35.4688 291.493 35.9844ZM303.9 41.1406C303.077 41.1406 302.397 40.9349 301.861 40.5234C301.329 40.112 301.064 39.4948 301.064 38.6719C301.064 38.0521 301.212 37.5677 301.509 37.2188C301.806 36.8646 302.199 36.6068 302.689 36.4453C303.178 36.2839 303.71 36.1771 304.282 36.125C305.038 36.0469 305.566 35.9688 305.868 35.8906C306.171 35.8125 306.322 35.6406 306.322 35.375V35.3203C306.322 35.0182 306.202 34.7708 305.962 34.5781C305.723 34.3854 305.392 34.2891 304.97 34.2891C304.543 34.2891 304.197 34.388 303.931 34.5859C303.665 34.7839 303.519 35.0417 303.493 35.3594H301.329C301.381 34.5104 301.73 33.8359 302.376 33.3359C303.022 32.8307 303.91 32.5781 305.04 32.5781C306.171 32.5781 307.046 32.8307 307.665 33.3359C308.285 33.8359 308.595 34.526 308.595 35.4062V41H306.345V39.8359H306.314C306.095 40.237 305.796 40.5547 305.415 40.7891C305.035 41.0234 304.53 41.1406 303.9 41.1406ZM304.54 39.5391C305.092 39.5391 305.53 39.3932 305.853 39.1016C306.176 38.8047 306.337 38.4323 306.337 37.9844V37.1562C306.207 37.2292 305.991 37.2969 305.689 37.3594C305.387 37.4167 305.051 37.474 304.681 37.5312C304.285 37.5938 303.949 37.7083 303.673 37.875C303.402 38.0365 303.267 38.2812 303.267 38.6094C303.267 38.901 303.381 39.1302 303.611 39.2969C303.845 39.4583 304.155 39.5391 304.54 39.5391ZM312.205 29.3594V41H309.9V29.3594H312.205ZM315.822 29.3594V41H313.518V29.3594H315.822Z" fill="#1F1F1F"/>
<path d="M62.539 102.583H56.9551L59.5828 99.8459H62.539C63.9903 99.8459 65.1668 98.6695 65.1668 97.2182V96.3423H67.7945V97.3277C67.7945 100.23 65.4416 102.583 62.539 102.583Z" fill="white"/>
<path d="M62.1023 87.5831H67.6863L65.0585 90.3203H62.1023C60.6511 90.3203 59.4746 91.4968 59.4746 92.9481V93.824H56.8468V92.8386C56.8468 89.936 59.1998 87.5831 62.1023 87.5831Z" fill="white"/>
<path d="M64.9788 92.8386H62.451L65.057 90.3203L65.314 90.3201C68.2185 90.3172 70.5746 92.671 70.5746 95.5756V96.3423H67.8255V95.6853C67.8255 94.1131 66.551 92.8386 64.9788 92.8386Z" fill="white"/>
<path d="M59.5958 97.3277H62.1235L59.5176 99.8459L59.2606 99.8462C56.356 99.849 53.9999 97.4952 53.9999 94.5907V93.824H56.7491V94.4809C56.7491 96.0531 58.0236 97.3277 59.5958 97.3277Z" fill="white"/>
<g clip-path="url(#clip1_19958_397)">
<path d="M265.577 87C262.032 87 258.848 88.8449 258.848 92.2304C258.848 96.1294 264.472 96.3957 264.472 98.3357C264.472 99.1535 263.518 99.8953 261.917 99.8953C259.63 99.8953 257.914 98.8682 257.914 98.8682L257.19 102.292C257.19 102.292 259.153 103.167 261.784 103.167C265.673 103.167 268.722 101.246 268.722 97.7841C268.722 93.6759 263.08 93.4096 263.08 91.6027C263.08 90.9561 263.862 90.2524 265.463 90.2524C267.274 90.2524 268.761 90.9941 268.761 90.9941L269.485 87.6847C269.466 87.6847 267.846 87 265.577 87ZM233.095 87.2473L233 87.7418C233 87.7418 234.487 88.008 235.84 88.5596C237.575 89.1873 237.689 89.5486 237.994 90.6708L241.178 102.9H245.448L251.986 87.2473H247.735L243.522 97.8982L241.807 88.8639C241.654 87.8369 240.854 87.2473 239.862 87.2473H233.095ZM253.701 87.2473L250.366 102.9H254.426L257.743 87.2473H253.701ZM276.309 87.2473C275.337 87.2473 274.822 87.7608 274.441 88.6737L268.494 102.9H272.745L273.564 100.523H278.749L279.245 102.9H283L279.74 87.2473H276.309ZM276.862 91.4886L278.12 97.3657H274.746L276.862 91.4886Z" fill="white"/>
</g>
<g filter="url(#filter0_d_19958_397)">
<rect x="20" y="100" width="297" height="287" rx="20" fill="url(#paint0_linear_19958_397)"/>
<rect x="21.5" y="101.5" width="294" height="284" rx="18.5" stroke="white" stroke-width="3"/>
</g>
<path d="M48.5388 135.583H42.9548L45.5826 132.846H48.5388C49.9901 132.846 51.1665 131.67 51.1665 130.218V129.343H53.7943V130.328C53.7943 133.23 51.4413 135.583 48.5388 135.583Z" fill="#4A96F8"/>
<path d="M48.1021 120.583H53.686L51.0583 123.321H48.1021C46.6508 123.321 45.4743 124.497 45.4743 125.948V126.824H42.8466V125.839C42.8466 122.936 45.1995 120.583 48.1021 120.583Z" fill="#14326B"/>
<path d="M50.9785 125.839H48.4508L51.0568 123.321L51.3138 123.32C54.2183 123.317 56.5744 125.671 56.5744 128.576V129.343H53.8252V128.686C53.8252 127.113 52.5507 125.839 50.9785 125.839Z" fill="#4A96F8"/>
<path d="M45.5956 130.328H48.1233L45.5173 132.846L45.2603 132.846C42.3558 132.849 39.9997 130.495 39.9997 127.591V126.824H42.7489V127.481C42.7489 129.053 44.0234 130.328 45.5956 130.328Z" fill="#14326B"/>
<g clip-path="url(#clip2_19958_397)">
<path d="M279.577 120C276.032 120 272.848 121.845 272.848 125.23C272.848 129.129 278.472 129.396 278.472 131.336C278.472 132.154 277.518 132.895 275.917 132.895C273.63 132.895 271.914 131.868 271.914 131.868L271.19 135.292C271.19 135.292 273.153 136.167 275.784 136.167C279.673 136.167 282.722 134.246 282.722 130.784C282.722 126.676 277.08 126.41 277.08 124.603C277.08 123.956 277.862 123.252 279.463 123.252C281.274 123.252 282.761 123.994 282.761 123.994L283.485 120.685C283.466 120.685 281.846 120 279.577 120ZM247.095 120.247L247 120.742C247 120.742 248.487 121.008 249.84 121.56C251.575 122.187 251.689 122.549 251.994 123.671L255.178 135.9H259.448L265.986 120.247H261.735L257.522 130.898L255.807 121.864C255.654 120.837 254.854 120.247 253.862 120.247H247.095ZM267.701 120.247L264.366 135.9H268.426L271.743 120.247H267.701ZM290.309 120.247C289.337 120.247 288.822 120.761 288.441 121.674L282.494 135.9H286.745L287.564 133.523H292.749L293.245 135.9H297L293.74 120.247H290.309ZM290.862 124.489L292.12 130.366H288.746L290.862 124.489Z" fill="url(#paint1_linear_19958_397)"/>
</g>
<path d="M49.3281 228.297V224.391C46.1771 224.104 43.7292 223.102 41.9844 221.383C40.2396 219.651 39.3672 217.34 39.3672 214.449H45.168C45.194 215.751 45.5651 216.826 46.2812 217.672C47.0104 218.518 48.026 219.078 49.3281 219.352V211.539L48.4883 211.363C42.7852 210.126 39.9336 207.431 39.9336 203.277C39.9336 201.663 40.3177 200.23 41.0859 198.98C41.8672 197.73 42.9609 196.721 44.3672 195.953C45.7734 195.172 47.4271 194.69 49.3281 194.508V190.602H53.0195V194.547C55.7669 194.872 57.9349 195.849 59.5234 197.477C61.112 199.091 61.9453 201.207 62.0234 203.824H56.3984C56.3203 202.77 55.9818 201.884 55.3828 201.168C54.7969 200.439 54.0091 199.931 53.0195 199.645V207.008L53.7617 207.164C56.8607 207.828 59.1263 208.824 60.5586 210.152C62.0039 211.467 62.7266 213.219 62.7266 215.406C62.7266 217.958 61.8672 220.029 60.1484 221.617C58.4297 223.193 56.0534 224.117 53.0195 224.391V228.297H49.3281ZM53.0195 219.371C54.1784 219.15 55.0898 218.727 55.7539 218.102C56.431 217.477 56.7695 216.708 56.7695 215.797C56.7695 215.003 56.4701 214.339 55.8711 213.805C55.2852 213.258 54.3346 212.789 53.0195 212.398V219.371ZM49.3281 206.129V199.547C48.2995 199.768 47.4792 200.185 46.8672 200.797C46.2552 201.409 45.9492 202.138 45.9492 202.984C45.9492 203.727 46.2161 204.352 46.75 204.859C47.2839 205.354 48.1432 205.777 49.3281 206.129ZM64.8563 224V219.586L75.5203 210.465C76.8094 209.332 77.8771 208.284 78.7234 207.32C79.5698 206.344 79.993 205.172 79.993 203.805C79.993 202.411 79.5698 201.305 78.7234 200.484C77.8771 199.651 76.7378 199.234 75.3055 199.234C73.743 199.234 72.5125 199.736 71.6141 200.738C70.7156 201.741 70.2664 203.128 70.2664 204.898H64.7391C64.7391 202.789 65.1688 200.953 66.0281 199.391C66.9005 197.815 68.1245 196.598 69.7 195.738C71.2755 194.866 73.144 194.43 75.3055 194.43C77.2977 194.43 79.0685 194.807 80.618 195.562C82.1674 196.305 83.3784 197.353 84.2508 198.707C85.1362 200.061 85.5789 201.656 85.5789 203.492C85.5789 204.846 85.325 206.083 84.8172 207.203C84.3094 208.323 83.5737 209.41 82.6102 210.465C81.6596 211.507 80.5073 212.607 79.1531 213.766L72.9813 219.137V219.176H85.7156V224H64.8563ZM87.357 230.074L88.8023 219.254H94.3297L91.3805 230.074H87.357ZM96.5766 217.73V213.082L109.389 194.898H116.752V213.062H120.561V217.73H116.752V224H111.108V217.73H96.5766ZM111.108 213.062V200.641H111.069L102.377 213.023V213.062H111.108ZM121.812 224L134.019 199.938V199.898H119.82V194.898H140.073V199.84L127.905 224H121.812ZM151.93 224.469C149.521 224.469 147.49 224.013 145.836 223.102C144.195 222.19 142.952 220.973 142.105 219.449C141.272 217.926 140.855 216.24 140.855 214.391H146.598C146.598 216.083 147.06 217.405 147.984 218.355C148.922 219.306 150.217 219.781 151.871 219.781C153.421 219.781 154.677 219.391 155.641 218.609C156.617 217.815 157.105 216.767 157.105 215.465C157.105 214.228 156.578 213.238 155.523 212.496C154.482 211.741 153.102 211.363 151.383 211.363H148.785V206.969H151.383C152.958 206.969 154.208 206.63 155.133 205.953C156.07 205.263 156.539 204.332 156.539 203.16C156.539 201.91 156.103 200.908 155.23 200.152C154.371 199.397 153.251 199.02 151.871 199.02C150.439 199.02 149.286 199.436 148.414 200.27C147.542 201.103 147.105 202.223 147.105 203.629H141.441C141.441 201.858 141.865 200.283 142.711 198.902C143.57 197.509 144.781 196.415 146.344 195.621C147.906 194.827 149.749 194.43 151.871 194.43C153.863 194.43 155.628 194.781 157.164 195.484C158.714 196.174 159.924 197.132 160.797 198.355C161.682 199.566 162.125 200.966 162.125 202.555C162.125 204.195 161.611 205.569 160.582 206.676C159.553 207.783 158.219 208.505 156.578 208.844V208.902C158.609 209.163 160.191 209.944 161.324 211.246C162.457 212.548 163.023 214.065 163.023 215.797C163.023 217.477 162.548 218.967 161.598 220.27C160.66 221.572 159.358 222.6 157.691 223.355C156.025 224.098 154.104 224.469 151.93 224.469ZM167.731 224.352C166.82 224.352 166.039 224.033 165.387 223.395C164.749 222.743 164.43 221.956 164.43 221.031C164.43 220.12 164.749 219.339 165.387 218.688C166.039 218.036 166.82 217.711 167.731 217.711C168.656 217.711 169.437 218.036 170.075 218.688C170.726 219.339 171.052 220.12 171.052 221.031C171.052 221.956 170.726 222.743 170.075 223.395C169.437 224.033 168.656 224.352 167.731 224.352ZM183.689 224.469C181.241 224.469 179.138 223.863 177.38 222.652C175.623 221.428 174.268 219.697 173.318 217.457C172.38 215.204 171.912 212.542 171.912 209.469C171.912 206.383 172.38 203.714 173.318 201.461C174.268 199.208 175.623 197.477 177.38 196.266C179.138 195.042 181.241 194.43 183.689 194.43C186.124 194.43 188.22 195.042 189.978 196.266C191.736 197.477 193.09 199.208 194.041 201.461C194.991 203.714 195.466 206.383 195.466 209.469C195.466 212.555 194.991 215.217 194.041 217.457C193.09 219.697 191.736 221.428 189.978 222.652C188.22 223.863 186.124 224.469 183.689 224.469ZM183.689 219.664C185.577 219.664 187.068 218.759 188.162 216.949C189.255 215.126 189.802 212.633 189.802 209.469C189.802 206.292 189.255 203.792 188.162 201.969C187.068 200.146 185.577 199.234 183.689 199.234C181.788 199.234 180.291 200.146 179.197 201.969C178.116 203.792 177.576 206.292 177.576 209.469C177.576 212.633 178.116 215.126 179.197 216.949C180.291 218.759 181.788 219.664 183.689 219.664ZM197.459 224V219.586L208.123 210.465C209.413 209.332 210.48 208.284 211.327 207.32C212.173 206.344 212.596 205.172 212.596 203.805C212.596 202.411 212.173 201.305 211.327 200.484C210.48 199.651 209.341 199.234 207.909 199.234C206.346 199.234 205.116 199.736 204.217 200.738C203.319 201.741 202.87 203.128 202.87 204.898H197.342C197.342 202.789 197.772 200.953 198.631 199.391C199.504 197.815 200.728 196.598 202.303 195.738C203.879 194.866 205.747 194.43 207.909 194.43C209.901 194.43 211.672 194.807 213.221 195.562C214.771 196.305 215.982 197.353 216.854 198.707C217.739 200.061 218.182 201.656 218.182 203.492C218.182 204.846 217.928 206.083 217.42 207.203C216.913 208.323 216.177 209.41 215.213 210.465C214.263 211.507 213.11 212.607 211.756 213.766L205.584 219.137V219.176H218.319V224H197.459Z" fill="url(#paint2_linear_19958_397)"/>
<path d="M42.4883 161H40.4336V155.18H42.5117C43.0951 155.18 43.6003 155.298 44.0273 155.535C44.4544 155.772 44.7839 156.108 45.0156 156.543C45.2474 156.978 45.3633 157.492 45.3633 158.086C45.3633 158.682 45.2474 159.199 45.0156 159.637C44.7839 160.072 44.4531 160.408 44.0234 160.645C43.5964 160.882 43.0846 161 42.4883 161ZM41.6367 159.988H42.4258C43.0143 159.988 43.4492 159.824 43.7305 159.496C44.0117 159.168 44.1523 158.698 44.1523 158.086C44.1523 157.474 44.0104 157.005 43.7266 156.68C43.4453 156.354 43.0156 156.191 42.4375 156.191H41.6367V159.988ZM47.7384 161.094C47.3218 161.094 46.9585 161.001 46.6486 160.816C46.3413 160.632 46.1017 160.378 45.9298 160.055C45.7606 159.729 45.6759 159.358 45.6759 158.941C45.6759 158.522 45.7619 158.15 45.9338 157.824C46.1082 157.499 46.3478 157.243 46.6525 157.059C46.9572 156.874 47.3061 156.781 47.6994 156.781C48.1056 156.781 48.4598 156.872 48.7619 157.055C49.0666 157.234 49.3035 157.486 49.4728 157.809C49.6447 158.129 49.7306 158.499 49.7306 158.918V159.227H46.797C46.8074 159.531 46.8973 159.775 47.0666 159.957C47.2358 160.139 47.4715 160.23 47.7736 160.23C47.9976 160.23 48.1838 160.182 48.3322 160.086C48.4832 159.99 48.5848 159.862 48.6369 159.703H49.6877C49.6382 159.977 49.5223 160.217 49.34 160.426C49.1577 160.634 48.9285 160.798 48.6525 160.918C48.3765 161.035 48.0718 161.094 47.7384 161.094ZM46.8048 158.492H48.6447C48.616 158.234 48.5197 158.031 48.3556 157.883C48.1942 157.732 47.9832 157.656 47.7228 157.656C47.465 157.656 47.2554 157.732 47.0939 157.883C46.9324 158.031 46.8361 158.234 46.8048 158.492ZM52.5511 161.086C52.2803 161.086 52.0381 161.026 51.8245 160.906C51.6136 160.786 51.4482 160.607 51.3284 160.367H51.3245V161H50.1878V155.18H51.3402V157.445H51.3441C51.4769 157.224 51.6448 157.06 51.848 156.953C52.0537 156.844 52.2907 156.789 52.5589 156.789C52.9105 156.789 53.2191 156.88 53.4847 157.062C53.7529 157.242 53.9613 157.493 54.1097 157.816C54.2607 158.139 54.3363 158.512 54.3363 158.934C54.3363 159.363 54.262 159.74 54.1136 160.062C53.9652 160.385 53.7568 160.637 53.4886 160.816C53.223 160.996 52.9105 161.086 52.5511 161.086ZM52.2542 160.148C52.5329 160.148 52.7555 160.043 52.9222 159.832C53.0915 159.618 53.1761 159.319 53.1761 158.934C53.1761 158.548 53.0915 158.25 52.9222 158.039C52.7555 157.826 52.5329 157.719 52.2542 157.719C51.9626 157.719 51.7282 157.829 51.5511 158.051C51.374 158.272 51.2855 158.566 51.2855 158.934C51.2855 159.303 51.374 159.599 51.5511 159.82C51.7282 160.039 51.9626 160.148 52.2542 160.148ZM54.8091 161V156.875H55.9614V161H54.8091ZM55.3833 156.355C55.1932 156.355 55.0356 156.298 54.9106 156.184C54.7856 156.066 54.7231 155.919 54.7231 155.742C54.7231 155.565 54.7856 155.419 54.9106 155.305C55.0356 155.188 55.1932 155.129 55.3833 155.129C55.5708 155.129 55.727 155.188 55.852 155.305C55.977 155.419 56.0395 155.565 56.0395 155.742C56.0395 155.919 55.977 156.066 55.852 156.184C55.727 156.298 55.5708 156.355 55.3833 156.355ZM59.0514 156.875V157.777H58.2077V159.727C58.2077 159.867 58.235 159.965 58.2897 160.02C58.347 160.072 58.4538 160.098 58.61 160.098H59.0514V161H58.3795C57.9264 161 57.5918 160.911 57.3756 160.734C57.1621 160.557 57.0553 160.281 57.0553 159.906V157.777H56.3444V156.875H57.0553V155.75H58.2077V156.875H59.0514Z" fill="#1F1F1F"/>
</g>
<defs>
<filter id="filter0_d_19958_397" x="-10" y="70" width="357" height="347" filterUnits="userSpaceOnUse" color-interpolation-filters="sRGB">
<feFlood flood-opacity="0" result="BackgroundImageFix"/>
<feColorMatrix in="SourceAlpha" type="matrix" values="0 0 0 0 0 0 0 0 0 0 0 0 0 0 0 0 0 0 127 0" result="hardAlpha"/>
<feOffset/>
<feGaussianBlur stdDeviation="15"/>
<feComposite in2="hardAlpha" operator="out"/>
<feColorMatrix type="matrix" values="0 0 0 0 0 0 0 0 0 0 0 0 0 0 0 0 0 0 0.3 0"/>
<feBlend mode="normal" in2="BackgroundImageFix" result="effect1_dropShadow_19958_397"/>
<feBlend mode="normal" in="SourceGraphic" in2="effect1_dropShadow_19958_397" result="shape"/>
</filter>
<linearGradient id="paint0_linear_19958_397" x1="20" y1="111.033" x2="317" y2="375.967" gradientUnits="userSpaceOnUse">
<stop stop-color="#F9F9F9"/>
<stop offset="0.194017" stop-color="#E5E5E5"/>
<stop offset="0.350044" stop-color="white"/>
<stop offset="0.575019" stop-color="#E4E4E4"/>
<stop offset="0.794167" stop-color="white"/>
<stop offset="1" stop-color="#939393"/>
</linearGradient>
<linearGradient id="paint1_linear_19958_397" x1="247" y1="128.083" x2="297" y2="128.083" gradientUnits="userSpaceOnUse">
<stop stop-color="#1434CB"/>
<stop offset="1" stop-color="#526EF1"/>
</linearGradient>
<linearGradient id="paint2_linear_19958_397" x1="129" y1="189" x2="129" y2="229" gradientUnits="userSpaceOnUse">
<stop stop-color="#1F1F1F"/>
<stop offset="1" stop-color="#656565"/>
</linearGradient>
<clipPath id="clip0_19958_397">
<path d="M0 24C0 10.7452 10.7452 0 24 0H313C326.255 0 337 10.7452 337 24V198C337 211.255 326.255 222 313 222H24C10.7452 222 0 211.255 0 198V24Z" fill="white"/>
</clipPath>
<clipPath id="clip1_19958_397">
<rect width="50" height="16.1667" fill="white" transform="translate(233 87)"/>
</clipPath>
<clipPath id="clip2_19958_397">
<rect width="50" height="16.1667" fill="white" transform="translate(247 120)"/>
</clipPath>
</defs>
</svg>
