<svg width="224" height="118" viewBox="0 0 224 118" fill="none" xmlns="http://www.w3.org/2000/svg">
<g clip-path="url(#clip0_19958_426)">
<rect width="224" height="118" rx="24" fill="white"/>
<path d="M23.546 35H20.846V22.94H24.644L26.75 28.574L27.722 31.67H27.902L28.856 28.574L30.872 22.94H34.67V35H31.97V29.294L32.114 26.972H31.916L31.214 29.33L29.396 34.172H26.12L24.302 29.33L23.582 26.972H23.402L23.546 29.294V35ZM39.6066 35.18C37.2306 35.18 36.2406 33.614 36.2406 31.688V25.946H38.9226V31.148C38.9226 32.408 39.3546 32.858 40.7046 32.858C42.0006 32.858 42.5586 32.444 42.5586 31.076V25.946H45.2406V35H42.7386V33.416H42.6486C42.1446 34.46 41.1906 35.18 39.6066 35.18ZM49.4862 35H46.8042V22.94H49.4862V35ZM55.1442 35.036C52.7862 35.036 51.6522 34.172 51.6522 32.03V28.178H50.2122V25.946H51.7242L52.2282 23.84H54.3522V25.946H56.9082V28.178H54.3522V31.724C54.3522 32.516 54.6222 32.606 55.7922 32.606H56.9082V34.856C56.4762 34.946 55.7742 35.036 55.1442 35.036ZM60.5705 24.92H57.9245L57.8885 22.94H60.5705V24.92ZM60.6245 35H57.9245V25.946H60.6245V35ZM70.9019 35.18C67.2839 35.18 65.1239 32.732 65.1239 28.97C65.1239 25.208 67.2839 22.76 70.9019 22.76C74.4659 22.76 76.3919 24.632 76.3919 27.62V27.782H73.5119V27.692C73.5119 25.964 72.7919 25.37 70.8839 25.37C68.8499 25.37 68.0039 26.108 68.0039 28.97C68.0039 31.832 68.8499 32.57 70.8839 32.57C72.7919 32.57 73.5119 31.976 73.5119 30.248V30.158H76.3919V30.32C76.3919 33.308 74.4659 35.18 70.9019 35.18ZM81.0256 35.18C78.6496 35.18 77.6596 33.614 77.6596 31.688V25.946H80.3416V31.148C80.3416 32.408 80.7736 32.858 82.1236 32.858C83.4196 32.858 83.9776 32.444 83.9776 31.076V25.946H86.6596V35H84.1576V33.416H84.0676C83.5636 34.46 82.6096 35.18 81.0256 35.18ZM90.9052 35H88.2232V25.946H90.7252V27.404H90.8332C91.2832 26.486 92.0932 25.766 93.3712 25.766C95.2612 25.766 95.9632 27.17 95.9632 28.988V29.816H93.2812V29.33C93.2812 28.358 92.9752 28.052 92.1292 28.052C91.3012 28.052 90.9052 28.34 90.9052 29.33V35ZM99.5867 35H96.9047V25.946H99.4067V27.404H99.5147C99.9647 26.486 100.775 25.766 102.053 25.766C103.943 25.766 104.645 27.17 104.645 28.988V29.816H101.963V29.33C101.963 28.358 101.657 28.052 100.811 28.052C99.9827 28.052 99.5867 28.34 99.5867 29.33V35ZM109.833 35.18C106.719 35.18 105.297 33.362 105.297 30.5C105.297 27.602 107.025 25.766 109.851 25.766C112.569 25.766 114.171 27.386 114.171 29.744C114.171 30.248 114.099 30.77 114.045 31.076H107.835C107.889 32.336 108.393 32.84 109.869 32.84C110.949 32.84 111.417 32.606 111.417 32.048V31.94H114.081V32.12C114.081 34.046 112.425 35.18 109.833 35.18ZM109.761 27.98C108.465 27.98 107.961 28.484 107.853 29.438H111.579C111.633 28.502 111.021 27.98 109.761 27.98ZM118.057 35H115.375V25.946H117.877V27.53H117.985C118.471 26.504 119.443 25.766 121.027 25.766C123.385 25.766 124.393 27.332 124.393 29.258V35H121.693V29.798C121.693 28.538 121.279 28.088 119.911 28.088C118.615 28.088 118.057 28.502 118.057 29.87V35ZM130.098 35.18C127.11 35.18 125.508 33.362 125.508 30.5C125.508 27.602 127.218 25.766 130.242 25.766C132.654 25.766 134.418 27.242 134.418 29.474V29.69H131.718V29.546C131.718 28.52 131.142 28.178 130.026 28.178C128.73 28.178 128.172 28.79 128.172 30.482C128.172 32.156 128.73 32.768 130.026 32.768C131.142 32.768 131.718 32.426 131.718 31.4V31.256H134.418V31.472C134.418 33.704 132.6 35.18 130.098 35.18ZM136.966 38.06C136.354 38.06 135.688 37.952 135.31 37.862V35.63H136.822C137.506 35.63 137.758 35.54 138.028 34.964L138.19 34.622L134.392 25.946H137.398L138.874 29.726L139.522 31.472H139.72L140.278 29.726L141.556 25.946H144.562L140.53 35.63C139.756 37.484 138.748 38.06 136.966 38.06Z" fill="#1F1F1F"/>
<g filter="url(#filter0_d_19958_426)">
<g filter="url(#filter1_d_19958_426)">
<g clip-path="url(#clip1_19958_426)">
<path d="M40 98C51.0457 98 60 89.0457 60 78C60 66.9543 51.0457 58 40 58C28.9543 58 20 66.9543 20 78C20 89.0457 28.9543 98 40 98Z" fill="#F0F0F0"/>
<path d="M31.3043 84.9565L33.0435 96.7562C35.21 97.5602 37.5535 98.0001 39.9999 98.0001C48.5992 98.0001 55.9301 92.5726 58.7559 84.9565H31.3043Z" fill="black"/>
<path d="M31.3043 71.0435L33.0435 59.2438C35.21 58.4398 37.5535 58 39.9999 58C48.5992 58 55.9301 63.4275 58.7559 71.0435H31.3043Z" fill="#6DA544"/>
<path d="M20 77.9999C20 86.5992 25.4276 93.9301 33.0435 96.7559V59.2439C25.4276 62.0698 20 69.4006 20 77.9999Z" fill="#A2001D"/>
</g>
<rect x="21" y="59" width="38" height="38" rx="19" stroke="white" stroke-opacity="0.2" stroke-width="2" shape-rendering="crispEdges"/>
</g>
<g filter="url(#filter2_d_19958_426)">
<g clip-path="url(#clip2_19958_426)">
<path d="M64 98C75.0457 98 84 89.0457 84 78C84 66.9543 75.0457 58 64 58C52.9543 58 44 66.9543 44 78C44 89.0457 52.9543 98 64 98Z" fill="#F0F0F0"/>
<path d="M44 78.0001C44 66.9544 52.9544 58 64 58C75.0456 58 84 66.9544 84 78.0001" fill="#D80027"/>
<path d="M56.1739 68.4348C56.1739 65.5209 58.2218 63.0867 60.9565 62.4894C60.5362 62.3977 60.1002 62.3479 59.6521 62.3479C56.2903 62.3479 53.5652 65.0731 53.5652 68.4349C53.5652 71.7966 56.2903 74.5218 59.6521 74.5218C60.1 74.5218 60.5361 74.472 60.9565 74.3802C58.2218 73.783 56.1739 71.3488 56.1739 68.4348Z" fill="#F0F0F0"/>
<path d="M64 62.7827L64.4317 64.1112H65.8287L64.6984 64.9324L65.1301 66.2609L64 65.4399L62.8698 66.2609L63.3015 64.9324L62.1714 64.1112H63.5683L64 62.7827Z" fill="#F0F0F0"/>
<path d="M60.6113 65.3914L61.043 66.72H62.4399L61.3098 67.541L61.7415 68.8696L60.6113 68.0485L59.481 68.8696L59.9128 67.541L58.7826 66.72H60.1795L60.6113 65.3914Z" fill="#F0F0F0"/>
<path d="M67.3888 65.3914L67.8206 66.72H69.2174L68.0872 67.541L68.519 68.8696L67.3888 68.0485L66.2586 68.8696L66.6903 67.541L65.5602 66.72H66.9571L67.3888 65.3914Z" fill="#F0F0F0"/>
<path d="M66.0845 69.3044L66.5162 70.633H67.913L66.7829 71.4541L67.2146 72.7826L66.0845 71.9616L64.9543 72.7826L65.386 71.4541L64.2559 70.633H65.6527L66.0845 69.3044Z" fill="#F0F0F0"/>
<path d="M61.9157 69.3044L62.3473 70.633H63.7444L62.6141 71.4541L63.0459 72.7826L61.9157 71.9616L60.7855 72.7826L61.2172 71.4541L60.087 70.633H61.484L61.9157 69.3044Z" fill="#F0F0F0"/>
</g>
<rect x="45" y="59" width="38" height="38" rx="19" stroke="white" stroke-opacity="0.2" stroke-width="2" shape-rendering="crispEdges"/>
</g>
<g filter="url(#filter3_d_19958_426)">
<g clip-path="url(#clip3_19958_426)">
<path d="M88 98C99.0457 98 108 89.0457 108 78C108 66.9543 99.0457 58 88 58C76.9543 58 68 66.9543 68 78C68 89.0457 76.9543 98 88 98Z" fill="#F0F0F0"/>
<path d="M108 78.0001C108 70.0709 103.386 63.2196 96.6957 59.9846V96.0155C103.386 92.7806 108 85.9293 108 78.0001Z" fill="#D80027"/>
<path d="M68 78.0001C68 85.9293 72.6145 92.7806 79.3044 96.0156V59.9846C72.6145 63.2196 68 70.0709 68 78.0001Z" fill="#D80027"/>
<path d="M91.4782 80.6087L94.9564 78.8696L93.2174 78V76.2609L89.7391 78L91.4782 74.5218H89.7391L87.9999 71.9131L86.2608 74.5218H84.5217L86.2608 78L82.7825 76.2609V78L81.0435 78.8696L84.5217 80.6087L83.6521 82.3479H87.1304V84.9565H88.8695V82.3479H92.3478L91.4782 80.6087Z" fill="#D80027"/>
</g>
<rect x="69" y="59" width="38" height="38" rx="19" stroke="white" stroke-opacity="0.2" stroke-width="2" shape-rendering="crispEdges"/>
</g>
<g filter="url(#filter4_d_19958_426)">
<g clip-path="url(#clip4_19958_426)">
<path d="M112 98C123.046 98 132 89.0457 132 78C132 66.9543 123.046 58 112 58C100.954 58 92 66.9543 92 78C92 89.0457 100.954 98 112 98Z" fill="#D80027"/>
<path d="M114.065 73.1302C113.61 75.0208 112.803 74.6602 112.406 76.309C110.072 75.7476 108.634 73.4 109.195 71.0652C109.756 68.7306 112.104 67.2928 114.439 67.8541C113.646 71.1515 114.471 71.4394 114.065 73.1302Z" fill="#F0F0F0"/>
<path d="M108.007 74.5313C109.664 75.5477 109.072 76.2045 110.517 77.0909C109.262 79.1379 106.585 79.7797 104.538 78.5245C102.491 77.2692 101.849 74.5921 103.104 72.5452C105.996 74.318 106.524 73.6221 108.007 74.5313Z" fill="#F0F0F0"/>
<path d="M107.467 80.7259C108.946 79.4635 109.387 80.2299 110.677 79.1292C112.236 80.9555 112.019 83.6999 110.193 85.2588C108.366 86.8178 105.622 86.6007 104.063 84.7745C106.643 82.5727 106.144 81.8549 107.467 80.7259Z" fill="#F0F0F0"/>
<path d="M113.192 83.1534C112.448 81.3567 113.313 81.1736 112.665 79.607C114.884 78.6888 117.427 79.743 118.345 81.9617C119.263 84.1803 118.209 86.7234 115.99 87.6417C114.694 84.5081 113.857 84.7604 113.192 83.1534Z" fill="#F0F0F0"/>
<path d="M117.269 78.459C115.331 78.6112 115.424 77.7315 113.734 77.8641C113.546 75.4704 115.335 73.3774 117.728 73.1895C120.122 73.0021 122.215 74.7905 122.403 77.1844C119.022 77.4495 119.003 78.3232 117.269 78.459Z" fill="#F0F0F0"/>
</g>
<rect x="93" y="59" width="38" height="38" rx="19" stroke="white" stroke-opacity="0.2" stroke-width="2" shape-rendering="crispEdges"/>
</g>
<g filter="url(#filter5_d_19958_426)">
<g clip-path="url(#clip5_19958_426)">
<path d="M136 98C147.046 98 156 89.0457 156 78C156 66.9543 147.046 58 136 58C124.954 58 116 66.9543 116 78C116 89.0457 124.954 98 136 98Z" fill="#0052B4"/>
<path d="M136 65.8262L136.648 67.8191H138.743L137.048 69.0507L137.695 71.0436L136 69.8119L134.305 71.0436L134.952 69.0507L133.257 67.8191H135.352L136 65.8262Z" fill="#FFDA44"/>
<path d="M127.392 69.3919L129.259 70.3431L130.741 68.8616L130.413 70.9311L132.28 71.8824L130.21 72.2102L129.882 74.2799L128.931 72.4128L126.861 72.7407L128.343 71.2591L127.392 69.3919Z" fill="#FFDA44"/>
<path d="M123.826 78L125.819 77.3525V75.2571L127.051 76.9524L129.044 76.3048L127.812 78L129.044 79.6953L127.051 79.0478L125.819 80.743V78.6476L123.826 78Z" fill="#FFDA44"/>
<path d="M127.392 86.6084L128.343 84.7412L126.861 83.2596L128.931 83.5876L129.882 81.7205L130.21 83.7901L132.28 84.1179L130.413 85.0692L130.741 87.1387L129.259 85.6571L127.392 86.6084Z" fill="#FFDA44"/>
<path d="M136 90.1741L135.352 88.1812H133.257L134.952 86.9495L134.305 84.9568L136 86.1883L137.695 84.9568L137.048 86.9495L138.743 88.1812H136.648L136 90.1741Z" fill="#FFDA44"/>
<path d="M144.608 86.6084L142.741 85.6572L141.26 87.1388L141.587 85.0691L139.72 84.1179L141.79 83.7901L142.118 81.7205L143.069 83.5876L145.139 83.2596L143.657 84.7414L144.608 86.6084Z" fill="#FFDA44"/>
<path d="M148.174 78L146.181 78.6476V80.743L144.949 79.0477L142.957 79.6953L144.188 78L142.957 76.3048L144.949 76.9524L146.181 75.2571V77.3525L148.174 78Z" fill="#FFDA44"/>
<path d="M144.608 69.3918L143.657 71.259L145.139 72.7406L143.069 72.4127L142.118 74.2798L141.79 72.2102L139.72 71.8823L141.587 70.931L141.26 68.8616L142.741 70.3431L144.608 69.3918Z" fill="#FFDA44"/>
</g>
<rect x="117" y="59" width="38" height="38" rx="19" stroke="white" stroke-opacity="0.2" stroke-width="2" shape-rendering="crispEdges"/>
</g>
<g filter="url(#filter6_d_19958_426)">
<g clip-path="url(#clip6_19958_426)">
<path d="M160 98C171.046 98 180 89.0457 180 78C180 66.9543 171.046 58 160 58C148.954 58 140 66.9543 140 78C140 89.0457 148.954 98 160 98Z" fill="#F0F0F0"/>
<path d="M159.13 78.0001H180C180 76.195 179.759 74.4462 179.311 72.7827H159.13V78.0001Z" fill="#D80027"/>
<path d="M159.13 67.5653H177.064C175.84 65.5675 174.275 63.8017 172.45 62.3479H159.13V67.5653Z" fill="#D80027"/>
<path d="M160 98.0002C164.707 98.0002 169.033 96.3733 172.45 93.6523H147.55C150.967 96.3733 155.293 98.0002 160 98.0002Z" fill="#D80027"/>
<path d="M142.935 88.4349H177.065C178.047 86.8311 178.81 85.078 179.311 83.2175H140.689C141.19 85.078 141.953 86.8311 142.935 88.4349Z" fill="#D80027"/>
<path d="M149.264 61.1233H151.087L149.392 62.3549L150.039 64.3478L148.344 63.1162L146.649 64.3478L147.208 62.6262C145.715 63.8695 144.407 65.3263 143.329 66.9494H143.913L142.834 67.7334C142.666 68.0138 142.505 68.2987 142.35 68.5879L142.865 70.1739L141.904 69.4754C141.665 69.9817 141.446 70.4995 141.25 71.028L141.818 72.7755H143.913L142.218 74.0071L142.865 76L141.17 74.7684L140.155 75.5062C140.053 76.3232 140 77.1554 140 78H160C160 66.9544 160 65.6522 160 58C156.049 58 152.366 59.1461 149.264 61.1233ZM150.039 76L148.344 74.7684L146.649 76L147.296 74.0071L145.601 72.7755H147.696L148.344 70.7826L148.991 72.7755H151.087L149.392 74.0071L150.039 76ZM149.392 68.181L150.039 70.1739L148.344 68.9423L146.649 70.1739L147.296 68.181L145.601 66.9494H147.696L148.344 64.9565L148.991 66.9494H151.087L149.392 68.181ZM157.213 76L155.518 74.7684L153.823 76L154.47 74.0071L152.775 72.7755H154.87L155.518 70.7826L156.165 72.7755H158.261L156.566 74.0071L157.213 76ZM156.566 68.181L157.213 70.1739L155.518 68.9423L153.823 70.1739L154.47 68.181L152.775 66.9494H154.87L155.518 64.9565L156.165 66.9494H158.261L156.566 68.181ZM156.566 62.3549L157.213 64.3478L155.518 63.1162L153.823 64.3478L154.47 62.3549L152.775 61.1233H154.87L155.518 59.1304L156.165 61.1233H158.261L156.566 62.3549Z" fill="#0052B4"/>
</g>
<rect x="141" y="59" width="38" height="38" rx="19" stroke="white" stroke-opacity="0.2" stroke-width="2" shape-rendering="crispEdges"/>
</g>
</g>
</g>
<defs>
<filter id="filter0_d_19958_426" x="12" y="54" width="176" height="56" filterUnits="userSpaceOnUse" color-interpolation-filters="sRGB">
<feFlood flood-opacity="0" result="BackgroundImageFix"/>
<feColorMatrix in="SourceAlpha" type="matrix" values="0 0 0 0 0 0 0 0 0 0 0 0 0 0 0 0 0 0 127 0" result="hardAlpha"/>
<feOffset dy="4"/>
<feGaussianBlur stdDeviation="4"/>
<feComposite in2="hardAlpha" operator="out"/>
<feColorMatrix type="matrix" values="0 0 0 0 0.141176 0 0 0 0 0.278431 0 0 0 0 0.52549 0 0 0 0.2 0"/>
<feBlend mode="normal" in2="BackgroundImageFix" result="effect1_dropShadow_19958_426"/>
<feBlend mode="normal" in="SourceGraphic" in2="effect1_dropShadow_19958_426" result="shape"/>
</filter>
<filter id="filter1_d_19958_426" x="-12" y="30" width="104" height="104" filterUnits="userSpaceOnUse" color-interpolation-filters="sRGB">
<feFlood flood-opacity="0" result="BackgroundImageFix"/>
<feColorMatrix in="SourceAlpha" type="matrix" values="0 0 0 0 0 0 0 0 0 0 0 0 0 0 0 0 0 0 127 0" result="hardAlpha"/>
<feOffset dy="4"/>
<feGaussianBlur stdDeviation="16"/>
<feComposite in2="hardAlpha" operator="out"/>
<feColorMatrix type="matrix" values="0 0 0 0 0 0 0 0 0 0 0 0 0 0 0 0 0 0 0.08 0"/>
<feBlend mode="normal" in2="BackgroundImageFix" result="effect1_dropShadow_19958_426"/>
<feBlend mode="normal" in="SourceGraphic" in2="effect1_dropShadow_19958_426" result="shape"/>
</filter>
<filter id="filter2_d_19958_426" x="12" y="30" width="104" height="104" filterUnits="userSpaceOnUse" color-interpolation-filters="sRGB">
<feFlood flood-opacity="0" result="BackgroundImageFix"/>
<feColorMatrix in="SourceAlpha" type="matrix" values="0 0 0 0 0 0 0 0 0 0 0 0 0 0 0 0 0 0 127 0" result="hardAlpha"/>
<feOffset dy="4"/>
<feGaussianBlur stdDeviation="16"/>
<feComposite in2="hardAlpha" operator="out"/>
<feColorMatrix type="matrix" values="0 0 0 0 0 0 0 0 0 0 0 0 0 0 0 0 0 0 0.08 0"/>
<feBlend mode="normal" in2="BackgroundImageFix" result="effect1_dropShadow_19958_426"/>
<feBlend mode="normal" in="SourceGraphic" in2="effect1_dropShadow_19958_426" result="shape"/>
</filter>
<filter id="filter3_d_19958_426" x="36" y="30" width="104" height="104" filterUnits="userSpaceOnUse" color-interpolation-filters="sRGB">
<feFlood flood-opacity="0" result="BackgroundImageFix"/>
<feColorMatrix in="SourceAlpha" type="matrix" values="0 0 0 0 0 0 0 0 0 0 0 0 0 0 0 0 0 0 127 0" result="hardAlpha"/>
<feOffset dy="4"/>
<feGaussianBlur stdDeviation="16"/>
<feComposite in2="hardAlpha" operator="out"/>
<feColorMatrix type="matrix" values="0 0 0 0 0 0 0 0 0 0 0 0 0 0 0 0 0 0 0.08 0"/>
<feBlend mode="normal" in2="BackgroundImageFix" result="effect1_dropShadow_19958_426"/>
<feBlend mode="normal" in="SourceGraphic" in2="effect1_dropShadow_19958_426" result="shape"/>
</filter>
<filter id="filter4_d_19958_426" x="60" y="30" width="104" height="104" filterUnits="userSpaceOnUse" color-interpolation-filters="sRGB">
<feFlood flood-opacity="0" result="BackgroundImageFix"/>
<feColorMatrix in="SourceAlpha" type="matrix" values="0 0 0 0 0 0 0 0 0 0 0 0 0 0 0 0 0 0 127 0" result="hardAlpha"/>
<feOffset dy="4"/>
<feGaussianBlur stdDeviation="16"/>
<feComposite in2="hardAlpha" operator="out"/>
<feColorMatrix type="matrix" values="0 0 0 0 0 0 0 0 0 0 0 0 0 0 0 0 0 0 0.08 0"/>
<feBlend mode="normal" in2="BackgroundImageFix" result="effect1_dropShadow_19958_426"/>
<feBlend mode="normal" in="SourceGraphic" in2="effect1_dropShadow_19958_426" result="shape"/>
</filter>
<filter id="filter5_d_19958_426" x="84" y="30" width="104" height="104" filterUnits="userSpaceOnUse" color-interpolation-filters="sRGB">
<feFlood flood-opacity="0" result="BackgroundImageFix"/>
<feColorMatrix in="SourceAlpha" type="matrix" values="0 0 0 0 0 0 0 0 0 0 0 0 0 0 0 0 0 0 127 0" result="hardAlpha"/>
<feOffset dy="4"/>
<feGaussianBlur stdDeviation="16"/>
<feComposite in2="hardAlpha" operator="out"/>
<feColorMatrix type="matrix" values="0 0 0 0 0 0 0 0 0 0 0 0 0 0 0 0 0 0 0.08 0"/>
<feBlend mode="normal" in2="BackgroundImageFix" result="effect1_dropShadow_19958_426"/>
<feBlend mode="normal" in="SourceGraphic" in2="effect1_dropShadow_19958_426" result="shape"/>
</filter>
<filter id="filter6_d_19958_426" x="108" y="30" width="104" height="104" filterUnits="userSpaceOnUse" color-interpolation-filters="sRGB">
<feFlood flood-opacity="0" result="BackgroundImageFix"/>
<feColorMatrix in="SourceAlpha" type="matrix" values="0 0 0 0 0 0 0 0 0 0 0 0 0 0 0 0 0 0 127 0" result="hardAlpha"/>
<feOffset dy="4"/>
<feGaussianBlur stdDeviation="16"/>
<feComposite in2="hardAlpha" operator="out"/>
<feColorMatrix type="matrix" values="0 0 0 0 0 0 0 0 0 0 0 0 0 0 0 0 0 0 0.08 0"/>
<feBlend mode="normal" in2="BackgroundImageFix" result="effect1_dropShadow_19958_426"/>
<feBlend mode="normal" in="SourceGraphic" in2="effect1_dropShadow_19958_426" result="shape"/>
</filter>
<clipPath id="clip0_19958_426">
<rect width="224" height="118" rx="24" fill="white"/>
</clipPath>
<clipPath id="clip1_19958_426">
<rect x="20" y="58" width="40" height="40" rx="20" fill="white"/>
</clipPath>
<clipPath id="clip2_19958_426">
<rect x="44" y="58" width="40" height="40" rx="20" fill="white"/>
</clipPath>
<clipPath id="clip3_19958_426">
<rect x="68" y="58" width="40" height="40" rx="20" fill="white"/>
</clipPath>
<clipPath id="clip4_19958_426">
<rect x="92" y="58" width="40" height="40" rx="20" fill="white"/>
</clipPath>
<clipPath id="clip5_19958_426">
<rect x="116" y="58" width="40" height="40" rx="20" fill="white"/>
</clipPath>
<clipPath id="clip6_19958_426">
<rect x="140" y="58" width="40" height="40" rx="20" fill="white"/>
</clipPath>
</defs>
</svg>
