<svg width="540" height="540" viewBox="0 0 540 540" fill="none" xmlns="http://www.w3.org/2000/svg">
<g clip-path="url(#clip0_20000_611)">
<rect width="540" height="540" rx="50" fill="url(#paint0_radial_20000_611)"/>
<rect x="181.5" y="-53.5" width="177" height="88" rx="15.5" stroke="#E6ECF4"/>
<path d="M162.5 102.5V131.408C162.5 135.656 165.184 139.44 169.193 140.845L224.307 160.155C228.316 161.56 231 165.344 231 169.592V459.193C231 463.3 228.488 466.99 224.667 468.496L168.833 490.504C165.012 492.01 162.5 495.7 162.5 499.807V559" stroke="url(#paint1_linear_20000_611)"/>
<path d="M376.5 102.5V131.408C376.5 135.656 373.816 139.44 369.807 140.845L314.693 160.155C310.684 161.56 308 165.344 308 169.592V459.193C308 463.3 310.512 466.99 314.333 468.496L370.167 490.504C373.988 492.01 376.5 495.7 376.5 499.807V559" stroke="url(#paint2_linear_20000_611)"/>
<line x1="270.5" y1="-9" x2="270.5" y2="559" stroke="#E6ECF4" stroke-dasharray="5 5"/>
<rect x="146" y="54" width="247" height="68" rx="34" fill="url(#paint3_linear_20000_611)"/>
<rect x="147" y="55" width="245" height="66" rx="33" stroke="white" stroke-opacity="0.5" stroke-width="2"/>
<path d="M192.401 106.195H177.136L183.476 99.5899H191.505C194.512 99.5899 196.95 97.1521 196.95 94.1449V91.1356H203.291V95.3048C203.291 101.319 198.415 106.195 192.401 106.195Z" fill="white"/>
<path d="M192.401 106.195H177.136L183.476 99.5899H191.505C194.512 99.5899 196.95 97.1521 196.95 94.1449V91.1356H203.291V95.3048C203.291 101.319 198.415 106.195 192.401 106.195Z" fill="white"/>
<path d="M187.762 70.0001H203.027L196.686 76.605H188.658C185.65 76.605 183.213 79.0428 183.213 82.05V85.0593H176.872V80.8901C176.872 74.8757 181.748 70.0001 187.762 70.0001Z" fill="white"/>
<path d="M187.762 70.0001H203.027L196.686 76.605H188.658C185.65 76.605 183.213 79.0428 183.213 82.05V85.0593H176.872V80.8901C176.872 74.8757 181.748 70.0001 187.762 70.0001Z" fill="white"/>
<path d="M197.468 82.6814H190.399L196.687 76.6048L199.1 76.6025C205.118 76.5966 210.001 81.4739 210.001 87.4925V91.1357H203.367V88.5802C203.367 85.3223 200.726 82.6814 197.468 82.6814Z" fill="white"/>
<path d="M197.468 82.6814H190.399L196.687 76.6048L199.1 76.6025C205.118 76.5966 210.001 81.4739 210.001 87.4925V91.1357H203.367V88.5802C203.367 85.3223 200.726 82.6814 197.468 82.6814Z" fill="white"/>
<path d="M182.533 93.5132H189.602L183.314 99.5898L180.901 99.5921C174.882 99.598 170 94.7206 170 88.702V85.0589H176.634V87.6144C176.634 90.8722 179.275 93.5132 182.533 93.5132Z" fill="white"/>
<path d="M182.533 93.5132H189.602L183.314 99.5898L180.901 99.5921C174.882 99.598 170 94.7206 170 88.702V85.0589H176.634V87.6144C176.634 90.8722 179.275 93.5132 182.533 93.5132Z" fill="white"/>
<path d="M243.887 84.3929H240.341C240.205 83.6353 239.951 82.9686 239.58 82.3929C239.209 81.8171 238.754 81.3285 238.216 80.927C237.679 80.5254 237.076 80.2224 236.41 80.0179C235.75 79.8133 235.05 79.711 234.307 79.711C232.966 79.711 231.766 80.0482 230.705 80.7224C229.652 81.3967 228.819 82.3853 228.205 83.6883C227.599 84.9914 227.296 86.5823 227.296 88.461C227.296 90.355 227.599 91.9535 228.205 93.2565C228.819 94.5595 229.656 95.5444 230.716 96.211C231.777 96.8777 232.97 97.211 234.296 97.211C235.031 97.211 235.728 97.1126 236.387 96.9156C237.054 96.711 237.656 96.4118 238.194 96.0179C238.732 95.6239 239.186 95.1429 239.557 94.5747C239.936 93.9989 240.197 93.3398 240.341 92.5974L243.887 92.6088C243.697 93.7527 243.33 94.8057 242.785 95.7679C242.247 96.7224 241.554 97.5482 240.705 98.2451C239.864 98.9345 238.902 99.4686 237.819 99.8474C236.735 100.226 235.554 100.416 234.273 100.416C232.258 100.416 230.463 99.9383 228.887 98.9838C227.311 98.0217 226.069 96.6467 225.16 94.8588C224.258 93.0709 223.807 90.9383 223.807 88.461C223.807 85.9762 224.262 83.8436 225.171 82.0633C226.08 80.2754 227.322 78.9042 228.898 77.9497C230.474 76.9876 232.266 76.5065 234.273 76.5065C235.508 76.5065 236.66 76.6845 237.728 77.0406C238.804 77.3891 239.769 77.9042 240.625 78.586C241.482 79.2603 242.19 80.086 242.75 81.0633C243.311 82.033 243.69 83.1429 243.887 84.3929ZM252.735 100.484C251.629 100.484 250.629 100.279 249.735 99.8701C248.841 99.4535 248.133 98.8512 247.61 98.0633C247.095 97.2754 246.838 96.3095 246.838 95.1656C246.838 94.1807 247.027 93.3701 247.406 92.7338C247.785 92.0974 248.296 91.5936 248.94 91.2224C249.584 90.8512 250.304 90.5709 251.099 90.3815C251.894 90.1921 252.705 90.0482 253.531 89.9497C254.576 89.8285 255.425 89.73 256.076 89.6542C256.728 89.5709 257.201 89.4383 257.497 89.2565C257.792 89.0747 257.94 88.7792 257.94 88.3701V88.2906C257.94 87.2982 257.66 86.5292 257.099 85.9838C256.546 85.4383 255.72 85.1656 254.622 85.1656C253.478 85.1656 252.576 85.4194 251.917 85.927C251.266 86.427 250.815 86.9838 250.565 87.5974L247.372 86.8701C247.751 85.8095 248.304 84.9535 249.031 84.302C249.766 83.6429 250.61 83.1656 251.565 82.8701C252.519 82.5671 253.523 82.4156 254.576 82.4156C255.273 82.4156 256.012 82.4989 256.792 82.6656C257.58 82.8247 258.315 83.1201 258.997 83.552C259.686 83.9838 260.251 84.6012 260.69 85.4042C261.129 86.1997 261.349 87.2338 261.349 88.5065V100.097H258.031V97.711H257.894C257.675 98.1504 257.345 98.5823 256.906 99.0065C256.466 99.4307 255.902 99.783 255.213 100.063C254.523 100.344 253.697 100.484 252.735 100.484ZM253.474 97.7565C254.413 97.7565 255.216 97.5709 255.883 97.1997C256.557 96.8285 257.069 96.3436 257.417 95.7451C257.773 95.1391 257.951 94.4914 257.951 93.802V91.552C257.83 91.6732 257.595 91.7868 257.247 91.8929C256.906 91.9914 256.516 92.0785 256.076 92.1542C255.637 92.2224 255.209 92.2868 254.792 92.3474C254.376 92.4004 254.027 92.4459 253.747 92.4838C253.088 92.5671 252.485 92.7073 251.94 92.9042C251.402 93.1012 250.97 93.3853 250.644 93.7565C250.326 94.1201 250.167 94.605 250.167 95.211C250.167 96.052 250.478 96.6883 251.099 97.1201C251.72 97.5444 252.512 97.7565 253.474 97.7565ZM265.715 106.643V82.6429H269.033V85.4724H269.317C269.514 85.1088 269.798 84.6883 270.169 84.211C270.54 83.7338 271.055 83.3171 271.715 82.961C272.374 82.5974 273.245 82.4156 274.328 82.4156C275.737 82.4156 276.995 82.7717 278.101 83.4838C279.207 84.1959 280.074 85.2224 280.703 86.5633C281.34 87.9042 281.658 89.5179 281.658 91.4042C281.658 93.2906 281.343 94.908 280.715 96.2565C280.086 97.5974 279.222 98.6315 278.124 99.3588C277.025 100.078 275.771 100.438 274.362 100.438C273.302 100.438 272.434 100.26 271.76 99.9042C271.093 99.5482 270.571 99.1315 270.192 98.6542C269.813 98.177 269.521 97.7527 269.317 97.3815H269.112V106.643H265.715ZM269.044 91.3701C269.044 92.5974 269.222 93.6732 269.578 94.5974C269.934 95.5217 270.449 96.2451 271.124 96.7679C271.798 97.283 272.624 97.5406 273.601 97.5406C274.616 97.5406 275.465 97.2717 276.146 96.7338C276.828 96.1883 277.343 95.4497 277.692 94.5179C278.048 93.586 278.226 92.5368 278.226 91.3701C278.226 90.2186 278.052 89.1845 277.703 88.2679C277.362 87.3512 276.847 86.6277 276.158 86.0974C275.476 85.5671 274.624 85.302 273.601 85.302C272.616 85.302 271.783 85.5557 271.101 86.0633C270.427 86.5709 269.915 87.2792 269.567 88.1883C269.218 89.0974 269.044 90.158 269.044 91.3701ZM298.384 86.9042L295.305 87.4497C295.176 87.0557 294.971 86.6807 294.691 86.3247C294.418 85.9686 294.047 85.677 293.577 85.4497C293.108 85.2224 292.52 85.1088 291.816 85.1088C290.854 85.1088 290.051 85.3247 289.407 85.7565C288.763 86.1807 288.441 86.73 288.441 87.4042C288.441 87.9876 288.657 88.4573 289.089 88.8133C289.52 89.1694 290.217 89.461 291.18 89.6883L293.952 90.3247C295.558 90.6959 296.755 91.2679 297.543 92.0406C298.331 92.8133 298.725 93.8171 298.725 95.052C298.725 96.0974 298.422 97.0292 297.816 97.8474C297.217 98.658 296.38 99.2944 295.305 99.7565C294.236 100.219 292.998 100.45 291.589 100.45C289.634 100.45 288.039 100.033 286.805 99.1997C285.57 98.3588 284.812 97.1656 284.532 95.6201L287.816 95.1201C288.02 95.9762 288.441 96.6239 289.077 97.0633C289.714 97.4951 290.543 97.711 291.566 97.711C292.68 97.711 293.57 97.48 294.236 97.0179C294.903 96.5482 295.236 95.9762 295.236 95.302C295.236 94.7565 295.032 94.2982 294.623 93.927C294.221 93.5557 293.604 93.2754 292.77 93.086L289.816 92.4383C288.187 92.0671 286.983 91.4762 286.202 90.6656C285.43 89.855 285.043 88.8285 285.043 87.586C285.043 86.5557 285.331 85.6542 285.907 84.8815C286.483 84.1088 287.278 83.5065 288.293 83.0747C289.308 82.6353 290.471 82.4156 291.782 82.4156C293.668 82.4156 295.153 82.8247 296.236 83.6429C297.32 84.4535 298.036 85.5406 298.384 86.9042ZM310.449 82.6429V85.3701H300.914V82.6429H310.449ZM303.471 78.461H306.869V94.9724C306.869 95.6315 306.967 96.1277 307.164 96.461C307.361 96.7868 307.615 97.0103 307.926 97.1315C308.244 97.2451 308.589 97.302 308.96 97.302C309.233 97.302 309.471 97.283 309.676 97.2451C309.88 97.2073 310.039 97.177 310.153 97.1542L310.767 99.961C310.57 100.037 310.289 100.113 309.926 100.188C309.562 100.272 309.108 100.317 308.562 100.325C307.668 100.34 306.835 100.181 306.062 99.8474C305.289 99.5141 304.664 98.9989 304.187 98.302C303.71 97.605 303.471 96.73 303.471 95.677V78.461ZM321.212 100.45C319.575 100.45 318.147 100.075 316.928 99.3247C315.708 98.5747 314.761 97.5254 314.087 96.177C313.413 94.8285 313.075 93.2527 313.075 91.4497C313.075 89.6391 313.413 88.0557 314.087 86.6997C314.761 85.3436 315.708 84.2906 316.928 83.5406C318.147 82.7906 319.575 82.4156 321.212 82.4156C322.848 82.4156 324.276 82.7906 325.496 83.5406C326.716 84.2906 327.663 85.3436 328.337 86.6997C329.011 88.0557 329.348 89.6391 329.348 91.4497C329.348 93.2527 329.011 94.8285 328.337 96.177C327.663 97.5254 326.716 98.5747 325.496 99.3247C324.276 100.075 322.848 100.45 321.212 100.45ZM321.223 97.5974C322.284 97.5974 323.163 97.3171 323.86 96.7565C324.557 96.1959 325.072 95.4497 325.405 94.5179C325.746 93.586 325.916 92.5595 325.916 91.4383C325.916 90.3247 325.746 89.302 325.405 88.3701C325.072 87.4307 324.557 86.677 323.86 86.1088C323.163 85.5406 322.284 85.2565 321.223 85.2565C320.155 85.2565 319.269 85.5406 318.564 86.1088C317.867 86.677 317.348 87.4307 317.007 88.3701C316.674 89.302 316.507 90.3247 316.507 91.4383C316.507 92.5595 316.674 93.586 317.007 94.5179C317.348 95.4497 317.867 96.1959 318.564 96.7565C319.269 97.3171 320.155 97.5974 321.223 97.5974ZM336.379 89.7338V100.097H332.981V82.6429H336.242V85.4838H336.458C336.86 84.5595 337.488 83.8171 338.344 83.2565C339.208 82.6959 340.295 82.4156 341.606 82.4156C342.795 82.4156 343.837 82.6656 344.731 83.1656C345.625 83.658 346.318 84.3929 346.81 85.3701C347.303 86.3474 347.549 87.5557 347.549 88.9951V100.097H344.151V89.4042C344.151 88.1391 343.822 87.1504 343.163 86.4383C342.504 85.7186 341.598 85.3588 340.447 85.3588C339.659 85.3588 338.958 85.5292 338.344 85.8701C337.738 86.211 337.257 86.711 336.901 87.3701C336.553 88.0217 336.379 88.8095 336.379 89.7338ZM359.469 100.45C357.749 100.45 356.268 100.082 355.025 99.3474C353.791 98.605 352.836 97.5633 352.162 96.2224C351.495 94.8739 351.162 93.2944 351.162 91.4838C351.162 89.6959 351.495 88.1201 352.162 86.7565C352.836 85.3929 353.775 84.3285 354.98 83.5633C356.192 82.7982 357.609 82.4156 359.23 82.4156C360.215 82.4156 361.169 82.5785 362.094 82.9042C363.018 83.23 363.847 83.7414 364.582 84.4383C365.317 85.1353 365.897 86.0406 366.321 87.1542C366.745 88.2603 366.957 89.605 366.957 91.1883V92.3929H353.082V89.8474H363.628C363.628 88.9535 363.446 88.1618 363.082 87.4724C362.719 86.7754 362.207 86.2262 361.548 85.8247C360.897 85.4232 360.131 85.2224 359.253 85.2224C358.298 85.2224 357.465 85.4573 356.753 85.927C356.048 86.3891 355.503 86.9951 355.116 87.7451C354.737 88.4876 354.548 89.2944 354.548 90.1656V92.1542C354.548 93.3209 354.753 94.3133 355.162 95.1315C355.578 95.9497 356.158 96.5747 356.9 97.0065C357.643 97.4307 358.51 97.6429 359.503 97.6429C360.147 97.6429 360.734 97.552 361.264 97.3701C361.794 97.1807 362.253 96.9004 362.639 96.5292C363.025 96.158 363.321 95.6997 363.525 95.1542L366.741 95.7338C366.484 96.6807 366.022 97.5103 365.355 98.2224C364.696 98.927 363.866 99.4762 362.866 99.8701C361.874 100.257 360.741 100.45 359.469 100.45Z" fill="white"/>
<rect x="28" y="246" width="60" height="60" rx="16" fill="white"/>
<rect x="452" y="246" width="60" height="60" rx="16" fill="white"/>
<rect x="524" y="284" width="60" height="60" rx="16" fill="white"/>
<rect x="-44" y="284" width="60" height="60" rx="16" fill="white"/>
<rect x="28" y="322" width="60" height="60" rx="16" fill="white"/>
<rect x="452" y="322" width="60" height="60" rx="16" fill="white"/>
<rect x="110" y="184" width="320" height="260" rx="20" fill="#93CCFD"/>
<rect x="110" y="184" width="320" height="260" rx="20" fill="url(#paint4_radial_20000_611)" fill-opacity="0.7"/>
<g clip-path="url(#clip1_20000_611)">
<path d="M145.25 234.25H132.75C132.405 234.25 132.125 234.53 132.125 234.875V238.625C132.125 238.97 132.405 239.25 132.75 239.25H145.25C145.595 239.25 145.875 238.97 145.875 238.625V234.875C145.875 234.53 145.595 234.25 145.25 234.25Z" stroke="#1F1F1F" stroke-width="1.5" stroke-linecap="round" stroke-linejoin="round"/>
<path d="M145.25 226.75H132.75C132.405 226.75 132.125 227.03 132.125 227.375V231.125C132.125 231.47 132.405 231.75 132.75 231.75H145.25C145.595 231.75 145.875 231.47 145.875 231.125V227.375C145.875 227.03 145.595 226.75 145.25 226.75Z" stroke="#1F1F1F" stroke-width="1.5" stroke-linecap="round" stroke-linejoin="round"/>
<path d="M143.062 230.188C143.58 230.188 144 229.768 144 229.25C144 228.732 143.58 228.312 143.062 228.312C142.545 228.312 142.125 228.732 142.125 229.25C142.125 229.768 142.545 230.188 143.062 230.188Z" fill="#1F1F1F"/>
<path d="M143.062 237.688C143.58 237.688 144 237.268 144 236.75C144 236.232 143.58 235.812 143.062 235.812C142.545 235.812 142.125 236.232 142.125 236.75C142.125 237.268 142.545 237.688 143.062 237.688Z" fill="#1F1F1F"/>
</g>
<rect x="119" y="267" width="40" height="64" rx="20" fill="white"/>
<g clip-path="url(#clip2_20000_611)">
<path d="M133.375 297.125H130.875C130.53 297.125 130.25 297.405 130.25 297.75V300.25C130.25 300.595 130.53 300.875 130.875 300.875H133.375C133.72 300.875 134 300.595 134 300.25V297.75C134 297.405 133.72 297.125 133.375 297.125Z" stroke="#1F1F1F" stroke-width="1.5" stroke-linecap="round" stroke-linejoin="round"/>
<path d="M145.25 292.125H141.5C141.155 292.125 140.875 292.405 140.875 292.75V296.5C140.875 296.845 141.155 297.125 141.5 297.125H145.25C145.595 297.125 145.875 296.845 145.875 296.5V292.75C145.875 292.405 145.595 292.125 145.25 292.125Z" stroke="#1F1F1F" stroke-width="1.5" stroke-linecap="round" stroke-linejoin="round"/>
<path d="M145.25 300.875H141.5C141.155 300.875 140.875 301.155 140.875 301.5V305.25C140.875 305.595 141.155 305.875 141.5 305.875H145.25C145.595 305.875 145.875 305.595 145.875 305.25V301.5C145.875 301.155 145.595 300.875 145.25 300.875Z" stroke="#1F1F1F" stroke-width="1.5" stroke-linecap="round" stroke-linejoin="round"/>
<path d="M134 299H137.75" stroke="#1F1F1F" stroke-width="1.5" stroke-linecap="round" stroke-linejoin="round"/>
<path d="M140.875 303.375H139C138.668 303.375 138.351 303.243 138.116 303.009C137.882 302.774 137.75 302.457 137.75 302.125V295.875C137.75 295.543 137.882 295.226 138.116 294.991C138.351 294.757 138.668 294.625 139 294.625H140.875" stroke="#1F1F1F" stroke-width="1.5" stroke-linecap="round" stroke-linejoin="round"/>
</g>
<g clip-path="url(#clip3_20000_611)">
<path d="M141.5 356.25L140.25 362.5L145.25 364.375L136.5 373.75L137.75 367.5L132.75 365.625L141.5 356.25Z" stroke="#1F1F1F" stroke-width="1.5" stroke-linecap="round" stroke-linejoin="round"/>
</g>
<rect x="168" y="192" width="254" height="244" rx="20" fill="white"/>
<g filter="url(#filter0_d_20000_611)">
<rect x="188" y="212" width="32" height="32" rx="16" fill="url(#paint5_linear_20000_611)" shape-rendering="crispEdges"/>
<rect x="188" y="212" width="32" height="32" rx="16" fill="url(#paint6_radial_20000_611)" fill-opacity="0.2" shape-rendering="crispEdges"/>
<g clip-path="url(#clip4_20000_611)">
<path d="M199.875 228.75L202.5 231.375L208.5 225.375" stroke="#F5F8FF" stroke-width="2" stroke-linecap="round" stroke-linejoin="round"/>
</g>
</g>
<path d="M234.722 216.773L237.151 223.881H237.249L239.678 216.773H241.101L237.96 225.5H236.439L233.298 216.773H234.722ZM244.364 225.632C243.719 225.632 243.163 225.494 242.697 225.219C242.234 224.94 241.876 224.55 241.624 224.047C241.374 223.541 241.249 222.949 241.249 222.27C241.249 221.599 241.374 221.009 241.624 220.497C241.876 219.986 242.229 219.587 242.68 219.3C243.135 219.013 243.666 218.869 244.274 218.869C244.643 218.869 245.001 218.93 245.348 219.053C245.695 219.175 246.006 219.366 246.281 219.628C246.557 219.889 246.774 220.229 246.933 220.646C247.092 221.061 247.172 221.565 247.172 222.159V222.611H241.969V221.656H245.923C245.923 221.321 245.855 221.024 245.719 220.766C245.582 220.504 245.391 220.298 245.143 220.148C244.899 219.997 244.612 219.922 244.283 219.922C243.925 219.922 243.612 220.01 243.345 220.186C243.081 220.359 242.876 220.587 242.732 220.868C242.59 221.146 242.518 221.449 242.518 221.776V222.521C242.518 222.959 242.595 223.331 242.749 223.638C242.905 223.945 243.122 224.179 243.401 224.341C243.679 224.5 244.004 224.58 244.376 224.58C244.618 224.58 244.838 224.545 245.037 224.477C245.236 224.406 245.408 224.301 245.553 224.162C245.697 224.023 245.808 223.851 245.885 223.646L247.091 223.864C246.994 224.219 246.821 224.53 246.571 224.797C246.324 225.061 246.013 225.267 245.638 225.415C245.266 225.56 244.841 225.632 244.364 225.632ZM248.526 225.5V218.955H249.757V219.994H249.825C249.945 219.642 250.155 219.365 250.456 219.163C250.76 218.959 251.104 218.857 251.487 218.857C251.567 218.857 251.661 218.859 251.768 218.865C251.879 218.871 251.966 218.878 252.028 218.886V220.105C251.977 220.091 251.886 220.075 251.756 220.058C251.625 220.038 251.494 220.028 251.364 220.028C251.063 220.028 250.794 220.092 250.558 220.22C250.325 220.345 250.141 220.52 250.004 220.744C249.868 220.966 249.8 221.219 249.8 221.503V225.5H248.526ZM253.071 225.5V218.955H254.345V225.5H253.071ZM253.715 217.945C253.493 217.945 253.303 217.871 253.144 217.723C252.987 217.572 252.909 217.393 252.909 217.186C252.909 216.976 252.987 216.797 253.144 216.649C253.303 216.499 253.493 216.423 253.715 216.423C253.936 216.423 254.125 216.499 254.281 216.649C254.44 216.797 254.52 216.976 254.52 217.186C254.52 217.393 254.44 217.572 254.281 217.723C254.125 217.871 253.936 217.945 253.715 217.945ZM259.114 218.955V219.977H255.416V218.955H259.114ZM256.43 225.5V218.196C256.43 217.787 256.519 217.447 256.698 217.178C256.877 216.905 257.114 216.702 257.41 216.568C257.705 216.432 258.026 216.364 258.373 216.364C258.629 216.364 258.847 216.385 259.029 216.428C259.211 216.467 259.346 216.504 259.434 216.538L259.136 217.57C259.076 217.553 258.999 217.533 258.906 217.51C258.812 217.484 258.698 217.472 258.565 217.472C258.255 217.472 258.033 217.548 257.9 217.702C257.769 217.855 257.704 218.077 257.704 218.366V225.5H256.43ZM260.369 225.5V218.955H261.643V225.5H260.369ZM261.013 217.945C260.791 217.945 260.601 217.871 260.441 217.723C260.285 217.572 260.207 217.393 260.207 217.186C260.207 216.976 260.285 216.797 260.441 216.649C260.601 216.499 260.791 216.423 261.013 216.423C261.234 216.423 261.423 216.499 261.579 216.649C261.738 216.797 261.818 216.976 261.818 217.186C261.818 217.393 261.738 217.572 261.579 217.723C261.423 217.871 261.234 217.945 261.013 217.945ZM266.118 225.632C265.473 225.632 264.918 225.494 264.452 225.219C263.989 224.94 263.631 224.55 263.378 224.047C263.128 223.541 263.003 222.949 263.003 222.27C263.003 221.599 263.128 221.009 263.378 220.497C263.631 219.986 263.983 219.587 264.435 219.3C264.89 219.013 265.421 218.869 266.029 218.869C266.398 218.869 266.756 218.93 267.103 219.053C267.449 219.175 267.76 219.366 268.036 219.628C268.312 219.889 268.529 220.229 268.688 220.646C268.847 221.061 268.927 221.565 268.927 222.159V222.611H263.723V221.656H267.678C267.678 221.321 267.61 221.024 267.473 220.766C267.337 220.504 267.145 220.298 266.898 220.148C266.654 219.997 266.367 219.922 266.037 219.922C265.679 219.922 265.367 220.01 265.1 220.186C264.836 220.359 264.631 220.587 264.486 220.868C264.344 221.146 264.273 221.449 264.273 221.776V222.521C264.273 222.959 264.35 223.331 264.503 223.638C264.66 223.945 264.877 224.179 265.155 224.341C265.434 224.5 265.759 224.58 266.131 224.58C266.373 224.58 266.593 224.545 266.792 224.477C266.99 224.406 267.162 224.301 267.307 224.162C267.452 224.023 267.563 223.851 267.64 223.646L268.846 223.864C268.749 224.219 268.576 224.53 268.326 224.797C268.079 225.061 267.767 225.267 267.392 225.415C267.02 225.56 266.596 225.632 266.118 225.632ZM272.731 225.628C272.202 225.628 271.731 225.493 271.316 225.223C270.904 224.95 270.58 224.562 270.344 224.06C270.111 223.554 269.995 222.947 269.995 222.24C269.995 221.533 270.113 220.928 270.348 220.425C270.587 219.922 270.914 219.537 271.329 219.27C271.743 219.003 272.214 218.869 272.739 218.869C273.145 218.869 273.472 218.938 273.719 219.074C273.969 219.207 274.162 219.364 274.299 219.543C274.438 219.722 274.546 219.879 274.623 220.016H274.699V216.773H275.973V225.5H274.729V224.482H274.623C274.546 224.621 274.435 224.78 274.29 224.959C274.148 225.138 273.952 225.294 273.702 225.428C273.452 225.561 273.128 225.628 272.731 225.628ZM273.012 224.541C273.378 224.541 273.688 224.445 273.941 224.251C274.196 224.055 274.39 223.784 274.52 223.438C274.654 223.091 274.721 222.687 274.721 222.227C274.721 221.773 274.655 221.375 274.525 221.034C274.394 220.693 274.202 220.428 273.949 220.237C273.696 220.047 273.384 219.952 273.012 219.952C272.628 219.952 272.309 220.051 272.053 220.25C271.797 220.449 271.604 220.72 271.473 221.064C271.346 221.408 271.282 221.795 271.282 222.227C271.282 222.665 271.347 223.058 271.478 223.408C271.608 223.757 271.802 224.034 272.057 224.239C272.316 224.44 272.634 224.541 273.012 224.541ZM282.267 216.773V225.5H280.95V216.773H282.267ZM285.296 221.614V225.5H284.022V218.955H285.245V220.02H285.326C285.477 219.673 285.713 219.395 286.034 219.185C286.357 218.974 286.765 218.869 287.257 218.869C287.703 218.869 288.093 218.963 288.428 219.151C288.764 219.335 289.024 219.611 289.208 219.977C289.393 220.344 289.485 220.797 289.485 221.337V225.5H288.211V221.49C288.211 221.016 288.088 220.645 287.84 220.378C287.593 220.108 287.254 219.973 286.822 219.973C286.526 219.973 286.264 220.037 286.034 220.165C285.806 220.293 285.626 220.48 285.492 220.727C285.362 220.972 285.296 221.267 285.296 221.614ZM294.189 218.955V219.977H290.614V218.955H294.189ZM291.573 217.386H292.847V223.578C292.847 223.825 292.884 224.011 292.958 224.136C293.032 224.259 293.127 224.342 293.243 224.388C293.363 224.43 293.492 224.452 293.631 224.452C293.733 224.452 293.823 224.445 293.9 224.43C293.976 224.416 294.036 224.405 294.079 224.396L294.309 225.449C294.235 225.477 294.13 225.506 293.993 225.534C293.857 225.565 293.687 225.582 293.482 225.585C293.147 225.591 292.834 225.531 292.545 225.406C292.255 225.281 292.02 225.088 291.841 224.827C291.662 224.565 291.573 224.237 291.573 223.842V217.386ZM298.29 225.632C297.645 225.632 297.089 225.494 296.623 225.219C296.16 224.94 295.802 224.55 295.55 224.047C295.3 223.541 295.175 222.949 295.175 222.27C295.175 221.599 295.3 221.009 295.55 220.497C295.802 219.986 296.155 219.587 296.606 219.3C297.061 219.013 297.592 218.869 298.2 218.869C298.569 218.869 298.927 218.93 299.274 219.053C299.621 219.175 299.932 219.366 300.207 219.628C300.483 219.889 300.7 220.229 300.859 220.646C301.018 221.061 301.098 221.565 301.098 222.159V222.611H295.895V221.656H299.849C299.849 221.321 299.781 221.024 299.645 220.766C299.508 220.504 299.317 220.298 299.069 220.148C298.825 219.997 298.538 219.922 298.209 219.922C297.851 219.922 297.538 220.01 297.271 220.186C297.007 220.359 296.802 220.587 296.657 220.868C296.515 221.146 296.444 221.449 296.444 221.776V222.521C296.444 222.959 296.521 223.331 296.675 223.638C296.831 223.945 297.048 224.179 297.327 224.341C297.605 224.5 297.93 224.58 298.302 224.58C298.544 224.58 298.764 224.545 298.963 224.477C299.162 224.406 299.334 224.301 299.479 224.162C299.623 224.023 299.734 223.851 299.811 223.646L301.017 223.864C300.92 224.219 300.747 224.53 300.497 224.797C300.25 225.061 299.939 225.267 299.564 225.415C299.192 225.56 298.767 225.632 298.29 225.632ZM305.196 228.091C304.676 228.091 304.229 228.023 303.854 227.886C303.481 227.75 303.177 227.57 302.942 227.345C302.706 227.121 302.53 226.875 302.413 226.608L303.508 226.156C303.585 226.281 303.687 226.413 303.815 226.553C303.946 226.695 304.122 226.815 304.344 226.915C304.568 227.014 304.856 227.064 305.209 227.064C305.692 227.064 306.091 226.946 306.406 226.71C306.721 226.477 306.879 226.105 306.879 225.594V224.307H306.798C306.721 224.446 306.611 224.601 306.466 224.771C306.324 224.942 306.128 225.089 305.878 225.214C305.628 225.339 305.302 225.402 304.902 225.402C304.385 225.402 303.919 225.281 303.504 225.04C303.092 224.795 302.765 224.436 302.524 223.962C302.285 223.484 302.166 222.898 302.166 222.202C302.166 221.506 302.284 220.909 302.52 220.412C302.758 219.915 303.085 219.534 303.5 219.27C303.915 219.003 304.385 218.869 304.91 218.869C305.317 218.869 305.645 218.938 305.895 219.074C306.145 219.207 306.339 219.364 306.479 219.543C306.621 219.722 306.73 219.879 306.807 220.016H306.9V218.955H308.149V225.645C308.149 226.207 308.018 226.669 307.757 227.03C307.496 227.391 307.142 227.658 306.696 227.831C306.253 228.004 305.753 228.091 305.196 228.091ZM305.183 224.345C305.55 224.345 305.859 224.26 306.112 224.089C306.368 223.916 306.561 223.669 306.692 223.348C306.825 223.024 306.892 222.636 306.892 222.185C306.892 221.744 306.827 221.357 306.696 221.021C306.565 220.686 306.373 220.425 306.121 220.237C305.868 220.047 305.555 219.952 305.183 219.952C304.8 219.952 304.48 220.051 304.224 220.25C303.969 220.446 303.775 220.713 303.645 221.051C303.517 221.389 303.453 221.767 303.453 222.185C303.453 222.614 303.518 222.99 303.649 223.314C303.78 223.638 303.973 223.891 304.229 224.072C304.487 224.254 304.805 224.345 305.183 224.345ZM309.798 225.5V218.955H311.029V219.994H311.098C311.217 219.642 311.427 219.365 311.728 219.163C312.032 218.959 312.376 218.857 312.759 218.857C312.839 218.857 312.933 218.859 313.041 218.865C313.151 218.871 313.238 218.878 313.301 218.886V220.105C313.249 220.091 313.159 220.075 313.028 220.058C312.897 220.038 312.767 220.028 312.636 220.028C312.335 220.028 312.066 220.092 311.83 220.22C311.598 220.345 311.413 220.52 311.276 220.744C311.14 220.966 311.072 221.219 311.072 221.503V225.5H309.798ZM316.189 225.645C315.775 225.645 315.4 225.568 315.064 225.415C314.729 225.259 314.464 225.033 314.268 224.737C314.074 224.442 313.978 224.08 313.978 223.651C313.978 223.281 314.049 222.977 314.191 222.739C314.333 222.5 314.525 222.311 314.766 222.172C315.008 222.033 315.278 221.928 315.576 221.857C315.874 221.786 316.178 221.732 316.488 221.695C316.88 221.649 317.198 221.612 317.442 221.584C317.687 221.553 317.864 221.503 317.975 221.435C318.086 221.366 318.141 221.256 318.141 221.102V221.072C318.141 220.7 318.036 220.412 317.826 220.207C317.618 220.003 317.309 219.901 316.897 219.901C316.468 219.901 316.13 219.996 315.883 220.186C315.638 220.374 315.469 220.582 315.376 220.812L314.178 220.54C314.32 220.142 314.528 219.821 314.8 219.577C315.076 219.33 315.393 219.151 315.751 219.04C316.109 218.926 316.485 218.869 316.88 218.869C317.141 218.869 317.418 218.901 317.711 218.963C318.006 219.023 318.282 219.134 318.537 219.295C318.796 219.457 319.008 219.689 319.172 219.99C319.337 220.288 319.42 220.676 319.42 221.153V225.5H318.175V224.605H318.124C318.042 224.77 317.918 224.932 317.753 225.091C317.589 225.25 317.377 225.382 317.118 225.487C316.86 225.592 316.55 225.645 316.189 225.645ZM316.466 224.622C316.819 224.622 317.12 224.553 317.37 224.413C317.623 224.274 317.814 224.092 317.945 223.868C318.079 223.641 318.145 223.398 318.145 223.139V222.295C318.1 222.341 318.012 222.384 317.881 222.423C317.753 222.46 317.607 222.493 317.442 222.521C317.278 222.547 317.117 222.571 316.961 222.594C316.805 222.614 316.674 222.631 316.569 222.645C316.322 222.676 316.096 222.729 315.891 222.803C315.689 222.876 315.528 222.983 315.405 223.122C315.286 223.259 315.226 223.44 315.226 223.668C315.226 223.983 315.343 224.222 315.576 224.384C315.809 224.543 316.106 224.622 316.466 224.622ZM324.112 218.955V219.977H320.537V218.955H324.112ZM321.496 217.386H322.77V223.578C322.77 223.825 322.807 224.011 322.881 224.136C322.954 224.259 323.05 224.342 323.166 224.388C323.285 224.43 323.415 224.452 323.554 224.452C323.656 224.452 323.746 224.445 323.822 224.43C323.899 224.416 323.959 224.405 324.001 224.396L324.231 225.449C324.158 225.477 324.052 225.506 323.916 225.534C323.78 225.565 323.609 225.582 323.405 225.585C323.069 225.591 322.757 225.531 322.467 225.406C322.177 225.281 321.943 225.088 321.764 224.827C321.585 224.565 321.496 224.237 321.496 223.842V217.386ZM325.462 225.5V218.955H326.736V225.5H325.462ZM326.105 217.945C325.883 217.945 325.693 217.871 325.534 217.723C325.378 217.572 325.3 217.393 325.3 217.186C325.3 216.976 325.378 216.797 325.534 216.649C325.693 216.499 325.883 216.423 326.105 216.423C326.327 216.423 326.516 216.499 326.672 216.649C326.831 216.797 326.91 216.976 326.91 217.186C326.91 217.393 326.831 217.572 326.672 217.723C326.516 217.871 326.327 217.945 326.105 217.945ZM331.147 225.632C330.533 225.632 329.998 225.491 329.54 225.21C329.083 224.929 328.728 224.536 328.475 224.03C328.222 223.524 328.096 222.933 328.096 222.257C328.096 221.578 328.222 220.984 328.475 220.476C328.728 219.967 329.083 219.572 329.54 219.291C329.998 219.01 330.533 218.869 331.147 218.869C331.761 218.869 332.296 219.01 332.753 219.291C333.211 219.572 333.566 219.967 333.819 220.476C334.072 220.984 334.198 221.578 334.198 222.257C334.198 222.933 334.072 223.524 333.819 224.03C333.566 224.536 333.211 224.929 332.753 225.21C332.296 225.491 331.761 225.632 331.147 225.632ZM331.151 224.562C331.549 224.562 331.878 224.457 332.14 224.247C332.401 224.037 332.594 223.757 332.719 223.408C332.847 223.058 332.911 222.673 332.911 222.253C332.911 221.835 332.847 221.452 332.719 221.102C332.594 220.75 332.401 220.467 332.14 220.254C331.878 220.041 331.549 219.935 331.151 219.935C330.751 219.935 330.418 220.041 330.154 220.254C329.893 220.467 329.698 220.75 329.57 221.102C329.445 221.452 329.383 221.835 329.383 222.253C329.383 222.673 329.445 223.058 329.57 223.408C329.698 223.757 329.893 224.037 330.154 224.247C330.418 224.457 330.751 224.562 331.151 224.562ZM336.834 221.614V225.5H335.56V218.955H336.783V220.02H336.864C337.015 219.673 337.251 219.395 337.572 219.185C337.896 218.974 338.303 218.869 338.795 218.869C339.241 218.869 339.631 218.963 339.967 219.151C340.302 219.335 340.562 219.611 340.746 219.977C340.931 220.344 341.023 220.797 341.023 221.337V225.5H339.749V221.49C339.749 221.016 339.626 220.645 339.378 220.378C339.131 220.108 338.792 219.973 338.36 219.973C338.065 219.973 337.802 220.037 337.572 220.165C337.344 220.293 337.164 220.48 337.03 220.727C336.9 220.972 336.834 221.267 336.834 221.614Z" fill="black"/>
<path d="M233.582 239.009V238.284L236.778 233.227H237.304V234.349H236.949L234.534 238.17V238.227H238.838V239.009H233.582ZM237.006 240.5V238.788V238.451V233.227H237.844V240.5H237.006ZM242.704 232.886L240.36 241.594H239.593L241.937 232.886H242.704ZM243.463 239.009V238.284L246.659 233.227H247.184V234.349H246.829L244.415 238.17V238.227H248.719V239.009H243.463ZM246.886 240.5V238.788V238.451V233.227H247.724V240.5H246.886ZM255.205 235.045V235.756H252.265V235.045H255.205ZM253.145 240.5V234.293C253.145 233.98 253.219 233.72 253.366 233.511C253.512 233.303 253.703 233.147 253.937 233.043C254.172 232.938 254.419 232.886 254.679 232.886C254.885 232.886 255.053 232.903 255.184 232.936C255.314 232.969 255.411 233 255.475 233.028L255.233 233.753C255.191 233.739 255.132 233.721 255.056 233.7C254.982 233.678 254.885 233.668 254.765 233.668C254.488 233.668 254.288 233.737 254.165 233.877C254.044 234.017 253.983 234.222 253.983 234.491V240.5H253.145ZM256.33 240.5V235.045H257.168V240.5H256.33ZM256.756 234.136C256.592 234.136 256.451 234.081 256.333 233.969C256.217 233.858 256.159 233.724 256.159 233.568C256.159 233.412 256.217 233.278 256.333 233.167C256.451 233.056 256.592 233 256.756 233C256.919 233 257.059 233.056 257.175 233.167C257.293 233.278 257.352 233.412 257.352 233.568C257.352 233.724 257.293 233.858 257.175 233.969C257.059 234.081 256.919 234.136 256.756 234.136ZM259.491 233.227V240.5H258.653V233.227H259.491ZM263.263 240.614C262.737 240.614 262.284 240.498 261.902 240.266C261.524 240.031 261.231 239.705 261.025 239.286C260.822 238.864 260.72 238.374 260.72 237.815C260.72 237.257 260.822 236.764 261.025 236.338C261.231 235.91 261.518 235.576 261.885 235.337C262.254 235.095 262.685 234.974 263.177 234.974C263.461 234.974 263.742 235.022 264.019 235.116C264.296 235.211 264.548 235.365 264.775 235.578C265.003 235.789 265.184 236.068 265.319 236.416C265.454 236.764 265.521 237.193 265.521 237.702V238.057H261.317V237.332H264.669C264.669 237.025 264.607 236.75 264.484 236.509C264.363 236.267 264.191 236.076 263.966 235.937C263.743 235.797 263.48 235.727 263.177 235.727C262.844 235.727 262.555 235.81 262.311 235.976C262.069 236.139 261.884 236.352 261.753 236.615C261.623 236.878 261.558 237.16 261.558 237.46V237.943C261.558 238.355 261.629 238.704 261.771 238.991C261.916 239.275 262.116 239.491 262.371 239.641C262.627 239.787 262.924 239.861 263.263 239.861C263.483 239.861 263.682 239.83 263.859 239.768C264.039 239.705 264.194 239.61 264.324 239.484C264.455 239.357 264.555 239.198 264.626 239.009L265.436 239.236C265.351 239.51 265.207 239.752 265.006 239.96C264.805 240.166 264.556 240.327 264.26 240.443C263.965 240.557 263.632 240.614 263.263 240.614ZM272.946 238.27V235.045H273.784V240.5H272.946V239.577H272.889C272.761 239.854 272.562 240.089 272.293 240.283C272.023 240.475 271.682 240.571 271.27 240.571C270.929 240.571 270.626 240.496 270.361 240.347C270.096 240.196 269.887 239.969 269.736 239.665C269.584 239.36 269.508 238.975 269.508 238.511V235.045H270.347V238.455C270.347 238.852 270.458 239.17 270.68 239.406C270.905 239.643 271.192 239.761 271.54 239.761C271.748 239.761 271.96 239.708 272.175 239.602C272.393 239.495 272.575 239.332 272.722 239.112C272.871 238.891 272.946 238.611 272.946 238.27ZM276.107 237.219V240.5H275.269V235.045H276.079V235.898H276.15C276.278 235.621 276.472 235.398 276.732 235.23C276.992 235.06 277.329 234.974 277.741 234.974C278.11 234.974 278.433 235.05 278.71 235.202C278.987 235.351 279.202 235.578 279.356 235.884C279.51 236.187 279.587 236.57 279.587 237.034V240.5H278.749V237.091C278.749 236.662 278.638 236.329 278.415 236.089C278.193 235.848 277.887 235.727 277.499 235.727C277.232 235.727 276.992 235.785 276.782 235.901C276.573 236.017 276.409 236.187 276.288 236.409C276.167 236.632 276.107 236.902 276.107 237.219ZM280.912 240.5V239.861L284.009 235.884V235.827H281.012V235.045H285.088V235.713L282.077 239.662V239.719H285.188V240.5H280.912ZM286.429 240.5V235.045H287.267V240.5H286.429ZM286.855 234.136C286.692 234.136 286.551 234.081 286.432 233.969C286.316 233.858 286.258 233.724 286.258 233.568C286.258 233.412 286.316 233.278 286.432 233.167C286.551 233.056 286.692 233 286.855 233C287.018 233 287.158 233.056 287.274 233.167C287.392 233.278 287.451 233.412 287.451 233.568C287.451 233.724 287.392 233.858 287.274 233.969C287.158 234.081 287.018 234.136 286.855 234.136ZM288.752 242.545V235.045H289.561V235.912H289.661C289.722 235.817 289.808 235.696 289.917 235.55C290.028 235.401 290.186 235.268 290.392 235.152C290.601 235.034 290.882 234.974 291.238 234.974C291.697 234.974 292.102 235.089 292.452 235.319C292.802 235.549 293.076 235.874 293.272 236.295C293.469 236.717 293.567 237.214 293.567 237.787C293.567 238.365 293.469 238.865 293.272 239.289C293.076 239.71 292.804 240.037 292.456 240.269C292.108 240.499 291.706 240.614 291.252 240.614C290.901 240.614 290.621 240.556 290.41 240.44C290.199 240.321 290.037 240.187 289.924 240.038C289.81 239.887 289.722 239.761 289.661 239.662H289.59V242.545H288.752ZM289.576 237.773C289.576 238.185 289.636 238.548 289.757 238.863C289.878 239.175 290.054 239.42 290.286 239.598C290.518 239.773 290.802 239.861 291.138 239.861C291.489 239.861 291.781 239.768 292.015 239.584C292.252 239.397 292.43 239.146 292.548 238.831C292.669 238.514 292.729 238.161 292.729 237.773C292.729 237.389 292.67 237.044 292.552 236.736C292.436 236.426 292.259 236.181 292.022 236.001C291.788 235.818 291.493 235.727 291.138 235.727C290.797 235.727 290.511 235.814 290.279 235.987C290.047 236.157 289.872 236.396 289.753 236.704C289.635 237.009 289.576 237.366 289.576 237.773ZM294.796 242.545V235.045H295.605V235.912H295.705C295.766 235.817 295.851 235.696 295.96 235.55C296.072 235.401 296.23 235.268 296.436 235.152C296.645 235.034 296.926 234.974 297.281 234.974C297.741 234.974 298.145 235.089 298.496 235.319C298.846 235.549 299.12 235.874 299.316 236.295C299.513 236.717 299.611 237.214 299.611 237.787C299.611 238.365 299.513 238.865 299.316 239.289C299.12 239.71 298.847 240.037 298.499 240.269C298.151 240.499 297.75 240.614 297.296 240.614C296.945 240.614 296.665 240.556 296.454 240.44C296.243 240.321 296.081 240.187 295.967 240.038C295.854 239.887 295.766 239.761 295.705 239.662H295.634V242.545H294.796ZM295.619 237.773C295.619 238.185 295.68 238.548 295.801 238.863C295.921 239.175 296.098 239.42 296.33 239.598C296.562 239.773 296.846 239.861 297.182 239.861C297.532 239.861 297.825 239.768 298.059 239.584C298.296 239.397 298.473 239.146 298.592 238.831C298.712 238.514 298.773 238.161 298.773 237.773C298.773 237.389 298.714 237.044 298.595 236.736C298.479 236.426 298.303 236.181 298.066 236.001C297.832 235.818 297.537 235.727 297.182 235.727C296.841 235.727 296.555 235.814 296.323 235.987C296.091 236.157 295.915 236.396 295.797 236.704C295.679 237.009 295.619 237.366 295.619 237.773ZM303.126 240.614C302.601 240.614 302.147 240.498 301.766 240.266C301.387 240.031 301.095 239.705 300.889 239.286C300.685 238.864 300.584 238.374 300.584 237.815C300.584 237.257 300.685 236.764 300.889 236.338C301.095 235.91 301.381 235.576 301.748 235.337C302.118 235.095 302.549 234.974 303.041 234.974C303.325 234.974 303.606 235.022 303.883 235.116C304.16 235.211 304.412 235.365 304.639 235.578C304.866 235.789 305.047 236.068 305.182 236.416C305.317 236.764 305.385 237.193 305.385 237.702V238.057H301.18V237.332H304.532C304.532 237.025 304.471 236.75 304.348 236.509C304.227 236.267 304.054 236.076 303.829 235.937C303.607 235.797 303.344 235.727 303.041 235.727C302.707 235.727 302.418 235.81 302.175 235.976C301.933 236.139 301.747 236.352 301.617 236.615C301.487 236.878 301.422 237.16 301.422 237.46V237.943C301.422 238.355 301.493 238.704 301.635 238.991C301.779 239.275 301.979 239.491 302.235 239.641C302.491 239.787 302.788 239.861 303.126 239.861C303.346 239.861 303.545 239.83 303.723 239.768C303.903 239.705 304.058 239.61 304.188 239.484C304.318 239.357 304.419 239.198 304.49 239.009L305.3 239.236C305.214 239.51 305.071 239.752 304.87 239.96C304.669 240.166 304.42 240.327 304.124 240.443C303.828 240.557 303.496 240.614 303.126 240.614ZM308.669 240.614C308.215 240.614 307.813 240.499 307.465 240.269C307.117 240.037 306.845 239.71 306.649 239.289C306.452 238.865 306.354 238.365 306.354 237.787C306.354 237.214 306.452 236.717 306.649 236.295C306.845 235.874 307.119 235.549 307.469 235.319C307.819 235.089 308.224 234.974 308.683 234.974C309.039 234.974 309.319 235.034 309.525 235.152C309.733 235.268 309.892 235.401 310.001 235.55C310.112 235.696 310.199 235.817 310.26 235.912H310.331V233.227H311.169V240.5H310.36V239.662H310.26C310.199 239.761 310.111 239.887 309.997 240.038C309.884 240.187 309.722 240.321 309.511 240.44C309.3 240.556 309.02 240.614 308.669 240.614ZM308.783 239.861C309.119 239.861 309.403 239.773 309.635 239.598C309.867 239.42 310.044 239.175 310.164 238.863C310.285 238.548 310.345 238.185 310.345 237.773C310.345 237.366 310.286 237.009 310.168 236.704C310.049 236.396 309.874 236.157 309.642 235.987C309.41 235.814 309.124 235.727 308.783 235.727C308.428 235.727 308.132 235.818 307.895 236.001C307.661 236.181 307.484 236.426 307.366 236.736C307.25 237.044 307.192 237.389 307.192 237.773C307.192 238.161 307.251 238.514 307.37 238.831C307.49 239.146 307.668 239.397 307.902 239.584C308.139 239.768 308.433 239.861 308.783 239.861Z" fill="#B0B0B0"/>
<g filter="url(#filter1_d_20000_611)">
<rect x="188" y="260" width="32" height="32" rx="16" fill="#93CCFD" shape-rendering="crispEdges"/>
<rect x="188" y="260" width="32" height="32" rx="16" fill="url(#paint7_radial_20000_611)" fill-opacity="0.7" shape-rendering="crispEdges"/>
<g clip-path="url(#clip5_20000_611)">
<path d="M199.875 276.75L202.5 279.375L208.5 273.375" stroke="#F5F8FF" stroke-width="2" stroke-linecap="round" stroke-linejoin="round"/>
</g>
</g>
<rect x="233" y="265" width="82" height="10" rx="5" fill="#DFE4EA"/>
<rect x="233" y="279" width="148" height="8" rx="4" fill="#F1F4F8"/>
<g filter="url(#filter2_d_20000_611)">
<rect x="188" y="308" width="32" height="32" rx="16" fill="#93CCFD" shape-rendering="crispEdges"/>
<rect x="188" y="308" width="32" height="32" rx="16" fill="url(#paint8_radial_20000_611)" fill-opacity="0.7" shape-rendering="crispEdges"/>
<g clip-path="url(#clip6_20000_611)">
<path d="M199.875 324.75L202.5 327.375L208.5 321.375" stroke="#F5F8FF" stroke-width="2" stroke-linecap="round" stroke-linejoin="round"/>
</g>
</g>
<rect x="233" y="313" width="82" height="10" rx="5" fill="#DFE4EA"/>
<rect x="233" y="327" width="148" height="8" rx="4" fill="#F1F4F8"/>
<rect x="188" y="380" width="214" height="36" rx="18" fill="url(#paint9_linear_20000_611)"/>
<rect x="188" y="380" width="214" height="36" rx="18" fill="url(#paint10_radial_20000_611)" fill-opacity="0.2"/>
<path d="M259.942 397.181H258.614C258.576 396.963 258.507 396.77 258.405 396.602C258.303 396.432 258.176 396.287 258.025 396.169C257.873 396.051 257.701 395.962 257.506 395.903C257.315 395.841 257.107 395.81 256.885 395.81C256.49 395.81 256.139 395.91 255.834 396.109C255.528 396.305 255.289 396.594 255.116 396.975C254.944 397.354 254.857 397.817 254.857 398.364C254.857 398.92 254.944 399.389 255.116 399.77C255.292 400.149 255.531 400.435 255.834 400.629C256.139 400.821 256.488 400.917 256.881 400.917C257.099 400.917 257.303 400.888 257.492 400.832C257.684 400.772 257.856 400.686 258.007 400.572C258.161 400.459 258.29 400.319 258.394 400.153C258.501 399.988 258.574 399.798 258.614 399.585L259.942 399.592C259.893 399.938 259.785 400.262 259.619 400.565C259.456 400.868 259.242 401.136 258.977 401.368C258.711 401.598 258.401 401.777 258.046 401.908C257.691 402.036 257.297 402.099 256.864 402.099C256.224 402.099 255.654 401.951 255.152 401.656C254.65 401.36 254.255 400.932 253.966 400.374C253.677 399.815 253.533 399.145 253.533 398.364C253.533 397.58 253.678 396.91 253.969 396.354C254.261 395.795 254.657 395.368 255.159 395.072C255.661 394.776 256.229 394.628 256.864 394.628C257.268 394.628 257.645 394.685 257.993 394.798C258.341 394.912 258.651 395.079 258.923 395.299C259.196 395.517 259.419 395.784 259.594 396.102C259.772 396.416 259.888 396.776 259.942 397.181ZM263.421 402.107C262.889 402.107 262.427 401.989 262.036 401.755C261.646 401.521 261.343 401.193 261.127 400.771C260.914 400.35 260.808 399.857 260.808 399.294C260.808 398.731 260.914 398.237 261.127 397.813C261.343 397.389 261.646 397.06 262.036 396.826C262.427 396.592 262.889 396.474 263.421 396.474C263.954 396.474 264.416 396.592 264.806 396.826C265.197 397.06 265.499 397.389 265.712 397.813C265.927 398.237 266.035 398.731 266.035 399.294C266.035 399.857 265.927 400.35 265.712 400.771C265.499 401.193 265.197 401.521 264.806 401.755C264.416 401.989 263.954 402.107 263.421 402.107ZM263.429 401.077C263.717 401.077 263.959 400.997 264.153 400.839C264.347 400.678 264.491 400.462 264.586 400.192C264.683 399.923 264.732 399.622 264.732 399.29C264.732 398.957 264.683 398.655 264.586 398.385C264.491 398.113 264.347 397.896 264.153 397.735C263.959 397.574 263.717 397.494 263.429 397.494C263.133 397.494 262.886 397.574 262.69 397.735C262.496 397.896 262.35 398.113 262.253 398.385C262.158 398.655 262.111 398.957 262.111 399.29C262.111 399.622 262.158 399.923 262.253 400.192C262.35 400.462 262.496 400.678 262.69 400.839C262.886 400.997 263.133 401.077 263.429 401.077ZM267.076 402V396.545H268.305V397.472H268.369C268.482 397.16 268.671 396.916 268.933 396.741C269.196 396.563 269.51 396.474 269.874 396.474C270.244 396.474 270.555 396.564 270.808 396.744C271.064 396.922 271.244 397.165 271.348 397.472H271.405C271.526 397.169 271.729 396.928 272.016 396.748C272.305 396.566 272.647 396.474 273.042 396.474C273.544 396.474 273.954 396.633 274.271 396.95C274.588 397.268 274.747 397.73 274.747 398.339V402H273.458V398.538C273.458 398.199 273.368 397.952 273.188 397.795C273.008 397.637 272.788 397.558 272.527 397.558C272.217 397.558 271.974 397.655 271.799 397.849C271.626 398.04 271.54 398.29 271.54 398.598V402H270.279V398.484C270.279 398.203 270.194 397.978 270.024 397.81C269.855 397.642 269.635 397.558 269.363 397.558C269.178 397.558 269.01 397.605 268.859 397.7C268.707 397.792 268.587 397.923 268.497 398.094C268.407 398.262 268.362 398.458 268.362 398.683V402H267.076ZM276.001 404.045V396.545H277.265V397.447H277.34C277.406 397.315 277.499 397.174 277.62 397.025C277.741 396.873 277.904 396.744 278.11 396.638C278.316 396.529 278.579 396.474 278.898 396.474C279.32 396.474 279.7 396.582 280.038 396.798C280.379 397.011 280.649 397.327 280.848 397.746C281.049 398.162 281.15 398.674 281.15 399.28C281.15 399.879 281.052 400.388 280.855 400.807C280.659 401.226 280.391 401.545 280.053 401.766C279.714 401.986 279.331 402.096 278.902 402.096C278.59 402.096 278.33 402.044 278.124 401.94C277.918 401.835 277.753 401.71 277.627 401.563C277.504 401.414 277.408 401.273 277.34 401.141H277.286V404.045H276.001ZM277.261 399.273C277.261 399.625 277.311 399.934 277.411 400.2C277.512 400.465 277.658 400.672 277.847 400.821C278.039 400.968 278.271 401.041 278.543 401.041C278.827 401.041 279.065 400.965 279.257 400.814C279.449 400.66 279.593 400.451 279.69 400.185C279.79 399.918 279.84 399.614 279.84 399.273C279.84 398.934 279.791 398.634 279.694 398.371C279.597 398.108 279.452 397.902 279.261 397.753C279.069 397.604 278.83 397.529 278.543 397.529C278.269 397.529 278.036 397.601 277.844 397.746C277.652 397.89 277.506 398.093 277.407 398.353C277.31 398.613 277.261 398.92 277.261 399.273ZM283.486 394.727V402H282.201V394.727H283.486ZM287.173 402.107C286.626 402.107 286.154 401.993 285.756 401.766C285.361 401.536 285.056 401.212 284.843 400.793C284.63 400.371 284.524 399.875 284.524 399.305C284.524 398.744 284.63 398.251 284.843 397.827C285.059 397.401 285.359 397.07 285.745 396.833C286.131 396.594 286.585 396.474 287.105 396.474C287.442 396.474 287.759 396.529 288.057 396.638C288.358 396.744 288.623 396.91 288.853 397.135C289.085 397.36 289.267 397.646 289.4 397.994C289.532 398.34 289.598 398.752 289.598 399.23V399.624H285.127V398.758H288.366C288.364 398.512 288.31 398.293 288.206 398.101C288.102 397.907 287.957 397.754 287.77 397.643C287.585 397.531 287.369 397.476 287.123 397.476C286.86 397.476 286.63 397.54 286.431 397.668C286.232 397.793 286.077 397.959 285.966 398.165C285.857 398.368 285.801 398.592 285.799 398.836V399.592C285.799 399.91 285.857 400.182 285.973 400.409C286.089 400.634 286.251 400.807 286.459 400.928C286.667 401.046 286.911 401.105 287.191 401.105C287.378 401.105 287.547 401.079 287.699 401.027C287.85 400.973 287.981 400.893 288.093 400.789C288.204 400.685 288.288 400.556 288.345 400.402L289.545 400.537C289.469 400.854 289.325 401.131 289.112 401.368C288.901 401.602 288.631 401.785 288.302 401.915C287.973 402.043 287.597 402.107 287.173 402.107ZM293.36 396.545V397.54H290.224V396.545H293.36ZM290.998 395.239H292.284V400.359C292.284 400.532 292.31 400.665 292.362 400.757C292.416 400.847 292.487 400.909 292.575 400.942C292.662 400.975 292.759 400.991 292.866 400.991C292.947 400.991 293.02 400.986 293.086 400.974C293.155 400.962 293.207 400.951 293.242 400.942L293.459 401.947C293.39 401.97 293.292 401.996 293.164 402.025C293.039 402.053 292.885 402.07 292.703 402.075C292.381 402.084 292.091 402.036 291.833 401.929C291.575 401.82 291.37 401.652 291.218 401.425C291.069 401.197 290.996 400.913 290.998 400.572V395.239ZM296.741 402.107C296.194 402.107 295.722 401.993 295.324 401.766C294.929 401.536 294.624 401.212 294.411 400.793C294.198 400.371 294.092 399.875 294.092 399.305C294.092 398.744 294.198 398.251 294.411 397.827C294.627 397.401 294.927 397.07 295.313 396.833C295.699 396.594 296.153 396.474 296.673 396.474C297.01 396.474 297.327 396.529 297.625 396.638C297.926 396.744 298.191 396.91 298.421 397.135C298.653 397.36 298.835 397.646 298.967 397.994C299.1 398.34 299.166 398.752 299.166 399.23V399.624H294.695V398.758H297.934C297.932 398.512 297.878 398.293 297.774 398.101C297.67 397.907 297.525 397.754 297.338 397.643C297.153 397.531 296.937 397.476 296.691 397.476C296.428 397.476 296.198 397.54 295.999 397.668C295.8 397.793 295.645 397.959 295.534 398.165C295.425 398.368 295.369 398.592 295.367 398.836V399.592C295.367 399.91 295.425 400.182 295.541 400.409C295.657 400.634 295.819 400.807 296.027 400.928C296.235 401.046 296.479 401.105 296.759 401.105C296.946 401.105 297.115 401.079 297.266 401.027C297.418 400.973 297.549 400.893 297.661 400.789C297.772 400.685 297.856 400.556 297.913 400.402L299.113 400.537C299.037 400.854 298.893 401.131 298.68 401.368C298.469 401.602 298.199 401.785 297.87 401.915C297.541 402.043 297.165 402.107 296.741 402.107ZM302.691 402V394.727H305.418C305.977 394.727 306.446 394.831 306.825 395.04C307.206 395.248 307.493 395.535 307.688 395.899C307.884 396.261 307.982 396.673 307.982 397.135C307.982 397.601 307.884 398.016 307.688 398.378C307.491 398.74 307.201 399.025 306.818 399.234C306.434 399.44 305.962 399.543 305.401 399.543H303.593V398.46H305.223C305.55 398.46 305.817 398.403 306.026 398.289C306.234 398.175 306.388 398.019 306.487 397.82C306.589 397.621 306.64 397.393 306.64 397.135C306.64 396.877 306.589 396.65 306.487 396.453C306.388 396.257 306.233 396.104 306.022 395.995C305.814 395.884 305.545 395.828 305.216 395.828H304.009V402H302.691ZM309.02 402V396.545H310.266V397.455H310.323C310.423 397.14 310.593 396.897 310.835 396.727C311.078 396.554 311.357 396.467 311.669 396.467C311.74 396.467 311.819 396.471 311.907 396.478C311.997 396.483 312.071 396.491 312.131 396.503V397.685C312.076 397.666 311.99 397.65 311.871 397.636C311.755 397.619 311.643 397.611 311.534 397.611C311.3 397.611 311.089 397.662 310.902 397.763C310.717 397.863 310.572 398.001 310.465 398.179C310.359 398.357 310.305 398.561 310.305 398.793V402H309.02ZM315.089 402.107C314.557 402.107 314.095 401.989 313.704 401.755C313.314 401.521 313.011 401.193 312.795 400.771C312.582 400.35 312.476 399.857 312.476 399.294C312.476 398.731 312.582 398.237 312.795 397.813C313.011 397.389 313.314 397.06 313.704 396.826C314.095 396.592 314.557 396.474 315.089 396.474C315.622 396.474 316.084 396.592 316.474 396.826C316.865 397.06 317.167 397.389 317.38 397.813C317.595 398.237 317.703 398.731 317.703 399.294C317.703 399.857 317.595 400.35 317.38 400.771C317.167 401.193 316.865 401.521 316.474 401.755C316.084 401.989 315.622 402.107 315.089 402.107ZM315.096 401.077C315.385 401.077 315.627 400.997 315.821 400.839C316.015 400.678 316.159 400.462 316.254 400.192C316.351 399.923 316.4 399.622 316.4 399.29C316.4 398.957 316.351 398.655 316.254 398.385C316.159 398.113 316.015 397.896 315.821 397.735C315.627 397.574 315.385 397.494 315.096 397.494C314.801 397.494 314.554 397.574 314.358 397.735C314.164 397.896 314.018 398.113 313.921 398.385C313.826 398.655 313.779 398.957 313.779 399.29C313.779 399.622 313.826 399.923 313.921 400.192C314.018 400.462 314.164 400.678 314.358 400.839C314.554 400.997 314.801 401.077 315.096 401.077ZM318.744 396.545H320.03V402.312C320.03 402.705 319.955 403.03 319.806 403.286C319.657 403.541 319.441 403.732 319.16 403.857C318.878 403.983 318.536 404.045 318.133 404.045C318.086 404.045 318.042 404.044 318.002 404.042C317.962 404.042 317.918 404.041 317.871 404.038V402.991C317.906 402.993 317.938 402.994 317.966 402.994C317.995 402.997 318.024 402.998 318.055 402.998C318.301 402.998 318.478 402.938 318.584 402.817C318.691 402.698 318.744 402.524 318.744 402.295V396.545ZM319.383 395.771C319.177 395.771 319.001 395.704 318.854 395.569C318.71 395.432 318.638 395.267 318.638 395.075C318.638 394.881 318.71 394.717 318.854 394.582C319.001 394.444 319.177 394.376 319.383 394.376C319.587 394.376 319.761 394.444 319.905 394.582C320.052 394.717 320.125 394.881 320.125 395.075C320.125 395.267 320.052 395.432 319.905 395.569C319.761 395.704 319.587 395.771 319.383 395.771ZM323.716 402.107C323.169 402.107 322.697 401.993 322.299 401.766C321.904 401.536 321.6 401.212 321.387 400.793C321.174 400.371 321.067 399.875 321.067 399.305C321.067 398.744 321.174 398.251 321.387 397.827C321.602 397.401 321.903 397.07 322.289 396.833C322.675 396.594 323.128 396.474 323.649 396.474C323.985 396.474 324.302 396.529 324.601 396.638C324.901 396.744 325.166 396.91 325.396 397.135C325.628 397.36 325.81 397.646 325.943 397.994C326.075 398.34 326.142 398.752 326.142 399.23V399.624H321.671V398.758H324.909C324.907 398.512 324.854 398.293 324.75 398.101C324.646 397.907 324.5 397.754 324.313 397.643C324.128 397.531 323.913 397.476 323.667 397.476C323.404 397.476 323.173 397.54 322.974 397.668C322.775 397.793 322.62 397.959 322.509 398.165C322.4 398.368 322.344 398.592 322.342 398.836V399.592C322.342 399.91 322.4 400.182 322.516 400.409C322.632 400.634 322.794 400.807 323.003 400.928C323.211 401.046 323.455 401.105 323.734 401.105C323.921 401.105 324.09 401.079 324.242 401.027C324.393 400.973 324.525 400.893 324.636 400.789C324.747 400.685 324.831 400.556 324.888 400.402L326.088 400.537C326.013 400.854 325.868 401.131 325.655 401.368C325.445 401.602 325.175 401.785 324.846 401.915C324.516 402.043 324.14 402.107 323.716 402.107ZM329.559 402.107C329.014 402.107 328.546 401.987 328.156 401.748C327.768 401.509 327.468 401.179 327.257 400.757C327.049 400.333 326.945 399.846 326.945 399.294C326.945 398.74 327.051 398.251 327.264 397.827C327.478 397.401 327.778 397.07 328.166 396.833C328.557 396.594 329.019 396.474 329.551 396.474C329.994 396.474 330.386 396.556 330.727 396.719C331.07 396.88 331.344 397.109 331.547 397.405C331.751 397.698 331.867 398.042 331.895 398.435H330.666C330.617 398.172 330.498 397.953 330.311 397.778C330.127 397.6 329.879 397.511 329.569 397.511C329.306 397.511 329.076 397.582 328.877 397.724C328.678 397.864 328.523 398.065 328.412 398.328C328.303 398.591 328.248 398.906 328.248 399.273C328.248 399.644 328.303 399.964 328.412 400.232C328.52 400.497 328.673 400.701 328.87 400.846C329.068 400.988 329.302 401.059 329.569 401.059C329.759 401.059 329.928 401.023 330.077 400.952C330.229 400.879 330.355 400.774 330.457 400.636C330.559 400.499 330.629 400.332 330.666 400.136H331.895C331.864 400.522 331.751 400.864 331.554 401.162C331.358 401.458 331.09 401.69 330.752 401.858C330.413 402.024 330.015 402.107 329.559 402.107ZM335.624 396.545V397.54H332.489V396.545H335.624ZM333.263 395.239H334.548V400.359C334.548 400.532 334.575 400.665 334.627 400.757C334.681 400.847 334.752 400.909 334.84 400.942C334.927 400.975 335.024 400.991 335.131 400.991C335.211 400.991 335.285 400.986 335.351 400.974C335.42 400.962 335.472 400.951 335.507 400.942L335.724 401.947C335.655 401.97 335.557 401.996 335.429 402.025C335.304 402.053 335.15 402.07 334.968 402.075C334.646 402.084 334.356 402.036 334.097 401.929C333.839 401.82 333.635 401.652 333.483 401.425C333.334 401.197 333.261 400.913 333.263 400.572V395.239Z" fill="white"/>
<line x1="168" y1="359.5" x2="422" y2="359.5" stroke="#EEF1F5"/>
<g clip-path="url(#clip7_20000_611)">
<path d="M69.96 268.269L58.96 262.25C58.6661 262.088 58.3358 262.002 58 262.002C57.6642 262.002 57.3339 262.088 57.04 262.25L46.04 268.271C45.7259 268.443 45.4636 268.696 45.2807 269.004C45.0978 269.312 45.0008 269.663 45 270.021V281.976C45.0008 282.334 45.0978 282.686 45.2807 282.993C45.4636 283.301 45.7259 283.554 46.04 283.726L57.04 289.748C57.3339 289.91 57.6642 289.995 58 289.995C58.3358 289.995 58.6661 289.91 58.96 289.748L69.96 283.726C70.2741 283.554 70.5364 283.301 70.7193 282.993C70.9023 282.686 70.9992 282.334 71 281.976V270.023C70.9999 269.664 70.9032 269.312 70.7203 269.003C70.5373 268.695 70.2747 268.441 69.96 268.269ZM58 275L47.9563 269.5L58 264L68.0438 269.5L58 275ZM59 287.455V276.729L69 271.256V281.976L59 287.455Z" fill="#F07D20"/>
</g>
<g clip-path="url(#clip8_20000_611)">
<path d="M492 265H472C471.47 265 470.961 265.211 470.586 265.586C470.211 265.961 470 266.47 470 267V274C470 280.59 473.19 284.584 475.866 286.774C478.749 289.131 481.616 289.931 481.741 289.965C481.913 290.012 482.094 290.012 482.266 289.965C482.391 289.931 485.255 289.131 488.141 286.774C490.81 284.584 494 280.59 494 274V267C494 266.47 493.789 265.961 493.414 265.586C493.039 265.211 492.53 265 492 265ZM487.71 273.708L480.71 280.708C480.617 280.8 480.507 280.874 480.385 280.925C480.264 280.975 480.134 281.001 480.002 281.001C479.871 281.001 479.741 280.975 479.62 280.925C479.498 280.874 479.388 280.8 479.295 280.708L476.295 277.708C476.107 277.52 476.002 277.265 476.002 277C476.002 276.735 476.107 276.48 476.295 276.292C476.483 276.105 476.737 275.999 477.002 275.999C477.268 275.999 477.522 276.105 477.71 276.292L480 278.586L486.292 272.292C486.385 272.2 486.496 272.126 486.617 272.076C486.738 272.025 486.869 271.999 487 271.999C487.131 271.999 487.262 272.025 487.383 272.076C487.504 272.126 487.615 272.2 487.708 272.292C487.8 272.385 487.874 272.496 487.924 272.617C487.975 272.738 488.001 272.869 488.001 273C488.001 273.131 487.975 273.262 487.924 273.383C487.874 273.504 487.8 273.615 487.708 273.708H487.71Z" fill="#4BD381"/>
</g>
<g clip-path="url(#clip9_20000_611)">
<path d="M62.0075 341C59.9634 341 57.9597 341.57 56.2207 342.644C54.4817 343.719 53.0761 345.256 52.1613 347.084C51.4009 348.599 51.0033 350.271 51 351.966C51.0039 352.224 50.9104 352.473 50.7382 352.665C50.566 352.857 50.3278 352.976 50.0712 353C49.9341 353.01 49.7963 352.991 49.6667 352.945C49.537 352.899 49.4182 352.827 49.3176 352.734C49.2171 352.64 49.137 352.526 49.0823 352.4C49.0277 352.274 48.9997 352.138 49 352C48.9989 350.601 49.2244 349.212 49.6675 347.885C49.6967 347.8 49.7024 347.709 49.684 347.621C49.6657 347.532 49.6239 347.451 49.5631 347.385C49.5023 347.318 49.4248 347.27 49.3387 347.244C49.2525 347.218 49.161 347.216 49.0738 347.238C47.341 347.669 45.8023 348.668 44.7018 350.074C43.6014 351.481 43.0024 353.214 43 355C43 359.399 46.7188 363 51.125 363H62C63.4807 362.998 64.9459 362.698 66.3079 362.117C67.6699 361.536 68.9007 360.687 69.9268 359.619C70.9529 358.552 71.7531 357.288 72.2797 355.904C72.8062 354.52 73.0482 353.045 72.9912 351.565C72.7637 345.692 67.8837 341 62.0075 341Z" fill="#32B6EA"/>
</g>
<g clip-path="url(#clip10_20000_611)">
<path d="M495 344C495 343.252 494.789 342.519 494.393 341.884C493.997 341.25 493.431 340.739 492.76 340.41C492.088 340.081 491.337 339.947 490.593 340.023C489.849 340.099 489.141 340.382 488.55 340.84C487.958 341.299 487.508 341.914 487.248 342.615C486.989 343.317 486.931 344.077 487.082 344.81C487.233 345.542 487.587 346.218 488.103 346.76C488.618 347.302 489.276 347.688 490 347.875V350C490 350.265 489.895 350.52 489.707 350.707C489.52 350.895 489.265 351 489 351H478C477.659 351 477.321 351.058 477 351.173V347.875C477.943 347.632 478.764 347.053 479.311 346.247C479.857 345.441 480.091 344.464 479.968 343.498C479.845 342.532 479.375 341.644 478.644 341.001C477.914 340.357 476.974 340.002 476 340.002C475.026 340.002 474.086 340.357 473.356 341.001C472.625 341.644 472.155 342.532 472.032 343.498C471.909 344.464 472.143 345.441 472.689 346.247C473.236 347.053 474.057 347.632 475 347.875V356.125C474.057 356.368 473.236 356.947 472.689 357.753C472.143 358.559 471.909 359.536 472.032 360.502C472.155 361.468 472.625 362.356 473.356 362.999C474.086 363.643 475.026 363.998 476 363.998C476.974 363.998 477.914 363.643 478.644 362.999C479.375 362.356 479.845 361.468 479.968 360.502C480.091 359.536 479.857 358.559 479.311 357.753C478.764 356.947 477.943 356.368 477 356.125V354C477 353.735 477.105 353.48 477.293 353.293C477.48 353.105 477.735 353 478 353H489C489.796 353 490.559 352.684 491.121 352.121C491.684 351.559 492 350.796 492 350V347.875C492.858 347.652 493.618 347.151 494.161 346.45C494.704 345.748 494.999 344.887 495 344ZM474 344C474 343.604 474.117 343.218 474.337 342.889C474.557 342.56 474.869 342.304 475.235 342.152C475.6 342.001 476.002 341.961 476.39 342.038C476.778 342.116 477.135 342.306 477.414 342.586C477.694 342.866 477.884 343.222 477.962 343.61C478.039 343.998 477.999 344.4 477.848 344.765C477.696 345.131 477.44 345.443 477.111 345.663C476.782 345.883 476.396 346 476 346C475.47 346 474.961 345.789 474.586 345.414C474.211 345.039 474 344.53 474 344ZM478 360C478 360.396 477.883 360.782 477.663 361.111C477.443 361.44 477.131 361.696 476.765 361.848C476.4 361.999 475.998 362.039 475.61 361.962C475.222 361.884 474.866 361.694 474.586 361.414C474.306 361.135 474.116 360.778 474.038 360.39C473.961 360.002 474.001 359.6 474.152 359.235C474.304 358.869 474.56 358.557 474.889 358.337C475.218 358.117 475.604 358 476 358C476.53 358 477.039 358.211 477.414 358.586C477.789 358.961 478 359.47 478 360Z" fill="#8540D8"/>
</g>
<rect x="430.5" y="54.5" width="214" height="67" rx="33.5" stroke="#E6ECF4"/>
<rect x="-104.5" y="54.5" width="214" height="67" rx="33.5" stroke="#E6ECF4"/>
</g>
<rect x="2" y="2" width="536" height="536" rx="48" stroke="white" stroke-width="4"/>
<defs>
<filter id="filter0_d_20000_611" x="144.632" y="183.938" width="118.737" height="118.737" filterUnits="userSpaceOnUse" color-interpolation-filters="sRGB">
<feFlood flood-opacity="0" result="BackgroundImageFix"/>
<feColorMatrix in="SourceAlpha" type="matrix" values="0 0 0 0 0 0 0 0 0 0 0 0 0 0 0 0 0 0 127 0" result="hardAlpha"/>
<feMorphology radius="12.7554" operator="erode" in="SourceAlpha" result="effect1_dropShadow_20000_611"/>
<feOffset dy="15.3065"/>
<feGaussianBlur stdDeviation="28.0619"/>
<feComposite in2="hardAlpha" operator="out"/>
<feColorMatrix type="matrix" values="0 0 0 0 0.62745 0 0 0 0 0.669064 0 0 0 0 0.713548 0 0 0 0.25 0"/>
<feBlend mode="normal" in2="BackgroundImageFix" result="effect1_dropShadow_20000_611"/>
<feBlend mode="normal" in="SourceGraphic" in2="effect1_dropShadow_20000_611" result="shape"/>
</filter>
<filter id="filter1_d_20000_611" x="144.632" y="231.938" width="118.737" height="118.737" filterUnits="userSpaceOnUse" color-interpolation-filters="sRGB">
<feFlood flood-opacity="0" result="BackgroundImageFix"/>
<feColorMatrix in="SourceAlpha" type="matrix" values="0 0 0 0 0 0 0 0 0 0 0 0 0 0 0 0 0 0 127 0" result="hardAlpha"/>
<feMorphology radius="12.7554" operator="erode" in="SourceAlpha" result="effect1_dropShadow_20000_611"/>
<feOffset dy="15.3065"/>
<feGaussianBlur stdDeviation="28.0619"/>
<feComposite in2="hardAlpha" operator="out"/>
<feColorMatrix type="matrix" values="0 0 0 0 0.62745 0 0 0 0 0.669064 0 0 0 0 0.713548 0 0 0 0.25 0"/>
<feBlend mode="normal" in2="BackgroundImageFix" result="effect1_dropShadow_20000_611"/>
<feBlend mode="normal" in="SourceGraphic" in2="effect1_dropShadow_20000_611" result="shape"/>
</filter>
<filter id="filter2_d_20000_611" x="144.632" y="279.938" width="118.737" height="118.737" filterUnits="userSpaceOnUse" color-interpolation-filters="sRGB">
<feFlood flood-opacity="0" result="BackgroundImageFix"/>
<feColorMatrix in="SourceAlpha" type="matrix" values="0 0 0 0 0 0 0 0 0 0 0 0 0 0 0 0 0 0 127 0" result="hardAlpha"/>
<feMorphology radius="12.7554" operator="erode" in="SourceAlpha" result="effect1_dropShadow_20000_611"/>
<feOffset dy="15.3065"/>
<feGaussianBlur stdDeviation="28.0619"/>
<feComposite in2="hardAlpha" operator="out"/>
<feColorMatrix type="matrix" values="0 0 0 0 0.62745 0 0 0 0 0.669064 0 0 0 0 0.713548 0 0 0 0.25 0"/>
<feBlend mode="normal" in2="BackgroundImageFix" result="effect1_dropShadow_20000_611"/>
<feBlend mode="normal" in="SourceGraphic" in2="effect1_dropShadow_20000_611" result="shape"/>
</filter>
<radialGradient id="paint0_radial_20000_611" cx="0" cy="0" r="1" gradientUnits="userSpaceOnUse" gradientTransform="translate(270 540) rotate(-90) scale(404.511)">
<stop stop-color="white"/>
<stop offset="1" stop-color="#F5F8FF"/>
</radialGradient>
<linearGradient id="paint1_linear_20000_611" x1="196.75" y1="102.5" x2="196.75" y2="559" gradientUnits="userSpaceOnUse">
<stop stop-color="#F9FBFD" stop-opacity="0"/>
<stop offset="0.451923" stop-color="#2E5BA2"/>
<stop offset="1" stop-color="#F9FBFD" stop-opacity="0"/>
</linearGradient>
<linearGradient id="paint2_linear_20000_611" x1="342.25" y1="102.5" x2="342.25" y2="559" gradientUnits="userSpaceOnUse">
<stop stop-color="#F9FBFD" stop-opacity="0"/>
<stop offset="0.451923" stop-color="#2E5BA2"/>
<stop offset="1" stop-color="#F9FBFD" stop-opacity="0"/>
</linearGradient>
<linearGradient id="paint3_linear_20000_611" x1="146" y1="54" x2="185.417" y2="202.287" gradientUnits="userSpaceOnUse">
<stop stop-color="#2D58A7"/>
<stop offset="1" stop-color="#4A96F8"/>
</linearGradient>
<radialGradient id="paint4_radial_20000_611" cx="0" cy="0" r="1" gradientUnits="userSpaceOnUse" gradientTransform="translate(270 213.545) rotate(90) scale(230.455 180.224)">
<stop stop-color="white" stop-opacity="0"/>
<stop offset="1" stop-color="white"/>
</radialGradient>
<linearGradient id="paint5_linear_20000_611" x1="188" y1="212" x2="225.333" y2="250.667" gradientUnits="userSpaceOnUse">
<stop stop-color="#2D58A7"/>
<stop offset="1" stop-color="#4A96F8"/>
</linearGradient>
<radialGradient id="paint6_radial_20000_611" cx="0" cy="0" r="1" gradientUnits="userSpaceOnUse" gradientTransform="translate(204 215.636) rotate(90) scale(28.3636 18.0224)">
<stop stop-opacity="0"/>
<stop offset="1"/>
</radialGradient>
<radialGradient id="paint7_radial_20000_611" cx="0" cy="0" r="1" gradientUnits="userSpaceOnUse" gradientTransform="translate(204 263.636) rotate(90) scale(28.3636 18.0224)">
<stop stop-color="white" stop-opacity="0"/>
<stop offset="1" stop-color="white"/>
</radialGradient>
<radialGradient id="paint8_radial_20000_611" cx="0" cy="0" r="1" gradientUnits="userSpaceOnUse" gradientTransform="translate(204 311.636) rotate(90) scale(28.3636 18.0224)">
<stop stop-color="white" stop-opacity="0"/>
<stop offset="1" stop-color="white"/>
</radialGradient>
<linearGradient id="paint9_linear_20000_611" x1="188" y1="380" x2="201.301" y2="461.891" gradientUnits="userSpaceOnUse">
<stop stop-color="#2D58A7"/>
<stop offset="1" stop-color="#4A96F8"/>
</linearGradient>
<radialGradient id="paint10_radial_20000_611" cx="0" cy="0" r="1" gradientUnits="userSpaceOnUse" gradientTransform="translate(295 384.091) rotate(90) scale(31.9091 120.525)">
<stop stop-opacity="0"/>
<stop offset="1"/>
</radialGradient>
<clipPath id="clip0_20000_611">
<rect width="540" height="540" rx="50" fill="white"/>
</clipPath>
<clipPath id="clip1_20000_611">
<rect width="20" height="20" fill="white" transform="translate(129 223)"/>
</clipPath>
<clipPath id="clip2_20000_611">
<rect width="20" height="20" fill="white" transform="translate(129 289)"/>
</clipPath>
<clipPath id="clip3_20000_611">
<rect width="20" height="20" fill="white" transform="translate(129 355)"/>
</clipPath>
<clipPath id="clip4_20000_611">
<rect width="12" height="12" fill="white" transform="translate(198 222)"/>
</clipPath>
<clipPath id="clip5_20000_611">
<rect width="12" height="12" fill="white" transform="translate(198 270)"/>
</clipPath>
<clipPath id="clip6_20000_611">
<rect width="12" height="12" fill="white" transform="translate(198 318)"/>
</clipPath>
<clipPath id="clip7_20000_611">
<rect width="32" height="32" fill="white" transform="translate(42 260)"/>
</clipPath>
<clipPath id="clip8_20000_611">
<rect width="32" height="32" fill="white" transform="translate(466 260)"/>
</clipPath>
<clipPath id="clip9_20000_611">
<rect width="32" height="32" fill="white" transform="translate(42 336)"/>
</clipPath>
<clipPath id="clip10_20000_611">
<rect width="32" height="32" fill="white" transform="translate(466 336)"/>
</clipPath>
</defs>
</svg>
