<svg width="50" height="50" viewBox="0 0 50 50" fill="none" xmlns="http://www.w3.org/2000/svg">
<path d="M42.2988 7.70123C39.817 5.2159 36.5701 3.63926 33.0822 3.22575C29.5942 2.81224 26.0687 3.58597 23.0745 5.42209C20.0803 7.2582 17.7921 10.0496 16.579 13.3458C15.366 16.6421 15.2989 20.2509 16.3887 23.5899L5.60353 34.3751C5.31209 34.6642 5.08102 35.0084 4.92376 35.3876C4.76651 35.7668 4.6862 36.1735 4.68752 36.584V42.1876C4.68752 43.0164 5.01676 43.8112 5.60281 44.3973C6.18886 44.9833 6.98371 45.3126 7.81252 45.3126H14.0625C14.4769 45.3126 14.8743 45.1479 15.1674 44.8549C15.4604 44.5619 15.625 44.1645 15.625 43.7501V40.6251H18.75C19.1644 40.6251 19.5618 40.4604 19.8549 40.1674C20.1479 39.8744 20.3125 39.477 20.3125 39.0626V35.9376H23.4375C23.6428 35.9377 23.846 35.8974 24.0357 35.819C24.2254 35.7406 24.3978 35.6256 24.543 35.4805L26.4102 33.6114C27.973 34.1197 29.6065 34.3775 31.25 34.3751H31.2695C34.3583 34.3713 37.3766 33.4522 39.9433 31.7338C42.5099 30.0155 44.5097 27.5749 45.6899 24.7206C46.8702 21.8662 47.1779 18.726 46.5744 15.6968C45.9708 12.6676 44.483 9.88525 42.2988 7.70123ZM35.1563 17.9688C34.5382 17.9688 33.934 17.7855 33.4201 17.4422C32.9062 17.0988 32.5057 16.6107 32.2691 16.0397C32.0326 15.4687 31.9707 14.8403 32.0913 14.2342C32.2119 13.628 32.5095 13.0711 32.9466 12.6341C33.3836 12.1971 33.9404 11.8994 34.5466 11.7789C35.1528 11.6583 35.7811 11.7202 36.3522 11.9567C36.9232 12.1932 37.4112 12.5938 37.7546 13.1077C38.098 13.6216 38.2813 14.2257 38.2813 14.8438C38.2813 15.6726 37.952 16.4675 37.366 17.0535C36.7799 17.6396 35.9851 17.9688 35.1563 17.9688Z" fill="#4A96F8"/>
</svg>
