<svg width="32" height="32" viewBox="0 0 32 32" fill="none" xmlns="http://www.w3.org/2000/svg">
<path d="M26.7313 15.6826L12.7312 30.6826C12.5829 30.8409 12.3871 30.9467 12.1733 30.984C11.9595 31.0213 11.7395 30.988 11.5463 30.8892C11.3531 30.7904 11.1973 30.6315 11.1023 30.4364C11.0074 30.2413 10.9785 30.0206 11.02 29.8076L12.8525 20.6414L5.64875 17.9364C5.49404 17.8785 5.35607 17.7832 5.24718 17.659C5.13828 17.5348 5.06185 17.3855 5.02471 17.2246C4.98757 17.0637 4.99087 16.896 5.03433 16.7366C5.07779 16.5773 5.16004 16.4312 5.27375 16.3114L19.2738 1.31136C19.4221 1.15303 19.6179 1.04725 19.8317 1.00998C20.0455 0.972711 20.2655 1.00598 20.4587 1.10476C20.6519 1.20354 20.8077 1.36248 20.9027 1.55759C20.9976 1.75269 21.0265 1.97338 20.985 2.18636L19.1475 11.3626L26.3512 14.0639C26.5048 14.1221 26.6417 14.2173 26.7497 14.341C26.8578 14.4647 26.9337 14.6131 26.9708 14.7732C27.0078 14.9332 27.0049 15.0998 26.9623 15.2585C26.9196 15.4171 26.8386 15.5628 26.7262 15.6826H26.7313Z" fill="white"/>
</svg>
