<svg width="64" height="64" viewBox="0 0 64 64" fill="none" xmlns="http://www.w3.org/2000/svg">
<path d="M42.3755 60.9148H11.4141L21.5599 50.3464H37.6747C40.682 50.3464 43.1198 47.9086 43.1198 44.9013V36.8188H53.2656V50.0247C53.2656 56.0391 48.39 60.9148 42.3755 60.9148Z" fill="white"/>
<path d="M21.8842 3.00027H52.8457L42.6999 13.5687H26.585C23.5778 13.5687 21.14 16.0065 21.14 19.0137V27.0962H10.9941V13.8903C10.9941 7.87592 15.8698 3.00027 21.8842 3.00027Z" fill="white"/>
<path d="M47.4888 23.2916H32.6367L42.6984 13.5687L53.1015 13.5585C59.1201 13.5526 64.0022 18.43 64.0022 24.4486V36.8191H53.3876V29.1904C53.3876 25.9326 50.7466 23.2916 47.4888 23.2916Z" fill="white"/>
<path d="M16.5132 40.6239H31.3652L21.3035 50.3468L10.9005 50.357C4.8819 50.3629 -0.000253677 45.4855 -0.000253677 39.4669V27.0964H10.6144V34.7251C10.6144 37.9829 13.2553 40.6239 16.5132 40.6239Z" fill="white"/>
</svg>
