<svg width="33" height="32" viewBox="0 0 33 32" fill="none" xmlns="http://www.w3.org/2000/svg">
<path d="M7.00065 12C7.7079 12 8.38617 11.7191 8.88627 11.219C9.38637 10.7189 9.66732 10.0406 9.66732 9.33335C9.66732 8.62611 9.38637 7.94783 8.88627 7.44774C8.38617 6.94764 7.7079 6.66669 7.00065 6.66669C6.29341 6.66669 5.61513 6.94764 5.11503 7.44774C4.61494 7.94783 4.33398 8.62611 4.33398 9.33335C4.33398 10.0406 4.61494 10.7189 5.11503 11.219C5.61513 11.7191 6.29341 12 7.00065 12ZM7.00065 12V13.3334M7.00065 22.6667V21.3334" stroke="white" stroke-width="2" stroke-linecap="round" stroke-linejoin="round"/>
<path d="M9.66732 25.3334C9.66732 24.6261 9.38637 23.9478 8.88627 23.4477C8.38617 22.9476 7.7079 22.6667 7.00065 22.6667C6.29341 22.6667 5.61513 22.9476 5.11503 23.4477C4.61494 23.9478 4.33398 24.6261 4.33398 25.3334C4.33398 26.0406 4.61494 26.7189 5.11503 27.219C5.61513 27.7191 6.29341 28 7.00065 28C7.7079 28 8.38617 27.7191 8.88627 27.219C9.38637 26.7189 9.66732 26.0406 9.66732 25.3334Z" fill="white"/>
<path d="M9.66732 25.3333C9.66732 24.6261 9.38637 23.9478 8.88627 23.4477C8.38617 22.9476 7.7079 22.6666 7.00065 22.6666C6.29341 22.6666 5.61513 22.9476 5.11503 23.4477C4.61494 23.9478 4.33398 24.6261 4.33398 25.3333C4.33398 26.0406 4.61494 26.7188 5.11503 27.2189C5.61513 27.719 6.29341 28 7.00065 28C7.7079 28 8.38617 27.719 8.88627 27.2189C9.38637 26.7188 9.66732 26.0406 9.66732 25.3333ZM9.66732 25.3333H11.0007M23.0007 22.6666C23.5281 22.6666 24.0436 22.823 24.4822 23.1161C24.9207 23.4091 25.2625 23.8256 25.4643 24.3128C25.6662 24.8001 25.719 25.3363 25.6161 25.8536C25.5132 26.3708 25.2592 26.846 24.8863 27.2189C24.5133 27.5919 24.0382 27.8458 23.5209 27.9487C23.0036 28.0516 22.4674 27.9988 21.9802 27.797C21.4929 27.5952 21.0764 27.2534 20.7834 26.8148C20.4904 26.3763 20.334 25.8607 20.334 25.3333M23.0007 22.6666C22.2934 22.6666 21.6151 22.9476 21.115 23.4477C20.6149 23.9478 20.334 24.6261 20.334 25.3333M23.0007 22.6666V21.3333M20.334 25.3333H19.0007" stroke="white" stroke-width="2" stroke-linecap="round" stroke-linejoin="round"/>
<path d="M7.0013 19.6667C7.73768 19.6667 8.33464 19.0698 8.33464 18.3334C8.33464 17.597 7.73768 17.0001 7.0013 17.0001C6.26492 17.0001 5.66797 17.597 5.66797 18.3334C5.66797 19.0698 6.26492 19.6667 7.0013 19.6667Z" fill="white"/>
<path d="M15.0013 26.6667C15.7377 26.6667 16.3346 26.0698 16.3346 25.3334C16.3346 24.597 15.7377 24.0001 15.0013 24.0001C14.2649 24.0001 13.668 24.597 13.668 25.3334C13.668 26.0698 14.2649 26.6667 15.0013 26.6667Z" fill="white"/>
<path fill-rule="evenodd" clip-rule="evenodd" d="M23.0007 17.3334L22.138 18.3507L22.1366 18.348L22.1313 18.3454L22.118 18.332L22.066 18.288L21.8833 18.1267C20.9723 17.3094 20.1157 16.4333 19.3193 15.504C18.6193 14.6814 17.89 13.7134 17.3313 12.692C16.7807 11.688 16.334 10.5227 16.334 9.33335C16.334 7.27069 17.0513 5.56669 18.3207 4.38535C19.5753 3.21735 21.254 2.66669 23.0007 2.66669C24.7473 2.66669 26.426 3.21735 27.6807 4.38535C28.95 5.56669 29.6673 7.27069 29.6673 9.33335C29.6673 10.5227 29.2207 11.688 28.67 12.6934C28.11 13.7134 27.3833 14.6814 26.6833 15.504C25.8333 16.495 24.9151 17.4252 23.9353 18.288L23.8847 18.332L23.87 18.3454L23.8647 18.348V18.3494H23.8633L23.0007 17.3334ZM23.0007 17.3334L23.862 18.3507C23.6212 18.5544 23.316 18.6662 23.0007 18.6662C22.6853 18.6662 22.3787 18.5544 22.138 18.3507L23.0007 17.3334ZM23.0007 10.6667C23.3543 10.6667 23.6934 10.5262 23.9435 10.2762C24.1935 10.0261 24.334 9.68698 24.334 9.33335C24.334 8.97973 24.1935 8.64059 23.9435 8.39054C23.6934 8.1405 23.3543 8.00002 23.0007 8.00002C22.647 8.00002 22.3079 8.1405 22.0578 8.39054C21.8078 8.64059 21.6673 8.97973 21.6673 9.33335C21.6673 9.68698 21.8078 10.0261 22.0578 10.2762C22.3079 10.5262 22.647 10.6667 23.0007 10.6667Z" fill="white"/>
</svg>
