<svg width="33" height="32" viewBox="0 0 33 32" fill="none" xmlns="http://www.w3.org/2000/svg">
<path d="M7.00065 28C6.26732 28 5.63976 27.7391 5.11798 27.2173C4.59621 26.6956 4.33487 26.0676 4.33398 25.3333V8.66668C4.33398 8.35557 4.38421 8.0609 4.48465 7.78268C4.5851 7.50445 4.73487 7.24357 4.93398 7.00001L6.80065 4.73334C7.00065 4.4889 7.22865 4.30534 7.48465 4.18268C7.74065 4.06001 8.02376 3.99912 8.33398 4.00001H24.334C24.6451 4.00001 24.9287 4.06134 25.1847 4.18401C25.4407 4.30668 25.6682 4.48979 25.8673 4.73334L27.734 7.00001C27.934 7.24445 28.0842 7.50579 28.1847 7.78401C28.2851 8.06223 28.3349 8.35645 28.334 8.66668V25.3333C28.334 26.0667 28.0731 26.6947 27.5513 27.2173C27.0295 27.74 26.4015 28.0009 25.6673 28H7.00065ZM7.53398 8.00001H25.134L24.0007 6.66668H8.66732L7.53398 8.00001ZM20.6007 18L18.7673 19.8333C18.5007 20.1 18.3673 20.4222 18.3673 20.8C18.3673 21.1778 18.5007 21.5 18.7673 21.7667C19.034 22.0333 19.3562 22.1667 19.734 22.1667C20.1118 22.1667 20.434 22.0333 20.7007 21.7667L23.534 18.9333C23.8007 18.6667 23.934 18.3556 23.934 18C23.934 17.6445 23.8007 17.3333 23.534 17.0667L20.7007 14.2333C20.434 13.9667 20.1118 13.8333 19.734 13.8333C19.3562 13.8333 19.034 13.9667 18.7673 14.2333C18.5007 14.5 18.3673 14.8222 18.3673 15.2C18.3673 15.5778 18.5007 15.9 18.7673 16.1667L20.6007 18ZM12.134 18L13.9673 16.1667C14.234 15.9 14.3673 15.5778 14.3673 15.2C14.3673 14.8222 14.234 14.5 13.9673 14.2333C13.7007 13.9667 13.3784 13.8333 13.0007 13.8333C12.6229 13.8333 12.3007 13.9667 12.034 14.2333L9.20065 17.0667C8.93398 17.3333 8.80065 17.6445 8.80065 18C8.80065 18.3556 8.93398 18.6667 9.20065 18.9333L12.034 21.7667C12.3007 22.0333 12.6229 22.1667 13.0007 22.1667C13.3784 22.1667 13.7007 22.0333 13.9673 21.7667C14.234 21.5 14.3673 21.1778 14.3673 20.8C14.3673 20.4222 14.234 20.1 13.9673 19.8333L12.134 18Z" fill="white"/>
</svg>
