<svg width="32" height="32" viewBox="0 0 32 32" fill="none" xmlns="http://www.w3.org/2000/svg">
<path d="M28 14.8133V6.66668C28 5.95943 27.719 5.28116 27.219 4.78106C26.7189 4.28096 26.0406 4.00001 25.3333 4.00001H19.76C19.2 2.45334 17.7333 1.33334 16 1.33334C14.2667 1.33334 12.8 2.45334 12.24 4.00001H6.66667C5.2 4.00001 4 5.20001 4 6.66668V25.3333C4 26.0406 4.28095 26.7189 4.78105 27.219C5.28115 27.7191 5.95942 28 6.66667 28H14.8133C16.4933 29.6533 18.7867 30.6667 21.3333 30.6667C26.4933 30.6667 30.6667 26.4933 30.6667 21.3333C30.6667 18.7867 29.6533 16.4933 28 14.8133ZM16 4.00001C16.7333 4.00001 17.3333 4.60001 17.3333 5.33334C17.3333 6.06668 16.7333 6.66668 16 6.66668C15.2667 6.66668 14.6667 6.06668 14.6667 5.33334C14.6667 4.60001 15.2667 4.00001 16 4.00001ZM8 9.33334H24V12H8V9.33334ZM12.1067 22.6667H8V20H12.1067C12.04 20.44 12 20.88 12 21.3333C12 21.7867 12.04 22.2267 12.1067 22.6667ZM8 17.3333V14.6667H14.8133C14 15.4267 13.3867 16.3333 12.9067 17.3333H8ZM21.3333 28C17.6533 28 14.6667 25.0133 14.6667 21.3333C14.6667 17.6533 17.6533 14.6667 21.3333 14.6667C25.0133 14.6667 28 17.6533 28 21.3333C28 25.0133 25.0133 28 21.3333 28ZM22 21.6667L25.8133 23.92L24.8133 25.5467L20 22.6667V16H22V21.6667Z" fill="white"/>
</svg>
