<svg width="24" height="24" viewBox="0 0 24 24" fill="none" xmlns="http://www.w3.org/2000/svg">
<path fill-rule="evenodd" clip-rule="evenodd" d="M19.9552 6.25898C20.1895 6.49339 20.3212 6.81127 20.3212 7.14273C20.3212 7.47418 20.1895 7.79207 19.9552 8.02648L10.586 17.3956C10.4622 17.5195 10.3152 17.6177 10.1534 17.6848C9.99163 17.7518 9.81822 17.7863 9.6431 17.7863C9.46798 17.7863 9.29457 17.7518 9.13279 17.6848C8.971 17.6177 8.824 17.5195 8.70018 17.3956L4.04518 12.7415C3.9258 12.6262 3.83057 12.4882 3.76506 12.3357C3.69955 12.1832 3.66506 12.0192 3.66362 11.8532C3.66218 11.6873 3.69381 11.5227 3.75666 11.369C3.81951 11.2154 3.91232 11.0759 4.02969 10.9585C4.14706 10.8411 4.28662 10.7483 4.44024 10.6855C4.59386 10.6226 4.75846 10.591 4.92444 10.5924C5.09041 10.5939 5.25443 10.6283 5.40694 10.6939C5.55944 10.7594 5.69738 10.8546 5.81268 10.974L9.64268 14.804L18.1869 6.25898C18.3029 6.14282 18.4408 6.05067 18.5925 5.98781C18.7442 5.92494 18.9068 5.89258 19.071 5.89258C19.2352 5.89258 19.3978 5.92494 19.5496 5.98781C19.7013 6.05067 19.8391 6.14282 19.9552 6.25898Z" fill="#4A96F8"/>
</svg>
