<svg width="33" height="32" viewBox="0 0 33 32" fill="none" xmlns="http://www.w3.org/2000/svg">
<g clip-path="url(#clip0_19598_411)">
<path fill-rule="evenodd" clip-rule="evenodd" d="M12.9504 0.465454C12.1129 0.465454 11.4231 1.1552 11.4231 1.99272V8.46196C11.4231 8.63128 11.3395 8.78855 11.1995 8.88355C11.0593 8.97854 10.8825 8.99783 10.7252 8.93516L5.57067 6.79946C5.37726 6.71924 5.17544 6.6831 4.97704 6.68515C4.38202 6.69128 3.81544 7.04651 3.57498 7.62677L0.847701 14.2112C0.527247 14.9848 0.899746 15.8878 1.67406 16.2069L7.9257 18.7841C8.0691 18.8435 8.17683 18.9641 8.22001 19.1133C8.26319 19.2624 8.23592 19.421 8.14637 19.5478L4.05387 24.7272C3.5441 25.3915 3.67091 26.3592 4.33523 26.8689L9.98999 31.2082C10.6543 31.718 11.6221 31.5903 12.1318 30.9257L16.1111 25.8885C16.2077 25.7626 16.3561 25.6896 16.5148 25.6896C16.6734 25.6896 16.8218 25.7626 16.9183 25.8885L20.8977 30.9257C21.4075 31.5901 22.3751 31.718 23.0395 31.2082L28.6943 26.8689C29.3586 26.3592 29.4855 25.3917 28.9756 24.7272L24.8831 19.5478C24.7935 19.4212 24.7665 19.2624 24.8095 19.1133C24.8527 18.9641 24.9604 18.8435 25.1038 18.7841L31.3554 16.2069C32.1298 15.8878 32.5023 14.9851 32.1818 14.2112L29.4543 7.62677C29.2138 7.04654 28.6472 6.69132 28.0522 6.68515C27.8538 6.68311 27.652 6.71947 27.4586 6.79946L22.304 8.93516C22.1468 8.99791 21.9699 8.97854 21.8297 8.88355C21.689 8.78855 21.6054 8.63128 21.6054 8.46196V1.99272C21.6054 1.1552 20.9157 0.465454 20.0782 0.465454H12.9504Z" fill="#4A96F8"/>
<path d="M12.9504 1.46545H20.0784C20.3635 1.46557 20.6057 1.70758 20.6057 1.9928V8.46155C20.6057 8.96364 20.8547 9.43099 21.2698 9.71155C21.6836 9.99158 22.2091 10.0499 22.675 9.86389L22.6868 9.85901L27.8411 7.72327C27.9054 7.69672 27.9735 7.68447 28.0422 7.68518C28.2552 7.68755 28.4505 7.81653 28.5305 8.0094L31.2581 14.5934C31.368 14.8589 31.2351 15.1743 30.9749 15.2819L30.9739 15.2828L24.7229 17.86H24.7209C24.296 18.036 23.9763 18.3955 23.8489 18.8356V18.8365C23.7217 19.2781 23.8018 19.7514 24.0667 20.1256L24.0823 20.1471L24.0989 20.1676L28.1809 25.3356H28.1819C28.356 25.5625 28.3108 25.9027 28.0852 26.0758L22.4309 30.4147C22.2051 30.5879 21.8646 30.5437 21.6907 30.317L21.6829 30.3063L17.7034 25.2682H17.7024C17.4519 24.9482 17.0863 24.7458 16.6887 24.6998L16.5149 24.6901C16.0512 24.6901 15.6131 24.9018 15.3264 25.2682L11.3469 30.3063L11.343 30.3112L11.3381 30.317C11.1644 30.5435 10.8246 30.5879 10.5989 30.4147L4.9436 26.0758C4.71817 25.9028 4.67293 25.5623 4.84692 25.3356L8.93091 20.1676L8.94751 20.1471L8.96313 20.1246C9.19352 19.7985 9.28574 19.3956 9.21899 19.0026L9.18091 18.8346C9.05337 18.3946 8.73274 18.0359 8.30786 17.86H8.30688L2.05493 15.2828V15.2819C1.79458 15.1744 1.66188 14.8586 1.77173 14.5934L4.49927 8.0094C4.57939 7.81646 4.77456 7.68738 4.98755 7.68518C5.02236 7.68483 5.05664 7.68763 5.09009 7.69397L5.18774 7.72327L10.342 9.85901L10.3547 9.86389C10.8201 10.0493 11.3458 9.99206 11.76 9.71155L11.761 9.71057C12.1742 9.43006 12.4231 8.96332 12.4231 8.46155V1.9928C12.4231 1.7432 12.6085 1.52638 12.8459 1.4762L12.9504 1.46545Z" stroke="white" stroke-opacity="0.16" stroke-width="2"/>
</g>
<defs>
<clipPath id="clip0_19598_411">
<rect width="32" height="32" fill="white" transform="translate(0.5)"/>
</clipPath>
</defs>
</svg>
