<svg width="33" height="32" viewBox="0 0 33 32" fill="none" xmlns="http://www.w3.org/2000/svg">
<g clip-path="url(#clip0_19598_413)">
<path d="M16.5406 32C16.036 32 15.6094 31.6346 15.4872 31.145C15.0976 29.5845 14.3519 27.925 13.25 26.1667C11.9444 24.0555 10.0833 22.0973 7.66667 20.2917C5.56478 18.703 3.4629 17.6197 1.36102 17.0418C0.863208 16.905 0.5 16.4635 0.5 15.9472C0.5 15.4411 0.849237 15.0047 1.33596 14.8657C3.39672 14.2774 5.38195 13.3221 7.29166 12C9.48611 10.4722 11.3194 8.63888 12.7917 6.5C14.0941 4.59464 14.9881 2.71021 15.4738 0.846731C15.601 0.358552 16.0308 0 16.5354 0C17.0454 0 17.4782 0.366493 17.6024 0.861328C17.8827 1.97846 18.3208 3.12192 18.9166 4.29166C19.6667 5.73611 20.625 7.12499 21.7917 8.45834C22.9861 9.76389 24.3195 10.9444 25.7917 12C27.7155 13.3637 29.6712 14.3218 31.659 14.8742C32.1467 15.0097 32.5 15.4439 32.5 15.95C32.5 16.4637 32.136 16.9014 31.6406 17.0373C30.3806 17.3827 29.0837 17.9398 27.7501 18.7083C26.1389 19.6528 24.6389 20.7778 23.2499 22.0834C21.8611 23.3611 20.7222 24.7083 19.8333 26.125C18.7293 27.8869 17.9827 29.5592 17.5939 31.1422C17.4733 31.6333 17.0461 32 16.5406 32Z" fill="#4A96F8"/>
<path d="M16.5352 1C16.5453 1 16.5603 1.00243 16.5801 1.01855C16.6018 1.03633 16.6232 1.06609 16.6328 1.10449C16.9337 2.3037 17.4002 3.51766 18.0254 4.74512L18.0293 4.75293C18.8193 6.27421 19.8243 7.72895 21.0391 9.11719L21.0469 9.125L21.0537 9.13379C22.296 10.4916 23.682 11.7176 25.209 12.8125L25.2139 12.8154C27.2186 14.2364 29.2779 15.2504 31.3916 15.8379C31.43 15.8486 31.4601 15.8703 31.4785 15.8936C31.4956 15.9153 31.5 15.9345 31.5 15.9502C31.5 15.9656 31.495 15.9856 31.4756 16.0098C31.4545 16.0358 31.4203 16.0611 31.376 16.0732C30.0209 16.4448 28.6454 17.0383 27.251 17.8418L27.2441 17.8457C25.7767 18.7059 24.3991 19.7097 23.1113 20.8555L22.5654 21.3545C21.3035 22.5165 20.23 23.7424 19.3516 25.0342L18.9863 25.5938C17.8407 27.4221 17.0432 29.1929 16.623 30.9033C16.614 30.94 16.5939 30.9681 16.5742 30.9844C16.557 30.9986 16.5463 31 16.541 31C16.5358 31 16.5246 30.9991 16.5068 30.9844C16.487 30.968 16.4663 30.9395 16.457 30.9023C16.0885 29.4262 15.4331 27.8967 14.5098 26.3164L14.0977 25.6357C12.7137 23.3995 10.7589 21.3538 8.26465 19.4902C6.08386 17.8428 3.8709 16.6944 1.62598 16.0771C1.58179 16.065 1.54687 16.0406 1.52539 16.0137C1.50532 15.9884 1.50001 15.966 1.5 15.9473C1.5 15.9283 1.50556 15.9067 1.52344 15.8838C1.54231 15.8597 1.57222 15.8381 1.61035 15.8271C3.78476 15.2063 5.86922 14.2014 7.86133 12.8223L7.86328 12.8203C10.1532 11.226 12.0729 9.30801 13.6152 7.06738L13.6172 7.06445C14.972 5.08236 15.9215 3.09319 16.4414 1.09863C16.4509 1.06241 16.4706 1.03429 16.4912 1.01758C16.5101 1.00232 16.5248 1.00004 16.5352 1Z" stroke="white" stroke-opacity="0.16" stroke-width="2"/>
</g>
<defs>
<clipPath id="clip0_19598_413">
<rect width="32" height="32" fill="white" transform="translate(0.5)"/>
</clipPath>
</defs>
</svg>
