<svg width="398" height="400" viewBox="0 0 398 400" fill="none" xmlns="http://www.w3.org/2000/svg">
<g clip-path="url(#clip0_20640_707)">
<rect x="0.333374" width="397.333" height="400" rx="32" fill="url(#paint0_radial_20640_707)"/>
<rect y="240" width="397" height="160" fill="url(#paint1_linear_20640_707)"/>
<rect x="255.75" y="120.75" width="62.5" height="62.5" rx="15.25" fill="white" fill-opacity="0.8"/>
<rect x="255.75" y="120.75" width="62.5" height="62.5" rx="15.25" stroke="white" stroke-width="1.5"/>
<path d="M271 32.75H303C311.422 32.75 318.25 39.5777 318.25 48V80C318.25 88.4223 311.422 95.25 303 95.25H271C262.578 95.25 255.75 88.4223 255.75 80V48C255.75 39.5777 262.578 32.75 271 32.75Z" fill="#FFFEFC"/>
<path d="M271 32.75H303C311.422 32.75 318.25 39.5777 318.25 48V80C318.25 88.4223 311.422 95.25 303 95.25H271C262.578 95.25 255.75 88.4223 255.75 80V48C255.75 39.5777 262.578 32.75 271 32.75Z" stroke="#FFF4E4" stroke-width="1.5"/>
<path d="M271 208.75H303C311.422 208.75 318.25 215.578 318.25 224V256C318.25 264.422 311.422 271.25 303 271.25H271C262.578 271.25 255.75 264.422 255.75 256V224C255.75 215.578 262.578 208.75 271 208.75Z" fill="#FFFEFC"/>
<path d="M271 208.75H303C311.422 208.75 318.25 215.578 318.25 224V256C318.25 264.422 311.422 271.25 303 271.25H271C262.578 271.25 255.75 264.422 255.75 256V224C255.75 215.578 262.578 208.75 271 208.75Z" stroke="#FFF4E4" stroke-width="1.5"/>
<path d="M359 120.75H391C399.422 120.75 406.25 127.578 406.25 136V168C406.25 176.422 399.422 183.25 391 183.25H359C350.578 183.25 343.75 176.422 343.75 168V136C343.75 127.578 350.578 120.75 359 120.75Z" fill="#FFFEFC"/>
<path d="M359 120.75H391C399.422 120.75 406.25 127.578 406.25 136V168C406.25 176.422 399.422 183.25 391 183.25H359C350.578 183.25 343.75 176.422 343.75 168V136C343.75 127.578 350.578 120.75 359 120.75Z" stroke="#FFF4E4" stroke-width="1.5"/>
<rect x="343.75" y="32.75" width="62.5" height="62.5" rx="15.25" fill="white" fill-opacity="0.8"/>
<rect x="343.75" y="32.75" width="62.5" height="62.5" rx="15.25" stroke="white" stroke-width="1.5"/>
<path d="M359 208.75H391C399.422 208.75 406.25 215.578 406.25 224V256C406.25 264.422 399.422 271.25 391 271.25H359C350.578 271.25 343.75 264.422 343.75 256V224C343.75 215.578 350.578 208.75 359 208.75Z" fill="white" fill-opacity="0.8"/>
<path d="M359 208.75H391C399.422 208.75 406.25 215.578 406.25 224V256C406.25 264.422 399.422 271.25 391 271.25H359C350.578 271.25 343.75 264.422 343.75 256V224C343.75 215.578 350.578 208.75 359 208.75Z" stroke="white" stroke-width="1.5"/>
<path d="M95 120.75H127C135.422 120.75 142.25 127.578 142.25 136V168C142.25 176.422 135.422 183.25 127 183.25H95C86.5777 183.25 79.75 176.422 79.75 168V136C79.75 127.578 86.5777 120.75 95 120.75Z" fill="#FFFEFC"/>
<path d="M95 120.75H127C135.422 120.75 142.25 127.578 142.25 136V168C142.25 176.422 135.422 183.25 127 183.25H95C86.5777 183.25 79.75 176.422 79.75 168V136C79.75 127.578 86.5777 120.75 95 120.75Z" stroke="#FFF4E4" stroke-width="1.5"/>
<rect x="79.75" y="32.75" width="62.5" height="62.5" rx="15.25" fill="white" fill-opacity="0.8"/>
<rect x="79.75" y="32.75" width="62.5" height="62.5" rx="15.25" stroke="white" stroke-width="1.5"/>
<rect x="79.75" y="208.75" width="62.5" height="62.5" rx="15.25" fill="white" fill-opacity="0.8"/>
<rect x="79.75" y="208.75" width="62.5" height="62.5" rx="15.25" stroke="white" stroke-width="1.5"/>
<rect x="167.75" y="32.75" width="62.5" height="62.5" rx="15.25" fill="#FFFEFC"/>
<rect x="167.75" y="32.75" width="62.5" height="62.5" rx="15.25" stroke="#FFF4E4" stroke-width="1.5"/>
<path d="M183 208.75H215C223.422 208.75 230.25 215.578 230.25 224V256C230.25 264.422 223.422 271.25 215 271.25H183C174.578 271.25 167.75 264.422 167.75 256V224C167.75 215.578 174.578 208.75 183 208.75Z" fill="#FFFEFC"/>
<path d="M183 208.75H215C223.422 208.75 230.25 215.578 230.25 224V256C230.25 264.422 223.422 271.25 215 271.25H183C174.578 271.25 167.75 264.422 167.75 256V224C167.75 215.578 174.578 208.75 183 208.75Z" stroke="#FFF4E4" stroke-width="1.5"/>
<rect x="-8.25" y="120.75" width="62.5" height="62.5" rx="15.25" fill="white" fill-opacity="0.8"/>
<rect x="-8.25" y="120.75" width="62.5" height="62.5" rx="15.25" stroke="white" stroke-width="1.5"/>
<path d="M7 32.75H39C47.4223 32.75 54.25 39.5777 54.25 48V80C54.25 88.4223 47.4223 95.25 39 95.25H7C-1.42234 95.25 -8.25 88.4223 -8.25 80V48C-8.25 39.5777 -1.42234 32.75 7 32.75Z" fill="#FFFEFC"/>
<path d="M7 32.75H39C47.4223 32.75 54.25 39.5777 54.25 48V80C54.25 88.4223 47.4223 95.25 39 95.25H7C-1.42234 95.25 -8.25 88.4223 -8.25 80V48C-8.25 39.5777 -1.42234 32.75 7 32.75Z" stroke="#FFF4E4" stroke-width="1.5"/>
<rect x="-8.25" y="208.75" width="62.5" height="62.5" rx="15.25" fill="white" fill-opacity="0.8"/>
<rect x="-8.25" y="208.75" width="62.5" height="62.5" rx="15.25" stroke="white" stroke-width="1.5"/>
<g filter="url(#filter0_d_20640_707)">
<rect x="147" y="100" width="104" height="104" rx="24" fill="#4A96F8" shape-rendering="crispEdges"/>
<rect x="149" y="102" width="100" height="100" rx="22" stroke="white" stroke-opacity="0.2" stroke-width="4" shape-rendering="crispEdges"/>
<g filter="url(#filter1_d_20640_707)">
<path d="M191.188 137.938C191.188 135.865 192.011 133.878 193.476 132.413C194.941 130.948 196.928 130.125 199 130.125C201.072 130.125 203.059 130.948 204.524 132.413C205.989 133.878 206.813 135.865 206.813 137.938C206.813 140.01 205.989 141.997 204.524 143.462C203.059 144.927 201.072 145.75 199 145.75C196.928 145.75 194.941 144.927 193.476 143.462C192.011 141.997 191.188 140.01 191.188 137.938ZM194.313 148.875C193.069 148.875 191.877 149.369 190.998 150.248C190.119 151.127 189.625 152.319 189.625 153.562V161.375C189.625 163.861 190.613 166.246 192.371 168.004C194.129 169.762 196.514 170.75 199 170.75C201.486 170.75 203.871 169.762 205.629 168.004C207.387 166.246 208.375 163.861 208.375 161.375V153.562C208.375 152.319 207.881 151.127 207.002 150.248C206.123 149.369 204.931 148.875 203.688 148.875H194.313ZM186.675 151.906C186.558 152.451 186.499 153.006 186.5 153.562V161.375C186.5 163.048 186.835 164.703 187.486 166.244C188.137 167.784 189.091 169.178 190.291 170.344L189.978 170.431C187.577 171.074 185.019 170.736 182.867 169.493C180.715 168.251 179.144 166.204 178.5 163.803L177.284 159.272C177.125 158.677 177.085 158.057 177.165 157.447C177.245 156.836 177.445 156.248 177.753 155.715C178.061 155.182 178.471 154.715 178.959 154.34C179.448 153.965 180.005 153.69 180.6 153.531L186.675 151.906ZM207.706 170.344C208.907 169.179 209.861 167.785 210.512 166.244C211.164 164.703 211.5 163.048 211.5 161.375V153.562C211.498 152.992 211.44 152.44 211.325 151.906L217.397 153.531C217.992 153.69 218.55 153.965 219.038 154.34C219.527 154.715 219.937 155.183 220.245 155.716C220.553 156.249 220.753 156.838 220.833 157.449C220.913 158.06 220.872 158.68 220.713 159.275L219.5 163.803C219.174 165.018 218.607 166.156 217.833 167.147C217.059 168.139 216.092 168.964 214.992 169.575C213.892 170.185 212.68 170.568 211.429 170.7C210.178 170.832 208.91 170.711 207.706 170.344ZM177.125 142.625C177.125 140.967 177.783 139.378 178.956 138.206C180.128 137.033 181.717 136.375 183.375 136.375C185.033 136.375 186.622 137.033 187.794 138.206C188.967 139.378 189.625 140.967 189.625 142.625C189.625 144.283 188.967 145.872 187.794 147.044C186.622 148.217 185.033 148.875 183.375 148.875C181.717 148.875 180.128 148.217 178.956 147.044C177.783 145.872 177.125 144.283 177.125 142.625ZM208.375 142.625C208.375 140.967 209.033 139.378 210.206 138.206C211.378 137.033 212.967 136.375 214.625 136.375C216.283 136.375 217.872 137.033 219.044 138.206C220.217 139.378 220.875 140.967 220.875 142.625C220.875 144.283 220.217 145.872 219.044 147.044C217.872 148.217 216.283 148.875 214.625 148.875C212.967 148.875 211.378 148.217 210.206 147.044C209.033 145.872 208.375 144.283 208.375 142.625Z" fill="white"/>
</g>
</g>
</g>
<rect x="2.83337" y="2.5" width="392.333" height="395" rx="29.5" stroke="white" stroke-width="5"/>
<defs>
<filter id="filter0_d_20640_707" x="115" y="72" width="168" height="168" filterUnits="userSpaceOnUse" color-interpolation-filters="sRGB">
<feFlood flood-opacity="0" result="BackgroundImageFix"/>
<feColorMatrix in="SourceAlpha" type="matrix" values="0 0 0 0 0 0 0 0 0 0 0 0 0 0 0 0 0 0 127 0" result="hardAlpha"/>
<feOffset dy="4"/>
<feGaussianBlur stdDeviation="16"/>
<feComposite in2="hardAlpha" operator="out"/>
<feColorMatrix type="matrix" values="0 0 0 0 0 0 0 0 0 0 0 0 0 0 0 0 0 0 0.08 0"/>
<feBlend mode="normal" in2="BackgroundImageFix" result="effect1_dropShadow_20640_707"/>
<feBlend mode="normal" in="SourceGraphic" in2="effect1_dropShadow_20640_707" result="shape"/>
</filter>
<filter id="filter1_d_20640_707" x="145.125" y="102.125" width="107.75" height="104.627" filterUnits="userSpaceOnUse" color-interpolation-filters="sRGB">
<feFlood flood-opacity="0" result="BackgroundImageFix"/>
<feColorMatrix in="SourceAlpha" type="matrix" values="0 0 0 0 0 0 0 0 0 0 0 0 0 0 0 0 0 0 127 0" result="hardAlpha"/>
<feOffset dy="4"/>
<feGaussianBlur stdDeviation="16"/>
<feComposite in2="hardAlpha" operator="out"/>
<feColorMatrix type="matrix" values="0 0 0 0 0 0 0 0 0 0 0 0 0 0 0 0 0 0 0.08 0"/>
<feBlend mode="normal" in2="BackgroundImageFix" result="effect1_dropShadow_20640_707"/>
<feBlend mode="normal" in="SourceGraphic" in2="effect1_dropShadow_20640_707" result="shape"/>
</filter>
<radialGradient id="paint0_radial_20640_707" cx="0" cy="0" r="1" gradientUnits="userSpaceOnUse" gradientTransform="translate(199 400) rotate(-90) scale(299.638 297.64)">
<stop stop-color="white"/>
<stop offset="1" stop-color="#F5F8FF"/>
</radialGradient>
<linearGradient id="paint1_linear_20640_707" x1="198.5" y1="240" x2="198.5" y2="400" gradientUnits="userSpaceOnUse">
<stop stop-color="white" stop-opacity="0"/>
<stop offset="0.32" stop-color="white"/>
<stop offset="1" stop-color="white"/>
</linearGradient>
<clipPath id="clip0_20640_707">
<rect x="0.333374" width="397.333" height="400" rx="32" fill="white"/>
</clipPath>
</defs>
</svg>
