<svg width="57" height="56" viewBox="0 0 57 56" fill="none" xmlns="http://www.w3.org/2000/svg">
<g clip-path="url(#clip0_19598_244)">
<path d="M28.5711 56C27.6879 56 26.9414 55.3605 26.7276 54.5037C26.0459 51.7728 24.7408 48.8687 22.8125 45.7918C20.5278 42.0972 17.2708 38.6702 13.0417 35.5104C9.36337 32.7303 5.68507 30.8344 2.00679 29.8231C1.13561 29.5837 0.5 28.8112 0.5 27.9077C0.5 27.0218 1.11116 26.2583 1.96292 26.0151C5.56926 24.9854 9.04342 23.3137 12.3854 21C16.2257 18.3264 19.434 15.118 22.0104 11.375C24.2896 8.04062 25.8542 4.74286 26.7042 1.48178C26.9268 0.627466 27.6789 0 28.5619 0C29.4545 0 30.2119 0.641362 30.4292 1.50732C30.9198 3.46231 31.6864 5.46336 32.7291 7.51041C34.0418 10.0382 35.7187 12.4687 37.7604 14.8021C39.8506 17.0868 42.1842 19.1528 44.7604 21C48.1272 23.3865 51.5496 25.0631 55.0283 26.0299C55.8818 26.2671 56.5 27.0268 56.5 27.9125C56.5 28.8114 55.863 29.5775 54.9961 29.8152C52.7911 30.4198 50.5214 31.3947 48.1876 32.7396C45.368 34.3924 42.743 36.3611 40.3124 38.6459C37.882 40.882 35.8889 43.2396 34.3332 45.7187C32.4012 48.802 31.0948 51.7286 30.4144 54.4989C30.2032 55.3582 29.4556 56 28.5711 56Z" fill="#4A96F8"/>
<path d="M28.5615 2.2666C29.0945 4.29685 29.8929 6.34806 30.9473 8.41797L30.9502 8.4248L30.9541 8.43164C32.3466 11.1133 34.1169 13.6758 36.2549 16.1191L36.2695 16.1357L36.2852 16.1523C38.471 18.5416 40.9088 20.6991 43.5947 22.625L43.6035 22.6318C47.0892 25.1026 50.6745 26.8748 54.3574 27.917C51.9977 28.5755 49.6077 29.6133 47.1895 31.0068L47.1826 31.0107L47.1758 31.0137C44.2305 32.7402 41.4911 34.7949 38.958 37.1738C36.4131 39.5152 34.3002 42.0075 32.6387 44.6553V44.6572C30.7073 47.7396 29.3344 50.7365 28.5693 53.6436C27.8025 50.7751 26.432 47.8014 24.5068 44.7295C22.067 40.7876 18.6271 37.1889 14.2471 33.915H14.248C10.4287 31.0283 6.54517 29.0071 2.59863 27.9121C6.40072 26.8157 10.0433 25.0538 13.5234 22.6445L13.5283 22.6416C17.56 19.8347 20.9414 16.4558 23.6582 12.5088L23.6611 12.5039C25.9818 9.10888 27.6285 5.69522 28.5615 2.2666Z" stroke="white" stroke-opacity="0.16" stroke-width="4"/>
</g>
<defs>
<clipPath id="clip0_19598_244">
<rect width="56" height="56" fill="white" transform="translate(0.5)"/>
</clipPath>
</defs>
</svg>
