<svg width="32" height="32" viewBox="0 0 32 32" fill="none" xmlns="http://www.w3.org/2000/svg">
<path d="M8.66667 14.6667C6.95257 14.6667 5.27695 15.1749 3.85173 16.1273C2.4265 17.0796 1.31567 18.4331 0.659715 20.0167C0.00375513 21.6004 -0.167874 23.3429 0.166531 25.0241C0.500937 26.7053 1.32636 28.2495 2.53841 29.4616C3.75047 30.6736 5.29472 31.4991 6.97589 31.8335C8.65706 32.1679 10.3996 31.9962 11.9833 31.3403C13.5669 30.6843 14.9204 29.5735 15.8727 28.1483C16.825 26.723 17.3333 25.0474 17.3333 23.3333C17.3298 21.0359 16.4156 18.8335 14.791 17.209C13.1665 15.5844 10.9641 14.6702 8.66667 14.6667ZM13.0267 21.6133L9.16 26.7733C8.98829 27.0052 8.76814 27.1968 8.51485 27.335C8.26157 27.4731 7.98123 27.5545 7.69334 27.5733H7.56C7.02975 27.5729 6.52138 27.3618 6.14667 26.9867L4.14667 24.9867C3.97003 24.7971 3.87387 24.5464 3.87844 24.2873C3.88301 24.0282 3.98796 23.781 4.17118 23.5978C4.35439 23.4146 4.60157 23.3097 4.86064 23.3051C5.11971 23.3005 5.37044 23.3967 5.56 23.5733L7.29334 25.3333C7.32458 25.3677 7.36266 25.3952 7.40514 25.414C7.44762 25.4327 7.49355 25.4425 7.54 25.4425C7.58645 25.4425 7.63239 25.4327 7.67487 25.414C7.71735 25.3952 7.75543 25.3677 7.78667 25.3333L11.4267 20.48C11.5858 20.2678 11.8227 20.1275 12.0852 20.09C12.3478 20.0525 12.6145 20.1209 12.8267 20.28C13.0388 20.4391 13.1791 20.676 13.2166 20.9386C13.2541 21.2011 13.1858 21.4678 13.0267 21.68V21.6133ZM23.6667 15.3333V20C23.6667 20.2652 23.772 20.5196 23.9596 20.7071C24.1471 20.8946 24.4015 21 24.6667 21C24.9319 21 25.1862 20.8946 25.3738 20.7071C25.5613 20.5196 25.6667 20.2652 25.6667 20V15.3333C25.6667 15.0681 25.5613 14.8138 25.3738 14.6262C25.1862 14.4387 24.9319 14.3333 24.6667 14.3333C24.4015 14.3333 24.1471 14.4387 23.9596 14.6262C23.772 14.8138 23.6667 15.0681 23.6667 15.3333ZM18.3333 11.3333V6.66666C18.3333 6.40144 18.228 6.14709 18.0404 5.95955C17.8529 5.77201 17.5986 5.66666 17.3333 5.66666C17.0681 5.66666 16.8138 5.77201 16.6262 5.95955C16.4387 6.14709 16.3333 6.40144 16.3333 6.66666V11.3333C16.3333 11.5985 16.4387 11.8529 16.6262 12.0404C16.8138 12.228 17.0681 12.3333 17.3333 12.3333C17.5986 12.3333 17.8529 12.228 18.0404 12.0404C18.228 11.8529 18.3333 11.5985 18.3333 11.3333ZM27 10.6667V7.33332C27 6.8913 26.8244 6.46737 26.5119 6.15481C26.1993 5.84225 25.7754 5.66666 25.3333 5.66666H23.3333C22.8913 5.66666 22.4674 5.84225 22.1548 6.15481C21.8423 6.46737 21.6667 6.8913 21.6667 7.33332V10.6667C21.6667 11.1087 21.8423 11.5326 22.1548 11.8452C22.4674 12.1577 22.8913 12.3333 23.3333 12.3333H25.3333C25.7754 12.3333 26.1993 12.1577 26.5119 11.8452C26.8244 11.5326 27 11.1087 27 10.6667ZM25 9.99999C25 10.0884 24.9649 10.1732 24.9024 10.2357C24.8399 10.2982 24.7551 10.3333 24.6667 10.3333H24C23.9116 10.3333 23.8268 10.2982 23.7643 10.2357C23.7018 10.1732 23.6667 10.0884 23.6667 9.99999V7.99999C23.6667 7.91158 23.7018 7.8268 23.7643 7.76429C23.8268 7.70178 23.9116 7.66666 24 7.66666H24.6667C24.7551 7.66666 24.8399 7.70178 24.9024 7.76429C24.9649 7.8268 25 7.91158 25 7.99999V9.99999Z" fill="white"/>
<path d="M31.2133 4L28 0.786667C27.5022 0.285883 26.8261 0.00297705 26.12 0L10.6667 0C9.95942 0 9.28115 0.280952 8.78105 0.781049C8.28095 1.28115 8 1.95942 8 2.66667V12.3733C8.00303 12.4585 8.03734 12.5396 8.09637 12.6011C8.1554 12.6626 8.23501 12.7002 8.32 12.7067C8.81333 12.7067 9.65333 12.7067 10.3067 12.8133C10.3526 12.817 10.3989 12.8111 10.4424 12.796C10.486 12.781 10.526 12.757 10.5598 12.7257C10.5936 12.6943 10.6206 12.6563 10.639 12.614C10.6574 12.5718 10.6668 12.5261 10.6667 12.48V3.33333C10.6667 3.15652 10.7369 2.98695 10.8619 2.86193C10.987 2.7369 11.1565 2.66667 11.3333 2.66667H25.84C25.9274 2.6656 26.0141 2.68284 26.0945 2.71729C26.1749 2.75173 26.2471 2.80262 26.3067 2.86667L29.1333 5.69333C29.1974 5.75286 29.2483 5.82513 29.2827 5.9055C29.3172 5.98588 29.3344 6.07257 29.3333 6.16V24C29.3333 24.1768 29.2631 24.3464 29.1381 24.4714C29.013 24.5964 28.8435 24.6667 28.6667 24.6667H19.52C19.4424 24.6688 19.368 24.6979 19.3096 24.749C19.2511 24.8001 19.2124 24.87 19.2 24.9467C19.0772 25.6094 18.8988 26.2606 18.6667 26.8933C18.6467 26.9427 18.6393 26.9963 18.6453 27.0492C18.6512 27.1022 18.6703 27.1528 18.7007 27.1965C18.7312 27.2402 18.7721 27.2756 18.8197 27.2995C18.8673 27.3234 18.9201 27.335 18.9733 27.3333H29.3333C30.0406 27.3333 30.7189 27.0524 31.219 26.5523C31.719 26.0522 32 25.3739 32 24.6667V5.88C31.997 5.1739 31.7141 4.4978 31.2133 4Z" fill="white"/>
<path d="M19.2131 20.88C19.5379 20.7714 19.8206 20.5639 20.0215 20.2865C20.2223 20.0091 20.3313 19.6758 20.3331 19.3333V16C20.3331 15.558 20.1575 15.1341 19.845 14.8215C19.5324 14.5089 19.1085 14.3333 18.6665 14.3333H16.6665C16.4345 14.3335 16.2054 14.385 15.9956 14.4842C15.7858 14.5833 15.6006 14.7276 15.4531 14.9067C15.4531 14.9067 15.4531 15.1067 15.4531 15.1467C15.9414 15.545 16.3882 15.9917 16.7865 16.48C16.8531 16.5467 16.9598 16.64 16.9598 16.48C16.9598 16.32 16.9598 16.2933 17.1065 16.2933H17.9598C18.0482 16.2933 18.133 16.3285 18.1955 16.391C18.258 16.4535 18.2931 16.5383 18.2931 16.6267V18.7467C18.2875 18.7909 18.2875 18.8357 18.2931 18.88C18.5658 19.4665 18.7802 20.0783 18.9331 20.7067C18.9537 20.7627 18.9924 20.8103 19.0432 20.8417C19.0939 20.8732 19.1538 20.8866 19.2131 20.88Z" fill="white"/>
</svg>
