<svg width="32" height="32" viewBox="0 0 32 32" fill="none" xmlns="http://www.w3.org/2000/svg">
<path d="M15.5467 23.64L16.24 22.3067C16.2961 22.2069 16.3255 22.0944 16.3255 21.98C16.3255 21.8656 16.2961 21.7531 16.24 21.6533C16.1802 21.5551 16.0959 21.4739 15.9955 21.4179C15.895 21.3618 15.7817 21.3327 15.6667 21.3333H14C13.8232 21.3333 13.6536 21.2631 13.5286 21.1381C13.4036 21.013 13.3333 20.8435 13.3333 20.6667V20C13.3333 19.8232 13.4036 19.6536 13.5286 19.5286C13.6536 19.4036 13.8232 19.3333 14 19.3333H17.4C17.5235 19.3348 17.6451 19.3019 17.751 19.2384C17.857 19.1748 17.9432 19.083 18 18.9733L19.6533 15.8267C19.6792 15.7749 19.6926 15.7178 19.6926 15.66C19.6926 15.6022 19.6792 15.5451 19.6533 15.4933C19.6223 15.4467 19.5809 15.408 19.5323 15.3802C19.4836 15.3525 19.4292 15.3364 19.3733 15.3333H3.33333C3.15652 15.3333 2.98695 15.2631 2.86193 15.1381C2.7369 15.013 2.66667 14.8435 2.66667 14.6667V3.33333C2.66667 3.15652 2.7369 2.98695 2.86193 2.86193C2.98695 2.7369 3.15652 2.66667 3.33333 2.66667H20.6667C20.8435 2.66667 21.013 2.7369 21.1381 2.86193C21.2631 2.98695 21.3333 3.15652 21.3333 3.33333V12.8667C21.3343 12.97 21.3589 13.0717 21.4051 13.1641C21.4513 13.2565 21.518 13.3372 21.6 13.4C21.6853 13.4623 21.7837 13.5043 21.8877 13.5228C21.9916 13.5413 22.0985 13.5358 22.2 13.5067C22.5661 13.3887 22.9487 13.3302 23.3333 13.3333C23.5091 13.3299 23.6767 13.2586 23.801 13.1343C23.9253 13.01 23.9966 12.8424 24 12.6667V2.66667C24 1.95942 23.719 1.28115 23.219 0.781049C22.7189 0.280952 22.0406 0 21.3333 0L2.66667 0C1.95942 0 1.28115 0.280952 0.781049 0.781049C0.280952 1.28115 0 1.95942 0 2.66667L0 16.6667C0 17.3739 0.280952 18.0522 0.781049 18.5523C1.28115 19.0524 1.95942 19.3333 2.66667 19.3333H10C10.1768 19.3333 10.3464 19.4036 10.4714 19.5286C10.5964 19.6536 10.6667 19.8232 10.6667 20V20.6667C10.6667 20.8435 10.5964 21.013 10.4714 21.1381C10.3464 21.2631 10.1768 21.3333 10 21.3333H6.66667C6.31305 21.3333 5.97391 21.4738 5.72386 21.7239C5.47381 21.9739 5.33333 22.313 5.33333 22.6667C5.33333 23.0203 5.47381 23.3594 5.72386 23.6095C5.97391 23.8595 6.31305 24 6.66667 24H14.96C15.0813 23.999 15.2 23.965 15.3034 23.9016C15.4068 23.8381 15.4909 23.7477 15.5467 23.64ZM31.7867 29.2133L25.04 16.36C24.8752 16.0504 24.6294 15.7915 24.3287 15.6109C24.0281 15.4304 23.684 15.335 23.3333 15.335C22.9826 15.335 22.6386 15.4304 22.3379 15.6109C22.0373 15.7915 21.7914 16.0504 21.6267 16.36L14.88 29.2133C14.7282 29.5051 14.6544 29.8312 14.6659 30.1599C14.6774 30.4886 14.7737 30.8087 14.9454 31.0892C15.1172 31.3697 15.3586 31.601 15.6462 31.7605C15.9338 31.9201 16.2578 32.0026 16.5867 32H30.08C30.4091 31.9989 30.7324 31.9138 31.0194 31.7528C31.3064 31.5918 31.5475 31.3602 31.72 31.08C31.8903 30.8007 31.9859 30.4823 31.9976 30.1554C32.0092 29.8285 31.9366 29.5041 31.7867 29.2133ZM23.3333 29.6667C23.0696 29.6667 22.8118 29.5885 22.5926 29.442C22.3733 29.2955 22.2024 29.0872 22.1015 28.8436C22.0006 28.5999 21.9742 28.3319 22.0256 28.0732C22.0771 27.8146 22.2041 27.577 22.3905 27.3905C22.577 27.2041 22.8146 27.0771 23.0732 27.0256C23.3319 26.9742 23.5999 27.0006 23.8436 27.1015C24.0872 27.2024 24.2955 27.3733 24.442 27.5926C24.5885 27.8118 24.6667 28.0696 24.6667 28.3333C24.6667 28.687 24.5262 29.0261 24.2761 29.2761C24.0261 29.5262 23.687 29.6667 23.3333 29.6667ZM24.6667 25C24.6667 25.2652 24.5613 25.5196 24.3738 25.7071C24.1862 25.8946 23.9319 26 23.6667 26C23.4015 26 23.1471 25.8946 22.9596 25.7071C22.772 25.5196 22.6667 25.2652 22.6667 25V21C22.6667 20.7348 22.772 20.4804 22.9596 20.2929C23.1471 20.1054 23.4015 20 23.6667 20C23.9319 20 24.1862 20.1054 24.3738 20.2929C24.5613 20.4804 24.6667 20.7348 24.6667 21V25Z" fill="white"/>
</svg>
