<svg width="48" height="48" viewBox="0 0 48 48" fill="none" xmlns="http://www.w3.org/2000/svg">
<path d="M11.1996 25.5999H9.59961V22.3999H11.1996C11.624 22.3999 12.0309 22.5685 12.331 22.8685C12.631 23.1686 12.7996 23.5756 12.7996 23.9999C12.7996 24.4242 12.631 24.8312 12.331 25.1313C12.0309 25.4313 11.624 25.5999 11.1996 25.5999ZM22.3996 31.9999V22.3999H23.9996C24.424 22.3999 24.8309 22.5685 25.131 22.8685C25.431 23.1686 25.5996 23.5756 25.5996 23.9999V30.3999C25.5996 30.8242 25.431 31.2312 25.131 31.5313C24.8309 31.8313 24.424 31.9999 23.9996 31.9999H22.3996Z" fill="white"/>
<path fill-rule="evenodd" clip-rule="evenodd" d="M3.19922 4.8C3.19922 3.52696 3.70493 2.30606 4.60511 1.40589C5.50528 0.505713 6.72618 0 7.99922 0L34.2616 0L44.7992 10.5376V43.2C44.7992 44.473 44.2935 45.6939 43.3933 46.5941C42.4932 47.4943 41.2723 48 39.9992 48H7.99922C6.72618 48 5.50528 47.4943 4.60511 46.5941C3.70493 45.6939 3.19922 44.473 3.19922 43.2V4.8ZM11.1992 19.2H6.39922V35.2H9.59922V28.8H11.1992C12.4723 28.8 13.6932 28.2943 14.5933 27.3941C15.4935 26.4939 15.9992 25.273 15.9992 24C15.9992 22.727 15.4935 21.5061 14.5933 20.6059C13.6932 19.7057 12.4723 19.2 11.1992 19.2ZM23.9992 19.2H19.1992V35.2H23.9992C25.2723 35.2 26.4932 34.6943 27.3933 33.7941C28.2935 32.8939 28.7992 31.673 28.7992 30.4V24C28.7992 22.727 28.2935 21.5061 27.3933 20.6059C26.4932 19.7057 25.2723 19.2 23.9992 19.2ZM31.9992 35.2V19.2H41.5992V22.4H35.1992V25.6H38.3992V28.8H35.1992V35.2H31.9992Z" fill="white"/>
</svg>
