<svg width="19" height="38" viewBox="0 0 19 38" fill="none" xmlns="http://www.w3.org/2000/svg">
<path d="M17.9856 35.8901C18.2414 35.9996 18.6221 36.1817 19 36.3523V37.0188C18.6434 36.8968 18.2879 36.7708 17.94 36.6235C14.2525 35.0647 10.7152 32.69 8.24949 29.4918C5.07065 25.3693 3.31508 19.9223 4.00491 14.7108C4.54746 10.6135 6.62083 6.57722 9.93336 4.04172L10.349 4.39147C10.101 4.66663 9.79578 4.88947 9.51675 5.13265C9.15053 5.45431 8.80173 5.79341 8.46942 6.14996C6.62277 8.0935 5.52311 10.5961 4.87978 13.1694C4.69182 13.9202 4.60173 14.6856 4.52809 15.4549C4.13182 19.5483 5.21405 23.4819 7.32519 26.9843C9.79676 31.0875 13.6218 34.028 17.9856 35.8901Z" fill="#172840"/>
<path d="M4.61419 28.2695C4.62112 28.2686 4.62803 28.2674 4.63499 28.267C5.6725 28.1811 6.59641 28.4969 7.40299 29.1508C7.76534 29.4446 8.33696 30.0005 8.36788 30.4859C8.3764 30.6204 8.33455 30.7284 8.24367 30.8275C8.06075 31.0273 7.70983 31.0685 7.45735 31.08C5.86425 30.8812 4.65868 29.7672 3.61157 28.6334C3.9444 28.4323 4.23051 28.3257 4.61419 28.2695Z" fill="#172840"/>
<path d="M13.7622 35.3919C14.0324 35.3584 14.328 35.3734 14.5926 35.4325C15.2227 35.5734 15.7802 35.8943 16.1378 36.4402C16.0191 36.6593 15.8887 36.856 15.7054 37.0274C15.1103 37.5842 14.3361 37.5702 13.5771 37.5532C12.7048 37.4313 11.9257 37.2347 11.1072 36.9094C11.7816 36.0564 12.6907 35.5581 13.7622 35.3919Z" fill="#172840"/>
<path d="M8.92479 32.3367C9.06095 32.3274 9.1972 32.3262 9.33356 32.3331C9.46984 32.3399 9.60526 32.3547 9.7398 32.3775C9.87441 32.4004 10.0072 32.4311 10.1381 32.4698C10.269 32.5083 10.3972 32.5545 10.5227 32.6082C11.2479 32.9216 11.7888 33.4872 12.0833 34.2166C11.4933 34.6663 10.9564 34.6682 10.2483 34.6477C9.04746 34.4524 7.99344 33.8801 6.9834 33.2239C7.54862 32.7564 8.20192 32.4601 8.92479 32.3367Z" fill="#172840"/>
<path d="M14.8483 30.4348C15.0639 30.5388 15.2748 30.7711 15.46 30.9276C16.1503 31.5111 16.8431 32.0501 17.3151 32.836C17.7065 33.4877 18.0333 34.4359 17.8471 35.1989C17.7519 35.1967 17.6576 35.1862 17.5643 35.1674C16.775 35.016 15.9897 34.4382 15.5467 33.7784C14.9328 32.8643 14.6359 31.5184 14.8483 30.4348Z" fill="#172840"/>
<path d="M15.1279 1.29402C15.3622 1.26835 15.6051 1.28191 15.8407 1.28317C15.5842 1.69668 15.2464 2.0851 14.9051 2.43002C14.0235 3.32127 12.8944 4.04278 11.6103 4.04937C11.4125 4.02505 11.2206 3.99328 11.0552 3.87381C10.9551 3.80143 10.8692 3.70165 10.8641 3.57143C10.8529 3.29037 11.1378 2.95911 11.3159 2.7601C12.309 1.64979 13.7122 1.37851 15.1279 1.29402Z" fill="#172840"/>
<path d="M9.67803 24.4113L9.74682 24.4529C10.2612 25.6471 10.7557 26.9969 10.5574 28.3186C10.4985 28.7108 10.3684 29.3919 10.0104 29.614C9.88043 29.6945 9.80447 29.6835 9.66283 29.6612C9.11057 29.1459 8.68321 28.3562 8.59204 27.6028C8.45301 26.4533 8.99673 25.3011 9.67803 24.4113Z" fill="#172840"/>
<path d="M2.25377 23.6277C2.91573 23.654 3.53775 23.7479 4.11981 24.0835C5.04144 24.6147 5.64721 25.7535 5.91491 26.7498C5.7285 26.814 5.53492 26.8608 5.34493 26.9133C5.04606 26.9087 4.74967 26.8653 4.46904 26.7597C3.25078 26.3012 2.16624 24.8247 1.63123 23.685L2.25377 23.6277Z" fill="#172840"/>
<path d="M0.93261 13.0075C1.5824 13.1468 2.20677 13.5715 2.63559 14.0703C3.47946 15.0517 3.64867 16.2232 3.56102 17.4834C3.41787 17.4978 3.25868 17.5216 3.11599 17.5059C2.6485 17.4547 2.2056 16.9891 1.93437 16.6321C1.251 15.7327 0.776289 14.1336 0.93261 13.0075Z" fill="#172840"/>
<path d="M12.0062 27.4069C12.0203 27.4141 12.0357 27.4193 12.0487 27.4283C12.4079 27.6739 13.2014 29.5862 13.3359 30.1002C13.4724 30.6221 13.6692 32.0934 13.3251 32.5273C13.2315 32.6453 13.1831 32.6305 13.042 32.6426C12.9744 32.6129 12.9085 32.5835 12.8439 32.5476C12.1977 32.1888 11.7766 31.5715 11.5798 30.8703C11.2696 29.7655 11.4528 28.4064 12.0062 27.4069Z" fill="#172840"/>
<path d="M0.672119 18.4794C0.712803 18.4777 0.753504 18.4764 0.794224 18.4754C1.61656 18.4564 2.46447 18.764 3.05487 19.3437C3.77651 20.0522 4.09945 21.2509 4.10985 22.2344C3.65021 22.282 3.23062 22.1842 2.83905 21.9365C1.93432 21.3644 0.921794 19.52 0.672119 18.4794Z" fill="#172840"/>
<path d="M9.98611 0.441162L10.0707 0.499584C10.299 1.15725 10.04 2.54709 9.79737 3.19369C9.57705 3.78092 9.07625 4.76654 8.46974 5.01302C8.27655 5.0916 8.13325 5.04257 7.95324 4.96545C7.92234 4.92989 7.89085 4.89482 7.86323 4.85675C7.628 4.53237 7.59273 4.13446 7.65067 3.74789C7.855 2.3845 8.90854 1.21606 9.98611 0.441162Z" fill="#172840"/>
<path d="M5.62328 3.98148C5.67686 4.01461 5.70651 4.03079 5.75378 4.06644C6.16768 4.37929 6.34372 5.19768 6.40359 5.69316C6.51268 6.59691 6.3285 7.91824 5.73837 8.63462C5.62772 8.769 5.59701 8.80552 5.42185 8.82054C5.37418 8.79495 5.32767 8.76747 5.28233 8.73809C4.87101 8.47611 4.63055 8.06405 4.53435 7.59086C4.27512 6.31575 4.93655 5.00586 5.62328 3.98148Z" fill="#172840"/>
<path d="M7.88733 13.6764C7.95738 13.6992 7.92026 13.6773 7.97608 13.7701C7.88238 14.5968 7.38933 15.6426 6.91972 16.3192C6.41253 17.05 5.73917 17.5116 4.8597 17.6695C4.80544 17.6031 4.77559 17.5619 4.75023 17.4777C4.60722 17.0026 4.88762 16.0578 5.11485 15.6245C5.67135 14.5633 6.78845 14.0185 7.88733 13.6764Z" fill="#172840"/>
<path d="M2.75244 8.12048C3.47986 8.5897 4.01334 9.4546 4.23943 10.2783C4.45503 11.0639 4.40784 12.0881 4.00173 12.8058C3.86067 12.8056 3.71138 12.8104 3.57554 12.7674C3.2091 12.6514 2.93469 12.3187 2.7691 11.9867C2.17776 10.8014 2.35716 9.33252 2.75244 8.12048Z" fill="#172840"/>
<path d="M8.23719 21.1254L8.31596 21.1487C8.38601 21.2516 8.38727 21.3569 8.39918 21.4765C8.53153 22.803 8.56805 24.5505 7.63979 25.6343C7.54669 25.743 7.41976 25.865 7.26485 25.8548C7.11138 25.8448 7.07233 25.7513 6.98571 25.6432C6.61823 25.0851 6.41748 24.4738 6.46737 23.7988C6.5533 22.6372 7.42276 21.8487 8.23719 21.1254Z" fill="#172840"/>
<path d="M7.42182 17.3501L7.4846 17.4002C7.65579 18.1292 7.37453 19.6133 7.05801 20.2959C6.80184 20.8486 6.21035 21.6872 5.60122 21.8805C5.49146 21.9154 5.47441 21.8984 5.37752 21.8494C5.19566 21.2638 5.07642 20.6144 5.18704 20.0034C5.40804 18.7837 6.45605 17.9944 7.42182 17.3501Z" fill="#172840"/>
<path d="M9.00972 7.38599C9.72416 7.32825 10.4425 7.3607 11.1404 7.53065C11.0561 7.63573 10.9687 7.73817 10.8782 7.83797C10.7877 7.93776 10.6942 8.03471 10.5978 8.12882C10.5014 8.22292 10.4022 8.31403 10.3002 8.40213C10.1983 8.49024 10.0938 8.57517 9.98673 8.65694C9.87964 8.73871 9.77015 8.81715 9.65828 8.89228C9.54647 8.96734 9.43244 9.03896 9.31617 9.10717C9.19997 9.17538 9.08181 9.23997 8.96167 9.30095C8.84159 9.36198 8.71974 9.41931 8.59612 9.47292C7.85891 9.70341 7.24378 9.7164 6.52527 9.40481C6.5929 9.26791 6.6673 9.13643 6.74694 9.00622C7.29289 8.11389 7.99813 7.62937 9.00972 7.38599Z" fill="#172840"/>
<path d="M10.9285 4.82346C12.0149 4.73801 12.9479 4.99708 13.8296 5.64438C13.1904 6.05071 12.5119 6.30398 11.7902 6.52391C11.022 6.66982 10.1706 6.63097 9.4209 6.40348C9.24059 6.34874 9.08741 6.29361 8.99353 6.11902C9.00089 5.99491 9.0035 5.94724 9.07734 5.84154C9.43959 5.32243 10.3284 4.92907 10.9285 4.82346Z" fill="#172840"/>
<path d="M8.34988 10.4951C8.61331 10.4571 8.89322 10.4701 9.15946 10.4654C9.09894 10.6058 9.03196 10.743 8.95852 10.877C8.35056 11.9815 7.35913 12.9758 6.13149 13.3362C5.91737 13.3741 5.61635 13.4399 5.42161 13.3131C5.31561 13.2441 5.27482 13.143 5.25932 13.0222C5.21146 12.6505 5.61024 12.0727 5.83066 11.7846C6.47086 10.948 7.33344 10.6234 8.34988 10.4951Z" fill="#172840"/>
</svg>
