<svg width="19" height="38" viewBox="0 0 19 38" fill="none" xmlns="http://www.w3.org/2000/svg">
<path d="M1.01443 35.8901C0.758644 35.9996 0.377883 36.1817 2.95639e-05 36.3523V37.0188C0.356565 36.8968 0.712135 36.7708 1.05997 36.6235C4.74745 35.0647 8.28476 32.69 10.7505 29.4918C13.9293 25.3693 15.6849 19.9223 14.9951 14.7108C14.4525 10.6135 12.3792 6.57722 9.06664 4.04172L8.651 4.39147C8.89903 4.66663 9.20422 4.88947 9.48325 5.13265C9.84947 5.45431 10.1983 5.79341 10.5306 6.14996C12.3772 8.0935 13.4769 10.5961 14.1202 13.1694C14.3082 13.9202 14.3983 14.6856 14.4719 15.4549C14.8682 19.5483 13.786 23.4819 11.6748 26.9843C9.20324 31.0875 5.37819 34.028 1.01443 35.8901Z" fill="#172840"/>
<path d="M14.3858 28.2695C14.3789 28.2686 14.372 28.2674 14.365 28.267C13.3275 28.1811 12.4036 28.4969 11.597 29.1508C11.2347 29.4446 10.663 30.0005 10.6321 30.4859C10.6236 30.6204 10.6655 30.7284 10.7563 30.8275C10.9393 31.0273 11.2902 31.0685 11.5427 31.08C13.1358 30.8812 14.3413 29.7672 15.3884 28.6334C15.0556 28.4323 14.7695 28.3257 14.3858 28.2695Z" fill="#172840"/>
<path d="M5.23785 35.3919C4.96764 35.3584 4.67204 35.3734 4.40744 35.4325C3.77729 35.5734 3.21981 35.8943 2.86221 36.4402C2.98089 36.6593 3.1113 36.856 3.29461 37.0274C3.88968 37.5842 4.6639 37.5702 5.4229 37.5532C6.29517 37.4313 7.07433 37.2347 7.89282 36.9094C7.21839 36.0564 6.30931 35.5581 5.23785 35.3919Z" fill="#172840"/>
<path d="M10.0752 32.3367C9.93905 32.3274 9.8028 32.3262 9.66644 32.3331C9.53016 32.3399 9.39474 32.3547 9.2602 32.3775C9.12559 32.4004 8.99282 32.4311 8.86189 32.4698C8.73097 32.5083 8.60279 32.5545 8.47735 32.6082C7.75206 32.9216 7.21125 33.4872 6.91671 34.2166C7.50675 34.6663 8.0436 34.6682 8.75173 34.6477C9.95254 34.4524 11.0066 33.8801 12.0166 33.2239C11.4514 32.7564 10.7981 32.4601 10.0752 32.3367Z" fill="#172840"/>
<path d="M4.15169 30.4348C3.93611 30.5388 3.7252 30.7711 3.54005 30.9276C2.84973 31.5111 2.15691 32.0501 1.68487 32.836C1.29345 33.4877 0.966657 34.4359 1.15287 35.1989C1.24808 35.1967 1.34236 35.1862 1.43568 35.1674C2.22502 35.016 3.01028 34.4382 3.45333 33.7784C4.0672 32.8643 4.36406 31.5184 4.15169 30.4348Z" fill="#172840"/>
<path d="M3.87215 1.29402C3.63778 1.26835 3.39489 1.28191 3.15926 1.28317C3.41582 1.69668 3.75356 2.0851 4.0949 2.43002C4.97647 3.32127 6.10557 4.04278 7.3897 4.04937C7.58754 4.02505 7.77938 3.99328 7.94476 3.87381C8.04494 3.80143 8.13078 3.70165 8.13591 3.57143C8.14705 3.29037 7.86221 2.95911 7.68414 2.7601C6.69096 1.64979 5.28776 1.37851 3.87215 1.29402Z" fill="#172840"/>
<path d="M9.32197 24.4113L9.25318 24.4529C8.73881 25.6471 8.24431 26.9969 8.44263 28.3186C8.50153 28.7108 8.63155 29.3919 8.98965 29.614C9.11957 29.6945 9.19553 29.6835 9.33717 29.6612C9.88943 29.1459 10.3168 28.3562 10.408 27.6028C10.547 26.4533 10.0033 25.3011 9.32197 24.4113Z" fill="#172840"/>
<path d="M16.7462 23.6277C16.0843 23.654 15.4623 23.7479 14.8802 24.0835C13.9586 24.6147 13.3528 25.7535 13.0851 26.7498C13.2715 26.814 13.4651 26.8608 13.6551 26.9133C13.9539 26.9087 14.2503 26.8653 14.531 26.7597C15.7492 26.3012 16.8338 24.8247 17.3688 23.685L16.7462 23.6277Z" fill="#172840"/>
<path d="M18.0674 13.0075C17.4176 13.1468 16.7932 13.5715 16.3644 14.0703C15.5205 15.0517 15.3513 16.2232 15.439 17.4834C15.5821 17.4978 15.7413 17.5216 15.884 17.5059C16.3515 17.4547 16.7944 16.9891 17.0656 16.6321C17.749 15.7327 18.2237 14.1336 18.0674 13.0075Z" fill="#172840"/>
<path d="M6.99381 27.4069C6.97966 27.4141 6.96435 27.4193 6.95127 27.4283C6.59211 27.6739 5.79862 29.5862 5.66414 30.1002C5.52762 30.6221 5.33075 32.0934 5.67489 32.5273C5.76848 32.6453 5.81692 32.6305 5.95799 32.6426C6.02562 32.6129 6.0915 32.5835 6.15612 32.5476C6.80226 32.1888 7.22343 31.5715 7.4202 30.8703C7.73043 29.7655 7.54722 28.4064 6.99381 27.4069Z" fill="#172840"/>
<path d="M18.3279 18.4794C18.2872 18.4777 18.2465 18.4764 18.2058 18.4754C17.3834 18.4564 16.5355 18.764 15.9451 19.3437C15.2235 20.0522 14.9006 21.2509 14.8902 22.2344C15.3498 22.282 15.7694 22.1842 16.161 21.9365C17.0657 21.3644 18.0782 19.52 18.3279 18.4794Z" fill="#172840"/>
<path d="M9.01389 0.441162L8.92931 0.499584C8.70095 1.15725 8.96002 2.54709 9.20263 3.19369C9.42295 3.78092 9.92375 4.76654 10.5303 5.01302C10.7235 5.0916 10.8667 5.04257 11.0468 4.96545C11.0777 4.92989 11.1092 4.89482 11.1368 4.85675C11.372 4.53237 11.4073 4.13446 11.3493 3.74789C11.145 2.3845 10.0915 1.21606 9.01389 0.441162Z" fill="#172840"/>
<path d="M13.3767 3.98148C13.3231 4.01461 13.2935 4.03079 13.2462 4.06644C12.8323 4.37929 12.6563 5.19768 12.5964 5.69316C12.4873 6.59691 12.6715 7.91824 13.2616 8.63462C13.3723 8.769 13.403 8.80552 13.5782 8.82054C13.6258 8.79495 13.6723 8.76747 13.7177 8.73809C14.129 8.47611 14.3695 8.06405 14.4657 7.59086C14.7249 6.31575 14.0635 5.00586 13.3767 3.98148Z" fill="#172840"/>
<path d="M11.1127 13.6764C11.0426 13.6992 11.0797 13.6773 11.0239 13.7701C11.1176 14.5968 11.6107 15.6426 12.0803 16.3192C12.5875 17.05 13.2608 17.5116 14.1403 17.6695C14.1946 17.6031 14.2244 17.5619 14.2498 17.4777C14.3928 17.0026 14.1124 16.0578 13.8852 15.6245C13.3286 14.5633 12.2116 14.0185 11.1127 13.6764Z" fill="#172840"/>
<path d="M16.2476 8.12048C15.5201 8.5897 14.9867 9.4546 14.7606 10.2783C14.545 11.0639 14.5922 12.0881 14.9983 12.8058C15.1393 12.8056 15.2886 12.8104 15.4245 12.7674C15.7909 12.6514 16.0653 12.3187 16.2309 11.9867C16.8222 10.8014 16.6428 9.33252 16.2476 8.12048Z" fill="#172840"/>
<path d="M10.7628 21.1254L10.684 21.1487C10.614 21.2516 10.6127 21.3569 10.6008 21.4765C10.4685 22.803 10.4319 24.5505 11.3602 25.6343C11.4533 25.743 11.5802 25.865 11.7352 25.8548C11.8886 25.8448 11.9277 25.7513 12.0143 25.6432C12.3818 25.0851 12.5825 24.4738 12.5326 23.7988C12.4467 22.6372 11.5772 21.8487 10.7628 21.1254Z" fill="#172840"/>
<path d="M11.5782 17.3501L11.5154 17.4002C11.3442 18.1292 11.6255 19.6133 11.942 20.2959C12.1982 20.8486 12.7896 21.6872 13.3988 21.8805C13.5085 21.9154 13.5256 21.8984 13.6225 21.8494C13.8043 21.2638 13.9236 20.6144 13.813 20.0034C13.592 18.7837 12.5439 17.9944 11.5782 17.3501Z" fill="#172840"/>
<path d="M9.99028 7.38599C9.27584 7.32825 8.55753 7.3607 7.85956 7.53065C7.94386 7.63573 8.03128 7.73817 8.12184 7.83797C8.21233 7.93776 8.30579 8.03471 8.40222 8.12882C8.49859 8.22292 8.59777 8.31403 8.69975 8.40213C8.80168 8.49024 8.90618 8.57517 9.01327 8.65694C9.12036 8.73871 9.22985 8.81715 9.34172 8.89228C9.45353 8.96734 9.56756 9.03896 9.68383 9.10717C9.80003 9.17538 9.91819 9.23997 10.0383 9.30095C10.1584 9.36198 10.2803 9.41931 10.4039 9.47292C11.1411 9.70341 11.7562 9.7164 12.4747 9.40481C12.4071 9.26791 12.3327 9.13643 12.2531 9.00622C11.7071 8.11389 11.0019 7.62937 9.99028 7.38599Z" fill="#172840"/>
<path d="M8.07146 4.82346C6.98507 4.73801 6.05206 4.99708 5.1704 5.64438C5.80955 6.05071 6.48805 6.30398 7.20976 6.52391C7.97797 6.66982 8.8294 6.63097 9.5791 6.40348C9.75941 6.34874 9.91259 6.29361 10.0065 6.11902C9.99911 5.99491 9.9965 5.94724 9.92266 5.84154C9.56041 5.32243 8.67158 4.92907 8.07146 4.82346Z" fill="#172840"/>
<path d="M10.6501 10.4951C10.3867 10.4571 10.1068 10.4701 9.84054 10.4654C9.90106 10.6058 9.96804 10.743 10.0415 10.877C10.6494 11.9815 11.6409 12.9758 12.8685 13.3362C13.0826 13.3741 13.3837 13.4399 13.5784 13.3131C13.6844 13.2441 13.7252 13.143 13.7407 13.0222C13.7885 12.6505 13.3898 12.0727 13.1693 11.7846C12.5291 10.948 11.6666 10.6234 10.6501 10.4951Z" fill="#172840"/>
</svg>
